<?xml version="1.0" encoding="utf-8"?>
<!-- Generator: Adobe Illustrator 22.1.0, SVG Export Plug-In . SVG Version: 6.00 Build 0)  -->
<svg version="1.1" id="Layer_1" xmlns="http://www.w3.org/2000/svg" xmlns:xlink="http://www.w3.org/1999/xlink" x="0px" y="0px"
	 viewBox="0 0 300.5 821.3" style="enable-background:new 0 0 300.5 821.3;" xml:space="preserve">
<style type="text/css">
	.st0{fill:#0E131A;}
	.st1{fill:#22366B;}
	.st2{fill:#18294C;}
	.st3{fill:#CFCFCF;}
	.st4{fill:#43362C;}
	.st5{fill:#22AA66;}
	.st6{fill:#24BF77;}
	.st7{fill:#FCAE88;}
	.st8{opacity:0.32;fill:#B06D4D;enable-background:new    ;}
	.st9{fill:#F8BA8C;}
	.st10{fill:#1E3144;}
	.st11{fill:#FFFFFF;}
	.st12{fill:#DB7269;}
	.st13{fill:#FFC5B6;}
	.st14{fill:#24AA63;}
	.st15{fill:#209E5F;}
	.st16{fill:#F7E88F;}
	.st17{fill:#F2D453;}
</style>
<g id="BACKGROUND">
</g>
<g>
	<g id="OBJECT">
		<g>
			<g>
				<g id="doctor_13_">
					<g>
						<g>
							<polygon class="st0" points="201.4,756.9 202.7,723.7 184.9,723.7 183.5,756.9 							"/>
							<g>
								<path class="st1" d="M253.6,773.1h-80.9c0,0-1.9-6.8-0.9-11.1c0.4-1.7,1.1-3,2.6-3.4c0-5.3,2.5-16.1,10.3-17.5l0,0
									c-0.1,0.4-1.4,11.2,15.3,0c4.2-2.8,27.7,21.1,45,20.8c4-0.1,6.4,4,7.5,7.3C253.3,771.4,253.6,773.1,253.6,773.1z"/>
								<path class="st2" d="M184.7,741.1c-0.2,0.3-9.2,12.9-5.3,22.4c-2.6,0-5.1-0.6-7.6-1.5c0.4-1.7,1.1-3,2.6-3.4
									C174.4,753.3,176.9,742.4,184.7,741.1C184.7,741,184.7,741,184.7,741.1z"/>
								<rect x="172.5" y="773.1" class="st3" width="81.2" height="2.1"/>
								<path class="st2" d="M253.6,773.1h-80.9c0,0-3.6-13.1,1.7-14.5c0,0,49.4,19.8,78.2,10.6
									C253.3,771.4,253.6,773.1,253.6,773.1z"/>
								<g>
									<path class="st4" d="M210.9,751.1c0,1-0.8,1.8-1.8,1.8s-1.8-0.8-1.8-1.8s0.8-1.8,1.8-1.8
										C210.1,749.3,210.9,750.1,210.9,751.1z"/>
									<path class="st4" d="M216.8,754.3c0,1-0.8,1.8-1.8,1.8s-1.8-0.8-1.8-1.8s0.8-1.8,1.8-1.8S216.8,753.3,216.8,754.3z"/>
									<path class="st4" d="M222.7,757.5c0,1-0.8,1.8-1.8,1.8s-1.8-0.8-1.8-1.8s0.8-1.8,1.8-1.8S222.7,756.5,222.7,757.5z"/>
								</g>
							</g>
						</g>
						<g>
							<polygon class="st0" points="107.3,756.9 105.9,723.7 123.8,723.7 125.1,756.9 							"/>
							<g>
								<path class="st1" d="M55,773.1h80.9c0,0,1.9-6.8,0.9-11.1c-0.4-1.7-1.1-3-2.6-3.4c0-5.3-2.5-16.1-10.3-17.5l0,0
									c0.1,0.4,1.4,11.2-15.3,0c-4.2-2.8-27.7,21.1-45,20.8c-4.1-0.1-6.4,4-7.5,7.3C55.3,771.4,55,773.1,55,773.1z"/>
								<path class="st2" d="M123.9,741.1c0.2,0.3,9.2,12.9,5.3,22.4c2.6,0,5.1-0.6,7.6-1.5c-0.4-1.7-1.1-3-2.6-3.4
									C134.2,753.3,131.7,742.4,123.9,741.1C123.9,741,123.9,741,123.9,741.1z"/>
								<rect x="54.5" y="773.1" class="st3" width="81.2" height="2.1"/>
								<path class="st2" d="M55,773.1h80.9c0,0,3.6-13.1-1.7-14.5c0,0-49.4,19.8-78.2,10.6C55.3,771.4,55,773.1,55,773.1z"/>
								<g>
									<path class="st4" d="M97.7,751.1c0,1,0.8,1.8,1.8,1.8s1.8-0.8,1.8-1.8s-0.8-1.8-1.8-1.8S97.7,750.1,97.7,751.1z"/>
									<path class="st4" d="M91.8,754.3c0,1,0.8,1.8,1.8,1.8s1.8-0.8,1.8-1.8s-0.8-1.8-1.8-1.8C92.6,752.5,91.8,753.3,91.8,754.3z
										"/>
									<path class="st4" d="M85.9,757.5c0,1,0.8,1.8,1.8,1.8s1.8-0.8,1.8-1.8s-0.8-1.8-1.8-1.8C86.7,755.7,85.9,756.5,85.9,757.5z
										"/>
								</g>
							</g>
						</g>
						<g>
							<path class="st5" d="M88.9,395.2l8.9,346.2h37.9c6.7-146.1,14.2-288.1,14.2-288.1s2.5,117.2,23.9,288.1h35.4l4.4-346.2H88.9z
								"/>
						</g>
					</g>
				</g>
				<path class="st6" d="M214.3,401.6C194,417.1,112,414.7,89.8,400.7c-2.9-17.6-3.2-140.8-3.2-140.8s-17.1-53.8-12-59.5
					c10.3-11.7,70.2-25.8,70.2-25.8s64.2,14.2,71.3,24.2c3.4,4.9-4.6,50.6-4.6,99.5C211.5,319.6,214.3,390.6,214.3,401.6z"/>
				<g>
					<rect x="130.1" y="158.5" class="st7" width="30.4" height="36.7"/>
					<path class="st8" d="M130.1,158.5V174c4.7,3.2,9.8,5,15.2,5s10.5-1.8,15.2-5v-15.5H130.1z"/>
				</g>
				<g>
					<path class="st9" d="M246.6,461.2c2-7.1-8-33.1-14-32.9c-5,0.1-13.1,20.2-12.7,29.7c1.9,1.1,3.4,4.9,4.2,6.8
						C224.8,466.7,244.6,468.3,246.6,461.2z"/>
					<path class="st9" d="M231.1,485.5c-0.4-5.2-0.9-13.3-0.7-20.4c1.7-0.1,3.3-0.4,4.8-1c1,6.6,1.5,15,1.7,20
						c0.4,7.3-0.6,11.1-2.6,11.3C232.7,495.6,231.6,492.2,231.1,485.5z"/>
					<path class="st9" d="M238.2,482.7c-0.7-4.8-1.7-12.4-2-19.1c1.6-0.1,3.6-0.8,5.1-1.4c1.4,6.1,1.9,14.3,2.5,19
						c0.9,6.8,0.1,10.4-1.8,10.7C240.4,492.2,239.1,489,238.2,482.7z"/>
					<path class="st9" d="M244,478.1c-0.6-4.1-1.4-10.6-1.7-16.3c1.4-0.1,3.1-0.7,4.4-1.2c1.2,5.2,1.6,12.2,2.1,16.2
						c0.7,5.8,0.1,8.9-1.5,9.1C245.8,486.1,244.8,483.4,244,478.1z"/>
					<path class="st9" d="M223.3,483.2c0.1-4.9,0.1-14.3,1-20.9c1.6,0.1,4,1.6,5.5,1.3c0.4,6.3-0.5,14.4-0.7,19.2
						c-0.3,6.9-1.6,10.2-3.5,10.2C223.9,492.9,223.2,489.5,223.3,483.2z"/>
				</g>
				<path class="st9" d="M242.1,440.7l-17.3-2.2c0,0,4.4-94.1-1.4-122c-6.4-30.9-23.3-62.2-23.3-62.2s1.6-66.8,15.2-55.7
					c12.9,10.6,34.7,75.3,39.4,118.4C258.2,350.2,242.1,440.7,242.1,440.7z"/>
				<g>
					<g>
						<path class="st9" d="M59.3,459c-2.3-7,6.6-33.3,12.6-33.4c5,0,13.9,19.7,13.9,29.2c-1.9,1.2-3.2,5.1-3.9,7
							C81.2,463.5,61.6,466,59.3,459z"/>
						<path class="st9" d="M75.8,482.6c0.2-5.2,0.4-13.3-0.1-20.4c-1.7,0-3.3-0.3-4.9-0.9c-0.8,6.6-0.8,15.1-1,20.1
							c-0.1,7.3,1.1,11,3,11.2C74.6,492.8,75.5,489.3,75.8,482.6z"/>
						<path class="st9" d="M68.6,480.1c0.6-4.9,1.2-12.5,1.2-19.2c-1.6,0-3.7-0.6-5.2-1.2c-1.2,6.2-1.3,14.4-1.7,19.1
							c-0.6,6.9,0.4,10.4,2.3,10.6C66.8,489.6,68,486.4,68.6,480.1z"/>
						<path class="st9" d="M62.6,475.7c0.5-4.2,1-10.7,1-16.4c-1.4,0-3.1-0.5-4.4-1c-1,5.3-1.1,12.3-1.4,16.3
							c-0.5,5.9,0.3,8.8,1.9,9C61.1,483.8,62,481,62.6,475.7z"/>
						<path class="st9" d="M83.4,480c-0.3-4.9-0.7-14.3-1.8-20.9c-1.6,0.2-3.9,1.8-5.5,1.5c-0.2,6.3,1.1,14.4,1.5,19.1
							c0.6,6.9,2.1,10.1,4,10.1C83.2,489.6,83.9,486.3,83.4,480z"/>
					</g>
					<path class="st9" d="M61.9,441.4l19.3-3.1c0,0-12.4-90.5-8-118.5c4.9-31.1,21-64.7,21-64.7s-3.1-67.6-16.1-56
						C66,210,40.9,274.6,38.5,317.8C36.6,351.1,61.9,441.4,61.9,441.4z"/>
				</g>
				<g>
					<g>
						<polygon class="st5" points="145.4,194.6 132.4,205.7 116.8,181.4 128.9,177.3 						"/>
					</g>
					<g>
						<polygon class="st5" points="145.4,194.6 156.9,205.6 177.1,182 160.5,177.5 						"/>
					</g>
				</g>
			</g>
			<g>
				<g>
					<path class="st7" d="M181.6,120.1c0,0,2.8-6.3,6.1-4.5s-2.4,27.6-6.3,24.2C177.5,136.3,181.6,120.1,181.6,120.1z"/>
					<path class="st7" d="M113.5,120.1c0,0-2.8-6.3-6.1-4.5c-3.3,1.8,2.4,27.6,6.3,24.2C117.6,136.3,113.5,120.1,113.5,120.1z"/>
					<path class="st7" d="M147.7,173.9L147.7,173.9c-5.3,0-10.4-2.3-14.1-6.4c-7.8-8.7-20.4-24.2-20.4-33.8L111,96.4
						C111,76,128.6,63,147.7,63l0,0c11.8,0,23.1,4.9,29.9,13.5c4.2,5.3,6.8,11.9,6.8,19.7l-2.1,37.5c0,9.7-12.6,25.1-20.4,33.8
						C158.2,171.6,153.1,173.9,147.7,173.9z"/>
					<path class="st10" d="M188.7,61.6c-1.3-2.6-2.9-5.1-4.7-7.4c-6.3-8-15.7-13.8-25.8-14.8c-7.7-0.8-15.4,1.1-22.8,3.3
						c-4.2,1.3-8.5,2.7-12.1,5.3s-6.5,6.4-6.9,10.8c-2.4-0.2-4.7,1.1-6.3,3c-1.5,1.9-2.4,4.2-3.1,6.5c-1.1,3.5-1.8,7.2-2.3,10.9
						c-0.9,7.1-0.7,14.3,0.7,21.3c1.2,6.3,3.9,12,5.3,18.4c1,4.7,2.6,10,2.5,14.8l0.3-15.7c0.1-3.4-0.1-6.8,0-10.3
						c0-1.4-0.1-3,0.1-4.4c0.2-1.6,1-2.1,2-3.2c1.2-1.4,1.5-3.3,1.8-5.1c0.8-6.2,1.6-12.3,2.3-18.5c5.9,4,11,8.8,16.2,13.5
						c1.9,1.8,4.8,3.2,7,4.6c2.8,1.7,5.8,3,9,3.6c1.7,0.3,3.5,0.4,4.9-0.5s2-3.2,0.8-4.3c3.8,1.8,7.6,3.7,11.8,4.2s8.8-0.7,11.3-4.1
						c1.9,7.8,1.5,16.5,1.2,24.4l0.3,15.7c0.1-3.6,0.9-7.2,1.6-10.7c2.3-11.5,4.3-23,6-34.7c1.3,0.8,3.1-0.1,3.8-1.4
						s0.7-2.9,0.6-4.5C193.8,75.2,192,68,188.7,61.6z"/>
				</g>
				<g>
					<path class="st8" d="M152.4,139.7c-2.1,1-5,1.4-5,1.4s-2.9-0.4-5-1.4s-3.8-1.5-3.8-0.9s4.8,5.9,8.8,5.9s8.7-5.3,8.8-5.9
						C156.3,138.2,154.5,138.7,152.4,139.7z"/>
					<g>
						<g>
							<path class="st10" d="M130.7,123.5c5.6,0,5.6-8.6,0-8.6C125.1,114.9,125.1,123.5,130.7,123.5L130.7,123.5z"/>
						</g>
						<path class="st11" d="M133.2,118.2c0,0.7-0.6,1.3-1.3,1.3s-1.3-0.6-1.3-1.3c0-0.7,0.6-1.3,1.3-1.3
							C132.6,116.8,133.2,117.4,133.2,118.2z"/>
						<g>
							<path class="st10" d="M124.5,118.3c4.1-2.8,8.4-0.7,12.7,0.1c0.5,0.1,1-0.5,0.5-0.9C134,114.5,126.8,112.8,124.5,118.3
								C124.4,118.3,124.5,118.4,124.5,118.3L124.5,118.3z"/>
						</g>
					</g>
					<g>
						<g>
							<path class="st10" d="M163.9,123.5c-5.6,0-5.6-8.6,0-8.6C169.4,114.9,169.5,123.5,163.9,123.5L163.9,123.5z"/>
						</g>
						<path class="st11" d="M161.4,118.2c0,0.7,0.6,1.3,1.3,1.3s1.3-0.6,1.3-1.3c0-0.7-0.6-1.3-1.3-1.3
							C162,116.8,161.4,117.4,161.4,118.2z"/>
						<g>
							<path class="st10" d="M170.1,118.2c-2.3-5.5-9.6-3.7-13.3-0.8c-0.5,0.4,0.1,1,0.5,0.9C161.7,117.7,165.9,115.5,170.1,118.2
								C170.1,118.4,170.2,118.3,170.1,118.2L170.1,118.2z"/>
						</g>
					</g>
					<g>
						<path class="st10" d="M118.4,103.8c3.8-0.8,8-0.8,11.8-0.1c2.8,0.4,5.6,1.8,8.4,1.6c0.9-0.1,1.3-1,0.7-1.7
							c-4.8-5.3-15.5-2.7-21.1-0.4C117.9,103.4,118,103.9,118.4,103.8L118.4,103.8z"/>
					</g>
					<g>
						<path class="st10" d="M177.2,103.2c-5.7-2.3-16.3-4.9-21.1,0.4c-0.6,0.7-0.2,1.6,0.7,1.7c2.8,0.2,5.6-1.2,8.4-1.6
							c3.9-0.6,8-0.6,11.8,0.1C177.5,103.9,177.6,103.4,177.2,103.2L177.2,103.2z"/>
					</g>
					<g>
						<path class="st12" d="M137,149.9c1.9,0.4,3.6,0.8,5.3,1c1.7,0.3,3.4,0.4,5.1,0.4c1.7,0,3.4-0.1,5.1-0.3
							c1.7-0.2,3.5-0.5,5.3-0.9c-1.3,1.4-3,2.4-4.8,3.1c-1.8,0.7-3.8,1-5.7,1s-3.9-0.4-5.7-1.1C139.9,152.4,138.3,151.3,137,149.9z"
							/>
					</g>
					<g>
						<path class="st13" d="M147.5,124.8c-0.6,2.6-0.1,5,0.2,7.6c0.3,2,0.2,4.4,1.4,6.1c0.4,0.5,1.2,0.5,1.4-0.2
							c0.6-2-0.2-4.2-0.6-6.2c-0.4-2.6-0.7-5-1.9-7.3C148,124.5,147.6,124.6,147.5,124.8L147.5,124.8z"/>
					</g>
				</g>
			</g>
		</g>
		<path class="st14" d="M155.8,400.2c-27.8,1-49.9-13.1-54.3-27.7s-3.2-77.3-5.1-104.8c-1.3-18.9-8.4-34-20.8-45.9
			c3.9,17.3,10.3,37.5,10.3,37.5s1.8,124.8,3.2,140.8c15.5,11.3,67.5,14.2,101.6,8.9C179.1,408.6,167,399.8,155.8,400.2z"/>
		<path class="st6" d="M213.6,196.5c0,0-30.8,7.8-19.4,53.5c0,0,18.8,42.7,22,44.3c3.2,1.6,32.6-17.2,32.9-19.5
			S234.5,215.3,213.6,196.5z"/>
		<path class="st6" d="M78.4,197.7c-2.5,0.4-18,21.8-36.5,83.9c0,0,34,14.2,39,14.5s19.3-47.7,19.3-47.7S103.7,189.8,78.4,197.7z"/>
		<path class="st15" d="M213.4,404.9c-38.8,11.8-82.4,11.2-123.5,5.4c0,0-1.8-2.3-1.6-3.9c0.3-1.6,2.2-7.5,5.1-5.8
			s14.8,4.9,24.9,6.1s32,0.1,33.8,0.6s34.9,0,34.9,0L213.4,404.9z"/>
	</g>
	<g>
		<g>
			<path class="st16" d="M133.3,625.8c-2.5,0-4.8,0-7,0c-23.4-0.3-41.5-3.5-41.7-9.5c-0.6-17.1,3.4-125.2,3.4-125.2
				s-2.9-98.7,0.4-104.1c1.8-3,0.6-28.6-0.6-52.7c0-0.1,0-0.1,0-0.2c-1.1-20-2.2-39-1.9-43.3c0.1-1.1,0.2-2.6,0.3-4.2l0,0
				c0.3-4.6,0.6-10.6,1-15.9c0.4-7.1,0.7-13,0.7-13s-10.3-57.5,4.1-69.9c1-0.8,2-1.5,3.3-1.9c6.9-2.2,11.9-3.5,15.5-4.5
				c1.8-0.5,3.2-0.8,4.4-1.1l10.7,24.9l41.8,0.5l9.3-24c0,0,1.9,0.1,4.9,0.4c9.7,1,20,6.5,24.1,8.8c5.7,11.4,7,82.2,7,82.2
				l8.6,113.4c0,0-1.3,168.1,8,204.9c0.2,0.7,0.3,1.5,0.3,2.1C231.3,615.4,176,625.3,133.3,625.8z"/>
			<path class="st17" d="M84,616.5c-0.6-17.1,3.4-125.2,3.4-125.2s-0.6-97.1,0.4-104.1c0.4-8.9-2.5-85.6-1.8-95
				c0.6-9.4-9.4-96.1,5.5-104.3c-5.5,22.6,0.5,98.5,1.8,107.8c2,15.4,1.8,35.6,2,51.2c0.4,31.7,6.7,56.8,5.3,88.4
				c-1.6,36.5-1.4,74.3,14,107.6s49.9,60.7,87.1,57.1c9.2-0.8,18.1-3.5,27-6.1C231.9,628.9,84.6,633.2,84,616.5z"/>
		</g>
		<path class="st17" d="M181.3,182.3l-10.2,28h-47.7l-13-28.9c1.8-0.5,3.2-0.8,4.4-1.1l10.7,24.9l41.8,0.5l9.6-24.7
			C176.8,181.2,178.4,182,181.3,182.3z"/>
	</g>
	<path class="st9" d="M212.2,456.1c3.8-3,7.2-13.8,12.9-17.1c0.9,1.4,5.3,8.1,6.5,9.1c-4.8,4.1-10.4,9-14.3,11.7
		c-5.7,3.9-10.3,2.4-11.4,0.9C204.9,459.5,210.2,457.7,212.2,456.1z"/>
	<path class="st9" d="M91.9,452.8c-3.9-3-7.3-13.7-13.1-17c-0.9,1.4-5.2,8.2-6.4,9.2c4.8,4.1,10.4,9,14.4,11.6
		c5.7,3.8,10.3,2.3,11.4,0.8C99.1,456.1,93.8,454.3,91.9,452.8z"/>
</g>
</svg>
