<?xml version="1.0" encoding="utf-8"?>
<!-- Generator: Adobe Illustrator 22.1.0, SVG Export Plug-In . SVG Version: 6.00 Build 0)  -->
<svg version="1.1" id="Layer_1" xmlns="http://www.w3.org/2000/svg" xmlns:xlink="http://www.w3.org/1999/xlink" x="0px" y="0px"
	 viewBox="0 0 300.5 821.3" style="enable-background:new 0 0 300.5 821.3;" xml:space="preserve">
<style type="text/css">
	.st0{fill:#0E131A;}
	.st1{fill:#22366B;}
	.st2{fill:#18294C;}
	.st3{fill:#CFCFCF;}
	.st4{fill:#43362C;}
	.st5{fill:#22AA66;}
	.st6{fill:#24BF77;}
	.st7{fill:#FCAE88;}
	.st8{opacity:0.32;fill:#B06D4D;enable-background:new    ;}
	.st9{fill:#1E3144;}
	.st10{fill:#FFFFFF;}
	.st11{fill:#DB7269;}
	.st12{fill:#FFC5B6;}
	.st13{fill:#24AA63;}
	.st14{fill:#209E5F;}
	.st15{fill:#FFFFFF;enable-background:new    ;}
	.st16{opacity:5.000000e-02;fill:#38BBFC;enable-background:new    ;}
	.st17{opacity:0.2;fill:#38BBFC;enable-background:new    ;}
	.st18{fill:#B77A65;}
	.st19{fill:#0071D6;}
	.st20{fill:#005EA5;}
	.st21{fill:#F8BA8C;}
	.st22{opacity:0.1;}
	.st23{fill:#38BBFC;}
	.st24{opacity:0.2;}
	.st25{opacity:5.000000e-02;}
</style>
<g>
	<g>
		<g id="OBJECT_1_">
			<g>
				<g>
					<g id="doctor_13_">
						<g>
							<g>
								<polygon class="st0" points="205.1,756.9 206.4,723.7 188.6,723.7 187.2,756.9 								"/>
								<g>
									<path class="st1" d="M257.3,773.1h-80.9c0,0-1.9-6.8-0.9-11.1c0.4-1.7,1.1-3,2.6-3.4c0-5.3,2.5-16.1,10.3-17.5l0,0
										c-0.1,0.4-1.4,11.2,15.3,0c4.2-2.8,27.7,21.1,45,20.8c4-0.1,6.4,4,7.5,7.3C257,771.4,257.3,773.1,257.3,773.1z"/>
									<path class="st2" d="M188.4,741.1c-0.2,0.3-9.2,12.9-5.3,22.4c-2.6,0-5.1-0.6-7.6-1.5c0.4-1.7,1.1-3,2.6-3.4
										C178.1,753.3,180.6,742.4,188.4,741.1C188.4,741,188.4,741,188.4,741.1z"/>
									<rect x="176.2" y="773.1" class="st3" width="81.2" height="2.1"/>
									<path class="st2" d="M257.3,773.1h-80.9c0,0-3.6-13.1,1.7-14.5c0,0,49.4,19.8,78.2,10.6C257,771.4,257.3,773.1,257.3,773.1
										z"/>
									<g>
										<path class="st4" d="M214.6,751.1c0,1-0.8,1.8-1.8,1.8s-1.8-0.8-1.8-1.8s0.8-1.8,1.8-1.8S214.6,750.1,214.6,751.1z"/>
										<path class="st4" d="M220.5,754.3c0,1-0.8,1.8-1.8,1.8s-1.8-0.8-1.8-1.8s0.8-1.8,1.8-1.8S220.5,753.3,220.5,754.3z"/>
										<path class="st4" d="M226.4,757.5c0,1-0.8,1.8-1.8,1.8s-1.8-0.8-1.8-1.8s0.8-1.8,1.8-1.8S226.4,756.5,226.4,757.5z"/>
									</g>
								</g>
							</g>
							<g>
								<polygon class="st0" points="111,756.9 109.6,723.7 127.5,723.7 128.8,756.9 								"/>
								<g>
									<path class="st1" d="M58.7,773.1h80.9c0,0,1.9-6.8,0.9-11.1c-0.4-1.7-1.1-3-2.6-3.4c0-5.3-2.5-16.1-10.3-17.5l0,0
										c0.1,0.4,1.4,11.2-15.3,0c-4.2-2.8-27.7,21.1-45,20.8c-4.1-0.1-6.4,4-7.5,7.3C59,771.4,58.7,773.1,58.7,773.1z"/>
									<path class="st2" d="M127.6,741.1c0.2,0.3,9.2,12.9,5.3,22.4c2.6,0,5.1-0.6,7.6-1.5c-0.4-1.7-1.1-3-2.6-3.4
										C137.9,753.3,135.4,742.4,127.6,741.1C127.6,741,127.6,741,127.6,741.1z"/>
									<rect x="58.2" y="773.1" class="st3" width="81.2" height="2.1"/>
									<path class="st2" d="M58.7,773.1h80.9c0,0,3.6-13.1-1.7-14.5c0,0-49.4,19.8-78.2,10.6C59,771.4,58.7,773.1,58.7,773.1z"/>
									<g>
										<path class="st4" d="M101.4,751.1c0,1,0.8,1.8,1.8,1.8s1.8-0.8,1.8-1.8s-0.8-1.8-1.8-1.8S101.4,750.1,101.4,751.1z"/>
										<path class="st4" d="M95.5,754.3c0,1,0.8,1.8,1.8,1.8s1.8-0.8,1.8-1.8s-0.8-1.8-1.8-1.8S95.5,753.3,95.5,754.3z"/>
										<path class="st4" d="M89.6,757.5c0,1,0.8,1.8,1.8,1.8s1.8-0.8,1.8-1.8s-0.8-1.8-1.8-1.8S89.6,756.5,89.6,757.5z"/>
									</g>
								</g>
							</g>
							<g>
								<path class="st5" d="M92.6,395.2l8.9,346.2h37.9c6.7-146.1,14.2-288.1,14.2-288.1s2.5,117.2,23.9,288.1h35.4l4.4-346.2H92.6
									z"/>
							</g>
						</g>
					</g>
					<path class="st6" d="M218,401.6c-20.3,15.5-102.3,13.1-124.5-0.9c-2.9-17.6-3.2-140.8-3.2-140.8s-17.1-53.8-12-59.5
						c8.7-9.9,66.4-24.9,70.2-25.8c0,0,64.2,14.2,71.3,24.2c3.4,4.9-4.6,50.6-4.6,99.5C215.2,319.6,218,390.6,218,401.6z"/>
					<g>
						<rect x="133.8" y="158.5" class="st7" width="30.4" height="36.7"/>
						<path class="st8" d="M133.8,158.5V174c4.7,3.2,9.8,5,15.2,5s10.5-1.8,15.2-5v-15.5H133.8z"/>
					</g>
					<g>
						<g>
							<polygon class="st5" points="149.1,194.6 136.1,205.7 118.5,182.4 132.6,177.3 							"/>
						</g>
						<g>
							<polygon class="st5" points="149.1,194.6 160.6,205.6 180.8,182 164.2,177.5 							"/>
						</g>
					</g>
				</g>
				<g>
					<g>
						<path class="st7" d="M185.3,120.1c0,0,2.8-6.3,6.1-4.5s-2.4,27.6-6.3,24.2C181.2,136.3,185.3,120.1,185.3,120.1z"/>
						<path class="st7" d="M117.2,120.1c0,0-2.8-6.3-6.1-4.5c-3.3,1.8,2.4,27.6,6.3,24.2C121.3,136.3,117.2,120.1,117.2,120.1z"/>
						<path class="st7" d="M151.4,173.9L151.4,173.9c-5.3,0-10.4-2.3-14.1-6.4c-7.8-8.7-20.4-24.2-20.4-33.8l-2.2-37.3
							c0-20.4,17.6-33.4,36.7-33.4l0,0c11.8,0,23.1,4.9,29.9,13.5c4.2,5.3,6.8,11.9,6.8,19.7l-2.1,37.5c0,9.7-12.6,25.1-20.4,33.8
							C161.9,171.6,156.8,173.9,151.4,173.9z"/>
						<path class="st9" d="M192.4,61.6c-1.3-2.6-2.9-5.1-4.7-7.4c-6.3-8-15.7-13.8-25.8-14.8c-7.7-0.8-15.4,1.1-22.8,3.3
							c-4.2,1.3-8.5,2.7-12.1,5.3s-6.5,6.4-6.9,10.8c-2.4-0.2-4.7,1.1-6.3,3c-1.5,1.9-2.4,4.2-3.1,6.5c-1.1,3.5-1.8,7.2-2.3,10.9
							c-0.9,7.1-0.7,14.3,0.7,21.3c1.2,6.3,3.9,12,5.3,18.4c1,4.7,2.6,10,2.5,14.8l0.3-15.7c0.1-3.4-0.1-6.8,0-10.3
							c0-1.4-0.1-3,0.1-4.4c0.2-1.6,1-2.1,2-3.2c1.2-1.4,1.5-3.3,1.8-5.1c0.8-6.2,1.6-12.3,2.3-18.5c5.9,4,11,8.8,16.2,13.5
							c1.9,1.8,4.8,3.2,7,4.6c2.8,1.7,5.8,3,9,3.6c1.7,0.3,3.5,0.4,4.9-0.5s2-3.2,0.8-4.3c3.8,1.8,7.6,3.7,11.8,4.2
							s8.8-0.7,11.3-4.1c1.9,7.8,1.5,16.5,1.2,24.4l0.3,15.7c0.1-3.6,0.9-7.2,1.6-10.7c2.3-11.5,4.3-23,6-34.7
							c1.3,0.8,3.1-0.1,3.8-1.4s0.7-2.9,0.6-4.5C197.5,75.2,195.7,68,192.4,61.6z"/>
					</g>
					<g>
						<path class="st8" d="M156.1,139.7c-2.1,1-5,1.4-5,1.4s-2.9-0.4-5-1.4s-3.8-1.5-3.8-0.9s4.8,5.9,8.8,5.9s8.7-5.3,8.8-5.9
							C160,138.2,158.2,138.7,156.1,139.7z"/>
						<g>
							<g>
								<path class="st9" d="M134.4,123.5c5.6,0,5.6-8.6,0-8.6C128.8,114.9,128.8,123.5,134.4,123.5L134.4,123.5z"/>
							</g>
							<path class="st10" d="M136.9,118.2c0,0.7-0.6,1.3-1.3,1.3s-1.3-0.6-1.3-1.3c0-0.7,0.6-1.3,1.3-1.3
								C136.3,116.8,136.9,117.4,136.9,118.2z"/>
							<g>
								<path class="st9" d="M128.2,118.3c4.1-2.8,8.4-0.7,12.7,0.1c0.5,0.1,1-0.5,0.5-0.9C137.7,114.5,130.5,112.8,128.2,118.3
									C128.1,118.3,128.2,118.4,128.2,118.3L128.2,118.3z"/>
							</g>
						</g>
						<g>
							<g>
								<path class="st9" d="M167.6,123.5c-5.6,0-5.6-8.6,0-8.6C173.1,114.9,173.2,123.5,167.6,123.5L167.6,123.5z"/>
							</g>
							<path class="st10" d="M165.1,118.2c0,0.7,0.6,1.3,1.3,1.3s1.3-0.6,1.3-1.3c0-0.7-0.6-1.3-1.3-1.3
								C165.7,116.8,165.1,117.4,165.1,118.2z"/>
							<g>
								<path class="st9" d="M173.8,118.2c-2.3-5.5-9.6-3.7-13.3-0.8c-0.5,0.4,0.1,1,0.5,0.9C165.4,117.7,169.6,115.5,173.8,118.2
									C173.8,118.4,173.9,118.3,173.8,118.2L173.8,118.2z"/>
							</g>
						</g>
						<g>
							<path class="st9" d="M122.1,103.8c3.8-0.8,8-0.8,11.8-0.1c2.8,0.4,5.6,1.8,8.4,1.6c0.9-0.1,1.3-1,0.7-1.7
								c-4.8-5.3-15.5-2.7-21.1-0.4C121.6,103.4,121.7,103.9,122.1,103.8L122.1,103.8z"/>
						</g>
						<g>
							<path class="st9" d="M180.9,103.2c-5.7-2.3-16.3-4.9-21.1,0.4c-0.6,0.7-0.2,1.6,0.7,1.7c2.8,0.2,5.6-1.2,8.4-1.6
								c3.9-0.6,8-0.6,11.8,0.1C181.2,103.9,181.3,103.4,180.9,103.2L180.9,103.2z"/>
						</g>
						<g>
							<path class="st11" d="M140.7,149.9c1.9,0.4,3.6,0.8,5.3,1c1.7,0.3,3.4,0.4,5.1,0.4c1.7,0,3.4-0.1,5.1-0.3
								c1.7-0.2,3.5-0.5,5.3-0.9c-1.3,1.4-3,2.4-4.8,3.1c-1.8,0.7-3.8,1-5.7,1s-3.9-0.4-5.7-1.1C143.6,152.4,142,151.3,140.7,149.9z
								"/>
						</g>
						<g>
							<path class="st12" d="M151.2,124.8c-0.6,2.6-0.1,5,0.2,7.6c0.3,2,0.2,4.4,1.4,6.1c0.4,0.5,1.2,0.5,1.4-0.2
								c0.6-2-0.2-4.2-0.6-6.2c-0.4-2.6-0.7-5-1.9-7.3C151.7,124.5,151.3,124.6,151.2,124.8L151.2,124.8z"/>
						</g>
					</g>
				</g>
			</g>
			<path class="st13" d="M159.5,400.2c-27.8,1-49.9-13.1-54.3-27.7s-3.2-77.3-5.1-104.8c-1.3-18.9-8.4-34-20.8-45.9
				c3.9,17.3,10.3,37.5,10.3,37.5s1.8,124.8,3.2,140.8c15.5,11.3,67.5,14.2,101.6,8.9C182.8,408.6,170.7,399.8,159.5,400.2z"/>
			<path class="st6" d="M217.3,196.5c0,0-30.8,7.8-19.4,53.5c0,0,18.8,42.7,22,44.3c3.2,1.6,32.6-17.2,32.9-19.5
				S238.2,215.3,217.3,196.5z"/>
			<path class="st6" d="M82.1,197.7c-2.5,0.4-18,21.8-36.5,83.9c0,0,34,14.2,39,14.5s19.3-47.7,19.3-47.7S107.4,189.8,82.1,197.7z"
				/>
			<path class="st14" d="M217.1,404.9c-38.8,11.8-82.4,11.2-123.5,5.4c0,0-1.8-2.3-1.6-3.9c0.3-1.6,2.2-7.5,5.1-5.8
				s14.8,4.9,24.9,6.1s32,0.1,33.8,0.6s34.9,0,34.9,0L217.1,404.9z"/>
		</g>
		<g>
			<g>
				<path class="st10" d="M123.6,205.2c-6-4.5-14.3-13.7-15.8-20.8c1.2-0.4,2.3-0.8,3.2-1c0.8,4.2,6.7,11.2,9.5,14.5L123.6,205.2z"
					/>
				<path class="st10" d="M168.9,210.7c-5,2.4-13.7,3.8-19.8,3.8c-6.4,0-15.4-1.5-20.6-4.2l11.6,0.1c2.9,0.8,5.9,1.2,9,1.2
					c2.8,0,8.6-0.3,11.2-1L168.9,210.7z"/>
				<path class="st10" d="M188.7,182.1c-1,8.2-7.7,18.5-14.6,23.5l2.5-6.4c3.7-4,8.1-12,8.8-17.4
					C186.2,181.8,187.3,181.9,188.7,182.1z"/>
				<path class="st10" d="M189.3,619.3c-1.2,0.2-2.4,0.5-3.6,0.7c-0.1,0-0.1,0-0.2,0c-1.3,0.2-2.6,0.5-3.9,0.7
					c-2.3,0.4-4.7,0.8-7.1,1.1c-0.8,0.1-1.6,0.2-2.4,0.3c-12.2,1.6-25,2.4-36.8,2.6h-7c-23.5-0.3-41.7-3.5-41.9-9.5
					c-0.6-17.1,3.4-125.2,3.4-125.2s-0.4-12.7-0.7-29.2v-0.2c-0.5-24.9-0.9-58.3,0.3-70.3v0c0.2-2.2,0.5-3.7,0.8-4.3
					c1.8-3,0.6-28.6-0.6-52.7c0-0.1,0-0.1,0-0.2c-1-17.1-1.9-33.6-2-40.6v-0.2c0-1.1,0-1.9,0-2.5c0,0,0-0.1,0-0.1c0,0,0,0,0,0
					c0.1-1.1,0.2-2.5,0.3-4.1c0.2-2.3,0.3-4.9,0.5-7.7c0.2-2.7,0.3-5.6,0.5-8.2c0.4-7.1,0.7-13,0.7-13s-4.5-19.3-5-37.4v0
					c-0.2-9.6,0.6-18.8,4-24.7c0,0,0,0,0-0.1c0.8-1.5,1.8-2.7,3-3.7c0.2-0.2,0.5-0.3,0.8-0.6c-5.3,23.2,1.2,95.1,2.5,104.4
					c2,15.4,1.8,35.6,2,51.2c0.4,31.7,6.7,56.8,5.3,88.4c-1.6,36.5-1.4,74.3,14.1,107.6c15.5,33.3,50.2,60.7,87.6,57.1
					c9.3-0.8,18.2-3.5,27.2-6.1C232.4,605.6,213.7,614.3,189.3,619.3z"/>
				<path class="st15" d="M189.3,619.3c24.4-5.1,43.1-13.7,42-26.4c-9,2.6-17.9,5.3-27.2,6.1c-37.4,3.6-72.1-23.8-87.6-57.1
					c-15.5-33.3-15.7-71.1-14.1-107.6c1.4-31.6-4.9-56.7-5.3-88.4c-0.2-15.6,0-35.8-2-51.2c-1.3-9.2-7.8-81.2-2.5-104.4
					c1.4-0.9,3.9-2.3,4.9-2.6c6.9-2.2,5.9-2.2,9.4-3.1c0.3-0.1,0.6-0.2,0.9-0.3c1.5,7.1,9.8,16.4,15.8,20.8c1.5,1.1,3.2,4.2,4.9,5.1
					c5.2,2.7,14.2,4.2,20.6,4.2c6.1,0,14.8-1.4,19.8-3.8c1.9-0.9,3.6-4,5.3-5.1c6.9-5,13.6-15.2,14.6-23.5c0.1,0,0.3,0,0.4,0
					c9.8,1,15.1,5.5,19.2,7.8c5.7,11.4,7,82.2,7,82.2l8.6,113.4c0,0-1.3,168.1,8,204.9c0.2,0.7,0.3,1.5,0.3,2.1
					C233.2,605.5,214,614.3,189.3,619.3z"/>
				<path class="st16" d="M189.3,619.3c24.4-5.1,43.1-13.7,42-26.4c-9,2.6-17.9,5.3-27.2,6.1c-37.4,3.6-72.1-23.8-87.6-57.1
					c-15.5-33.3-15.7-71.1-14.1-107.6c1.4-31.6-4.9-56.7-5.3-88.4c-0.2-15.6,0-35.8-2-51.2c-1.3-9.2-7.8-81.2-2.5-104.4
					c1.4-0.9,3.9-2.3,4.9-2.6c6.9-2.2,5.9-2.2,9.4-3.1c0.3-0.1,0.6-0.2,0.9-0.3c1.5,7.1,9.8,16.4,15.8,20.8c1.5,1.1,3.2,4.2,4.9,5.1
					c5.2,2.7,14.2,4.2,20.6,4.2c6.1,0,14.8-1.4,19.8-3.8c1.9-0.9,3.6-4,5.3-5.1c6.9-5,13.6-15.2,14.6-23.5c0.1,0,0.3,0,0.4,0
					c9.8,1,15.1,5.5,19.2,7.8c5.7,11.4,7,82.2,7,82.2l8.6,113.4c0,0-1.3,168.1,8,204.9c0.2,0.7,0.3,1.5,0.3,2.1
					C233.2,605.5,214,614.3,189.3,619.3z"/>
				<path class="st16" d="M123.6,205.2c-6-4.5-14.3-13.7-15.8-20.8c1.2-0.4,2.3-0.8,3.2-1c0.8,4.2,6.7,11.2,9.5,14.5L123.6,205.2z"
					/>
				<path class="st16" d="M168.9,210.7c-5,2.4-13.7,3.8-19.8,3.8c-6.4,0-15.4-1.5-20.6-4.2l11.6,0.1c2.9,0.8,5.9,1.2,9,1.2
					c2.8,0,8.6-0.3,11.2-1L168.9,210.7z"/>
				<path class="st16" d="M188.7,182.1c-1,8.2-7.7,18.5-14.6,23.5l2.5-6.4c3.7-4,8.1-12,8.8-17.4
					C186.2,181.8,187.3,181.9,188.7,182.1z"/>
				<path class="st16" d="M189.3,619.3c-1.2,0.2-2.4,0.5-3.6,0.7c-0.1,0-0.1,0-0.2,0c-1.3,0.2-2.6,0.5-3.9,0.7
					c-2.3,0.4-4.7,0.8-7.1,1.1c-0.8,0.1-1.6,0.2-2.4,0.3c-12.2,1.6-25,2.4-36.8,2.6h-7c-23.5-0.3-41.7-3.5-41.9-9.5
					c-0.6-17.1,3.4-125.2,3.4-125.2s-0.4-12.7-0.7-29.2v-0.2c-0.5-24.9-0.9-58.3,0.3-70.3v0c0.2-2.2,0.5-3.7,0.8-4.3
					c1.8-3,0.6-28.6-0.6-52.7c0-0.1,0-0.1,0-0.2c-1-17.1-1.9-33.6-2-40.6v-0.2c0-1.1,0-1.9,0-2.5c0,0,0-0.1,0-0.1c0,0,0,0,0,0
					c0.1-1.1,0.2-2.5,0.3-4.1c0.2-2.3,0.3-4.9,0.5-7.7c0.2-2.7,0.3-5.6,0.5-8.2c0.4-7.1,0.7-13,0.7-13s-4.5-19.3-5-37.4v0
					c-0.2-9.6,0.6-18.8,4-24.7c0,0,0,0,0-0.1c0.8-1.5,1.8-2.7,3-3.7c0.2-0.2,0.5-0.3,0.8-0.6c-5.3,23.2,1.2,95.1,2.5,104.4
					c2,15.4,1.8,35.6,2,51.2c0.4,31.7,6.7,56.8,5.3,88.4c-1.6,36.5-1.4,74.3,14.1,107.6c15.5,33.3,50.2,60.7,87.6,57.1
					c9.3-0.8,18.2-3.5,27.2-6.1C232.4,605.6,213.7,614.3,189.3,619.3z"/>
				<path class="st17" d="M189.3,619.3c-1.2,0.2-2.4,0.5-3.6,0.7c-0.1,0-0.1,0-0.2,0c-1.3,0.2-2.6,0.5-3.9,0.7
					c-2.3,0.4-4.7,0.8-7.1,1.1c-0.8,0.1-1.6,0.2-2.4,0.3c-40.1,5.4-86,2.6-86.4-6.7c-0.6-17.1,3.4-125.2,3.4-125.2s0-12.8,0-29.4
					v-0.2c0-24.9,0.1-58.2,0.3-70.3v0c0-2,0.1-3.4,0.1-4.1c3.2-5.3-2.1-79.9-1.8-93.7v-0.2c0-0.4,0-0.8,0-1.1c0-0.4,0-0.9,0-1.5
					c0,0,0,0,0,0c-0.2-9.4-4-44.3-3-70.3v0c0.4-10.3,1.5-19.2,4-24.7c0,0,0,0,0-0.1c1-2.3,2.3-3.9,3.9-4.8c0,0.2-0.1,0.4-0.1,0.5
					c-5.3,23.2,1.2,95.1,2.5,104.4c2,15.4,1.8,35.6,2,51.2c0.4,31.7,6.7,56.8,5.3,88.4c-1.6,36.5-1.4,74.3,14.1,107.6
					c15.5,33.3,50.2,60.7,87.6,57.1c9.3-0.8,18.2-3.5,27.2-6.1C232.4,605.6,213.7,614.3,189.3,619.3z"/>
			</g>
			<path class="st15" d="M188.7,182.1c-1,8.2-7.7,18.5-14.6,23.5c-1.6,1.2-3.4,4.2-5.3,5.1c-5,2.4-13.7,3.8-19.8,3.8
				c-6.4,0-15.4-1.5-20.6-4.2c-1.7-0.9-3.4-3.9-4.9-5.1c-6-4.5-14.3-13.7-15.8-20.8c1.2-0.4,2.3-0.8,3.2-1
				c0.8,4.2,6.7,11.2,9.5,14.5c4,5,12.9,10.7,19.7,12.5c2.9,0.8,5.9,1.2,9,1.2c2.8,0,8.6-0.3,11.2-1c6.5-1.5,12.2-6.9,16.4-11.4
				c3.7-4,8.1-12,8.8-17.4C186.2,181.8,187.3,181.9,188.7,182.1z"/>
			<path class="st17" d="M188.7,182.1c-1,8.2-7.7,18.5-14.6,23.5c-1.6,1.2-3.4,4.2-5.3,5.1c-5,2.4-13.7,3.8-19.8,3.8
				c-6.4,0-15.4-1.5-20.6-4.2c-1.7-0.9-3.4-3.9-4.9-5.1c-6-4.5-14.3-13.7-15.8-20.8c1.2-0.4,2.3-0.8,3.2-1
				c0.8,4.2,6.7,11.2,9.5,14.5c4,5,12.9,10.7,19.7,12.5c2.9,0.8,5.9,1.2,9,1.2c2.8,0,8.6-0.3,11.2-1c6.5-1.5,12.2-6.9,16.4-11.4
				c3.7-4,8.1-12,8.8-17.4C186.2,181.8,187.3,181.9,188.7,182.1z"/>
		</g>
	</g>
	<g>
		<g>
			<path class="st18" d="M278.4,171c-0.1,0.3,0.1,0.5,0.3,0.6c0.3,0.1,0.5-0.1,0.6-0.3l0,0l3.4-10.7c0.1-0.3,0-0.5-0.3-0.6l0,0
				c-0.3-0.1-0.6,0.1-0.6,0.3L278.4,171z"/>
			<path class="st18" d="M271.7,169.1c-0.1,0.3,0.1,0.6,0.3,0.6c0.3,0.1,0.5-0.1,0.6-0.3l4.6-14.5c0.1-0.3-0.1-0.5-0.3-0.6
				c-0.3-0.1-0.5,0.1-0.6,0.3l0,0L271.7,169.1z"/>
			<path class="st19" d="M259.8,218.9l8.9-29l-6.2-7c-1.2-1.3-2-2.8-2.4-4.5c-0.4-1.3-2.9-9.2-2.9-9.9c0-2,2.7-1.9,3.8-1.6
				c2,0.5,4.2,4.2,5.5,7.5c0.5,1.2,2.1,2.3,2.4,1.5l6.7-22.8c1-3.5,2.3-3.8,3.5-3.5c1.2,0.1,2.1,1,2.4,2.1c0.3,2.2,0.2,4.4-0.2,6.5
				c0,0,1.4-7.2,4.9-6.1c3.5,1.1,1.6,6.3,1.2,8.3c-0.2,1.2,0.7-2.5,2.5-3.8c0.8-0.6,2-0.2,2.8,0.4c2.7,2,0.1,8.4,0.1,8.4
				s1.2-2.9,2.7-3.1c0.9-0.1,2,0.6,2.6,2c0.7,1.7,0.6,3.6-0.2,5.2l-10.1,24.9l-6.3,31.4L259.8,218.9z"/>
			<path class="st20" d="M289.4,174.4c-0.1,0.3,0.1,0.5,0.3,0.6c0.3,0.1,0.5-0.1,0.6-0.3l3.4-10.7c0.1-0.3-0.1-0.5-0.3-0.6
				c-0.3-0.1-0.5,0.1-0.6,0.3l0,0L289.4,174.4z"/>
			<path class="st20" d="M282.7,172.5c-0.1,0.3,0.1,0.5,0.3,0.6c0.3,0.1,0.5-0.1,0.6-0.3l0,0l4.6-14.5c0.1-0.3-0.1-0.5-0.3-0.6
				c-0.3-0.1-0.5,0.1-0.6,0.3L282.7,172.5z"/>
			<path class="st20" d="M276.2,171.1c-0.1,0.2-0.1,0.6,0.2,0.7c0.2,0.1,0.6,0.1,0.7-0.2c0-0.1,0.1-0.1,0.1-0.2l5.5-16.8
				c0.1-0.2,0-0.6-0.2-0.7c-0.2-0.1-0.6,0-0.7,0.2c0,0.1,0,0.1-0.1,0.2L276.2,171.1z"/>
		</g>
		<g>
			<path class="st21" d="M266.4,197.4c0,0-59.7,126.9-22.9,124.6c6.4-0.4,27-14,42.2-117.4C275,197.7,266.4,197.4,266.4,197.4z"/>
		</g>
	</g>
	<g>
		<g>
			<path class="st18" d="M19.8,160.4c-0.1-0.3-0.4-0.4-0.6-0.3l0,0c-0.3,0.1-0.4,0.4-0.3,0.6l3.4,10.7l0,0c0.1,0.3,0.4,0.4,0.6,0.3
				c0.3-0.1,0.4-0.4,0.3-0.6L19.8,160.4z"/>
			<path class="st18" d="M25.3,154.7L25.3,154.7c-0.1-0.3-0.4-0.4-0.6-0.3c-0.3,0.1-0.4,0.4-0.3,0.6l4.6,14.5
				c0.1,0.3,0.4,0.4,0.6,0.3c0.3-0.1,0.4-0.4,0.3-0.6L25.3,154.7z"/>
			<path class="st19" d="M20,225.6l-6.3-31.4L3.5,169.3c-0.8-1.6-0.8-3.5-0.2-5.2c0.6-1.4,1.7-2.1,2.6-2c1.5,0.2,2.7,3.1,2.7,3.1
				s-2.6-6.4,0.1-8.4c0.8-0.6,2.1-0.9,2.8-0.4c1.8,1.3,2.7,5,2.5,3.8c-0.3-1.9-2.3-7.1,1.2-8.3s4.9,6.1,4.9,6.1
				c-0.5-2.1-0.5-4.3-0.2-6.5c0.2-1.1,1.2-2,2.4-2.1c1.2-0.3,2.5,0,3.5,3.5l6.7,22.8c0.3,0.8,1.9-0.2,2.4-1.5
				c1.3-3.3,3.5-6.9,5.5-7.5c1.1-0.3,3.8-0.4,3.8,1.6c0,0.8-2.5,8.6-2.9,9.9c-0.4,1.7-1.2,3.2-2.4,4.5l-6.2,7l8.9,29L20,225.6z"/>
			<path class="st20" d="M8.8,163.7L8.8,163.7c-0.1-0.3-0.4-0.4-0.6-0.3c-0.3,0.1-0.4,0.4-0.3,0.6l3.4,10.7c0.1,0.3,0.4,0.4,0.6,0.3
				c0.3-0.1,0.4-0.4,0.3-0.6L8.8,163.7z"/>
			<path class="st20" d="M14.3,158.1c-0.1-0.3-0.4-0.4-0.6-0.3c-0.3,0.1-0.4,0.4-0.3,0.6l4.6,14.5l0,0c0.1,0.3,0.4,0.4,0.6,0.3
				c0.3-0.1,0.4-0.4,0.3-0.6L14.3,158.1z"/>
			<path class="st20" d="M20,154.3c0-0.1,0-0.1-0.1-0.2c-0.1-0.2-0.4-0.3-0.7-0.2c-0.2,0.1-0.3,0.4-0.2,0.7l5.5,16.8
				c0,0.1,0,0.1,0.1,0.2c0.1,0.2,0.4,0.3,0.7,0.2c0.2-0.1,0.3-0.4,0.2-0.7L20,154.3z"/>
		</g>
		<g>
			<path class="st21" d="M35.1,197.6c0,0,59.8,126.7,23,124.4c-6.4-0.4-27.1-13.9-42.3-117.3C26.5,197.7,35.1,197.6,35.1,197.6z"/>
		</g>
	</g>
	<path class="st21" d="M220.9,294.3c0,0,7.4,24.9,17.1,26.8s19.4-11.8,19.4-11.8l-7.4-29.2L220.9,294.3z"/>
	<path class="st21" d="M82.9,296.1c0,0-10.8,24.6-20.9,25.6s-13.4-27.3-13.4-27.3l19.1-4.2L82.9,296.1z"/>
</g>
<g id="BACKGROUND">
</g>
<g id="OBJECT_3_">
	<g>
		<g>
			<path class="st10" d="M-1127.5,247.8c-2.4,0.3-4.8,0.1-7.1-0.6c-5-1.5-9.4-5.5-11.3-10.5c-0.4-1.3-0.7-2.4-1-3.5
				c-0.3-1.2-0.6-2.4-1-3.5c-0.4-0.9-1.4-3.1-3-3.4c-1.1-0.3-2.7,0.3-4.7,1.6c-4.4,3.2-7.7,7.8-9.4,13l-4.8-1.5
				c2-6.2,6-11.7,11.3-15.5c3.3-2.2,6.1-3,8.6-2.4c2.8,0.6,5.2,2.9,6.6,6.5c0.5,1.4,0.9,2.8,1.2,4.2c0.2,1,0.5,2,0.8,3
				c1.3,3.5,4.4,6.4,8,7.4c3.7,1.1,12.8-2,15.8-4.2l2.9,4.1C-1116.9,244-1124.6,247.4-1127.5,247.8z"/>
		</g>
		<g>
			<path class="st10" d="M-1267.9,243.4c-0.5-1.8-0.2-3.5,0.9-4.8c2.9-3.4,16.5-5.1,18.7-4.8l0.5,0.1c3.1,1,6.8-0.7,9.9-2.1
				c3.9-1.9,7.7-3.7,11.5-5.5c1.1-0.5,2.3-1,3.8-1c3.3,0,5.7,2.9,6.2,5.7c0.5,2.3,0,4.6-0.6,6.8l-4.8-1.3c0.4-1.6,0.8-3.2,0.6-4.4
				c-0.2-1-0.9-1.7-1.4-1.7s-1.1,0.3-1.6,0.5c-3.8,1.8-7.6,3.6-11.5,5.5c-3.6,1.7-8.5,3.9-13.3,2.4c-3.8-0.4-13.4,2.4-14.1,3.1
				c0,0,0,0.1,0.1,0.2L-1267.9,243.4z"/>
		</g>
		<g class="st22">
			<path class="st23" d="M-1127.5,247.8c-2.4,0.3-4.8,0.1-7.1-0.6c-5-1.5-9.4-5.5-11.3-10.5c-0.4-1.3-0.7-2.4-1-3.5
				c-0.3-1.2-0.6-2.4-1-3.5c-0.4-0.9-1.4-3.1-3-3.4c-1.1-0.3-2.7,0.3-4.7,1.6c-4.4,3.2-7.7,7.8-9.4,13l-4.8-1.5
				c2-6.2,6-11.7,11.3-15.5c3.3-2.2,6.1-3,8.6-2.4c2.8,0.6,5.2,2.9,6.6,6.5c0.5,1.4,0.9,2.8,1.2,4.2c0.2,1,0.5,2,0.8,3
				c1.3,3.5,4.4,6.4,8,7.4c3.7,1.1,12.8-2,15.8-4.2l2.9,4.1C-1116.9,244-1124.6,247.4-1127.5,247.8z"/>
		</g>
		<g class="st22">
			<path class="st23" d="M-1267.9,243.4c-0.5-1.8-0.2-3.5,0.9-4.8c2.9-3.4,16.5-5.1,18.7-4.8l0.5,0.1c3.1,1,6.8-0.7,9.9-2.1
				c3.9-1.9,7.7-3.7,11.5-5.5c1.1-0.5,2.3-1,3.8-1c3.3,0,5.7,2.9,6.2,5.7c0.5,2.3,0,4.6-0.6,6.8l-4.8-1.3c0.4-1.6,0.8-3.2,0.6-4.4
				c-0.2-1-0.9-1.7-1.4-1.7s-1.1,0.3-1.6,0.5c-3.8,1.8-7.6,3.6-11.5,5.5c-3.6,1.7-8.5,3.9-13.3,2.4c-3.8-0.4-13.4,2.4-14.1,3.1
				c0,0,0,0.1,0.1,0.2L-1267.9,243.4z"/>
		</g>
		<g class="st24">
			<path class="st23" d="M-1127.5,247.8c-2.4,0.3-4.8,0.1-7.1-0.6c-5-1.5-9.4-5.5-11.3-10.5c-0.4-1.3-0.7-2.4-1-3.5
				c-0.3-1.2-0.6-2.4-1-3.5c-0.4-0.9-1.4-3.1-3-3.4c-1.1-0.3-2.7,0.3-4.7,1.6c-4.4,3.2-7.7,7.8-9.4,13l-4.8-1.5
				c2-6.2,6-11.7,11.3-15.5c3.3-2.2,6.1-3,8.6-2.4c2.8,0.6,5.2,2.9,6.6,6.5c0.5,1.4,0.9,2.8,1.2,4.2c0.2,1,0.5,2,0.8,3
				c1.3,3.5,4.4,6.4,8,7.4c3.7,1.1,12.8-2,15.8-4.2l2.9,4.1C-1116.9,244-1124.6,247.4-1127.5,247.8z"/>
		</g>
		<g class="st24">
			<path class="st23" d="M-1267.9,243.4c-0.5-1.8-0.2-3.5,0.9-4.8c2.9-3.4,16.5-5.1,18.7-4.8l0.5,0.1c3.1,1,6.8-0.7,9.9-2.1
				c3.9-1.9,7.7-3.7,11.5-5.5c1.1-0.5,2.3-1,3.8-1c3.3,0,5.7,2.9,6.2,5.7c0.5,2.3,0,4.6-0.6,6.8l-4.8-1.3c0.4-1.6,0.8-3.2,0.6-4.4
				c-0.2-1-0.9-1.7-1.4-1.7s-1.1,0.3-1.6,0.5c-3.8,1.8-7.6,3.6-11.5,5.5c-3.6,1.7-8.5,3.9-13.3,2.4c-3.8-0.4-13.4,2.4-14.1,3.1
				c0,0,0,0.1,0.1,0.2L-1267.9,243.4z"/>
		</g>
		<g>
			<g>
				<g>
					<path class="st10" d="M-1291.8,438.8c-0.3-0.3-8.8-5.9-10.4-14.9c-0.9-5,0.6-10,4.5-14.7c6.8-8.6,12.6-8.7,17.6-8.9
						c4.5-0.2,8-0.3,12.1-6.4l0.4-0.6c9.1-13.6,10.3-15.3,23.6-17.7l0.6,2.9c-12.1,2.3-12.8,3.3-21.5,16.5l-0.4,0.6
						c-5,7.4-10,7.6-14.7,7.8c-4.7,0.2-9.3,0.3-15.1,7.7c-3.2,4.1-4.5,8.3-3.8,12.4c1.3,7.7,9,12.9,9.1,12.9L-1291.8,438.8z"/>
					<path class="st10" d="M-1291.5,440.9l-1.2-0.9c-2.2-1.6-9.5-7.3-11-15.8c-1-5.5,0.6-10.8,4.8-15.9c7.2-9.1,13.5-9.3,18.6-9.5
						h0.2c4.3-0.2,7.1-0.3,10.8-5.7l0.5-0.6c9.2-13.7,10.6-15.8,24.6-18.4l1.4-0.3l1.2,5.8l-1.5,0.3c-11.4,2.2-11.8,2.7-20.5,15.9
						l-0.5,0.7c-5.4,8-10.9,8.2-15.8,8.4h-0.2c-4.6,0.2-8.5,0.3-13.8,7.1c-3,3.8-4.2,7.6-3.5,11.2c1,6.2,6.8,10.6,8.1,11.6h2.5
						L-1291.5,440.9z M-1252.3,379.2c-5.4,2-7.7,5.5-14.1,15l-0.5,0.6c-4.5,6.7-8.7,6.8-13.1,7h-0.1c-5,0.2-10.1,0.4-16.5,8.4
						c-3.6,4.4-5,8.9-4.2,13.5c1.1,6.3,6,11,8.6,13l0,0c-2.8-2.2-7.5-7.1-8.5-12.9c-0.8-4.5,0.6-9.1,4.1-13.6
						c6.2-7.9,11.2-8.1,16.1-8.3h0.2c4.6-0.2,8.9-0.3,13.5-7.1l0.5-0.6C-1259.9,384.7-1257.6,381.2-1252.3,379.2z"/>
				</g>
			</g>
			<g>
				<g>
					<path class="st10" d="M-1093.1,436.2c-4.1,0-11.5-1.8-20.2-12.9c-6.9-8.7-6.8-12.4-6.6-16c0.1-2.9,0.2-5.6-3.9-11.7l-0.4-0.6
						c-8.8-13.2-9.5-14.3-21.5-16.5l0.6-2.9c13.4,2.5,14.6,4.3,23.6,17.7l0.4,0.6c4.6,6.9,4.5,10.3,4.4,13.4
						c-0.1,3.2-0.2,6.2,6,14.1c11.4,14.3,19.6,11.5,19.7,11.5l1.2,2.8C-1089.9,435.7-1091.2,436.2-1093.1,436.2z"/>
					<path class="st10" d="M-1093.1,437.7c-4.9,0-12.7-2.3-21.4-13.5c-7.3-9.3-7.1-13.4-7-17c0.1-2.7,0.2-5.1-3.7-10.8l-0.4-0.6
						c-8.9-13.3-9.2-13.8-20.6-15.9l-1.5-0.3l1.2-5.8l1.4,0.3c14.1,2.7,15.5,4.8,24.6,18.4l0.4,0.6c4.7,6.9,4.9,10.6,4.6,14.3
						c-0.1,3-0.2,5.6,5.7,13.1c10.1,12.6,17.3,11.1,18.1,10.9h0.2h1.2l1.9,4.3l-0.3,0.6C-1089.2,437.5-1091.9,437.7-1093.1,437.7z
						 M-1136.4,379.3c4.9,2.1,7.2,5.6,13.3,14.7l0.4,0.6c4.4,6.5,4.3,9.6,4.2,12.6c-0.2,3.3-0.3,6.6,6.3,15
						c8,10.2,14.7,12.4,19,12.4c0.5,0,0.8,0,1.2-0.1l-0.1-0.2c-3.1,0.3-10.7-0.5-19.9-12.2c-6.5-8.3-6.5-11.6-6.4-15
						c0.2-2.8,0.3-5.9-4.1-12.5l-0.4-0.6C-1129,384.9-1131.3,381.4-1136.4,379.3z M-1090.7,434.3L-1090.7,434.3L-1090.7,434.3z"/>
				</g>
			</g>
			<g class="st25">
				<g>
					<path class="st10" d="M-1291.8,438.8c-0.3-0.3-8.8-5.9-10.4-14.9c-0.9-5,0.6-10,4.5-14.7c6.8-8.6,12.6-8.7,17.6-8.9
						c4.5-0.2,8-0.3,12.1-6.4l0.4-0.6c9.1-13.6,10.3-15.3,23.6-17.7l0.6,2.9c-12.1,2.3-12.8,3.3-21.5,16.5l-0.4,0.6
						c-5,7.4-10,7.6-14.7,7.8c-4.7,0.2-9.3,0.3-15.1,7.7c-3.2,4.1-4.5,8.3-3.8,12.4c1.3,7.7,9,12.9,9.1,12.9L-1291.8,438.8z"/>
					<path class="st10" d="M-1291.5,440.9l-1.2-0.9c-2.2-1.6-9.5-7.3-11-15.8c-1-5.5,0.6-10.8,4.8-15.9c7.2-9.1,13.5-9.3,18.6-9.5
						h0.2c4.3-0.2,7.1-0.3,10.8-5.7l0.5-0.6c9.2-13.7,10.6-15.8,24.6-18.4l1.4-0.3l1.2,5.8l-1.5,0.3c-11.4,2.2-11.8,2.7-20.5,15.9
						l-0.5,0.7c-5.4,8-10.9,8.2-15.8,8.4h-0.2c-4.6,0.2-8.5,0.3-13.8,7.1c-3,3.8-4.2,7.6-3.5,11.2c1,6.2,6.8,10.6,8.1,11.6h2.5
						L-1291.5,440.9z M-1252.3,379.2c-5.4,2-7.7,5.5-14.1,15l-0.5,0.6c-4.5,6.7-8.7,6.8-13.1,7h-0.1c-5,0.2-10.1,0.4-16.5,8.4
						c-3.6,4.4-5,8.9-4.2,13.5c1.1,6.3,6,11,8.6,13l0,0c-2.8-2.2-7.5-7.1-8.5-12.9c-0.8-4.5,0.6-9.1,4.1-13.6
						c6.2-7.9,11.2-8.1,16.1-8.3h0.2c4.6-0.2,8.9-0.3,13.5-7.1l0.5-0.6C-1259.9,384.7-1257.6,381.2-1252.3,379.2z"/>
				</g>
			</g>
			<g class="st25">
				<g>
					<path class="st10" d="M-1093.1,436.2c-4.1,0-11.5-1.8-20.2-12.9c-6.9-8.7-6.8-12.4-6.6-16c0.1-2.9,0.2-5.6-3.9-11.7l-0.4-0.6
						c-8.8-13.2-9.5-14.3-21.5-16.5l0.6-2.9c13.4,2.5,14.6,4.3,23.6,17.7l0.4,0.6c4.6,6.9,4.5,10.3,4.4,13.4
						c-0.1,3.2-0.2,6.2,6,14.1c11.4,14.3,19.6,11.5,19.7,11.5l1.2,2.8C-1089.9,435.7-1091.2,436.2-1093.1,436.2z"/>
					<path class="st10" d="M-1093.1,437.7c-4.9,0-12.7-2.3-21.4-13.5c-7.3-9.3-7.1-13.4-7-17c0.1-2.7,0.2-5.1-3.7-10.8l-0.4-0.6
						c-8.9-13.3-9.2-13.8-20.6-15.9l-1.5-0.3l1.2-5.8l1.4,0.3c14.1,2.7,15.5,4.8,24.6,18.4l0.4,0.6c4.7,6.9,4.9,10.6,4.6,14.3
						c-0.1,3-0.2,5.6,5.7,13.1c10.1,12.6,17.3,11.1,18.1,10.9h0.2h1.2l1.9,4.3l-0.3,0.6C-1089.2,437.5-1091.9,437.7-1093.1,437.7z
						 M-1136.4,379.3c4.9,2.1,7.2,5.6,13.3,14.7l0.4,0.6c4.4,6.5,4.3,9.6,4.2,12.6c-0.2,3.3-0.3,6.6,6.3,15
						c8,10.2,14.7,12.4,19,12.4c0.5,0,0.8,0,1.2-0.1l-0.1-0.2c-3.1,0.3-10.7-0.5-19.9-12.2c-6.5-8.3-6.5-11.6-6.4-15
						c0.2-2.8,0.3-5.9-4.1-12.5l-0.4-0.6C-1129,384.9-1131.3,381.4-1136.4,379.3z M-1090.7,434.3L-1090.7,434.3L-1090.7,434.3z"/>
				</g>
			</g>
			<g class="st22">
				<g>
					<path class="st23" d="M-1291.8,438.8c-0.3-0.3-8.8-5.9-10.4-14.9c-0.9-5,0.6-10,4.5-14.7c6.8-8.6,12.6-8.7,17.6-8.9
						c4.5-0.2,8-0.3,12.1-6.4l0.4-0.6c9.1-13.6,10.3-15.3,23.6-17.7l0.6,2.9c-12.1,2.3-12.8,3.3-21.5,16.5l-0.4,0.6
						c-5,7.4-10,7.6-14.7,7.8c-4.7,0.2-9.3,0.3-15.1,7.7c-3.2,4.1-4.5,8.3-3.8,12.4c1.3,7.7,9,12.9,9.1,12.9L-1291.8,438.8z"/>
					<path class="st23" d="M-1291.5,440.9l-1.2-0.9c-2.2-1.6-9.5-7.3-11-15.8c-1-5.5,0.6-10.8,4.8-15.9c7.2-9.1,13.5-9.3,18.6-9.5
						h0.2c4.3-0.2,7.1-0.3,10.8-5.7l0.5-0.6c9.2-13.7,10.6-15.8,24.6-18.4l1.4-0.3l1.2,5.8l-1.5,0.3c-11.4,2.2-11.8,2.7-20.5,15.9
						l-0.5,0.7c-5.4,8-10.9,8.2-15.8,8.4h-0.2c-4.6,0.2-8.5,0.3-13.8,7.1c-3,3.8-4.2,7.6-3.5,11.2c1,6.2,6.8,10.6,8.1,11.6h2.5
						L-1291.5,440.9z M-1252.3,379.2c-5.4,2-7.7,5.5-14.1,15l-0.5,0.6c-4.5,6.7-8.7,6.8-13.1,7h-0.1c-5,0.2-10.1,0.4-16.5,8.4
						c-3.6,4.4-5,8.9-4.2,13.5c1.1,6.3,6,11,8.6,13l0,0c-2.8-2.2-7.5-7.1-8.5-12.9c-0.8-4.5,0.6-9.1,4.1-13.6
						c6.2-7.9,11.2-8.1,16.1-8.3h0.2c4.6-0.2,8.9-0.3,13.5-7.1l0.5-0.6C-1259.9,384.7-1257.6,381.2-1252.3,379.2z"/>
				</g>
			</g>
			<g class="st22">
				<g>
					<path class="st23" d="M-1093.1,436.2c-4.1,0-11.5-1.8-20.2-12.9c-6.9-8.7-6.8-12.4-6.6-16c0.1-2.9,0.2-5.6-3.9-11.7l-0.4-0.6
						c-8.8-13.2-9.5-14.3-21.5-16.5l0.6-2.9c13.4,2.5,14.6,4.3,23.6,17.7l0.4,0.6c4.6,6.9,4.5,10.3,4.4,13.4
						c-0.1,3.2-0.2,6.2,6,14.1c11.4,14.3,19.6,11.5,19.7,11.5l1.2,2.8C-1089.9,435.7-1091.2,436.2-1093.1,436.2z"/>
					<path class="st23" d="M-1093.1,437.7c-4.9,0-12.7-2.3-21.4-13.5c-7.3-9.3-7.1-13.4-7-17c0.1-2.7,0.2-5.1-3.7-10.8l-0.4-0.6
						c-8.9-13.3-9.2-13.8-20.6-15.9l-1.5-0.3l1.2-5.8l1.4,0.3c14.1,2.7,15.5,4.8,24.6,18.4l0.4,0.6c4.7,6.9,4.9,10.6,4.6,14.3
						c-0.1,3-0.2,5.6,5.7,13.1c10.1,12.6,17.3,11.1,18.1,10.9h0.2h1.2l1.9,4.3l-0.3,0.6C-1089.2,437.5-1091.9,437.7-1093.1,437.7z
						 M-1136.4,379.3c4.9,2.1,7.2,5.6,13.3,14.7l0.4,0.6c4.4,6.5,4.3,9.6,4.2,12.6c-0.2,3.3-0.3,6.6,6.3,15
						c8,10.2,14.7,12.4,19,12.4c0.5,0,0.8,0,1.2-0.1l-0.1-0.2c-3.1,0.3-10.7-0.5-19.9-12.2c-6.5-8.3-6.5-11.6-6.4-15
						c0.2-2.8,0.3-5.9-4.1-12.5l-0.4-0.6C-1129,384.9-1131.3,381.4-1136.4,379.3z M-1090.7,434.3L-1090.7,434.3L-1090.7,434.3z"/>
				</g>
			</g>
			<g class="st24">
				<g>
					<path class="st23" d="M-1291.8,438.8c-0.3-0.3-8.8-5.9-10.4-14.9c-0.9-5,0.6-10,4.5-14.7c6.8-8.6,12.6-8.7,17.6-8.9
						c4.5-0.2,8-0.3,12.1-6.4l0.4-0.6c9.1-13.6,10.3-15.3,23.6-17.7l0.6,2.9c-12.1,2.3-12.8,3.3-21.5,16.5l-0.4,0.6
						c-5,7.4-10,7.6-14.7,7.8c-4.7,0.2-9.3,0.3-15.1,7.7c-3.2,4.1-4.5,8.3-3.8,12.4c1.3,7.7,9,12.9,9.1,12.9L-1291.8,438.8z"/>
					<path class="st23" d="M-1291.5,440.9l-1.2-0.9c-2.2-1.6-9.5-7.3-11-15.8c-1-5.5,0.6-10.8,4.8-15.9c7.2-9.1,13.5-9.3,18.6-9.5
						h0.2c4.3-0.2,7.1-0.3,10.8-5.7l0.5-0.6c9.2-13.7,10.6-15.8,24.6-18.4l1.4-0.3l1.2,5.8l-1.5,0.3c-11.4,2.2-11.8,2.7-20.5,15.9
						l-0.5,0.7c-5.4,8-10.9,8.2-15.8,8.4h-0.2c-4.6,0.2-8.5,0.3-13.8,7.1c-3,3.8-4.2,7.6-3.5,11.2c1,6.2,6.8,10.6,8.1,11.6h2.5
						L-1291.5,440.9z M-1252.3,379.2c-5.4,2-7.7,5.5-14.1,15l-0.5,0.6c-4.5,6.7-8.7,6.8-13.1,7h-0.1c-5,0.2-10.1,0.4-16.5,8.4
						c-3.6,4.4-5,8.9-4.2,13.5c1.1,6.3,6,11,8.6,13l0,0c-2.8-2.2-7.5-7.1-8.5-12.9c-0.8-4.5,0.6-9.1,4.1-13.6
						c6.2-7.9,11.2-8.1,16.1-8.3h0.2c4.6-0.2,8.9-0.3,13.5-7.1l0.5-0.6C-1259.9,384.7-1257.6,381.2-1252.3,379.2z"/>
				</g>
			</g>
			<g class="st24">
				<g>
					<path class="st23" d="M-1093.1,436.2c-4.1,0-11.5-1.8-20.2-12.9c-6.9-8.7-6.8-12.4-6.6-16c0.1-2.9,0.2-5.6-3.9-11.7l-0.4-0.6
						c-8.8-13.2-9.5-14.3-21.5-16.5l0.6-2.9c13.4,2.5,14.6,4.3,23.6,17.7l0.4,0.6c4.6,6.9,4.5,10.3,4.4,13.4
						c-0.1,3.2-0.2,6.2,6,14.1c11.4,14.3,19.6,11.5,19.7,11.5l1.2,2.8C-1089.9,435.7-1091.2,436.2-1093.1,436.2z"/>
					<path class="st23" d="M-1093.1,437.7c-4.9,0-12.7-2.3-21.4-13.5c-7.3-9.3-7.1-13.4-7-17c0.1-2.7,0.2-5.1-3.7-10.8l-0.4-0.6
						c-8.9-13.3-9.2-13.8-20.6-15.9l-1.5-0.3l1.2-5.8l1.4,0.3c14.1,2.7,15.5,4.8,24.6,18.4l0.4,0.6c4.7,6.9,4.9,10.6,4.6,14.3
						c-0.1,3-0.2,5.6,5.7,13.1c10.1,12.6,17.3,11.1,18.1,10.9h0.2h1.2l1.9,4.3l-0.3,0.6C-1089.2,437.5-1091.9,437.7-1093.1,437.7z
						 M-1136.4,379.3c4.9,2.1,7.2,5.6,13.3,14.7l0.4,0.6c4.4,6.5,4.3,9.6,4.2,12.6c-0.2,3.3-0.3,6.6,6.3,15
						c8,10.2,14.7,12.4,19,12.4c0.5,0,0.8,0,1.2-0.1l-0.1-0.2c-3.1,0.3-10.7-0.5-19.9-12.2c-6.5-8.3-6.5-11.6-6.4-15
						c0.2-2.8,0.3-5.9-4.1-12.5l-0.4-0.6C-1129,384.9-1131.3,381.4-1136.4,379.3z M-1090.7,434.3L-1090.7,434.3L-1090.7,434.3z"/>
				</g>
			</g>
			<g>
				<path class="st10" d="M-1115,520.7c-2.8,1.8-7.9,3.4-14.5,4.7c-28.7,5.8-84.6,7.6-84.6,7.6s-29.3-1.7-48.3-7.6
					c-4.3-1.3-8.1-2.9-10.9-4.7c0,0,10.6-103.7,14.9-124.4c0.9-4.5,2-10.1,3-16.3c0.2-1.2,0.4-2.4,0.6-3.6
					c1.4-8.8,2.7-18.4,3.7-27.8c1-9.4,1.5-18.7,1.4-26.4c0-3.5-0.3-6.7-0.6-9.5l-0.5-3.8c0,0-1.4-3.8-3.3-9.4
					c-4.3-13.2-11.2-36.7-8.2-46.2c0.5-1.6,1.3-2.9,2.5-3.5c12.5-7.3,27-8.8,27-8.8l10.8-3.1l0.3-0.1c4.6,3.2,16.8,5.4,29.9,5.4
					c12.9,0,25.4-3.7,30.1-6.9c0,0,0.1,0,0.1-0.1l6.6,3.7c0,0,14.4,2.5,26.8,9.8c0,0-5.1,52.9-7.4,48.6l-2.2,14.5
					c-2,15.4,1.1,42.5,4.5,63.9c0.2,1.2,0.4,2.5,0.6,3.6c1,6.1,2,11.6,3,16.1C-1125.5,417-1115,520.7-1115,520.7z"/>
				<path class="st16" d="M-1115,520.7c-2.8,1.8-7.9,3.4-14.5,4.7c-28.7,5.8-84.6,7.6-84.6,7.6s-29.3-1.7-48.3-7.6
					c-4.3-1.3-8.1-2.9-10.9-4.7c0,0,10.6-103.7,14.9-124.4c0.9-4.5,2-10.1,3-16.3c0.2-1.2,0.4-2.4,0.6-3.6
					c1.4-8.8,2.7-18.4,3.7-27.8c1-9.4,1.5-18.7,1.4-26.4c0-3.5-0.3-6.7-0.6-9.5l-0.5-3.8c0,0-1.4-3.8-3.3-9.4
					c-4.3-13.2-11.2-36.7-8.2-46.2c0.5-1.6,1.3-2.9,2.5-3.5c12.5-7.3,27-8.8,27-8.8l10.8-3.1l0.3-0.1c4.6,3.2,16.8,5.4,29.9,5.4
					c12.9,0,25.4-3.7,30.1-6.9c0,0,0.1,0,0.1-0.1l6.6,3.7c0,0,14.4,2.5,26.8,9.8c0,0-5.1,52.9-7.4,48.6l-2.2,14.5
					c-2,15.4,1.1,42.5,4.5,63.9c0.2,1.2,0.4,2.5,0.6,3.6c1,6.1,2,11.6,3,16.1C-1125.5,417-1115,520.7-1115,520.7z"/>
				<path class="st17" d="M-1115,520.7c-2.8,1.8-7.9,3.4-14.5,4.7c-28.7,5.8-84.6,7.6-84.6,7.6s-29.3-1.7-48.3-7.6
					c-4.3-1.3-8.1-2.9-10.9-4.7c0,0,10.6-103.7,14.9-124.4c2.4-11.6,5.5-30.1,7.3-47.7c-1.6,43.6-0.5,107.4,17.6,130.9
					c28.5,36.9,37.6,39.5,67.7,35.9C-1135.8,511.7-1115,520.7-1115,520.7z"/>
			</g>
			<g class="st25">
				<path class="st23" d="M-1163.2,231.6c-6.9,4-31.7,15.3-56.9,2c-1.6-0.8-1.1,1.9-1.9,3.4l-0.3,0.7c0,0,32.8,22,60.6-1.5l-0.3-0.8
					C-1162.4,234-1161.9,230.8-1163.2,231.6z"/>
			</g>
			<g>
				<path class="st10" d="M-1163.2,231.6c-6.9,4-31.7,15.3-56.9,2c-1.6-0.8-1.1,1.9-1.9,3.4l-0.3,0.7c0,0,32.8,22,60.6-1.5l-0.3-0.8
					C-1162.4,234-1161.9,230.8-1163.2,231.6z"/>
			</g>
			<g class="st22">
				<path class="st23" d="M-1163.2,231.6c-6.9,4-31.7,15.3-56.9,2c-1.6-0.8-1.1,1.9-1.9,3.4l-0.3,0.7c0,0,32.8,22,60.6-1.5l-0.3-0.8
					C-1162.4,234-1161.9,230.8-1163.2,231.6z"/>
			</g>
		</g>
	</g>
</g>
</svg>
