<?xml version="1.0" encoding="utf-8"?>
<!-- Generator: Adobe Illustrator 22.1.0, SVG Export Plug-In . SVG Version: 6.00 Build 0)  -->
<svg version="1.1" id="Layer_1" xmlns="http://www.w3.org/2000/svg" xmlns:xlink="http://www.w3.org/1999/xlink" x="0px" y="0px"
	 viewBox="0 0 300.5 821.3" style="enable-background:new 0 0 300.5 821.3;" xml:space="preserve">
<style type="text/css">
	.st0{fill:#0E131A;}
	.st1{fill:#22366B;}
	.st2{fill:#18294C;}
	.st3{fill:#CFCFCF;}
	.st4{fill:#43362C;}
	.st5{fill:#22AA66;}
	.st6{fill:#24BF77;}
	.st7{fill:#FCAE88;}
	.st8{opacity:0.32;fill:#B06D4D;enable-background:new    ;}
	.st9{fill:#F8BA8C;}
	.st10{fill:#1E3144;}
	.st11{fill:#FFFFFF;}
	.st12{fill:#DB7269;}
	.st13{fill:#FFC5B6;}
	.st14{fill:#24AA63;}
	.st15{fill:#209E5F;}
	.st16{fill:#FFFFFF;enable-background:new    ;}
	.st17{opacity:5.000000e-02;fill:#38BBFC;enable-background:new    ;}
	.st18{opacity:0.2;fill:#38BBFC;enable-background:new    ;}
</style>
<g>
	<g id="OBJECT_2_">
		<g>
			<g>
				<g id="doctor_2_">
					<g>
						<g>
							<polygon class="st0" points="202.4,756.9 203.7,723.7 185.9,723.7 184.5,756.9 							"/>
							<g>
								<path class="st1" d="M254.6,773.1h-80.9c0,0-1.9-6.8-0.9-11.1c0.4-1.7,1.1-3,2.6-3.4c0-5.3,2.5-16.1,10.3-17.5l0,0
									c-0.1,0.4-1.4,11.2,15.3,0c4.2-2.8,27.7,21.1,45,20.8c4-0.1,6.4,4,7.5,7.3C254.3,771.4,254.6,773.1,254.6,773.1z"/>
								<path class="st2" d="M185.7,741.1c-0.2,0.3-9.2,12.9-5.3,22.4c-2.6,0-5.1-0.6-7.6-1.5c0.4-1.7,1.1-3,2.6-3.4
									C175.4,753.3,177.9,742.4,185.7,741.1C185.7,741,185.7,741,185.7,741.1z"/>
								<rect x="173.5" y="773.1" class="st3" width="81.2" height="2.1"/>
								<path class="st2" d="M254.6,773.1h-80.9c0,0-3.6-13.1,1.7-14.5c0,0,49.4,19.8,78.2,10.6
									C254.3,771.4,254.6,773.1,254.6,773.1z"/>
								<g>
									<path class="st4" d="M211.9,751.1c0,1-0.8,1.8-1.8,1.8s-1.8-0.8-1.8-1.8s0.8-1.8,1.8-1.8S211.9,750.1,211.9,751.1z"/>
									<path class="st4" d="M217.8,754.3c0,1-0.8,1.8-1.8,1.8s-1.8-0.8-1.8-1.8s0.8-1.8,1.8-1.8S217.8,753.3,217.8,754.3z"/>
									<path class="st4" d="M223.7,757.5c0,1-0.8,1.8-1.8,1.8s-1.8-0.8-1.8-1.8s0.8-1.8,1.8-1.8S223.7,756.5,223.7,757.5z"/>
								</g>
							</g>
						</g>
						<g>
							<polygon class="st0" points="108.3,756.9 106.9,723.7 124.8,723.7 126.1,756.9 							"/>
							<g>
								<path class="st1" d="M56,773.1h80.9c0,0,1.9-6.8,0.9-11.1c-0.4-1.7-1.1-3-2.6-3.4c0-5.3-2.5-16.1-10.3-17.5l0,0
									c0.1,0.4,1.4,11.2-15.3,0c-4.2-2.8-27.7,21.1-45,20.8c-4.1-0.1-6.4,4-7.5,7.3C56.3,771.4,56,773.1,56,773.1z"/>
								<path class="st2" d="M124.9,741.1c0.2,0.3,9.2,12.9,5.3,22.4c2.6,0,5.1-0.6,7.6-1.5c-0.4-1.7-1.1-3-2.6-3.4
									C135.2,753.3,132.7,742.4,124.9,741.1C124.9,741,124.9,741,124.9,741.1z"/>
								<rect x="55.5" y="773.1" class="st3" width="81.2" height="2.1"/>
								<path class="st2" d="M56,773.1h80.9c0,0,3.6-13.1-1.7-14.5c0,0-49.4,19.8-78.2,10.6C56.3,771.4,56,773.1,56,773.1z"/>
								<g>
									<path class="st4" d="M98.7,751.1c0,1,0.8,1.8,1.8,1.8s1.8-0.8,1.8-1.8s-0.8-1.8-1.8-1.8S98.7,750.1,98.7,751.1z"/>
									<path class="st4" d="M92.8,754.3c0,1,0.8,1.8,1.8,1.8s1.8-0.8,1.8-1.8s-0.8-1.8-1.8-1.8C93.6,752.5,92.8,753.3,92.8,754.3z
										"/>
									<path class="st4" d="M86.9,757.5c0,1,0.8,1.8,1.8,1.8s1.8-0.8,1.8-1.8s-0.8-1.8-1.8-1.8S86.9,756.5,86.9,757.5z"/>
								</g>
							</g>
						</g>
						<g>
							<path class="st5" d="M89.9,395.2l8.9,346.2h37.9c6.7-146.1,14.2-288.1,14.2-288.1s2.5,117.2,23.9,288.1h35.4l4.4-346.2H89.9z
								"/>
						</g>
					</g>
				</g>
				<path class="st6" d="M215.3,401.6C195,417.1,113,414.7,90.8,400.7c-2.9-17.6-3.2-140.8-3.2-140.8s-17.1-53.8-12-59.5
					c10.3-11.7,70.2-25.8,70.2-25.8s64.2,14.2,71.3,24.2c3.4,4.9-4.6,50.6-4.6,99.5C212.5,319.6,215.3,390.6,215.3,401.6z"/>
				<g>
					<rect x="131.1" y="158.5" class="st7" width="30.4" height="36.7"/>
					<path class="st8" d="M131.1,158.5V174c4.7,3.2,9.8,5,15.2,5s10.5-1.8,15.2-5v-15.5H131.1z"/>
				</g>
				<g>
					<path class="st9" d="M247.6,461.2c2-7.1-8-33.1-14-32.9c-5,0.1-13.1,20.2-12.7,29.7c1.9,1.1,3.4,4.9,4.2,6.8
						C225.8,466.7,245.6,468.3,247.6,461.2z"/>
					<path class="st9" d="M232.1,485.5c-0.4-5.2-0.9-13.3-0.7-20.4c1.7-0.1,3.3-0.4,4.8-1c1,6.6,1.5,15,1.7,20
						c0.4,7.3-0.6,11.1-2.6,11.3C233.7,495.6,232.6,492.2,232.1,485.5z"/>
					<path class="st9" d="M239.2,482.7c-0.7-4.8-1.7-12.4-2-19.1c1.6-0.1,3.6-0.8,5.1-1.4c1.4,6.1,1.9,14.3,2.5,19
						c0.9,6.8,0.1,10.4-1.8,10.7C241.4,492.2,240.1,489,239.2,482.7z"/>
					<path class="st9" d="M245,478.1c-0.6-4.1-1.4-10.6-1.7-16.3c1.4-0.1,3.1-0.7,4.4-1.2c1.2,5.2,1.6,12.2,2.1,16.2
						c0.7,5.8,0.1,8.9-1.5,9.1C246.8,486.1,245.8,483.4,245,478.1z"/>
					<path class="st9" d="M224.3,483.2c0.1-4.9,0.1-14.3,1-20.9c1.6,0.1,4,1.6,5.5,1.3c0.4,6.3-0.5,14.4-0.7,19.2
						c-0.3,6.9-1.6,10.2-3.5,10.2C224.9,492.9,224.2,489.5,224.3,483.2z"/>
				</g>
				<path class="st9" d="M243.1,440.7l-17.3-2.2c0,0,4.4-94.1-1.4-122c-6.4-30.9-23.3-62.2-23.3-62.2s1.6-66.8,15.2-55.7
					c12.9,10.6,34.7,75.3,39.4,118.4C259.2,350.2,243.1,440.7,243.1,440.7z"/>
				<g>
					<g>
						<path class="st9" d="M60.3,459c-2.3-7,6.6-33.3,12.6-33.4c5,0,13.9,19.7,13.9,29.2c-1.9,1.2-3.2,5.1-3.9,7
							C82.2,463.5,62.6,466,60.3,459z"/>
						<path class="st9" d="M76.8,482.6c0.2-5.2,0.4-13.3-0.1-20.4c-1.7,0-3.3-0.3-4.9-0.9c-0.8,6.6-0.8,15.1-1,20.1
							c-0.1,7.3,1.1,11,3,11.2C75.6,492.8,76.5,489.3,76.8,482.6z"/>
						<path class="st9" d="M69.6,480.1c0.6-4.9,1.2-12.5,1.2-19.2c-1.6,0-3.7-0.6-5.2-1.2c-1.2,6.2-1.3,14.4-1.7,19.1
							c-0.6,6.9,0.4,10.4,2.3,10.6C67.8,489.6,69,486.4,69.6,480.1z"/>
						<path class="st9" d="M63.6,475.7c0.5-4.2,1-10.7,1-16.4c-1.4,0-3.1-0.5-4.4-1c-1,5.3-1.1,12.3-1.4,16.3
							c-0.5,5.9,0.3,8.8,1.9,9C62.1,483.8,63,481,63.6,475.7z"/>
						<path class="st9" d="M84.4,480c-0.3-4.9-0.7-14.3-1.8-20.9c-1.6,0.2-3.9,1.8-5.5,1.5c-0.2,6.3,1.1,14.4,1.5,19.1
							c0.6,6.9,2.1,10.1,4,10.1C84.2,489.6,84.9,486.3,84.4,480z"/>
					</g>
					<path class="st9" d="M62.9,441.4l19.3-3.1c0,0-12.4-90.5-8-118.5c4.9-31.1,21-64.7,21-64.7s-3.1-67.6-16.1-56
						C67,210,41.9,274.6,39.5,317.8C37.6,351.1,62.9,441.4,62.9,441.4z"/>
				</g>
				<g>
					<g>
						<polygon class="st5" points="146.4,194.6 133.4,205.7 117.8,181.4 129.9,177.3 						"/>
					</g>
					<g>
						<polygon class="st5" points="146.4,194.6 157.9,205.6 178.1,182 161.5,177.5 						"/>
					</g>
				</g>
			</g>
			<g>
				<g>
					<path class="st7" d="M182.6,120.1c0,0,2.8-6.3,6.1-4.5s-2.4,27.6-6.3,24.2C178.5,136.3,182.6,120.1,182.6,120.1z"/>
					<path class="st7" d="M114.5,120.1c0,0-2.8-6.3-6.1-4.5c-3.3,1.8,2.4,27.6,6.3,24.2C118.6,136.3,114.5,120.1,114.5,120.1z"/>
					<path class="st7" d="M148.7,173.9L148.7,173.9c-5.3,0-10.4-2.3-14.1-6.4c-7.8-8.7-20.4-24.2-20.4-33.8L112,96.4
						C112,76,129.6,63,148.7,63l0,0c11.8,0,23.1,4.9,29.9,13.5c4.2,5.3,6.8,11.9,6.8,19.7l-2.1,37.5c0,9.7-12.6,25.1-20.4,33.8
						C159.2,171.6,154.1,173.9,148.7,173.9z"/>
					<path class="st10" d="M189.7,61.6c-1.3-2.6-2.9-5.1-4.7-7.4c-6.3-8-15.7-13.8-25.8-14.8c-7.7-0.8-15.4,1.1-22.8,3.3
						c-4.2,1.3-8.5,2.7-12.1,5.3s-6.5,6.4-6.9,10.8c-2.4-0.2-4.7,1.1-6.3,3c-1.5,1.9-2.4,4.2-3.1,6.5c-1.1,3.5-1.8,7.2-2.3,10.9
						c-0.9,7.1-0.7,14.3,0.7,21.3c1.2,6.3,3.9,12,5.3,18.4c1,4.7,2.6,10,2.5,14.8l0.3-15.7c0.1-3.4-0.1-6.8,0-10.3
						c0-1.4-0.1-3,0.1-4.4c0.2-1.6,1-2.1,2-3.2c1.2-1.4,1.5-3.3,1.8-5.1c0.8-6.2,1.6-12.3,2.3-18.5c5.9,4,11,8.8,16.2,13.5
						c1.9,1.8,4.8,3.2,7,4.6c2.8,1.7,5.8,3,9,3.6c1.7,0.3,3.5,0.4,4.9-0.5s2-3.2,0.8-4.3c3.8,1.8,7.6,3.7,11.8,4.2s8.8-0.7,11.3-4.1
						c1.9,7.8,1.5,16.5,1.2,24.4l0.3,15.7c0.1-3.6,0.9-7.2,1.6-10.7c2.3-11.5,4.3-23,6-34.7c1.3,0.8,3.1-0.1,3.8-1.4
						s0.7-2.9,0.6-4.5C194.8,75.2,193,68,189.7,61.6z"/>
				</g>
				<g>
					<path class="st8" d="M153.4,139.7c-2.1,1-5,1.4-5,1.4s-2.9-0.4-5-1.4s-3.8-1.5-3.8-0.9s4.8,5.9,8.8,5.9s8.7-5.3,8.8-5.9
						C157.3,138.2,155.5,138.7,153.4,139.7z"/>
					<g>
						<g>
							<path class="st10" d="M131.7,123.5c5.6,0,5.6-8.6,0-8.6S126.1,123.5,131.7,123.5L131.7,123.5z"/>
						</g>
						<path class="st11" d="M134.2,118.2c0,0.7-0.6,1.3-1.3,1.3s-1.3-0.6-1.3-1.3c0-0.7,0.6-1.3,1.3-1.3
							C133.6,116.8,134.2,117.4,134.2,118.2z"/>
						<g>
							<path class="st10" d="M125.5,118.3c4.1-2.8,8.4-0.7,12.7,0.1c0.5,0.1,1-0.5,0.5-0.9C135,114.5,127.8,112.8,125.5,118.3
								C125.4,118.3,125.5,118.4,125.5,118.3L125.5,118.3z"/>
						</g>
					</g>
					<g>
						<g>
							<path class="st10" d="M164.9,123.5c-5.6,0-5.6-8.6,0-8.6C170.4,114.9,170.5,123.5,164.9,123.5L164.9,123.5z"/>
						</g>
						<path class="st11" d="M162.4,118.2c0,0.7,0.6,1.3,1.3,1.3s1.3-0.6,1.3-1.3c0-0.7-0.6-1.3-1.3-1.3
							C163,116.8,162.4,117.4,162.4,118.2z"/>
						<g>
							<path class="st10" d="M171.1,118.2c-2.3-5.5-9.6-3.7-13.3-0.8c-0.5,0.4,0.1,1,0.5,0.9C162.7,117.7,166.9,115.5,171.1,118.2
								C171.1,118.4,171.2,118.3,171.1,118.2L171.1,118.2z"/>
						</g>
					</g>
					<g>
						<path class="st10" d="M119.4,103.8c3.8-0.8,8-0.8,11.8-0.1c2.8,0.4,5.6,1.8,8.4,1.6c0.9-0.1,1.3-1,0.7-1.7
							c-4.8-5.3-15.5-2.7-21.1-0.4C118.9,103.4,119,103.9,119.4,103.8L119.4,103.8z"/>
					</g>
					<g>
						<path class="st10" d="M178.2,103.2c-5.7-2.3-16.3-4.9-21.1,0.4c-0.6,0.7-0.2,1.6,0.7,1.7c2.8,0.2,5.6-1.2,8.4-1.6
							c3.9-0.6,8-0.6,11.8,0.1C178.5,103.9,178.6,103.4,178.2,103.2L178.2,103.2z"/>
					</g>
					<g>
						<path class="st12" d="M138,149.9c1.9,0.4,3.6,0.8,5.3,1c1.7,0.3,3.4,0.4,5.1,0.4c1.7,0,3.4-0.1,5.1-0.3
							c1.7-0.2,3.5-0.5,5.3-0.9c-1.3,1.4-3,2.4-4.8,3.1c-1.8,0.7-3.8,1-5.7,1s-3.9-0.4-5.7-1.1C140.9,152.4,139.3,151.3,138,149.9z"
							/>
					</g>
					<g>
						<path class="st13" d="M148.5,124.8c-0.6,2.6-0.1,5,0.2,7.6c0.3,2,0.2,4.4,1.4,6.1c0.4,0.5,1.2,0.5,1.4-0.2
							c0.6-2-0.2-4.2-0.6-6.2c-0.4-2.6-0.7-5-1.9-7.3C149,124.5,148.6,124.6,148.5,124.8L148.5,124.8z"/>
					</g>
				</g>
			</g>
		</g>
		<path class="st14" d="M156.8,400.2c-27.8,1-49.9-13.1-54.3-27.7s-3.2-77.3-5.1-104.8c-1.3-18.9-8.4-34-20.8-45.9
			c3.9,17.3,10.3,37.5,10.3,37.5s1.8,124.8,3.2,140.8c15.5,11.3,67.5,14.2,101.6,8.9C180.1,408.6,168,399.8,156.8,400.2z"/>
		<path class="st6" d="M214.6,196.5c0,0-30.8,7.8-19.4,53.5c0,0,18.8,42.7,22,44.3c3.2,1.6,32.6-17.2,32.9-19.5
			S235.5,215.3,214.6,196.5z"/>
		<path class="st6" d="M79.4,197.7c-2.5,0.4-18,21.8-36.5,83.9c0,0,34,14.2,39,14.5s19.3-47.7,19.3-47.7S104.7,189.8,79.4,197.7z"/>
		<path class="st15" d="M214.4,404.9c-38.8,11.8-82.4,11.2-123.5,5.4c0,0-1.8-2.3-1.6-3.9c0.3-1.6,2.2-7.5,5.1-5.8
			s14.8,4.9,24.9,6.1s32,0.1,33.8,0.6s34.9,0,34.9,0L214.4,404.9z"/>
	</g>
	<path class="st9" d="M213.2,456.1c3.8-3,7.2-13.8,12.9-17.1c0.9,1.4,5.3,8.1,6.5,9.1c-4.8,4.1-10.4,9-14.3,11.7
		c-5.7,3.9-10.3,2.4-11.4,0.9C205.9,459.5,211.2,457.7,213.2,456.1z"/>
	<path class="st9" d="M92.9,452.8c-3.9-3-7.3-13.7-13.1-17c-0.9,1.4-5.2,8.2-6.4,9.2c4.8,4.1,10.4,9,14.4,11.6
		c5.7,3.8,10.3,2.3,11.4,0.8C100.1,456.1,94.8,454.3,92.9,452.8z"/>
	<path class="st9" d="M92.9,452.8c-3.9-3-7.3-13.7-13.1-17c-0.9,1.4-5.2,8.2-6.4,9.2c4.8,4.1,10.4,9,14.4,11.6
		c5.7,3.8,10.3,2.3,11.4,0.8C100.1,456.1,94.8,454.3,92.9,452.8z"/>
	<path class="st9" d="M213.2,456.1c3.8-3,7.2-13.8,12.9-17.1c0.9,1.4,5.3,8.1,6.5,9.1c-4.8,4.1-10.4,9-14.3,11.7
		c-5.7,3.9-10.3,2.4-11.4,0.9C205.9,459.5,211.2,457.7,213.2,456.1z"/>
	<g>
		<g>
			<path class="st11" d="M121.4,205.9c-6-4.5-14.3-13.7-15.8-20.8c1.2-0.4,2.3-0.8,3.2-1c0.8,4.2,6.7,11.2,9.5,14.5L121.4,205.9z"/>
			<path class="st11" d="M166.7,211.4c-5,2.4-13.7,3.8-19.8,3.8c-6.4,0-15.4-1.5-20.6-4.2l11.6,0.1c2.9,0.8,5.9,1.2,9,1.2
				c2.8,0,8.6-0.3,11.2-1L166.7,211.4z"/>
			<path class="st11" d="M186.6,182.8c-1,8.2-7.7,18.5-14.6,23.5l2.5-6.4c3.7-4,8.1-12,8.8-17.4C184,182.6,185.2,182.7,186.6,182.8z
				"/>
			<path class="st11" d="M187.1,620.1c-1.2,0.2-2.4,0.5-3.6,0.7c-0.1,0-0.1,0-0.2,0c-1.3,0.2-2.6,0.5-3.9,0.7
				c-2.3,0.4-4.7,0.8-7.1,1.1c-0.8,0.1-1.6,0.2-2.4,0.3c-12.2,1.6-25,2.4-36.8,2.6h-7c-23.5-0.3-41.7-3.5-41.9-9.5
				c-0.6-17.1,3.4-125.2,3.4-125.2s-0.4-12.7-0.7-29.2v-0.2c-0.5-24.9-0.9-58.3,0.3-70.3v0c0.2-2.2,0.5-3.7,0.8-4.3
				c1.8-3,0.6-28.6-0.6-52.7c0-0.1,0-0.1,0-0.2c-1-17.1-1.9-33.6-2-40.6V293c0-1.1,0-1.9,0-2.5c0,0,0-0.1,0-0.1c0,0,0,0,0,0
				c0.1-1.1,0.2-2.5,0.3-4.1c0.2-2.3,0.3-4.9,0.5-7.7c0.2-2.7,0.3-5.6,0.5-8.2c0.4-7.1,0.7-13,0.7-13s-4.5-19.3-5-37.4v0
				c-0.2-9.6,0.6-18.8,4-24.7c0,0,0,0,0-0.1c0.8-1.5,1.8-2.7,3-3.7c0.2-0.2,0.5-0.3,0.8-0.6c-5.3,23.2,1.2,95.1,2.5,104.4
				c2,15.4,1.8,35.6,2,51.2c0.4,31.7,6.7,56.8,5.3,88.4c-1.6,36.5-1.4,74.3,14.1,107.6c15.5,33.3,50.2,60.7,87.6,57.1
				c9.3-0.8,18.2-3.5,27.2-6.1C230.2,606.4,211.5,615,187.1,620.1z"/>
			<path class="st16" d="M187.1,620.1c24.4-5.1,43.1-13.7,42-26.4c-9,2.6-17.9,5.3-27.2,6.1c-37.4,3.6-72.1-23.8-87.6-57.1
				c-15.5-33.3-15.7-71.1-14.1-107.6c1.4-31.6-4.9-56.7-5.3-88.4c-0.2-15.6,0-35.8-2-51.2c-1.3-9.2-7.8-81.2-2.5-104.4
				c1.4-0.9,3.9-2.3,4.9-2.6c6.9-2.2,5.9-2.2,9.4-3.1c0.3-0.1,0.6-0.2,0.9-0.3c1.5,7.1,9.8,16.4,15.8,20.8c1.5,1.1,3.2,4.2,4.9,5.1
				c5.2,2.7,14.2,4.2,20.6,4.2c6.1,0,14.8-1.4,19.8-3.8c1.9-0.9,3.6-4,5.3-5.1c6.9-5,13.6-15.2,14.6-23.5c0.1,0,0.3,0,0.4,0
				c9.8,1,15.1,5.5,19.2,7.8c5.7,11.4,7,82.2,7,82.2l8.6,113.4c0,0-1.3,168.1,8,204.9c0.2,0.7,0.3,1.5,0.3,2.1
				C231,606.3,211.9,615,187.1,620.1z"/>
			<path class="st17" d="M187.1,620.1c24.4-5.1,43.1-13.7,42-26.4c-9,2.6-17.9,5.3-27.2,6.1c-37.4,3.6-72.1-23.8-87.6-57.1
				c-15.5-33.3-15.7-71.1-14.1-107.6c1.4-31.6-4.9-56.7-5.3-88.4c-0.2-15.6,0-35.8-2-51.2c-1.3-9.2-7.8-81.2-2.5-104.4
				c1.4-0.9,3.9-2.3,4.9-2.6c6.9-2.2,5.9-2.2,9.4-3.1c0.3-0.1,0.6-0.2,0.9-0.3c1.5,7.1,9.8,16.4,15.8,20.8c1.5,1.1,3.2,4.2,4.9,5.1
				c5.2,2.7,14.2,4.2,20.6,4.2c6.1,0,14.8-1.4,19.8-3.8c1.9-0.9,3.6-4,5.3-5.1c6.9-5,13.6-15.2,14.6-23.5c0.1,0,0.3,0,0.4,0
				c9.8,1,15.1,5.5,19.2,7.8c5.7,11.4,7,82.2,7,82.2l8.6,113.4c0,0-1.3,168.1,8,204.9c0.2,0.7,0.3,1.5,0.3,2.1
				C231,606.3,211.9,615,187.1,620.1z"/>
			<path class="st17" d="M121.4,205.9c-6-4.5-14.3-13.7-15.8-20.8c1.2-0.4,2.3-0.8,3.2-1c0.8,4.2,6.7,11.2,9.5,14.5L121.4,205.9z"/>
			<path class="st17" d="M166.7,211.4c-5,2.4-13.7,3.8-19.8,3.8c-6.4,0-15.4-1.5-20.6-4.2l11.6,0.1c2.9,0.8,5.9,1.2,9,1.2
				c2.8,0,8.6-0.3,11.2-1L166.7,211.4z"/>
			<path class="st17" d="M186.6,182.8c-1,8.2-7.7,18.5-14.6,23.5l2.5-6.4c3.7-4,8.1-12,8.8-17.4C184,182.6,185.2,182.7,186.6,182.8z
				"/>
			<path class="st17" d="M187.1,620.1c-1.2,0.2-2.4,0.5-3.6,0.7c-0.1,0-0.1,0-0.2,0c-1.3,0.2-2.6,0.5-3.9,0.7
				c-2.3,0.4-4.7,0.8-7.1,1.1c-0.8,0.1-1.6,0.2-2.4,0.3c-12.2,1.6-25,2.4-36.8,2.6h-7c-23.5-0.3-41.7-3.5-41.9-9.5
				c-0.6-17.1,3.4-125.2,3.4-125.2s-0.4-12.7-0.7-29.2v-0.2c-0.5-24.9-0.9-58.3,0.3-70.3v0c0.2-2.2,0.5-3.7,0.8-4.3
				c1.8-3,0.6-28.6-0.6-52.7c0-0.1,0-0.1,0-0.2c-1-17.1-1.9-33.6-2-40.6V293c0-1.1,0-1.9,0-2.5c0,0,0-0.1,0-0.1c0,0,0,0,0,0
				c0.1-1.1,0.2-2.5,0.3-4.1c0.2-2.3,0.3-4.9,0.5-7.7c0.2-2.7,0.3-5.6,0.5-8.2c0.4-7.1,0.7-13,0.7-13s-4.5-19.3-5-37.4v0
				c-0.2-9.6,0.6-18.8,4-24.7c0,0,0,0,0-0.1c0.8-1.5,1.8-2.7,3-3.7c0.2-0.2,0.5-0.3,0.8-0.6c-5.3,23.2,1.2,95.1,2.5,104.4
				c2,15.4,1.8,35.6,2,51.2c0.4,31.7,6.7,56.8,5.3,88.4c-1.6,36.5-1.4,74.3,14.1,107.6c15.5,33.3,50.2,60.7,87.6,57.1
				c9.3-0.8,18.2-3.5,27.2-6.1C230.2,606.4,211.5,615,187.1,620.1z"/>
			<path class="st18" d="M187.1,620.1c-1.2,0.2-2.4,0.5-3.6,0.7c-0.1,0-0.1,0-0.2,0c-1.3,0.2-2.6,0.5-3.9,0.7
				c-2.3,0.4-4.7,0.8-7.1,1.1c-0.8,0.1-1.6,0.2-2.4,0.3c-40.1,5.4-86,2.6-86.4-6.7C83,599.2,87,491.1,87,491.1s0-12.8,0-29.4v-0.2
				c0-24.9,0.1-58.2,0.3-70.3v0c0-2,0.1-3.4,0.1-4.1c3.2-5.3-2.1-79.9-1.8-93.7V293c0-0.4,0-0.8,0-1.1c0-0.4,0-0.9,0-1.5
				c0,0,0,0,0,0c-0.2-9.4-4-44.3-3-70.3v0c0.4-10.3,1.5-19.2,4-24.7c0,0,0,0,0-0.1c1-2.3,2.3-3.9,3.9-4.8c0,0.2-0.1,0.4-0.1,0.5
				c-5.3,23.2,1.2,95.1,2.5,104.4c2,15.4,1.8,35.6,2,51.2c0.4,31.7,6.7,56.8,5.3,88.4c-1.6,36.5-1.4,74.3,14.1,107.6
				c15.5,33.3,50.2,60.7,87.6,57.1c9.3-0.8,18.2-3.5,27.2-6.1C230.2,606.4,211.5,615,187.1,620.1z"/>
		</g>
		<path class="st16" d="M186.6,182.8c-1,8.2-7.7,18.5-14.6,23.5c-1.6,1.2-3.4,4.2-5.3,5.1c-5,2.4-13.7,3.8-19.8,3.8
			c-6.4,0-15.4-1.5-20.6-4.2c-1.7-0.9-3.4-3.9-4.9-5.1c-6-4.5-14.3-13.7-15.8-20.8c1.2-0.4,2.3-0.8,3.2-1c0.8,4.2,6.7,11.2,9.5,14.5
			c4,5,12.9,10.7,19.7,12.5c2.9,0.8,5.9,1.2,9,1.2c2.8,0,8.6-0.3,11.2-1c6.5-1.5,12.2-6.9,16.4-11.4c3.7-4,8.1-12,8.8-17.4
			C184,182.6,185.2,182.7,186.6,182.8z"/>
		<path class="st18" d="M186.6,182.8c-1,8.2-7.7,18.5-14.6,23.5c-1.6,1.2-3.4,4.2-5.3,5.1c-5,2.4-13.7,3.8-19.8,3.8
			c-6.4,0-15.4-1.5-20.6-4.2c-1.7-0.9-3.4-3.9-4.9-5.1c-6-4.5-14.3-13.7-15.8-20.8c1.2-0.4,2.3-0.8,3.2-1c0.8,4.2,6.7,11.2,9.5,14.5
			c4,5,12.9,10.7,19.7,12.5c2.9,0.8,5.9,1.2,9,1.2c2.8,0,8.6-0.3,11.2-1c6.5-1.5,12.2-6.9,16.4-11.4c3.7-4,8.1-12,8.8-17.4
			C184,182.6,185.2,182.7,186.6,182.8z"/>
	</g>
	<path class="st9" d="M92.9,452.8c-3.9-3-7.3-13.7-13.1-17c-0.9,1.4-5.2,8.2-6.4,9.2c4.8,4.1,10.4,9,14.4,11.6
		c5.7,3.8,10.3,2.3,11.4,0.8C100.1,456.1,94.8,454.3,92.9,452.8z"/>
	<path class="st9" d="M213.2,456.1c3.8-3,7.2-13.8,12.9-17.1c0.9,1.4,5.3,8.1,6.5,9.1c-4.8,4.1-10.4,9-14.3,11.7
		c-5.7,3.9-10.3,2.4-11.4,0.9C205.9,459.5,211.2,457.7,213.2,456.1z"/>
</g>
<g id="BACKGROUND">
</g>
</svg>
