<?xml version="1.0" encoding="utf-8"?>
<!-- Generator: Adobe Illustrator 22.1.0, SVG Export Plug-In . SVG Version: 6.00 Build 0)  -->
<svg version="1.1" id="Layer_1" xmlns="http://www.w3.org/2000/svg" xmlns:xlink="http://www.w3.org/1999/xlink" x="0px" y="0px"
	 viewBox="0 0 300.5 821.3" style="enable-background:new 0 0 300.5 821.3;" xml:space="preserve">
<style type="text/css">
	.st0{fill:#FCAE88;}
	.st1{fill:#0E131A;}
	.st2{fill:#22366B;}
	.st3{fill:#18294C;}
	.st4{fill:#CFCFCF;}
	.st5{fill:#43362C;}
	.st6{fill:#22AA66;}
	.st7{fill:#24BF77;}
	.st8{opacity:0.32;fill:#B06D4D;enable-background:new    ;}
	.st9{fill:none;stroke:#FFFFFF;stroke-width:2.3315;stroke-linecap:round;stroke-linejoin:round;}
	.st10{fill:none;stroke:#FFFFFF;stroke-width:1.9412;stroke-linecap:round;stroke-linejoin:round;}
	.st11{fill:none;stroke:#FFFFFF;stroke-width:0.9346;stroke-linecap:round;stroke-linejoin:round;}
	.st12{fill:#1E3144;}
	.st13{fill:#FFFFFF;}
	.st14{fill:#DB7269;}
	.st15{fill:#FFC5B6;}
	.st16{fill:#209E5F;}
</style>
<g id="BACKGROUND">
</g>
<g id="OBJECT">
	<g>
		<g>
			<polygon class="st0" points="76.2,199.3 44.9,303.2 75.6,315 95.7,259.9 			"/>
		</g>
	</g>
	<g>
		<g>
			<polygon class="st0" points="219.2,199.3 250.6,300.2 227.9,315.9 205.3,261.4 			"/>
		</g>
	</g>
	<g id="doctor_23_">
		<g>
			<g>
				<polygon class="st1" points="203.8,756.9 205.2,723.7 187.3,723.7 185.9,756.9 				"/>
				<g>
					<path class="st2" d="M256.1,773.1h-80.9c0,0-1.9-6.8-0.9-11.1c0.4-1.7,1.1-3,2.6-3.4c0-5.3,2.5-16.1,10.3-17.5l0,0
						c-0.1,0.4-1.4,11.2,15.3,0c4.2-2.8,27.7,21.1,45,20.8c4-0.1,6.4,4,7.5,7.3C255.8,771.4,256.1,773.1,256.1,773.1z"/>
					<path class="st3" d="M187.1,741.1c-0.2,0.3-9.2,12.9-5.3,22.4c-2.6,0-5.1-0.6-7.6-1.5c0.4-1.7,1.1-3,2.6-3.4
						C176.8,753.3,179.3,742.4,187.1,741.1C187.1,741,187.1,741,187.1,741.1z"/>
					<rect x="174.9" y="773.1" class="st4" width="81.2" height="2.1"/>
					<path class="st3" d="M256.1,773.1h-80.9c0,0-3.6-13.1,1.7-14.5c0,0,49.4,19.8,78.2,10.6C255.8,771.4,256.1,773.1,256.1,773.1z"
						/>
					<g>
						<path class="st5" d="M213.4,751.1c0,1-0.8,1.8-1.8,1.8s-1.8-0.8-1.8-1.8s0.8-1.8,1.8-1.8C212.6,749.3,213.4,750.1,213.4,751.1
							z"/>
						<path class="st5" d="M219.3,754.3c0,1-0.8,1.8-1.8,1.8s-1.8-0.8-1.8-1.8s0.8-1.8,1.8-1.8C218.4,752.5,219.3,753.3,219.3,754.3
							z"/>
						<path class="st5" d="M225.1,757.5c0,1-0.8,1.8-1.8,1.8s-1.8-0.8-1.8-1.8s0.8-1.8,1.8-1.8S225.1,756.5,225.1,757.5z"/>
					</g>
				</g>
			</g>
			<g>
				<polygon class="st1" points="109.7,756.9 108.3,723.7 126.2,723.7 127.6,756.9 				"/>
				<g>
					<path class="st2" d="M57.4,773.1h80.9c0,0,1.9-6.8,0.9-11.1c-0.4-1.7-1.1-3-2.6-3.4c0-5.3-2.5-16.1-10.3-17.5l0,0
						c0.1,0.4,1.4,11.2-15.3,0c-4.2-2.8-27.7,21.1-45,20.8c-4.1-0.1-6.4,4-7.5,7.3C57.7,771.4,57.4,773.1,57.4,773.1z"/>
					<path class="st3" d="M126.4,741.1c0.2,0.3,9.2,12.9,5.3,22.4c2.6,0,5.1-0.6,7.6-1.5c-0.4-1.7-1.1-3-2.6-3.4
						C136.7,753.3,134.2,742.4,126.4,741.1C126.4,741,126.4,741,126.4,741.1z"/>
					<rect x="56.9" y="773.1" class="st4" width="81.2" height="2.1"/>
					<path class="st3" d="M57.4,773.1h80.9c0,0,3.6-13.1-1.7-14.5c0,0-49.4,19.8-78.2,10.6C57.7,771.4,57.4,773.1,57.4,773.1z"/>
					<g>
						<path class="st5" d="M100.2,751.1c0,1,0.8,1.8,1.8,1.8s1.8-0.8,1.8-1.8s-0.8-1.8-1.8-1.8S100.2,750.1,100.2,751.1z"/>
						<path class="st5" d="M94.3,754.3c0,1,0.8,1.8,1.8,1.8s1.8-0.8,1.8-1.8s-0.8-1.8-1.8-1.8C95.1,752.5,94.3,753.3,94.3,754.3z"/>
						<path class="st5" d="M88.4,757.5c0,1,0.8,1.8,1.8,1.8s1.8-0.8,1.8-1.8s-0.8-1.8-1.8-1.8C89.2,755.7,88.4,756.5,88.4,757.5z"/>
					</g>
				</g>
			</g>
			<g>
				<path class="st6" d="M91.9,395.2l8.4,346.2h37.9c6.7-146.1,14.2-288.1,14.2-288.1s2.5,117.2,23.9,288.1h35.4l4.4-346.2H91.9z"/>
			</g>
		</g>
	</g>
	<path class="st7" d="M216.7,401.6c-20.3,15.5-102.3,13.1-124.5-0.9C90.8,383.6,89,259.9,89,259.9s-17.5-55.4-12.4-61.1
		c10.3-11.7,70.7-24.2,70.7-24.2s64.2,14.2,71.3,24.2c3.4,4.9-8.2,52.1-5.7,100.9C215.6,351.4,216.1,384,216.7,401.6z"/>
	<g>
		<rect x="132.5" y="158.5" class="st0" width="30.4" height="36.7"/>
		<path class="st8" d="M132.5,158.5V174c4.7,3.2,9.8,5,15.2,5s10.5-1.8,15.2-5v-15.5H132.5z"/>
	</g>
	<g>
		<g>
			<polygon class="st6" points="147.9,194.6 134.8,205.7 119.3,181.4 131.4,177.3 			"/>
		</g>
		<g>
			<polygon class="st6" points="147.9,194.6 159.4,205.6 179.6,182 163,177.5 			"/>
		</g>
	</g>
	<g>
		<path class="st0" d="M232.4,308.1v0.3c0.7,8.9-2.9,17.5-9.7,23.3c-11.6,10-31.3,24.9-52.2,31.7c-5.5,4.2-11.9,12.4-15.5,14.5
			s-14.8,3.8-17.5,4.2c-2.7,0.3-6-2.1-3.6-4.6c-4.2,1-5.7-0.2-5.1-2.9c-3.2,1.4-7.4-1.1-4.7-4.6c-1.6-0.6-4.6-1.8,0.4-5.8
			c5-4.1,10.7-8.9,10.7-8.9s-6.2,0.5-4.5-2.4s12.9-10.7,17.7-10.3c4.8,0.5,35.2,7.4,73.7-29.8"/>
		<path class="st8" d="M140.6,345.2c0,0,3.7-3.1,7.7-1.9s14.6,5.9,17.5,8.7c2.8,2.8,2.8,4.2,1.5,5s-2.3,1.3-2.3,1.3l5.6,5.1l-2.4,2
			c0,0-25.1,16.7-26.5,16.1c-4.7-1.9-13.1-10.6-13.1-10.6s-5.1-5.8-5.4-6.2C123,364.3,140.6,345.2,140.6,345.2z"/>
		<line class="st9" x1="188.6" y1="375.1" x2="188.6" y2="383.8"/>
		<line class="st9" x1="192.9" y1="379.5" x2="184.3" y2="379.5"/>
		<line class="st10" x1="140.9" y1="325.3" x2="140.9" y2="332.4"/>
		<line class="st10" x1="144.5" y1="328.8" x2="137.3" y2="328.8"/>
		<circle class="st11" cx="113.4" cy="381.4" r="2.2"/>
		<path class="st0" d="M56.1,308.1v0.3c-0.6,8.8,3.2,17.3,10,22.9c12.5,10.2,34.3,26,57.2,33.3c6,4.3,12.9,12.7,16.9,14.9
			c3.9,2.2,15.9,4.1,18.8,4.5c2.9,0.4,6.4-2,3.8-4.5c4.5,1.1,6.1-0.1,5.5-2.8c3.5,1.5,7.9-1,4.9-4.6c1.7-0.5,4.9-1.7-0.5-5.9
			c-5.4-4.2-11.6-9.1-11.6-9.1s6.7,0.6,4.8-2.4s-14-11-19.2-10.6c-5.2,0.3-32.6,8.2-74.5-29.8"/>
	</g>
	<g>
		<path class="st0" d="M250.5,302.8c5.1-21.3-81.7,31.4-86.8,39.8c13.8,5.3,22.1,14.4,22.1,14.4S241.8,338.8,250.5,302.8z"/>
	</g>
	<path class="st6" d="M158.8,400.8c-27.8,1-49.9-13.1-54.3-27.7s-3.2-77.3-5.1-104.8c-1.3-18.9-8.4-34-20.8-45.9
		c3.9,17.3,10.3,37.5,10.3,37.5s1.8,124.8,3.2,140.8c15.5,11.3,67.5,14.2,101.6,8.9C182.2,409.2,170,400.4,158.8,400.8z"/>
	<g>
		<path class="st0" d="M44.5,305c2.1-22.2,80.8,32.4,85.9,40.9c-13.8,5.3-22.1,14.4-22.1,14.4S40.5,347,44.5,305z"/>
	</g>
	<g>
		<g>
			<path class="st0" d="M182.6,120.1c0,0,2.8-6.3,6.1-4.5s-2.4,27.6-6.3,24.2C178.5,136.3,182.6,120.1,182.6,120.1z"/>
			<path class="st0" d="M114.5,120.1c0,0-2.8-6.3-6.1-4.5c-3.3,1.8,2.4,27.6,6.3,24.2C118.6,136.3,114.5,120.1,114.5,120.1z"/>
			<path class="st0" d="M148.7,173.9L148.7,173.9c-5.3,0-10.4-2.3-14.1-6.4c-7.8-8.7-20.4-24.2-20.4-33.8L112,96.4
				C112,76,129.6,63,148.7,63l0,0c11.8,0,23.1,4.9,29.9,13.5c4.2,5.3,6.8,11.9,6.8,19.7l-2.1,37.5c0,9.7-12.6,25.1-20.4,33.8
				C159.2,171.6,154.1,173.9,148.7,173.9z"/>
			<path class="st12" d="M189.7,61.6c-1.3-2.6-2.9-5.1-4.7-7.4c-6.3-8-15.7-13.8-25.8-14.8c-7.7-0.8-15.4,1.1-22.8,3.3
				c-4.2,1.3-8.5,2.7-12.1,5.3s-6.5,6.4-6.9,10.8c-2.4-0.2-4.7,1.1-6.3,3c-1.5,1.9-2.4,4.2-3.1,6.5c-1.1,3.5-1.8,7.2-2.3,10.9
				c-0.9,7.1-0.7,14.3,0.7,21.3c1.2,6.3,3.9,12,5.3,18.4c1,4.7,2.6,10,2.5,14.8l0.3-15.7c0.1-3.4-0.1-6.8,0-10.3
				c0-1.4-0.1-3,0.1-4.4c0.2-1.6,1-2.1,2-3.2c1.2-1.4,1.5-3.3,1.8-5.1c0.8-6.2,1.6-12.3,2.3-18.5c5.9,4,11,8.8,16.2,13.5
				c1.9,1.8,4.8,3.2,7,4.6c2.8,1.7,5.8,3,9,3.6c1.7,0.3,3.5,0.4,4.9-0.5s2-3.2,0.8-4.3c3.8,1.8,7.6,3.7,11.8,4.2s8.8-0.7,11.3-4.1
				c1.9,7.8,1.5,16.5,1.2,24.4l0.3,15.7c0.1-3.6,0.9-7.2,1.6-10.7c2.3-11.5,4.3-23,6-34.7c1.3,0.8,3.1-0.1,3.8-1.4s0.7-2.9,0.6-4.5
				C194.8,75.2,193,68,189.7,61.6z"/>
		</g>
		<g>
			<path class="st8" d="M153.4,139.7c-2.1,1-5,1.4-5,1.4s-2.9-0.4-5-1.4s-3.8-1.5-3.8-0.9s4.8,5.9,8.8,5.9s8.7-5.3,8.8-5.9
				C157.3,138.2,155.5,138.7,153.4,139.7z"/>
			<g>
				<g>
					<path class="st12" d="M131.7,123.5c5.6,0,5.6-8.6,0-8.6C126.1,114.9,126.1,123.5,131.7,123.5L131.7,123.5z"/>
				</g>
				<path class="st13" d="M134.2,118.2c0,0.7-0.6,1.3-1.3,1.3s-1.3-0.6-1.3-1.3c0-0.7,0.6-1.3,1.3-1.3
					C133.6,116.8,134.2,117.4,134.2,118.2z"/>
				<g>
					<path class="st12" d="M125.5,118.3c4.1-2.8,8.4-0.7,12.7,0.1c0.5,0.1,1-0.5,0.5-0.9C135,114.5,127.8,112.8,125.5,118.3
						C125.4,118.3,125.5,118.4,125.5,118.3L125.5,118.3z"/>
				</g>
			</g>
			<g>
				<g>
					<path class="st12" d="M164.9,123.5c-5.6,0-5.6-8.6,0-8.6C170.4,114.9,170.5,123.5,164.9,123.5L164.9,123.5z"/>
				</g>
				<path class="st13" d="M162.4,118.2c0,0.7,0.6,1.3,1.3,1.3s1.3-0.6,1.3-1.3c0-0.7-0.6-1.3-1.3-1.3
					C163,116.8,162.4,117.4,162.4,118.2z"/>
				<g>
					<path class="st12" d="M171.1,118.2c-2.3-5.5-9.6-3.7-13.3-0.8c-0.5,0.4,0.1,1,0.5,0.9C162.7,117.7,166.9,115.5,171.1,118.2
						C171.1,118.4,171.2,118.3,171.1,118.2L171.1,118.2z"/>
				</g>
			</g>
			<g>
				<path class="st12" d="M119.4,103.8c3.8-0.8,8-0.8,11.8-0.1c2.8,0.4,5.6,1.8,8.4,1.6c0.9-0.1,1.3-1,0.7-1.7
					c-4.8-5.3-15.5-2.7-21.1-0.4C118.9,103.4,119,103.9,119.4,103.8L119.4,103.8z"/>
			</g>
			<g>
				<path class="st12" d="M178.2,103.2c-5.7-2.3-16.3-4.9-21.1,0.4c-0.6,0.7-0.2,1.6,0.7,1.7c2.8,0.2,5.6-1.2,8.4-1.6
					c3.9-0.6,8-0.6,11.8,0.1C178.5,103.9,178.6,103.4,178.2,103.2L178.2,103.2z"/>
			</g>
			<g>
				<path class="st14" d="M138,149.9c1.9,0.4,3.6,0.8,5.3,1c1.7,0.3,3.4,0.4,5.1,0.4c1.7,0,3.4-0.1,5.1-0.3c1.7-0.2,3.5-0.5,5.3-0.9
					c-1.3,1.4-3,2.4-4.8,3.1c-1.8,0.7-3.8,1-5.7,1s-3.9-0.4-5.7-1.1C140.9,152.4,139.3,151.3,138,149.9z"/>
			</g>
			<g>
				<path class="st15" d="M148.5,124.8c-0.6,2.6-0.1,5,0.2,7.6c0.3,2,0.2,4.4,1.4,6.1c0.4,0.5,1.2,0.5,1.4-0.2
					c0.6-2-0.2-4.2-0.6-6.2c-0.4-2.6-0.7-5-1.9-7.3C149,124.5,148.6,124.6,148.5,124.8L148.5,124.8z"/>
			</g>
		</g>
	</g>
	<path class="st7" d="M76.6,198.8c0,0-20.6,52.8-23.8,74c-0.5,3.1,27,23.8,30.5,23.5l5.3-16.7C88.5,279.6,97.6,270.3,76.6,198.8z"/>
	<path class="st7" d="M219.2,198.8c0,0,23.2,45.9,27.6,73.2c0.5,3.1-26.8,18.8-30.3,18.5s-7-12.3-7-12.3S198.1,270.3,219.2,198.8z"
		/>
	<path class="st6" d="M215,289.8c0,0-5.2-9.4-7.9-26.2s-1.9-20.9-1.9-20.9s12.2,45,15.2,46.4C220.5,289.2,217.1,290.8,215,289.8z"/>
	<path class="st16" d="M215.8,404.7c-38.8,11.8-82.4,11.2-123.5,5.4l-0.2-4.6c0,0,1.7-1.4,13.4,1.6s16.1,2.7,22,2.8
		C133.4,409.8,215.8,404.7,215.8,404.7z"/>
</g>
</svg>
