<?xml version="1.0" encoding="utf-8"?>
<!-- Generator: Adobe Illustrator 22.1.0, SVG Export Plug-In . SVG Version: 6.00 Build 0)  -->
<svg version="1.1" id="Layer_1" xmlns="http://www.w3.org/2000/svg" xmlns:xlink="http://www.w3.org/1999/xlink" x="0px" y="0px"
	 viewBox="0 0 300.5 821.3" style="enable-background:new 0 0 300.5 821.3;" xml:space="preserve">
<style type="text/css">
	.st0{fill:#0E131A;}
	.st1{fill:#22366B;}
	.st2{fill:#18294C;}
	.st3{fill:#CFCFCF;}
	.st4{fill:#43362C;}
	.st5{fill:#22AA66;}
	.st6{fill:#24BF77;}
	.st7{fill:#FCAE88;}
	.st8{opacity:0.32;fill:#B06D4D;enable-background:new    ;}
	.st9{fill:#1E3144;}
	.st10{fill:#FFFFFF;}
	.st11{fill:#DB7269;}
	.st12{fill:#FFC5B6;}
	.st13{fill:#24AA63;}
	.st14{fill:#209E5F;}
	.st15{fill:#F7E88F;}
	.st16{fill:#F2D453;}
	.st17{fill:#B77A65;}
	.st18{fill:#0071D6;}
	.st19{fill:#005EA5;}
	.st20{fill:#F8BA8C;}
</style>
<g>
	<g>
		<g id="OBJECT_1_">
			<g>
				<g>
					<g id="doctor_13_">
						<g>
							<g>
								<polygon class="st0" points="203.1,756.9 204.4,723.7 186.6,723.7 185.2,756.9 								"/>
								<g>
									<path class="st1" d="M255.3,773.1h-80.9c0,0-1.9-6.8-0.9-11.1c0.4-1.7,1.1-3,2.6-3.4c0-5.3,2.5-16.1,10.3-17.5l0,0
										c-0.1,0.4-1.4,11.2,15.3,0c4.2-2.8,27.7,21.1,45,20.8c4-0.1,6.4,4,7.5,7.3C255,771.4,255.3,773.1,255.3,773.1z"/>
									<path class="st2" d="M186.4,741.1c-0.2,0.3-9.2,12.9-5.3,22.4c-2.6,0-5.1-0.6-7.6-1.5c0.4-1.7,1.1-3,2.6-3.4
										C176.1,753.3,178.6,742.4,186.4,741.1C186.4,741,186.4,741,186.4,741.1z"/>
									<rect x="174.2" y="773.1" class="st3" width="81.2" height="2.1"/>
									<path class="st2" d="M255.3,773.1h-80.9c0,0-3.6-13.1,1.7-14.5c0,0,49.4,19.8,78.2,10.6C255,771.4,255.3,773.1,255.3,773.1
										z"/>
									<g>
										<path class="st4" d="M212.6,751.1c0,1-0.8,1.8-1.8,1.8s-1.8-0.8-1.8-1.8s0.8-1.8,1.8-1.8
											C211.8,749.3,212.6,750.1,212.6,751.1z"/>
										<path class="st4" d="M218.5,754.3c0,1-0.8,1.8-1.8,1.8s-1.8-0.8-1.8-1.8s0.8-1.8,1.8-1.8S218.5,753.3,218.5,754.3z"/>
										<path class="st4" d="M224.4,757.5c0,1-0.8,1.8-1.8,1.8s-1.8-0.8-1.8-1.8s0.8-1.8,1.8-1.8S224.4,756.5,224.4,757.5z"/>
									</g>
								</g>
							</g>
							<g>
								<polygon class="st0" points="109,756.9 107.6,723.7 125.5,723.7 126.8,756.9 								"/>
								<g>
									<path class="st1" d="M56.7,773.1h80.9c0,0,1.9-6.8,0.9-11.1c-0.4-1.7-1.1-3-2.6-3.4c0-5.3-2.5-16.1-10.3-17.5l0,0
										c0.1,0.4,1.4,11.2-15.3,0c-4.2-2.8-27.7,21.1-45,20.8c-4.1-0.1-6.4,4-7.5,7.3C57,771.4,56.7,773.1,56.7,773.1z"/>
									<path class="st2" d="M125.6,741.1c0.2,0.3,9.2,12.9,5.3,22.4c2.6,0,5.1-0.6,7.6-1.5c-0.4-1.7-1.1-3-2.6-3.4
										C135.9,753.3,133.4,742.4,125.6,741.1C125.6,741,125.6,741,125.6,741.1z"/>
									<rect x="56.2" y="773.1" class="st3" width="81.2" height="2.1"/>
									<path class="st2" d="M56.7,773.1h80.9c0,0,3.6-13.1-1.7-14.5c0,0-49.4,19.8-78.2,10.6C57,771.4,56.7,773.1,56.7,773.1z"/>
									<g>
										<path class="st4" d="M99.4,751.1c0,1,0.8,1.8,1.8,1.8s1.8-0.8,1.8-1.8s-0.8-1.8-1.8-1.8S99.4,750.1,99.4,751.1z"/>
										<path class="st4" d="M93.5,754.3c0,1,0.8,1.8,1.8,1.8s1.8-0.8,1.8-1.8s-0.8-1.8-1.8-1.8C94.3,752.5,93.5,753.3,93.5,754.3
											z"/>
										<path class="st4" d="M87.6,757.5c0,1,0.8,1.8,1.8,1.8s1.8-0.8,1.8-1.8s-0.8-1.8-1.8-1.8C88.4,755.7,87.6,756.5,87.6,757.5
											z"/>
									</g>
								</g>
							</g>
							<g>
								<path class="st5" d="M90.6,395.2l8.9,346.2h37.9c6.7-146.1,14.2-288.1,14.2-288.1s2.5,117.2,23.9,288.1h35.4l4.4-346.2H90.6
									z"/>
							</g>
						</g>
					</g>
					<path class="st6" d="M216,401.6c-20.3,15.5-102.3,13.1-124.5-0.9c-2.9-17.6-3.2-140.8-3.2-140.8s-17.1-53.8-12-59.5
						c10.3-11.7,70.2-25.8,70.2-25.8s64.2,14.2,71.3,24.2c3.4,4.9-4.6,50.6-4.6,99.5C213.2,319.6,216,390.6,216,401.6z"/>
					<g>
						<rect x="131.8" y="158.5" class="st7" width="30.4" height="36.7"/>
						<path class="st8" d="M131.8,158.5V174c4.7,3.2,9.8,5,15.2,5s10.5-1.8,15.2-5v-15.5H131.8z"/>
					</g>
					<g>
						<g>
							<polygon class="st5" points="147.1,194.6 134.1,205.7 118.5,181.4 130.6,177.3 							"/>
						</g>
						<g>
							<polygon class="st5" points="147.1,194.6 158.6,205.6 178.8,182 162.2,177.5 							"/>
						</g>
					</g>
				</g>
				<g>
					<g>
						<path class="st7" d="M183.3,120.1c0,0,2.8-6.3,6.1-4.5s-2.4,27.6-6.3,24.2C179.2,136.3,183.3,120.1,183.3,120.1z"/>
						<path class="st7" d="M115.2,120.1c0,0-2.8-6.3-6.1-4.5c-3.3,1.8,2.4,27.6,6.3,24.2C119.3,136.3,115.2,120.1,115.2,120.1z"/>
						<path class="st7" d="M149.4,173.9L149.4,173.9c-5.3,0-10.4-2.3-14.1-6.4c-7.8-8.7-20.4-24.2-20.4-33.8l-2.2-37.3
							c0-20.4,17.6-33.4,36.7-33.4l0,0c11.8,0,23.1,4.9,29.9,13.5c4.2,5.3,6.8,11.9,6.8,19.7l-2.1,37.5c0,9.7-12.6,25.1-20.4,33.8
							C159.9,171.6,154.8,173.9,149.4,173.9z"/>
						<path class="st9" d="M190.4,61.6c-1.3-2.6-2.9-5.1-4.7-7.4c-6.3-8-15.7-13.8-25.8-14.8c-7.7-0.8-15.4,1.1-22.8,3.3
							c-4.2,1.3-8.5,2.7-12.1,5.3s-6.5,6.4-6.9,10.8c-2.4-0.2-4.7,1.1-6.3,3c-1.5,1.9-2.4,4.2-3.1,6.5c-1.1,3.5-1.8,7.2-2.3,10.9
							c-0.9,7.1-0.7,14.3,0.7,21.3c1.2,6.3,3.9,12,5.3,18.4c1,4.7,2.6,10,2.5,14.8l0.3-15.7c0.1-3.4-0.1-6.8,0-10.3
							c0-1.4-0.1-3,0.1-4.4c0.2-1.6,1-2.1,2-3.2c1.2-1.4,1.5-3.3,1.8-5.1c0.8-6.2,1.6-12.3,2.3-18.5c5.9,4,11,8.8,16.2,13.5
							c1.9,1.8,4.8,3.2,7,4.6c2.8,1.7,5.8,3,9,3.6c1.7,0.3,3.5,0.4,4.9-0.5s2-3.2,0.8-4.3c3.8,1.8,7.6,3.7,11.8,4.2
							s8.8-0.7,11.3-4.1c1.9,7.8,1.5,16.5,1.2,24.4l0.3,15.7c0.1-3.6,0.9-7.2,1.6-10.7c2.3-11.5,4.3-23,6-34.7
							c1.3,0.8,3.1-0.1,3.8-1.4s0.7-2.9,0.6-4.5C195.5,75.2,193.7,68,190.4,61.6z"/>
					</g>
					<g>
						<path class="st8" d="M154.1,139.7c-2.1,1-5,1.4-5,1.4s-2.9-0.4-5-1.4s-3.8-1.5-3.8-0.9s4.8,5.9,8.8,5.9s8.7-5.3,8.8-5.9
							C158,138.2,156.2,138.7,154.1,139.7z"/>
						<g>
							<g>
								<path class="st9" d="M132.4,123.5c5.6,0,5.6-8.6,0-8.6C126.8,114.9,126.8,123.5,132.4,123.5L132.4,123.5z"/>
							</g>
							<path class="st10" d="M134.9,118.2c0,0.7-0.6,1.3-1.3,1.3s-1.3-0.6-1.3-1.3c0-0.7,0.6-1.3,1.3-1.3
								C134.3,116.8,134.9,117.4,134.9,118.2z"/>
							<g>
								<path class="st9" d="M126.2,118.3c4.1-2.8,8.4-0.7,12.7,0.1c0.5,0.1,1-0.5,0.5-0.9C135.7,114.5,128.5,112.8,126.2,118.3
									C126.1,118.3,126.2,118.4,126.2,118.3L126.2,118.3z"/>
							</g>
						</g>
						<g>
							<g>
								<path class="st9" d="M165.6,123.5c-5.6,0-5.6-8.6,0-8.6C171.1,114.9,171.2,123.5,165.6,123.5L165.6,123.5z"/>
							</g>
							<path class="st10" d="M163.1,118.2c0,0.7,0.6,1.3,1.3,1.3s1.3-0.6,1.3-1.3c0-0.7-0.6-1.3-1.3-1.3
								C163.7,116.8,163.1,117.4,163.1,118.2z"/>
							<g>
								<path class="st9" d="M171.8,118.2c-2.3-5.5-9.6-3.7-13.3-0.8c-0.5,0.4,0.1,1,0.5,0.9C163.4,117.7,167.6,115.5,171.8,118.2
									C171.8,118.4,171.9,118.3,171.8,118.2L171.8,118.2z"/>
							</g>
						</g>
						<g>
							<path class="st9" d="M120.1,103.8c3.8-0.8,8-0.8,11.8-0.1c2.8,0.4,5.6,1.8,8.4,1.6c0.9-0.1,1.3-1,0.7-1.7
								c-4.8-5.3-15.5-2.7-21.1-0.4C119.6,103.4,119.7,103.9,120.1,103.8L120.1,103.8z"/>
						</g>
						<g>
							<path class="st9" d="M178.9,103.2c-5.7-2.3-16.3-4.9-21.1,0.4c-0.6,0.7-0.2,1.6,0.7,1.7c2.8,0.2,5.6-1.2,8.4-1.6
								c3.9-0.6,8-0.6,11.8,0.1C179.2,103.9,179.3,103.4,178.9,103.2L178.9,103.2z"/>
						</g>
						<g>
							<path class="st11" d="M138.7,149.9c1.9,0.4,3.6,0.8,5.3,1c1.7,0.3,3.4,0.4,5.1,0.4c1.7,0,3.4-0.1,5.1-0.3
								c1.7-0.2,3.5-0.5,5.3-0.9c-1.3,1.4-3,2.4-4.8,3.1c-1.8,0.7-3.8,1-5.7,1s-3.9-0.4-5.7-1.1C141.6,152.4,140,151.3,138.7,149.9z
								"/>
						</g>
						<g>
							<path class="st12" d="M149.2,124.8c-0.6,2.6-0.1,5,0.2,7.6c0.3,2,0.2,4.4,1.4,6.1c0.4,0.5,1.2,0.5,1.4-0.2
								c0.6-2-0.2-4.2-0.6-6.2c-0.4-2.6-0.7-5-1.9-7.3C149.7,124.5,149.3,124.6,149.2,124.8L149.2,124.8z"/>
						</g>
					</g>
				</g>
			</g>
			<path class="st13" d="M157.5,400.2c-27.8,1-49.9-13.1-54.3-27.7s-3.2-77.3-5.1-104.8c-1.3-18.9-8.4-34-20.8-45.9
				c3.9,17.3,10.3,37.5,10.3,37.5s1.8,124.8,3.2,140.8c15.5,11.3,67.5,14.2,101.6,8.9C180.8,408.6,168.7,399.8,157.5,400.2z"/>
			<path class="st6" d="M215.3,196.5c0,0-30.8,7.8-19.4,53.5c0,0,18.8,42.7,22,44.3c3.2,1.6,32.6-17.2,32.9-19.5
				S236.2,215.3,215.3,196.5z"/>
			<path class="st6" d="M80.1,197.7c-2.5,0.4-18,21.8-36.5,83.9c0,0,34,14.2,39,14.5s19.3-47.7,19.3-47.7S105.4,189.8,80.1,197.7z"
				/>
			<path class="st14" d="M215.1,404.9c-38.8,11.8-82.4,11.2-123.5,5.4c0,0-1.8-2.3-1.6-3.9c0.3-1.6,2.2-7.5,5.1-5.8
				s14.8,4.9,24.9,6.1s32,0.1,33.8,0.6s34.9,0,34.9,0L215.1,404.9z"/>
		</g>
		<g>
			<g>
				<path class="st15" d="M133.9,623.8c-2.5,0-4.8,0-7,0c-23.4-0.3-41.5-3.5-41.7-9.5c-0.6-17.1,3.4-125.2,3.4-125.2
					S85.7,390.5,89,385c1.8-3,0.6-28.6-0.6-52.7c0-0.1,0-0.1,0-0.2c-1.1-20-2.2-39-1.9-43.3c0.1-1.1,0.2-2.6,0.3-4.2l0,0
					c0.3-4.6,0.6-10.6,1-15.9c0.4-7.1,0.7-13,0.7-13s-12.4-53.4,2-65.8c1-0.8,4.5-2.8,5.7-3.2c6.9-2.2,12.8-3.2,16.3-4.1
					c1.8-0.5,3.3-1.1,4.5-1.4l9.4,22l41.8,0.5l9.3-24c0,0,1.9,0.1,4.9,0.4c9.7,1,20,6.5,24.1,8.8c5.7,11.4,7,82.2,7,82.2l8.6,113.4
					c0,0-1.3,168.1,8,204.9c0.2,0.7,0.3,1.5,0.3,2.1C231.9,613.4,176.7,623.3,133.9,623.8z"/>
				<path class="st16" d="M84.6,614.5c-0.6-17.1,3.4-125.2,3.4-125.2s-0.1-96.1,0.4-104.1c3.3-5.5-2.5-85.6-1.8-95
					c0.6-9.4-10-93.2,4.9-101.4c-5.5,22.6,1.1,95.6,2.4,104.9c2,15.4,1.8,35.6,2,51.2c0.4,31.7,6.7,56.8,5.3,88.4
					c-1.6,36.5-1.4,74.3,14,107.6s49.9,60.7,87.1,57.1c9.2-0.8,18.1-3.5,27-6.1C232.5,626.9,85.3,631.2,84.6,614.5z"/>
			</g>
			<path class="st16" d="M182,180.3l-10.2,28h-47.7l-11.6-25.8c1.8-0.5,3.3-1.1,4.5-1.4l9.2,22.1l41.8,0.5l9.6-24.7
				C177.4,179.2,179,180,182,180.3z"/>
		</g>
	</g>
	<g>
		<g>
			<path class="st17" d="M276.4,171c-0.1,0.3,0.1,0.5,0.3,0.6c0.3,0.1,0.5-0.1,0.6-0.3l0,0l3.4-10.7c0.1-0.3,0-0.5-0.3-0.6l0,0
				c-0.3-0.1-0.6,0.1-0.6,0.3L276.4,171z"/>
			<path class="st17" d="M269.7,169.1c-0.1,0.3,0.1,0.6,0.3,0.6c0.3,0.1,0.5-0.1,0.6-0.3l4.6-14.5c0.1-0.3-0.1-0.5-0.3-0.6
				c-0.3-0.1-0.5,0.1-0.6,0.3l0,0L269.7,169.1z"/>
			<path class="st18" d="M257.8,218.9l8.9-29l-6.2-7c-1.2-1.3-2-2.8-2.4-4.5c-0.4-1.3-2.9-9.2-2.9-9.9c0-2,2.7-1.9,3.8-1.6
				c2,0.5,4.2,4.2,5.5,7.5c0.5,1.2,2.1,2.3,2.4,1.5l6.7-22.8c1-3.5,2.3-3.8,3.5-3.5c1.2,0.1,2.1,1,2.4,2.1c0.3,2.2,0.2,4.4-0.2,6.5
				c0,0,1.4-7.2,4.9-6.1c3.5,1.1,1.6,6.3,1.2,8.3c-0.2,1.2,0.7-2.5,2.5-3.8c0.8-0.6,2-0.2,2.8,0.4c2.7,2,0.1,8.4,0.1,8.4
				s1.2-2.9,2.7-3.1c0.9-0.1,2,0.6,2.6,2c0.7,1.7,0.6,3.6-0.2,5.2l-10.1,24.9l-6.3,31.4L257.8,218.9z"/>
			<path class="st19" d="M287.4,174.4c-0.1,0.3,0.1,0.5,0.3,0.6c0.3,0.1,0.5-0.1,0.6-0.3l3.4-10.7c0.1-0.3-0.1-0.5-0.3-0.6
				c-0.3-0.1-0.5,0.1-0.6,0.3l0,0L287.4,174.4z"/>
			<path class="st19" d="M280.7,172.5c-0.1,0.3,0.1,0.5,0.3,0.6c0.3,0.1,0.5-0.1,0.6-0.3l0,0l4.6-14.5c0.1-0.3-0.1-0.5-0.3-0.6
				c-0.3-0.1-0.5,0.1-0.6,0.3L280.7,172.5z"/>
			<path class="st19" d="M274.2,171.1c-0.1,0.2-0.1,0.6,0.2,0.7c0.2,0.1,0.6,0.1,0.7-0.2c0-0.1,0.1-0.1,0.1-0.2l5.5-16.8
				c0.1-0.2,0-0.6-0.2-0.7c-0.2-0.1-0.6,0-0.7,0.2c0,0.1,0,0.1-0.1,0.2L274.2,171.1z"/>
		</g>
		<g>
			<path class="st20" d="M264.4,197.4c0,0-59.7,126.9-22.9,124.6c6.4-0.4,27-14,42.2-117.4C273,197.7,264.4,197.4,264.4,197.4z"/>
		</g>
	</g>
	<g>
		<g>
			<path class="st17" d="M17.8,160.4c-0.1-0.3-0.4-0.4-0.6-0.3l0,0c-0.3,0.1-0.4,0.4-0.3,0.6l3.4,10.7l0,0c0.1,0.3,0.4,0.4,0.6,0.3
				c0.3-0.1,0.4-0.4,0.3-0.6L17.8,160.4z"/>
			<path class="st17" d="M23.3,154.7L23.3,154.7c-0.1-0.3-0.4-0.4-0.6-0.3c-0.3,0.1-0.4,0.4-0.3,0.6l4.6,14.5
				c0.1,0.3,0.4,0.4,0.6,0.3c0.3-0.1,0.4-0.4,0.3-0.6L23.3,154.7z"/>
			<path class="st18" d="M18,225.6l-6.3-31.4L1.5,169.3c-0.8-1.6-0.8-3.5-0.2-5.2c0.6-1.4,1.7-2.1,2.6-2c1.5,0.2,2.7,3.1,2.7,3.1
				s-2.6-6.4,0.1-8.4c0.8-0.6,2.1-0.9,2.8-0.4c1.8,1.3,2.7,5,2.5,3.8c-0.3-1.9-2.3-7.1,1.2-8.3s4.9,6.1,4.9,6.1
				c-0.5-2.1-0.5-4.3-0.2-6.5c0.2-1.1,1.2-2,2.4-2.1c1.2-0.3,2.5,0,3.5,3.5l6.7,22.8c0.3,0.8,1.9-0.2,2.4-1.5
				c1.3-3.3,3.5-6.9,5.5-7.5c1.1-0.3,3.8-0.4,3.8,1.6c0,0.8-2.5,8.6-2.9,9.9c-0.4,1.7-1.2,3.2-2.4,4.5l-6.2,7l8.9,29L18,225.6z"/>
			<path class="st19" d="M6.8,163.7L6.8,163.7c-0.1-0.3-0.4-0.4-0.6-0.3c-0.3,0.1-0.4,0.4-0.3,0.6l3.4,10.7c0.1,0.3,0.4,0.4,0.6,0.3
				c0.3-0.1,0.4-0.4,0.3-0.6L6.8,163.7z"/>
			<path class="st19" d="M12.3,158.1c-0.1-0.3-0.4-0.4-0.6-0.3c-0.3,0.1-0.4,0.4-0.3,0.6l4.6,14.5l0,0c0.1,0.3,0.4,0.4,0.6,0.3
				c0.3-0.1,0.4-0.4,0.3-0.6L12.3,158.1z"/>
			<path class="st19" d="M18,154.3c0-0.1,0-0.1-0.1-0.2c-0.1-0.2-0.4-0.3-0.7-0.2c-0.2,0.1-0.3,0.4-0.2,0.7l5.5,16.8
				c0,0.1,0,0.1,0.1,0.2c0.1,0.2,0.4,0.3,0.7,0.2c0.2-0.1,0.3-0.4,0.2-0.7L18,154.3z"/>
		</g>
		<g>
			<path class="st20" d="M33.1,197.6c0,0,59.8,126.7,23,124.4c-6.4-0.4-27.1-13.9-42.3-117.3C24.5,197.7,33.1,197.6,33.1,197.6z"/>
		</g>
	</g>
	<path class="st20" d="M218.9,294.3c0,0,7.4,24.9,17.1,26.8s19.4-11.8,19.4-11.8l-7.4-29.2L218.9,294.3z"/>
	<path class="st20" d="M80.9,296.1c0,0-10.8,24.6-20.9,25.6s-13.4-27.3-13.4-27.3l19.1-4.2L80.9,296.1z"/>
</g>
<g id="BACKGROUND">
</g>
</svg>
