<?xml version="1.0" encoding="utf-8"?>
<!-- Generator: Adobe Illustrator 22.1.0, SVG Export Plug-In . SVG Version: 6.00 Build 0)  -->
<svg version="1.1" id="Layer_1" xmlns="http://www.w3.org/2000/svg" xmlns:xlink="http://www.w3.org/1999/xlink" x="0px" y="0px"
	 viewBox="0 0 504 482" style="enable-background:new 0 0 504 482;" xml:space="preserve">
<style type="text/css">
	.st0{opacity:0.4;}
	.st1{opacity:0.7;fill:#FE9933;enable-background:new    ;}
	.st2{fill:#FF9835;}
	.st3{fill:none;stroke:#FFF0DE;stroke-width:1.33;}
	.st4{fill:#0066CF;}
	.st5{fill:none;stroke:#004C9C;stroke-width:2.398;}
	.st6{fill:#00ADFF;}
	.st7{fill:#FFFFFF;}
	.st8{fill:#23244C;}
	.st9{fill:#EA806A;}
	.st10{fill:#F5AF90;}
	.st11{fill:#F4A27F;}
	.st12{fill:#363768;}
	.st13{fill:none;stroke:#23244C;stroke-width:3.198;stroke-linecap:round;}
	.st14{fill:none;stroke:#DB7851;stroke-width:3.198;stroke-linecap:round;}
	.st15{fill:#CE756A;}
	.st16{fill:#004C9C;}
</style>
<g id="Group-15_1_" transform="translate(0.000000, 62.000000)">
	<g id="Group-23-Copy_1_" class="st0">
		<g id="Group-12_1_">
			<path id="Fill-1_1_" class="st1" d="M38.3,63c0.6-12,2.3-24.3,8.9-34.4C56.9,13.8,75.5,7,93.2,6.3c28-1.1,55,10.5,79.3,24.6
				c24.2,14.1,47,30.9,72.8,42C292.6,93.2,345.7,92.6,397,96.6c16.9,1.3,34.9,3.6,48,14.4c10.9,9,16.9,22.9,19,36.8
				c5.7,36.8-13,74.4-41.3,98.6s-64.8,36.7-101.4,44c-40.7,8-83.1,10.1-123.4,0.2c-75.5-18.6-129.6-78-150.7-151.2
				C40.1,114.6,37,88.7,38.3,63"/>
			<g id="Group-5_2_">
				<g id="Clip-4_2_">
				</g>
				<path id="Fill-3_1_" class="st2" d="M276.1,64.7c38.4-24.1,76.7-53,121.8-57.6c14.8-1.5,30.3-0.2,43.7,6.3
					c18.9,9.1,31.8,27.5,39.7,46.9c17.4,42.7,13.8,90.8,7.2,136.5c-4.7,32.5-11,65.5-27.6,93.9c-22.4,38.4-62.1,64.8-104.8,77.3
					s-88.3,12.1-132.4,5.9c-43.2-6.1-86.2-18.1-123.6-40.4c-37.4-22.4-69.1-56-83.9-96.9c-5.4-15-8.5-31.6-4-46.9
					c12.7-43,82.3-44.6,117-56C180.7,116.7,230.2,93.5,276.1,64.7"/>
			</g>
			<path id="Stroke-6_2_" class="st3" d="M279.3,335.2c-15.7,0-32.7-1.3-50.6-3.8c-43.7-6.2-78.9-17.6-107.7-34.9
				c-18.6-11.2-35.5-25.6-48.4-43.1c-9.6-13.1-31.4-44.1-14.3-58.3c5.1-4.3,11.9-6.1,18.4-7.4c10.1-2,20.1-3.7,30.1-5.8
				c12.4-2.6,24.1-5,34.7-8.5c54.9-18.1,107.5-42.8,156.2-73.4c5.8-3.7,11.6-7.4,17.3-11.1c29.7-19.2,57.8-37.4,86.2-40.3
				c2.2-0.2,4.4-0.3,6.5-0.3c5.8,0,10.7,0.9,14.2,2.6c16.5,8,23.1,34.1,25.7,50.5c8.5,52.7,1.7,134.5-32,178.3
				C383.9,321.1,329.3,335.2,279.3,335.2z"/>
			<path id="Stroke-8_2_" class="st3" d="M280.5,294.2c-32.2-0.1-66.5-5.9-96.6-15c-15.3-4.6-30.3-10.6-43.7-19.2
				c-3.1-2-36.3-30.7-33-32.7c6.3-3.7,13.6-4.9,20.8-6.4c51.4-10.3,100-31.1,145.7-56.1c19.4-10.7,38.2-22.8,57.2-34
				c8.1-4.8,63.9-44.2,71.7-37.8c1.8,1.4,2.4,3.9,2.8,6.1c5.7,27.7,3.5,61.3,0,89.3c-3.4,27.3-12.6,55-32.1,74.4
				c-19.9,20-48.6,29.2-76.8,31C291.3,294.1,286,294.2,280.5,294.2z"/>
			<path id="Stroke-10_2_" class="st3" d="M280,251.2c-22.5,0-47.6-3.4-72-9.7c27.6-10.3,56-23.4,85.6-39.5
				c13.5-7.3,26.4-15.2,38.9-22.8c6.8-4.1,13.2-8,19.7-11.8c2.3-1.3,5-3.1,10.3-6.6c0.9-0.6,1.7-1.1,2.5-1.6
				c-0.5,7.5-1.3,15.4-2.4,23.8c-1.9,15.3-6.9,36.3-20,49.3c-10.7,10.6-28.2,17.2-49.4,18.5c-4.1,0.3-8.5,0.4-13,0.4L280,251.2z"/>
		</g>
	</g>
	<path id="Path-7_1_" class="st3" d="M10,6.2"/>
</g>
<title>Group 27</title>
<desc>Created with Sketch.</desc>
<g id="Group-64" transform="translate(103.000000, 0.000000)">
	<path id="Fill-1_5_" class="st4" d="M73.6,184.9c0,0-20.7,10.6-32.3,30.5C32.1,231,32.7,253,27.1,258s-9.9,31.4-9.9,31.4
		s-17.2,50,9.1,59.8c17.8,6.6,43.6-33.7,52.2-51.1C87.1,280.8,73.6,184.9,73.6,184.9"/>
	<path id="Stroke-3" class="st5" d="M73.6,184.9c0,0-20.7,10.6-32.3,30.5C32.1,231,32.7,253,27.1,258s-9.9,31.4-9.9,31.4
		s-17.2,50,9.1,59.8c17.8,6.6,43.6-33.7,52.2-51.1C87.1,280.8,73.6,184.9,73.6,184.9z"/>
	<path id="Fill-5_4_" class="st6" d="M81.2,179.9c0,0-24.8,12.6-28.7,34.2s35.9,126.3,52.8,151.1c0,0-7.3,4.8,0,14.4
		c0,0-10.7,27.2-8.1,30.4c0,0,101.7,26.4,144.9-19.2c0,0,23.2-16.8,6.4-28.8c-5.5-3.9-9.6-9.6-9.6-9.6s-4.8-11.2-3.2-28
		s-3.2-78.3-6.4-87.1s-21.7-69.5-66.9-84C117.3,138.9,81.2,179.9,81.2,179.9"/>
	<path id="Fill-7" class="st4" d="M175.7,182.4c5.4-5.9,9.1-10.7,11.6-14.8c-7.2-6.1-15.4-11.2-24.9-14.2c-1.1-0.4-2.2-0.7-3.3-1
		l-34.3,51.4l-39.1-28.3c-2.9,2.7-4.4,4.5-4.4,4.5s-5.2,2.6-11.2,7.6c7.2,8.5,24.8,25.2,55.7,29.9
		C125.7,217.4,159.2,200.4,175.7,182.4"/>
	<path id="Fill-9" class="st4" d="M248.5,362.1c-5.5-3.9-9.6-9.6-9.6-9.6s-4.8-11.2-3.2-28c0.3-3,0.4-7.3,0.3-12.5l-115.6-31.3
		l-17.8,3.2c0,0,1.8,12.2,14,19.6s23.3,23,37.5,31.4s25,0,39.4,6s24,16.8,24,28.8s-24.1,36-42.6,36c-13.9,0-52.5-11.5-74.6-12.1
		c-2.4,7.2-4.4,14.9-3.1,16.5c0,0,101.7,26.4,144.9-19.2C242.1,390.8,265.3,374.1,248.5,362.1"/>
	<path id="Stroke-11" class="st5" d="M126.7,215.4c0,0-15.3,20,0,52.4s26.7,60,23.4,79.1c-3.3,19.2-13.1,57.5-7,70.1"/>
	<path id="Fill-13" class="st7" d="M148.9,142.5c0,0,26.1,0.9,26.1,18.3s-36.9,49.4-49.3,56.6c0,0-60.7-29.2-44.5-45.1
		S148.9,142.5,148.9,142.5"/>
	<path id="Fill-15" class="st8" d="M161.9,77.3c0,0,2.7,50.1-22.9,67.7s-8.5-44-8.5-44L161.9,77.3z"/>
	<path id="Fill-17" class="st9" d="M143.2,125.6c0,0,10.2,29,11,35.2S136.4,194.2,122,199c0,0-20.9-6.1-24.6-16.7
		C93.8,171.8,143.2,125.6,143.2,125.6"/>
	<path id="Fill-19" class="st10" d="M143.2,126.8c0,30.7-24.9,55.6-55.6,55.6S32,157.5,32,126.8V89.3c0-30.7,24.9-55.6,55.6-55.6
		s55.6,24.9,55.6,55.6V126.8z"/>
	<path id="Fill-21" class="st9" d="M124,47.3c-13.8,3.2-61.1,14.3-62.8,14.8c-1.1,0.3-12.1,0.5-22.7,1.2c-3.8,7.2-6.1,15.3-6.4,23.9
		C44,88.3,84,89.8,114.9,63.6c0,0-11.6,13.4,9.9,36.2l10,12.9c0,0-5.5-50.6-5.5-53.7c0-1.5-0.4-4.6-0.8-7.3
		C127.1,50.1,125.6,48.7,124,47.3"/>
	<g id="Group-25" transform="translate(0.000000, 0.416000)">
		<g id="Clip-24">
		</g>
		<path id="Fill-23" class="st8" d="M119.2,68.9c0,0-4.8,12.8,9.6,27.2l8,21.6c0,0,0.8-9.6,6.4-20c5.6-10.4,17.6-5.6,18.4-16.8
			c0.8-11.2,5.6-56-18.4-60c0,0-24-44-101.5-5.6c0,0-19.2-15.2-24.8-8s-10.4,24-4.8,40c0,0-11.2-15.2-12-8s6.1,24.6,19.2,34.4
			c0,0-4,8-0.8,15.2C21.6,96,32,117.6,32,117.6s0-37.6,3.2-43.2c0,0,27.2,6.4,56-4s31.2-15.2,31.2-15.2S119.9,62.4,119.2,68.9"/>
	</g>
	<path id="Fill-26_4_" class="st11" d="M139,108.1c0,0,2.1-19.4,9.8-21.2c12.3-2.9,24,38.4-8,40L139,108.1z"/>
	<path id="Fill-28" class="st12" d="M129.8,8.3c-12.5,1.5-36.1,5.6-59.1,16.2C45.6,36,22.9,25.3,12.6,15.8c-2.4,6.5-3.8,15.1-2.5,24
		C19,50.3,35.5,65.6,54.7,63.4c26.2-3,57.4-39.9,82.9-49C135.6,12.4,133,10.3,129.8,8.3"/>
	<path id="Stroke-30" class="st13" d="M83.4,103c0,0,10.9-5.1,21.9-1.9"/>
	<path id="Stroke-32" class="st13" d="M55.3,103c0,0-3.7-3.8-14.3-1.9"/>
	<path id="Stroke-34" class="st14" d="M73.6,146.2c0,0-10.3,3.8-14.6-3.7"/>
	<path id="Fill-36" class="st15" d="M90.4,139.2c1.3,4.8,9,7,17.3,4.8s13.9-7.9,12.6-12.7s-9-7-17.3-4.8S89.1,134.4,90.4,139.2"/>
	<path id="Fill-38" class="st15" d="M37.6,126.5c-1.9-0.5-3.8-0.8-5.6-0.8v1.2c0,6.1,1,12.1,2.9,17.6c7.5,1.4,14.1-0.8,15.3-5.2
		C51.5,134.4,45.9,128.7,37.6,126.5"/>
	<path id="Stroke-40" class="st14" d="M63.4,160.3c0,0,12.5,10.8,29.1,1.1"/>
	<path id="Fill-42" class="st8" d="M87.6,117.6c0,2.7,2.2,4.9,4.9,4.9c2.7,0,4.9-2.2,4.9-4.9c0-2.7-2.2-4.9-4.9-4.9
		C89.8,112.7,87.6,114.9,87.6,117.6"/>
	<path id="Fill-44_4_" class="st8" d="M44.8,117.6c0,2.7,1.5,4.9,3.4,4.9s3.4-2.2,3.4-4.9c0-2.7-1.5-4.9-3.4-4.9
		S44.8,114.9,44.8,117.6"/>
	<path id="Fill-46_4_" class="st4" d="M7.2,341.4c0.5-3,1-5.4,1.6-7.3c1.5-4.6,4.4-7.8,8.6-9.6c13.7-5.9,37,5.2,37.9,5.7
		c0.3,0.1,0.5,0.4,0.6,0.6c3.1,7.4,1.4,27.4-0.9,42.3c-2.1,13.4-5,24.8-7.8,30.5c-6.7,13.6-14.8,13.4-22.7,13.1c-0.7,0-1.3,0-2-0.1
		c-8.8-0.2-12.9-9.7-13.1-10.1C4.4,395.1,4.5,358.9,7.2,341.4L7.2,341.4z"/>
	<path id="Fill-48_4_" class="st16" d="M56.2,373.4c2.4-15,4-35.3,0.9-43c-0.2-0.5-0.6-1-1.2-1.2c-1-0.5-24.7-11.8-38.9-5.7
		c-4.6,1.9-7.7,5.4-9.3,10.4c-0.6,1.9-1.2,4.4-1.7,7.4c-2.8,17.6-2.8,54.2,2.4,65.9c0.2,0.4,4.5,10.6,14.1,10.8c0.7,0,1.3,0,2,0.1
		c7.9,0.2,16.8,0.5,23.8-13.8C51.1,398.4,54.1,386.9,56.2,373.4 M53.8,373c-2,12.4-4.8,24.2-7.7,30.1c-6.9,14-14.9,12.6-23.6,12.4
		c-8.2-0.2-12-9.4-12-9.4c-4.8-10.9-5.1-46.5-2.2-64.6c0.4-2.8,1-5.3,1.6-7.1c7-21.6,44.9-3.2,44.9-3.2
		C57.5,337.8,56.5,356,53.8,373"/>
	<path id="Fill-50" class="st7" d="M48.7,394c0,0-26.8-15.2-40.3-1.7l1.3,21.6c0,0,18.6,8.8,39.7,0.7L48.7,394z"/>
	<path id="Fill-52" class="st10" d="M47,411.4c0,0-22.1-10.2-33.2-4.1c0,0-12,41.9-3.3,60.5c0,0,2.1,3.5,3.6-1.4
		c0,0,0.1-17.2,0.4-22.6c0,0,5.2,28.9,9.5,33c0,0,3.9,1.4,3.9-2.9c0-5.6-3.3-21.9-3.3-21.9s7.5,24.4,9.9,27.9c0,0,2,2.8,4.2,1.2
		c2.2-1.6,1.4-4.7,1.4-4.7l-6.5-27c0,0,7.5,23.6,10.6,25.5c1.7,1.1,2.8,2.5,3.9,0.1c1.1-2.4-4.7-27-5.2-31.2c-0.3-2.6,1.2-9,1.2-9
		s4.8,12.2,8.9,14.6c0,0,4.5,2.6,4.4-1c0-3.5-4.3-8.9-5.2-14.2C51.2,428.7,48.2,413.5,47,411.4"/>
	<path id="Fill-54" class="st6" d="M198.5,245c0,0-27.1-32-26.6-55.6c0.5-20.1,36.6-37,52.2-7.4c19.8,37.8,47.2,95.7,47.2,95.7
		s0,40.7-4.9,72.2c-4.6,29.9-3.1,36.8-3.1,36.8l-36.6,8.6c0-6.1,3.2-81.5-0.5-86C222.1,304.4,202.7,257.8,198.5,245"/>
	<path id="Stroke-56" class="st5" d="M198.5,245c0,0-27.1-32-26.6-55.6c0.5-20.1,36.6-37,52.2-7.4c19.8,37.8,47.2,95.7,47.2,95.7
		s0,40.7-4.9,72.2c-4.6,29.9-3.1,36.8-3.1,36.8l-36.6,8.6c0-6.1,3.2-81.5-0.5-86C222.1,304.4,202.7,257.8,198.5,245z"/>
	<path id="Fill-58" class="st7" d="M226.2,379.3c0,0,25.7-16.9,40.1-4.3l0.1,21.7c0,0-18,10-39.6,3.3L226.2,379.3z"/>
	<path id="Fill-60" class="st10" d="M229,396.5c0,0,21.4-11.7,32.8-6.3c0,0,14.7,41,7.2,60.1c0,0-1.9,3.7-3.6-1.2
		c0,0-1.3-17.2-1.8-22.5c0,0-3.3,29.2-7.4,33.5c0,0-3.8,1.6-4.1-2.7c-0.4-5.6,1.8-22.1,1.8-22.1s-5.9,24.9-8,28.5
		c0,0-1.8,2.9-4.1,1.5s-1.7-4.6-1.7-4.6l4.7-27.4c0,0-5.9,24-8.9,26.1c-1.6,1.2-2.7,2.7-3.9,0.3c-1.3-2.3,2.9-27.3,3.1-31.5
		c0.1-2.6-1.8-9-1.8-9s-4,12.4-7.9,15.2c0,0-4.3,2.8-4.5-0.7s3.7-9.1,4.2-14.5C226,414,227.9,398.7,229,396.5"/>
	<path id="Stroke-62" class="st5" d="M238.9,291.8c0,0-9.3,10.8-10.2,24.4"/>
</g>
</svg>
