<?xml version="1.0" encoding="UTF-8"?>
<svg width="87px" height="86px" viewBox="0 0 87 86" version="1.1" xmlns="http://www.w3.org/2000/svg" xmlns:xlink="http://www.w3.org/1999/xlink">
    <!-- Generator: Sketch 61.1 (89650) - https://sketch.com -->
    <title>Group 6</title>
    <desc>Created with Sketch.</desc>
    <g id="Page-1" stroke="none" stroke-width="1" fill="none" fill-rule="evenodd">
        <g id="Droplet-&amp;-Contact_2-Copy-12" transform="translate(-677.000000, -46.000000)">
            <g id="Group-6" transform="translate(677.000000, 46.000000)">
                <g id="Group-5" fill="#ff9933">
                    <ellipse id="Oval-Copy-3" cx="43.5" cy="43" rx="43.5" ry="43"></ellipse>
                </g>
                <g id="Group-11" transform="translate(20.000000, 21.000000)">
                    <g id="protection" fill="#FFFFFF" fill-rule="nonzero">
                        <path d="M18.512,34.176 L16.94471,34.176 C16.759679,33.268289 16.400653,32.423501 15.905368,31.676435 L17.016177,30.565626 C17.572338,30.009465 17.572338,29.107895 17.016177,28.551823 C16.460105,27.995662 15.558535,27.995662 15.002374,28.551823 L13.891565,29.662632 C13.144499,29.167347 12.299711,28.808321 11.392,28.62329 L11.392,27.056 C11.392,26.269596 10.754404,25.632 9.96799999,25.632 C9.18159599,25.632 8.54399999,26.269596 8.54399999,27.056 L8.54399999,28.62329 C7.63628899,28.808321 6.79150099,29.167347 6.04443499,29.662632 L4.93362599,28.551823 C4.37746499,27.995662 3.475895,27.995662 2.919823,28.551823 C2.363662,29.107895 2.363662,30.009554 2.919823,30.565626 L4.030632,31.676435 C3.535347,32.423501 3.176321,33.268289 2.99129,34.176 L1.424,34.176 C0.637595999,34.176 -3.7942982e-15,34.813596 -3.7942982e-15,35.6 C-3.7942982e-15,36.386404 0.637595999,37.024 1.424,37.024 L2.99129,37.024 C3.176321,37.931711 3.535347,38.776499 4.030632,39.523565 L2.919823,40.634374 C2.363662,41.190535 2.363662,42.092105 2.919823,42.648177 C3.475806,43.2042489 4.37746499,43.2043379 4.93362599,42.648177 L6.04443499,41.537368 C6.79150099,42.032653 7.63628899,42.391679 8.54399999,42.57671 L8.54399999,44.1439999 C8.54399999,44.9304039 9.18159599,45.5679999 9.96799999,45.5679999 C10.754404,45.5679999 11.392,44.9304039 11.392,44.1439999 L11.392,42.57671 C12.299711,42.391679 13.144499,42.032653 13.891565,41.537368 L15.002374,42.648177 C15.558446,43.2042489 16.460105,43.2044269 17.016177,42.648177 C17.572338,42.092105 17.572338,41.190446 17.016177,40.634374 L15.905368,39.523565 C16.400653,38.776499 16.759679,37.931711 16.94471,37.024 L18.512,37.024 C19.298404,37.024 19.936,36.386404 19.936,35.6 C19.936,34.813596 19.298404,34.176 18.512,34.176 L18.512,34.176 Z M14.002281,37.002551 C13.573835,38.231374 12.599374,39.205746 11.370551,39.634281 C11.257254,38.961263 10.673236,38.448 9.96799999,38.448 C9.26276399,38.448 8.67874599,38.961263 8.56544899,39.634281 C7.33662599,39.205835 6.36225399,38.231463 5.93371899,37.002551 C6.60673699,36.889254 7.11999999,36.305236 7.11999999,35.6 C7.11999999,34.894764 6.60673699,34.310746 5.93371899,34.19736 C6.36216499,32.968537 7.33662599,31.994165 8.56544899,31.56563 C8.67874599,32.238737 9.26276399,32.752 9.96799999,32.752 C10.673236,32.752 11.257254,32.238737 11.370551,31.565719 C12.599374,31.994165 13.573746,32.968537 14.002281,34.197449 C13.329263,34.310746 12.816,34.894675 12.816,35.6 C12.816,36.305325 13.329263,36.889254 14.002281,37.002551 Z" id="Shape"></path>
                        <path d="M25.632,45.5679999 C25.524577,45.5679999 25.417154,45.5558069 25.311778,45.5315099 C23.669105,45.1524589 22.062833,44.6092029 20.537462,43.9169609 C19.821279,43.5920219 19.504172,42.7479459 19.8292,42.031763 C20.154139,41.315669 20.998215,40.998384 21.714398,41.323501 C22.968675,41.892745 24.284985,42.348425 25.632178,42.6800389 C35.710538,40.202724 42.7199999,31.282254 42.7199999,20.87317 L42.7199999,6.82879199 L25.632,2.88538 L8.54399999,6.82879199 L8.54399999,20.87317 C8.54399999,21.785509 8.59971399,22.703811 8.70971799,23.602533 C8.80521499,24.383152 8.24976599,25.093372 7.46914699,25.188958 C6.68870599,25.284188 5.97830799,24.729006 5.88281099,23.948387 C5.75883399,22.9353 5.69599999,21.900675 5.69599999,20.87317 L5.69599999,5.69599999 C5.69599999,5.03286099 6.15372699,4.45756499 6.79977799,4.30848999 L25.311778,0.03649 C25.522441,-0.012104 25.74147,-0.012104 25.952133,0.03649 L44.4641329,4.30848999 C45.1102729,4.45756499 45.5679999,5.03286099 45.5679999,5.69599999 L45.5679999,20.87317 C45.5679999,26.572641 43.6139159,32.167715 40.065753,36.627861 C36.517768,41.087829 31.505466,44.2499099 25.952222,45.5315989 C25.846935,45.5558069 25.739423,45.5679999 25.632,45.5679999 L25.632,45.5679999 Z" id="Path"></path>
                    </g>
                    <g id="Group-8" transform="translate(18.467500, 14.240000)" stroke="#FFFFFF" stroke-linecap="round" stroke-linejoin="round" stroke-width="2.66999996">
                        <line x1="7.56499988" y1="0" x2="7.56499988" y2="14.2399998" id="Path-9"></line>
                        <line x1="7.34249988" y1="0.222499996" x2="7.34249988" y2="14.4624998" id="Path-9-Copy" transform="translate(7.342500, 7.342500) scale(1, -1) rotate(90.000000) translate(-7.342500, -7.342500) "></line>
                    </g>
                </g>
            </g>
        </g>
    </g>
</svg>