<?xml version="1.0" encoding="utf-8"?>
<!-- Generator: Adobe Illustrator 22.1.0, SVG Export Plug-In . SVG Version: 6.00 Build 0)  -->
<svg version="1.1" id="Layer_1" xmlns="http://www.w3.org/2000/svg" xmlns:xlink="http://www.w3.org/1999/xlink" x="0px" y="0px"
	 viewBox="0 0 484 478" style="enable-background:new 0 0 484 478;" xml:space="preserve">
<style type="text/css">
	.st0{opacity:0.4;}
	.st1{opacity:0.7;fill:#FE9933;enable-background:new    ;}
	.st2{fill:#FF9835;}
	.st3{fill:none;stroke:#FFF0DE;stroke-width:1.33;}
	.st4{fill:#0E131A;}
	.st5{fill:#866C57;}
	.st6{fill:#9E8979;}
	.st7{fill:#474849;}
	.st8{fill:#655141;}
	.st9{fill:#43362C;}
	.st10{fill:#B6A79A;}
	.st11{fill:#2B96F4;}
	.st12{fill:#0071D6;}
	.st13{opacity:0.49;fill:#0071D6;enable-background:new    ;}
	.st14{fill:#FFFFFF;}
	.st15{fill:#D1D3D4;}
	.st16{fill:#F1F2F2;}
	.st17{fill:#FCAE88;}
	.st18{opacity:0.32;fill:#B06D4D;enable-background:new    ;}
	.st19{fill:#720711;}
	.st20{fill:#B06D4D;}
	.st21{fill:#E6E7E8;}
	.st22{fill:#9D9E9F;}
	.st23{opacity:0.3;fill:#B06D4D;enable-background:new    ;}
	.st24{fill:#7DCC89;}
	.st25{opacity:0.18;fill:#268B85;enable-background:new    ;}
	.st26{fill:#7DB9B6;}
	.st27{opacity:0.18;fill:#B5B6B6;enable-background:new    ;}
	.st28{opacity:0.34;fill:#268B85;enable-background:new    ;}
	.st29{opacity:0.19;fill:#268B85;enable-background:new    ;}
	.st30{fill:#BD8366;}
	.st31{fill:#58595B;}
	.st32{fill:#2C2D2E;}
	.st33{fill:#231F20;}
	.st34{fill:#FAA284;}
	.st35{fill:#006ABA;}
	.st36{fill:#BBDEFB;}
	.st37{fill:#E5AB35;}
	.st38{fill:#26C7DB;}
	.st39{fill:#F7BD3C;}
	.st40{opacity:0.4;fill:#FFFFFF;enable-background:new    ;}
	.st41{fill:#2778C1;}
	.st42{fill:#1D69BC;}
	.st43{opacity:0.45;}
	.st44{fill:#FE9933;}
	.st45{fill:#F9AF6B;}
</style>
<title>Group 38</title>
<desc>Created with Sketch.</desc>
<g id="Group-15" transform="translate(0.000000, 62.000000)">
	<g id="Group-23-Copy" class="st0">
		<g id="Group-12">
			<path id="Fill-1" class="st1" d="M28.3,56.8c0.6-12,2.3-24.3,8.9-34.4c9.7-14.8,28.3-21.6,46-22.3c28-1.1,55,10.5,79.3,24.6
				c24.2,14.1,47,30.9,72.8,42C282.6,87,335.7,86.4,387,90.4c16.9,1.3,34.9,3.6,48,14.4c10.9,9,16.9,22.9,19,36.8
				c5.7,36.8-13,74.4-41.3,98.6s-64.8,36.7-101.4,44c-40.7,8-83.1,10.1-123.4,0.2c-75.5-18.6-129.6-78-150.7-151.2
				C30.1,108.4,27,82.5,28.3,56.8"/>
			<g id="Group-5">
				<g id="Clip-4">
				</g>
				<path id="Fill-3" class="st2" d="M266.1,58.5c38.4-24.1,76.7-53,121.8-57.6c14.8-1.5,30.3-0.2,43.7,6.3
					c18.9,9.1,31.8,27.5,39.7,46.9c17.4,42.7,13.8,90.8,7.2,136.5c-4.7,32.5-11,65.5-27.6,93.9c-22.4,38.4-62.1,64.8-104.8,77.3
					s-88.3,12.1-132.4,5.9c-43.2-6.1-86.2-18.1-123.6-40.4c-37.4-22.4-69.1-56-83.9-96.9c-5.4-15-8.5-31.6-4-46.9
					c12.7-43,82.3-44.6,117-56C170.7,110.5,220.2,87.3,266.1,58.5"/>
			</g>
			<path id="Stroke-6" class="st3" d="M269.3,329c-15.7,0-32.7-1.3-50.6-3.8C175,319,139.8,307.6,111,290.3
				c-18.6-11.2-35.5-25.6-48.4-43.1c-9.6-13.1-31.4-44.1-14.3-58.3c5.1-4.3,11.9-6.1,18.4-7.4c10.1-2,20.1-3.7,30.1-5.8
				c12.4-2.6,24.1-5,34.7-8.5c54.9-18.1,107.5-42.8,156.2-73.4c5.8-3.7,11.6-7.4,17.3-11.1c29.7-19.2,57.8-37.4,86.2-40.3
				c2.2-0.2,4.4-0.3,6.5-0.3c5.8,0,10.7,0.9,14.2,2.6c16.5,8,23.1,34.1,25.7,50.5c8.5,52.7,1.7,134.5-32,178.3
				C373.9,314.9,319.3,329,269.3,329z"/>
			<path id="Stroke-8" class="st3" d="M270.5,288c-32.2-0.1-66.5-5.9-96.6-15c-15.3-4.6-30.3-10.6-43.7-19.2
				c-3.1-2-36.3-30.7-33-32.7c6.3-3.7,13.6-4.9,20.8-6.4c51.4-10.3,100-31.1,145.7-56.1c19.4-10.7,38.2-22.8,57.2-34
				c8.1-4.8,63.9-44.2,71.7-37.8c1.8,1.4,2.4,3.9,2.8,6.1c5.7,27.7,3.5,61.3,0,89.3c-3.4,27.3-12.6,55-32.1,74.4
				c-19.9,20-48.6,29.2-76.8,31C281.3,287.9,276,288,270.5,288z"/>
			<path id="Stroke-10" class="st3" d="M270,245c-22.5,0-47.6-3.4-72-9.7c27.6-10.3,56-23.4,85.6-39.5c13.5-7.3,26.4-15.2,38.9-22.8
				c6.8-4.1,13.2-8,19.7-11.8c2.3-1.3,5-3.1,10.3-6.6c0.9-0.6,1.7-1.1,2.5-1.6c-0.5,7.5-1.3,15.4-2.4,23.8
				c-1.9,15.3-6.9,36.3-20,49.3c-10.7,10.6-28.2,17.2-49.4,18.5c-4.1,0.3-8.5,0.4-13,0.4L270,245z"/>
		</g>
	</g>
	<path id="Path-7" class="st3" d="M0,0"/>
</g>
<g id="dis-29" transform="translate(59.000000, 0.000000)">
	<g id="doctor" transform="translate(117.040000, 0.000000)">
		<polygon id="Path" class="st4" points="108.1,465.7 109,444.3 97.4,444.3 96.5,465.7 		"/>
		<path id="Path_1_" class="st5" d="M141.9,476.3H89.5c0,0-1.2-4.4-0.6-7.2c0.2-1.1,0.7-1.9,1.7-2.2c0-3.4,1.6-10.4,6.7-11.3l0,0
			c0,0.2-0.9,7.3,9.9,0c2.7-1.8,18,13.7,29.2,13.5c2.6,0,4.1,2.6,4.9,4.7C141.6,474.6,141.8,475.5,141.9,476.3L141.9,476.3z"/>
		<path id="Path_2_" class="st6" d="M97.3,455.6c-0.2,0.2-5.9,8.3-3.5,14.5c-1.7,0-3.3-0.4-4.9-1c0.2-1.1,0.7-1.9,1.7-2.2
			C90.6,463.6,92.2,456.5,97.3,455.6L97.3,455.6z"/>
		<rect id="Rectangle" x="89.5" y="476.3" class="st7" width="52.4" height="1.2"/>
		<path id="Path_3_" class="st8" d="M141.9,476.3H89.5c0,0-2.3-8.5,1.1-9.4c0,0,32,12.8,50.6,6.9
			C141.5,474.6,141.8,475.5,141.9,476.3L141.9,476.3z"/>
		<path id="Path_4_" class="st9" d="M114.3,462.1c0,0.6-0.5,1.2-1.2,1.2s-1.2-0.5-1.2-1.2s0.5-1.2,1.2-1.2S114.3,461.5,114.3,462.1
			L114.3,462.1z"/>
		<path id="Path_5_" class="st9" d="M118.1,464.2c0,0.6-0.5,1.2-1.2,1.2s-1.2-0.5-1.2-1.2s0.5-1.2,1.2-1.2S118.1,463.6,118.1,464.2
			L118.1,464.2z"/>
		<path id="Path_6_" class="st9" d="M121.9,466.3c0,0.6-0.5,1.2-1.2,1.2c-0.6,0-1.2-0.5-1.2-1.2s0.5-1.2,1.2-1.2
			C121.4,465.1,121.9,465.6,121.9,466.3L121.9,466.3z"/>
		<path id="Path_7_" class="st10" d="M137.6,470.6c0,0.4-0.9,0.8-2,0.8s-2-0.4-2-0.8s0.9-0.8,2-0.8
			C136.7,469.8,137.6,470.1,137.6,470.6z"/>
		<polygon id="Path_8_" class="st4" points="34.1,465.7 33.2,444.3 44.8,444.3 45.7,465.7 		"/>
		<path id="Path_9_" class="st5" d="M0.2,476.3h52.4c0,0,1.2-4.4,0.6-7.2c-0.2-1.1-0.7-1.9-1.7-2.2c0-3.4-1.6-10.4-6.7-11.3l0,0
			c0,0.2,0.9,7.3-9.9,0c-2.7-1.8-18,13.7-29.2,13.5c-2.6,0-4.1,2.6-4.9,4.7C0.6,474.6,0.4,475.5,0.2,476.3L0.2,476.3z"/>
		<path id="Path_10_" class="st6" d="M44.9,455.6c0.2,0.2,5.9,8.3,3.5,14.5c1.7,0,3.3-0.4,4.9-1c-0.2-1.1-0.7-1.9-1.7-2.2
			C51.6,463.6,49.9,456.5,44.9,455.6L44.9,455.6z"/>
		<rect id="Rectangle_1_" x="0.2" y="476.3" class="st7" width="52.4" height="1.2"/>
		<path id="Path_11_" class="st8" d="M0.2,476.3h52.4c0,0,2.3-8.5-1.1-9.4c0,0-32,12.8-50.6,6.9C0.6,474.6,0.4,475.5,0.2,476.3
			L0.2,476.3z"/>
		<path id="Path_12_" class="st9" d="M27.9,462.1c0,0.6,0.5,1.2,1.2,1.2s1.2-0.5,1.2-1.2s-0.5-1.2-1.2-1.2S27.9,461.5,27.9,462.1z"
			/>
		<path id="Path_13_" class="st9" d="M24.1,464.2c0,0.6,0.5,1.2,1.2,1.2c0.6,0,1.2-0.5,1.2-1.2S26,463,25.3,463
			c-0.3,0-0.6,0.1-0.8,0.3C24.2,463.6,24.1,463.9,24.1,464.2L24.1,464.2z"/>
		<path id="Path_14_" class="st9" d="M20.3,466.3c0,0.6,0.5,1.2,1.2,1.2c0.6,0,1.2-0.5,1.2-1.2s-0.5-1.2-1.2-1.2
			C20.8,465.1,20.3,465.6,20.3,466.3L20.3,466.3z"/>
		<path id="Path_15_" class="st10" d="M4.6,470.6c0,0.4,0.9,0.8,2,0.8s2-0.4,2-0.8s-0.9-0.8-2-0.8S4.6,470.1,4.6,470.6z"/>
		<polygon id="Path_16_" class="st11" points="85.9,455.5 114.5,455.5 114.5,238.8 95.5,238.7 95.5,238.6 41.7,238.6 41.7,238.7 
			24.8,238.8 24.8,455.5 53.4,455.5 67.5,281.8 71.8,281.8 		"/>
		<path id="Path_17_" class="st12" d="M114.5,238.8v148.6c-11,3-22.3,4.7-33.7,5.1l-9-110.7h-4.3l-9,110.3
			c-11.4-0.9-22.6-2.7-33.7-5.5V238.8l16.9-0.1v-0.1h53.8v0.1L114.5,238.8z"/>
		<path id="Path_18_" class="st11" d="M118.8,108.7L79.6,90.6H58.2L19,108.7l-4.5,257.8c68.7,10,108.8,0,108.8,0L118.8,108.7z"/>
		<path id="Path_19_" class="st13" d="M123.3,366.5c0,0-40.1,10-108.8,0v-2.1c70.7-65.3,102.7-186.2,102.7-186.2s1.1-1.5,2.7-3.5
			L123.3,366.5z"/>
		<rect id="Rectangle_2_" x="80.1" y="147.6" class="st14" width="25.3" height="13.7"/>
		<rect id="Rectangle_3_" x="81.9" y="151.4" class="st15" width="7.1" height="6.1"/>
		<rect id="Rectangle_4_" x="90.9" y="151.8" class="st15" width="12.8" height="1"/>
		<rect id="Rectangle_5_" x="90.9" y="154" class="st15" width="12.8" height="1"/>
		<rect id="Rectangle_6_" x="90.9" y="156.2" class="st15" width="12.8" height="1"/>
		<rect id="Rectangle_7_" x="91.4" y="145.2" class="st16" width="2.7" height="3.7"/>
		<polygon id="Path_20_" class="st17" points="58.2,90.6 79.6,90.6 68.9,115.9 		"/>
		<rect id="Rectangle_8_" x="58.2" y="73.8" class="st17" width="21.4" height="16.9"/>
		<path id="Path_21_" class="st18" d="M79.6,73.8v10.9c-3.3,2.2-6.9,3.5-10.7,3.5c-3.8,0-7.4-1.2-10.7-3.5V73.8H79.6z"/>
		<path id="Path_22_" class="st19" d="M68.3,73.7c-5.3,0-9.6-4.3-9.6-9.6h19.2C77.9,69.4,73.6,73.7,68.3,73.7L68.3,73.7z"/>
		<path id="Path_23_" class="st16" d="M77.9,64.1c0,0-1.2,2.4-1.9,2.8c-3.3,1.8-11.8,1.7-15.2,0c-0.8-0.4-2.1-2.8-2.1-2.8H77.9z"/>
		<path id="Path_24_" class="st17" d="M39.3,50.5c1.1,2.9,4.3,4.3,7.2,3.2l0,0c1.4-0.5,2.5-1.6,3.1-2.9c0.6-1.3,0.6-2.9,0.1-4.3
			L46.8,39c-0.5-1.4-1.6-2.5-2.9-3.1c-1.3-0.6-2.9-0.6-4.3-0.1l0,0c-1.4,0.5-2.5,1.6-3.1,2.9c-0.6,1.3-0.6,2.9-0.1,4.3L39.3,50.5z"
			/>
		<path id="Path_25_" class="st20" d="M44.9,42.3c0,0-11.7-4.9-1.9,8C43,47.9,36.9,42.9,44.9,42.3z"/>
		<path id="Path_26_" class="st17" d="M97.4,50.5c-1.1,2.9-4.3,4.3-7.2,3.2l0,0c-2.9-1.1-4.3-4.3-3.2-7.2l2.9-7.5
			c1.1-2.9,4.3-4.3,7.2-3.2l0,0c1.4,0.5,2.5,1.6,3.1,2.9c0.6,1.3,0.6,2.9,0.1,4.3L97.4,50.5z"/>
		<path id="Path_27_" class="st20" d="M91.8,42.3c0,0,11.7-4.9,1.9,8C93.7,47.9,99.9,42.9,91.8,42.3z"/>
		<path id="Path_28_" class="st21" d="M52.3,10.9c0,0-11.2,1.5-12.9,4.4c-3.8,6.3,4.6,29,4.6,29L52.3,10.9z"/>
		<path id="Path_29_" class="st21" d="M92.8,42.4c0,0,7-19.7,4.5-25.7c-2.1-5-17.8-12.2-17.8-12.2l-8.3,11L92.8,42.4z"/>
		<path id="Path_30_" class="st17" d="M43.9,44.2c0,4.7,0.5,9.4,1.6,13.9l0,0c0.2,1,0.5,2.1,0.8,3.1c0.2,0.8,0.5,1.7,0.8,2.5
			c4.2,12.1,12.2,20.2,21.3,20.2c9,0,16.8-7.9,21.1-19.6c0.4-1,0.7-2,1-3.1c0.3-1,0.6-2,0.8-3l0,0c1-4.6,1.6-9.2,1.6-13.9
			c0-1.8-0.1-3.5-0.2-5.3c0-0.1,0-0.2,0-0.2c-1.8-19.4-12-34.2-24.3-34.2S45.7,19.5,44.1,39C44,40.7,43.9,42.4,43.9,44.2z"/>
		<path id="Path_31_" class="st15" d="M89.1,65.2c-4.3,11.2-12,18.7-20.7,18.7c-8.9,0-16.7-7.8-21-19.3
			C55.6,61.8,71.3,58.6,89.1,65.2z"/>
		<path id="Path_32_" class="st22" d="M61.1,27.6v1.8h1v-2l3.2-0.6c0,0,0.9,4.3,0,5.3c-2.6,2.6-14.4,0-14.4,0v-2.6L61.1,27.6z"/>
		<path id="Path_33_" class="st22" d="M75.6,26.9v1.8h-1v-2l-3.2-0.6c0,0-0.9,4.3,0,5.3c2.6,2.6,14.4,0,14.4,0v-2.6L75.6,26.9z"/>
		<path id="Path_34_" class="st17" d="M69,40.9c0,0,1.5,10.3,2.5,17.6C55.1,62.3,68.7,41.3,69,40.9L69,40.9z"/>
		<path id="Path_35_" class="st20" d="M71.5,58.5c-16.4,3.8-2.8-17.2-2.5-17.6C68.8,41.3,59.8,59.6,71.5,58.5z"/>
		<path id="Path_36_" class="st15" d="M86.7,15.4c-0.7,0.5-2.6,0.9-5.1,1.2h-0.3c-3.5,0.4-8.3,0.5-13,0.5H68c-5.3,0-10.5,0-13.9-0.1
			h-0.3c-2.2-0.1-3.5-0.1-3.5-0.1l-4-4.8c0,0-2.9-12.8,12.5-10.9c0.8,0.1,1.5,0.2,2.3,0.2l1,0.1c4.4,0.4,8.6,0.7,12.5,1l0.9,0.1
			C79.4,3,82.9,3.4,86,4.2l0.4,0.1c3.2,0.9,5.7,2.2,7.4,4.3C96,11.4,90.4,12.7,86.7,15.4z"/>
		<path id="Path_37_" class="st22" d="M86.3,4.3c-0.3,0.2-0.5,0.4-0.7,0.6c-3.5,3-4,8.4-4,11.7h-0.3c0-3.3,0.5-8.8,4.1-11.9
			c0.2-0.2,0.4-0.3,0.6-0.4L86.3,4.3z"/>
		<path id="Path_38_" class="st22" d="M75.4,2.5C73,3.2,71.2,4.4,69.9,6c-2.4,3.3-2.2,7.8-1.6,11.1H68c-0.6-3.3-0.8-7.9,1.7-11.2
			c1.2-1.6,3-2.8,4.9-3.4L75.4,2.5z"/>
		<path id="Path_39_" class="st22" d="M62,1.4c-2.9,0.6-5.1,1.8-6.5,3.7C52.8,8.7,53.3,13.8,54,17h-0.3c-0.7-3.3-1.2-8.4,1.5-12
			c1.3-1.8,3.2-3,5.8-3.6L62,1.4z"/>
		<path id="Path_40_" class="st23" d="M91.2,58.2c-0.2,1-0.5,2.1-0.8,3c-0.3,1.1-0.6,2.1-1,3.1c-4.2,11.7-12.1,19.6-21,19.6
			c-1.4,0-2.7-0.2-4-0.5C85.3,81,91.1,58.9,91.2,58.2z"/>
		<path id="Path_41_" class="st17" d="M91.2,58.1L91.2,58.1C91.2,58.2,91.2,58.2,91.2,58.1z"/>
		<path id="Path_42_" class="st24" d="M91.7,59c-0.1,2.5-0.6,4.9-1.3,7.3c-0.7,2.3-1.6,4.5-2.8,6.6C83.4,80.2,76.3,85,68.3,85
			c-1,0-1.9-0.1-2.9-0.2l0,0c-3.9-0.6-7.6-2.3-10.6-5c-1.1-0.9-2.1-1.9-3-3c-1.1-1.4-2.1-2.8-3-4.4c-0.8-1.4-1.4-2.9-2-4.4
			c0-0.1-0.1-0.2-0.1-0.3c-0.2-0.5-0.3-1-0.5-1.5c-0.1-0.4-0.2-0.8-0.3-1.2c-0.1-0.2-0.1-0.5-0.2-0.7c-0.4-1.8-0.7-3.6-0.8-5.4
			c0.4-0.6,0.8-1.1,1.2-1.7c3-3.6,7.2-5.8,11.7-5.8h20.8C83.9,51.4,88.6,54.4,91.7,59z"/>
		<path id="Path_43_" class="st25" d="M91.7,59c-0.1,2.5-0.6,4.9-1.3,7.3c-0.7,2.3-1.6,4.5-2.8,6.6C83.4,80.2,76.3,85,68.3,85
			c-1,0-1.9-0.1-2.9-0.2l0,0c-3.9-0.6-7.6-2.3-10.6-5C78.8,78.9,91.7,59,91.7,59z"/>
		<path id="Path_44_" class="st26" d="M46.1,59.5c0,0,5.2-6.5,10.3-5.8C53.6,54.6,46.1,59.5,46.1,59.5z"/>
		<path id="Path_45_" class="st25" d="M63.2,58C63,57.9,76,58,76,58S64.3,58.6,63.2,58z"/>
		<path id="Path_46_" class="st25" d="M71.4,59.6c-0.2-0.1,12.8,0,12.8,0S72.5,60.2,71.4,59.6z"/>
		<path id="Path_47_" class="st27" d="M63.2,64.4c0,0-8.9,0.5-17.4,0.6c-0.1-0.2-0.1-0.5-0.2-0.7C54.2,64.4,63.2,64.4,63.2,64.4z"/>
		<path id="Path_48_" class="st27" d="M52.8,67.8c0,0-2.6,0.1-6.1,0.3c0-0.1-0.1-0.2-0.1-0.3H52.8z"/>
		<path id="Path_49_" class="st11" d="M95.8,33c-4.7-4.4-9.4-7.3-14.1-9c-22-8.3-41.6,8.6-41.6,8.6C26.7-1.6,53.2,0.3,53.2,0.3
			S64.8,0,85,0h0.3C102.2,0,98.5,28.4,95.8,33z"/>
		<path id="Path_50_" class="st28" d="M43,8.1h26.4C69.4,8.1,48.6,9.2,43,8.1z"/>
		<path id="Path_51_" class="st28" d="M46.9,11.8h26.4C73.3,11.8,52.4,12.9,46.9,11.8z"/>
		<path id="Path_52_" class="st28" d="M38,18.8h26.4C64.4,18.8,43.5,19.9,38,18.8z"/>
		<path id="Path_53_" class="st28" d="M81.9,14.3h14.6C96.5,14.3,85,14.9,81.9,14.3z"/>
		<path id="Path_54_" class="st29" d="M95.8,33c-4.7-4.4-9.4-7.3-14.1-9c5-6.9,4.6-16.8,3.3-24h0.3C102.2,0,98.5,28.4,95.8,33z"/>
		<path id="Path_55_" class="st14" d="M73,41.2c0,0,7-17,13.2-0.9C83.6,42.7,78,44.9,73,41.2z"/>
		<path id="Path_56_" class="st30" d="M86.1,40.3c-4.9-11.7-11.2-2.7-11.2-2.7C77.4,33.7,81.9,29.4,86.1,40.3z"/>
		<path id="Path_57_" class="st30" d="M86.1,40.3c-2.5,2.4-8.1,4.6-13.1,0.9C77.1,43.5,82.3,43.2,86.1,40.3L86.1,40.3z"/>
		<path id="Path_58_" class="st31" d="M81.7,39.6c-0.2,1.3-1.2,2.4-2.5,2.7s-2.6-0.2-3.4-1.3s-0.8-2.5-0.1-3.6s2-1.7,3.3-1.5
			C80.8,36.2,82,37.8,81.7,39.6L81.7,39.6z"/>
		<path id="Path_59_" class="st32" d="M80.9,36.9c0.8,1.5,0.4,3.3-0.9,4.3c-1.4,1-3.2,0.8-4.3-0.5c0.6,1.1,1.8,1.7,3,1.6
			s2.3-0.9,2.8-2S81.8,37.8,80.9,36.9L80.9,36.9z"/>
		<path id="Path_60_" class="st33" d="M79.7,39.3c-0.1,0.8-0.9,1.4-1.7,1.2c-0.8-0.1-1.4-0.9-1.3-1.7s0.9-1.4,1.7-1.3
			c0.4,0.1,0.8,0.3,1,0.6C79.7,38.5,79.8,38.9,79.7,39.3L79.7,39.3z"/>
		<path id="Path_61_" class="st14" d="M78.4,38c0,0.1-0.1,0.3-0.3,0.3c-0.1,0.1-0.3,0-0.4-0.1s-0.2-0.2-0.1-0.4
			c0-0.1,0.1-0.2,0.2-0.3s0.2-0.1,0.3-0.1C78.2,37.6,78.4,37.8,78.4,38L78.4,38z"/>
		<path id="Path_62_" class="st14" d="M63.6,41.2c0,0-7-17-13.1-0.9C52.9,42.7,58.6,44.9,63.6,41.2z"/>
		<path id="Path_63_" class="st30" d="M50.4,40.3c4.9-11.7,11.2-2.7,11.2-2.7l0,0C59.1,33.7,54.6,29.4,50.4,40.3z"/>
		<path id="Path_64_" class="st30" d="M50.4,40.3c2.5,2.4,8.1,4.6,13.1,0.9C59.4,43.5,54.3,43.2,50.4,40.3z"/>
		<path id="Path_65_" class="st31" d="M54.8,39.6c0.2,1.3,1.2,2.4,2.5,2.7s2.6-0.2,3.4-1.3c0.8-1.1,0.8-2.5,0.1-3.6s-2-1.7-3.3-1.5
			C55.7,36.2,54.5,37.8,54.8,39.6z"/>
		<path id="Path_66_" class="st32" d="M55.6,36.9c-0.8,1.5-0.4,3.3,0.9,4.3c1.4,1,3.2,0.8,4.3-0.5c-0.6,1.1-1.8,1.7-3,1.6
			c-1.2-0.1-2.3-0.9-2.8-2S54.8,37.8,55.6,36.9L55.6,36.9z"/>
		<path id="Path_67_" class="st33" d="M56.8,39.3c0.1,0.8,0.9,1.4,1.7,1.2c0.8-0.1,1.4-0.9,1.3-1.7c-0.1-0.8-0.9-1.4-1.7-1.3
			c-0.4,0.1-0.8,0.3-1,0.6C56.9,38.5,56.8,38.9,56.8,39.3z"/>
		<path id="Path_68_" class="st14" d="M58.2,38c0,0.2,0.2,0.4,0.5,0.3c0.2,0,0.4-0.2,0.3-0.5c0-0.2-0.2-0.4-0.5-0.3
			C58.3,37.6,58.1,37.8,58.2,38L58.2,38z"/>
	</g>
	<path id="Path_69_" class="st34" d="M222.6,136c-2.4-4.1-2.5-9.2-0.1-13.3c2.3-4.1,6.7-6.7,11.5-6.7c4.7,0,9.2,2.5,11.6,6.5
		c0.6,1,35.5,75.7,35.5,75.7c2.8,5.3,1,11.9-4.2,15s-11.9,1.5-15.1-3.6L222.6,136z"/>
	<path id="Path_70_" class="st34" d="M278.7,212c-4.8,3.9-11.7,3.2-15.7-1.5s-3.3-12,1.3-16l0,0c0,0,12.8-15.2,62.7-52.3l9.2,11
		c0,0-33.7,42-56.8,58.2C279.3,211.5,278.7,212,278.7,212z"/>
	<path id="Path_71_" class="st11" d="M238.1,175.3l-20.6-37.4c-5.2-8.7-2.8-20.4,5.4-26.1s19.2-3.4,24.5,5.3
		c0.4,0.6,9.6,19.4,19.7,40.1C260.6,162.2,249.9,169.9,238.1,175.3z"/>
	<path id="Path_72_" class="st12" d="M326.9,142.9c0,0-0.3-11.7,1.8-15c3.7-4.2,14.9-9.5,14.9-9.5l0.1-0.1l7.4-6.6
		c0,0,2.5-2.6,4.5-0.5c2.1,2.2,0.3,4.4,0.3,4.4l-2.3,2.9c0,0,1.9-0.7,3.1,1.2c1.8,2.9-1.5,5.2-1.5,5.2s2.2-0.4,3.2,1.6
		c0.6,1.1,0.5,2.5-0.1,3.6c0,0,1.5,0.6,1.8,1.7c0.5,1.8-2,5.1-2,5.1s-7.8,8.5-19.8,14.5C338.3,151.4,326.1,156.7,326.9,142.9z"/>
	<path id="Path_73_" class="st35" d="M343.8,118.2c0,0-0.9,1.1-1.5,1.5l-2.4,3.9c0,0,0.9,10.5-3.1,14.6c0,0,9.5-1.5,14.3,4
		c0,0,5.7-3.9,7.4-6.5l-6.4,3.3c0,0-1.8,1.1-3.1-0.9c-1.3-2,1-3.1,1-3.1l8.5-4.8l-7.6,3.3c0,0-2.4,1.2-3.5-1.2
		c-0.9-2.1,1.3-3.2,1.3-3.2l6.5-4l-5.9,2.9c0,0-1.7,0.8-3-1.3s0.9-3.5,0.9-3.5l6.3-4.6l1.4-2c0,0-2.2,1.1-4-0.5
		c-1.7-1.6-0.2-4.1-0.2-4.1L343.8,118.2z"/>
	<path id="Path_74_" class="st36" d="M349.8,117.3c0,0,6.4,1.2,4.9,6.6c-1.4,5.4,4.3,17.9,18.4,23s18.1,25.8,17.1,28.4
		c0,0-13.7,8.5-26.5,13.5c0,0-25.5-33.7-24.5-66.1C339.2,122.7,343.8,119.1,349.8,117.3z"/>
	
		<rect id="Rectangle_9_" x="348.6" y="93" transform="matrix(0.8911 -0.4538 0.4538 0.8911 -5.1526 169.2821)" class="st37" width="3.1" height="4.7"/>
	<path id="Path_75_" class="st38" d="M388.8,173.9c0,0-1.1-16.8-15.1-25.5c0,0-7.9,2.2-11.9,5.5c-4,3.4-12.8,6.6-12.8,6.6
		s5.4,13.4,15.2,25.8C364.3,186.4,378.3,181.2,388.8,173.9z"/>
	<g id="Group" transform="translate(342.304001, 115.824000)" class="st0">
		<path id="Path_76_" class="st14" d="M32,64.4C32,64.4,32.1,64.4,32,64.4c0.5-0.4,0.6-1,0.4-1.4C12.4,32.9,2.1,1.1,2,0.8
			C1.8,0.3,1.3,0,0.8,0.1S0,0.8,0.2,1.3C0.3,1.6,10.7,33.7,30.8,64C31.1,64.4,31.6,64.5,32,64.4z"/>
	</g>
	<path id="Path_77_" class="st37" d="M347.9,99c0,0,1.4,6.1,10.7,9.9l-0.4,1.1c0,0-11.4-3-14.7-8.2L347.9,99z"/>
	<path id="Path_78_" class="st39" d="M345.5,112.5c0,0,0.7-2-0.6-5.2c-1.2-3.3,4.8-9.4,4.8-9.4l-2.2-4.3c0,0-16.3,1.8-25.4,13.8
		l1.5,1.7c0,0,8-3.4,11.5,3.7c0,0,1.2,3.5,3.5,3.2L345.5,112.5z"/>
	<polygon id="Path_79_" class="st37" points="350.1,117.5 346.8,111 336.2,116.4 339.3,122.9 	"/>
	<path id="Path_80_" class="st40" d="M385.4,168c0,0-2.6-12.1-13.9-18.8c-11.3-6.8-18.6-10.9-19.3-25.5c0,0,0-3-1.9-3
		c-1.9-0.1-1.5,3.2-0.7,6.4s2.3,16.6,18.3,24.3c12.8,6.1,10.6,16,13.5,19.3C384.6,174.1,385.9,169.6,385.4,168z"/>
	<path id="Path_81_" class="st12" d="M348.9,138c-1.3-2,1-3.1,1-3.1l8.1-4.6l-7.2,3.1c0,0-2.4,1.2-3.5-1.2c-0.9-2.1,1.3-3.2,1.3-3.2
		l6.1-3.7l-5.5,2.7c0,0-1.7,0.8-3-1.3c-1.2-2.1,1.1-3.5,1.1-3.5l6.6-4.7c0.4-0.1,2-0.4,3,1.3c1.8,2.9-1.5,5.2-1.5,5.2
		s2.2-0.4,3.2,1.6c0.6,1.1,0.5,2.5-0.1,3.6c0,0,1.5,0.6,1.8,1.7c0.3,0.9-0.2,2.2-0.8,3.2l-7.3,3.9C352,138.9,350.2,140,348.9,138z"
		/>
	<path id="Path_82_" class="st12" d="M351,116.1c-1.2-1.1-0.8-2.9-0.5-3.9l0.7-0.6c0,0,2.5-2.6,4.5-0.5c2.1,2.2,0.3,4.4,0.3,4.4
		l-0.7,0.9C354.3,116.7,352.2,117.3,351,116.1z"/>
	<path id="Path_83_" class="st35" d="M353.9,132l-3.2,1.4c0,0-2.4,1.2-3.5-1.2c-0.9-2.1,1.3-3.2,1.3-3.2l2.8-1.7
		C354.2,128.5,354.1,131,353.9,132z"/>
	<path id="Path_84_" class="st35" d="M348.9,138c-1.3-2,1-3.1,1-3.1l2.9-1.7c2.4,0.9,2.2,3.2,2,4.2l-2.8,1.5
		C352,138.9,350.2,140,348.9,138z"/>
	<path id="Path_85_" class="st35" d="M352.2,126.4l-3,1.5c0,0-1.7,0.8-3-1.3c-1.2-2.1,1.1-3.5,1.1-3.5l2.9-2.1
		C353.3,122.4,352.4,125.6,352.2,126.4z"/>
	<path id="Path_86_" class="st12" d="M342.3,119.7c0,0-2.2,3.4-2.4,3.9c-0.2,0.5-0.6,5.3-2.5,7.3s-7.5,3.6-8.6-3
		c0.1-0.1,0.1-0.2,0.2-0.3c2.4-2.9,7.5-10.3,8.9-11.4c3.5-2.7,6.7-7.8,7.8-7.1c1,0.7,3.2,1.9-1.9,9.2l0,0l-0.1,0.1
		C343.7,118.4,342.7,119.5,342.3,119.7z"/>
	<path id="Path_87_" class="st34" d="M147.4,135.7c5.6-3.5,7.3-10.9,3.8-16.5s-10.9-7.3-16.5-3.8C133.8,116,75,161.3,75,161.3
		c-4.7,3-6.2,9.2-3.2,14c3,4.7,9.2,6.2,14,3.2L147.4,135.7z"/>
	<path id="Path_88_" class="st34" d="M72.3,175.8c3.4,4.4,9.7,5.2,14.1,1.9c4.4-3.4,5.4-9.7,2.2-14.3l0,0c0,0-8.1-16-44.2-58.9
		L34,112.3c0,0,20.9,43.8,37.8,62.8C71.9,175.2,72.3,175.8,72.3,175.8z"/>
	<path id="Path_89_" class="st11" d="M119.3,161.4l32.8-22.7c8-5.1,10.5-15.7,5.4-23.7s-15.7-10.5-23.7-5.4
		c-0.6,0.4-16,12.2-33,25.2C104.3,141.6,110.8,152.3,119.3,161.4z"/>
	<path id="Path_90_" class="st41" d="M0,171.1c0,0,8.4-60.1,11.8-72.3S25.4,79.7,34,81.6s20.3,8.3,29.5,85.1c0,0-0.9,1.6-5.3,3.7
		s4.6,11.7-6.5,12.9s2.3,12.2-27.5,10.2C11.7,193.2,11,181.9,11,181.9S0.2,178.1,0,171.1z"/>
	<path id="Path_91_" class="st42" d="M11.1,179.9l6.3-75.9c0,0-12.4,69.3-12.1,70C5.5,174.6,6.2,178.4,11.1,179.9z"/>
	<path id="Path_92_" class="st42" d="M56.1,168.8l-8.4-46C47.7,122.7,62.2,166.2,56.1,168.8z"/>
	<path id="Path_93_" class="st42" d="M45.6,182.8L34,110.3c0,0,15.4,57.3,15.2,68.3C49.1,178.6,48.9,182.3,45.6,182.8z"/>
	<path id="Path_94_" class="st12" d="M327,137l-12.8,14.9l9.4,16.3c0,0,12.6-14.6,14.6-16.7c2-2.1-3.8-12.2-3.8-12.2l-2.5-3L327,137
		z"/>
</g>
<g id="Group-102-Copy-5" transform="translate(334.000000, 271.000000)" class="st43">
	<path id="Fill-1_1_" class="st44" d="M64,25h8c-0.9-6.7-0.9-13.3,0-20h-8C64.9,11.7,64.9,18.3,64,25"/>
	<path id="Fill-3_1_" class="st44" d="M43.1,33l5.9-3.6c-3.7-5.1-6.7-10.5-9.1-16.4L34,16.6C37.7,21.7,40.7,27.1,43.1,33"/>
	<path id="Fill-5" class="st44" d="M29.4,50l3.6-5.9c-5.9-2.4-11.3-5.4-16.4-9.1L13,40.9C18.9,43.3,24.3,46.3,29.4,50"/>
	<path id="Fill-7" class="st44" d="M25,74v-8c-6.7,0.9-13.3,0.9-20,0v8C11.7,73.1,18.3,73.1,25,74"/>
	<path id="Fill-9" class="st44" d="M33,94.9L29.4,89c-5.1,3.7-10.6,6.7-16.4,9.1l3.6,5.9C21.7,100.3,27.1,97.3,33,94.9"/>
	<path id="Fill-11" class="st44" d="M49,109.6l-5.9-3.6c-2.4,5.9-5.4,11.3-9.1,16.4l5.9,3.6C42.3,120.1,45.3,114.7,49,109.6"/>
	<path id="Fill-13" class="st44" d="M72,114h-8c0.9,6.7,0.9,13.3,0,20h8C71.1,127.3,71.1,120.7,72,114"/>
	<path id="Fill-15" class="st44" d="M94.9,106l-5.9,3.6c3.7,5.1,6.7,10.6,9.1,16.4l5.9-3.6C100.3,117.3,97.3,111.9,94.9,106"/>
	<path id="Fill-17" class="st44" d="M108.6,89l-3.6,5.9c5.9,2.4,11.3,5.4,16.4,9.1l3.6-5.9C119.1,95.7,113.7,92.7,108.6,89"/>
	<path id="Fill-19" class="st44" d="M113,66v8c6.7-0.9,13.3-0.9,20,0v-8C126.3,66.9,119.7,66.9,113,66"/>
	<path id="Fill-21" class="st44" d="M105,44.1l3.6,5.9c5.1-3.7,10.6-6.7,16.4-9.1l-3.6-5.9C116.3,38.7,110.9,41.7,105,44.1"/>
	<path id="Fill-23" class="st44" d="M89,29.4l5.9,3.6c2.4-5.9,5.4-11.3,9.1-16.4L98.1,13C95.7,18.9,92.7,24.3,89,29.4"/>
	<path id="Fill-25" class="st44" d="M118,70.5c0,27.9-22.4,50.5-50,50.5S18,98.4,18,70.5S40.4,20,68,20S118,42.6,118,70.5"/>
	<path id="Fill-27" class="st44" d="M118,70.5c0,6.1-1.1,11.9-3,17.3c-1.2,3.4-2.8,6.7-4.7,9.7c-6.1,9.8-15.6,17.4-26.7,21.1
		c-4.9,1.6-10.1,2.5-15.6,2.5c-27.6,0-50-22.6-50-50.5c0-5.5,0.9-10.8,2.5-15.7c3.6-11.2,11.1-20.7,20.8-27c3-1.9,6.2-3.5,9.6-4.8
		c5.3-2,11.1-3,17.1-3C95.6,20,118,42.6,118,70.5"/>
	<path id="Fill-29" class="st44" d="M89,100.7c0,5.5-0.9,10.8-2.5,15.8c-5,1.6-10.3,2.5-15.8,2.5C42.7,119,20,96.3,20,68.3
		c0-5.5,0.9-10.8,2.5-15.8c5-1.6,10.3-2.5,15.8-2.5C66.3,50,89,72.7,89,100.7"/>
	<path id="Fill-31" class="st45" d="M118,69.8c0,6-1.1,11.7-3,17c-1.2,3.4-2.8,6.6-4.7,9.5c-7.7,4.9-16.8,7.7-26.6,7.7
		C56.3,104,34,81.7,34,54.2c0-9.8,2.8-18.9,7.7-26.6c3-1.9,6.2-3.5,9.5-4.7c5.3-1.9,11-3,17-3C95.7,20,118,42.3,118,69.8"/>
	<path id="Fill-33" class="st44" d="M80,40c0,2.2-1.8,4-4,4s-4-1.8-4-4s1.8-4,4-4S80,37.8,80,40"/>
	<path id="Fill-35" class="st44" d="M110,77c0,2.2-1.8,4-4,4s-4-1.8-4-4s1.8-4,4-4S110,74.8,110,77"/>
	<path id="Fill-37" class="st44" d="M41,65.5c0,4.1-3.4,7.5-7.5,7.5S26,69.6,26,65.5s3.4-7.5,7.5-7.5S41,61.4,41,65.5"/>
	<path id="Fill-39" class="st44" d="M84,55c0,3.3-2.7,6-6,6s-6-2.7-6-6s2.7-6,6-6S84,51.7,84,55"/>
	<path id="Fill-41" class="st44" d="M94,99.5c0,1.9-1.6,3.5-3.5,3.5s-3.5-1.6-3.5-3.5s1.6-3.5,3.5-3.5S94,97.6,94,99.5"/>
	<path id="Fill-43" class="st44" d="M56,42.5c0,3.6-2.9,6.5-6.5,6.5S43,46.1,43,42.5s2.9-6.5,6.5-6.5S56,38.9,56,42.5"/>
	<path id="Fill-45" class="st44" d="M69,31.5c0,1.9-1.6,3.5-3.5,3.5S62,33.4,62,31.5c0-1.9,1.6-3.5,3.5-3.5S69,29.6,69,31.5"/>
	<path id="Fill-47" class="st44" d="M104,44.5c0,1.9-1.6,3.5-3.5,3.5S97,46.4,97,44.5s1.6-3.5,3.5-3.5S104,42.6,104,44.5"/>
	<path id="Fill-49" class="st44" d="M62,97.5c0,3.6-2.9,6.5-6.5,6.5s-6.5-2.9-6.5-6.5s2.9-6.5,6.5-6.5S62,93.9,62,97.5"/>
	<path id="Fill-51" class="st44" d="M113,54.5c0,1.9-1.8,3.5-4,3.5s-4-1.6-4-3.5s1.8-3.5,4-3.5S113,52.6,113,54.5"/>
	<path id="Fill-53" class="st44" d="M79,5c0,2.8-4.7,5-10.5,5S58,7.8,58,5s4.7-5,10.5-5S79,2.2,79,5"/>
	<path id="Fill-55" class="st44" d="M74,3.5C74,4.3,71.1,5,67.5,5S61,4.3,61,3.5S63.9,2,67.5,2S74,2.7,74,3.5"/>
	<path id="Fill-57" class="st44" d="M79,132c0,2.8-4.7,5-10.5,5S58,134.8,58,132s4.7-5,10.5-5S79,129.2,79,132"/>
	<path id="Fill-59" class="st44" d="M74,133.5c0,0.8-2.9,1.5-6.5,1.5s-6.5-0.7-6.5-1.5s2.9-1.5,6.5-1.5S74,132.7,74,133.5"/>
	<path id="Fill-61" class="st44" d="M111.7,19.7c-1.4,2.1-6.8,1.5-12.2-1.3c-5.4-2.9-8.6-7-7.2-9.1s6.8-1.5,12.2,1.3
		C109.8,13.5,113.1,17.6,111.7,19.7"/>
	<path id="Fill-63" class="st44" d="M106.8,17.3c-0.7,1.2-4,0.8-7.2-1.1c-3.2-1.8-5.2-4.3-4.5-5.6c0.7-1.2,4-0.8,7.2,1.1
		C105.6,13.6,107.6,16.1,106.8,17.3"/>
	<path id="Fill-65" class="st44" d="M45.7,128.7c-1.4,2.1-6.8,1.5-12.2-1.3c-5.4-2.9-8.6-7-7.2-9.1s6.8-1.5,12.2,1.3
		C43.8,122.5,47.1,126.6,45.7,128.7"/>
	<path id="Fill-67" class="st44" d="M42.8,126.3c-0.7,1.2-4,0.8-7.2-1.1c-3.2-1.8-5.2-4.3-4.5-5.6c0.7-1.2,4-0.8,7.2,1.1
		C41.6,122.6,43.6,125.1,42.8,126.3"/>
	<path id="Fill-69" class="st44" d="M129.6,45.7c-2.2,1.3-6.3-2-9.1-7.3c-2.8-5.4-3.3-10.8-1.1-12.1c2.2-1.3,6.3,2,9.1,7.3
		C131.3,39,131.8,44.4,129.6,45.7"/>
	<path id="Fill-71" class="st44" d="M127.3,44.9c-1.3,0.7-3.8-1.3-5.6-4.6c-1.8-3.2-2.2-6.4-1-7.2c1.3-0.7,3.8,1.3,5.6,4.6
		C128.1,40.9,128.5,44.1,127.3,44.9"/>
	<path id="Fill-73" class="st44" d="M18.6,110.7c-2.2,1.3-6.3-2-9.1-7.3C6.7,98,6.2,92.6,8.4,91.3c2.2-1.3,6.3,2,9.1,7.3
		C20.3,104,20.8,109.4,18.6,110.7"/>
	<path id="Fill-75" class="st44" d="M17.3,105.9c-1.3,0.7-3.8-1.3-5.6-4.6c-1.8-3.2-2.2-6.4-1-7.2c1.3-0.7,3.8,1.3,5.6,4.6
		C18.1,101.9,18.5,105.1,17.3,105.9"/>
	<path id="Fill-77" class="st44" d="M132.8,81c-2.8,0-4.9-4.8-4.8-10.6c0.1-5.8,2.5-10.5,5.2-10.4c2.8,0.1,4.9,4.8,4.8,10.6
		C137.9,76.4,135.5,81.1,132.8,81"/>
	<path id="Fill-79" class="st44" d="M131.4,77c-0.8,0-1.5-3-1.4-6.6c0-3.6,0.7-6.5,1.6-6.4c0.8,0,1.5,3,1.4,6.6
		C133,74.1,132.3,77,131.4,77"/>
	<g id="Group-83" transform="translate(0.000000, 57.000000)">
		<g id="Clip-82">
		</g>
		<path id="Fill-81" class="st44" d="M4.8,22C2,21.9-0.1,17,0,10.9S2.5,0,5.2,0s4.9,5,4.8,11.1C9.9,17.1,7.5,22,4.8,22"/>
	</g>
	<path id="Fill-84" class="st44" d="M4.4,73C3.6,73,3,70,3,66.4C3,62.9,3.7,60,4.6,60C5.4,60,6,63,6,66.6C6,70.1,5.3,73,4.4,73"/>
	<path id="Fill-86" class="st44" d="M118.3,110.7c-2.2-1.3-1.6-6.8,1.2-12.1c2.9-5.4,6.9-8.6,9.1-7.3c2.2,1.3,1.6,6.8-1.2,12.1
		C124.6,108.8,120.5,112,118.3,110.7"/>
	<path id="Fill-88" class="st44" d="M120.7,105.9c-1.3-0.7-0.8-3.9,1-7.2c1.8-3.2,4.3-5.3,5.6-4.5c1.3,0.7,0.8,3.9-1,7.2
		C124.5,104.6,122,106.6,120.7,105.9"/>
	<path id="Fill-90" class="st44" d="M8.3,45.7c-2.2-1.3-1.6-6.8,1.2-12.1c2.9-5.4,6.9-8.6,9.1-7.3c2.2,1.3,1.6,6.8-1.2,12.1
		C14.6,43.8,10.5,47,8.3,45.7"/>
	<path id="Fill-92" class="st44" d="M10.7,42.9c-1.3-0.7-0.8-3.9,1-7.2s4.3-5.3,5.6-4.5c1.3,0.7,0.8,3.9-1,7.2
		C14.5,41.6,12,43.6,10.7,42.9"/>
	<path id="Fill-94" class="st44" d="M92.3,128.7c-1.4-2.1,1.9-6.2,7.2-9.1c5.3-2.9,10.8-3.5,12.2-1.4c1.4,2.1-1.9,6.2-7.2,9.1
		C99.1,130.3,93.7,130.9,92.3,128.7"/>
	<path id="Fill-96" class="st44" d="M95.2,126.3c-0.8-1.2,1.3-3.7,4.5-5.6c3.2-1.8,6.5-2.3,7.2-1.1c0.8,1.2-1.3,3.7-4.5,5.6
		C99.1,127.1,95.9,127.6,95.2,126.3"/>
	<path id="Fill-98" class="st44" d="M26.3,19.7c-1.4-2.1,1.9-6.2,7.2-9.1s10.8-3.5,12.2-1.4s-1.9,6.2-7.2,9.1
		C33.1,21.3,27.7,21.9,26.3,19.7"/>
	<path id="Fill-100" class="st44" d="M31.2,17.3c-0.8-1.2,1.3-3.7,4.5-5.6c3.2-1.8,6.5-2.3,7.2-1.1c0.8,1.2-1.3,3.7-4.5,5.5
		C35.1,18.1,31.9,18.6,31.2,17.3"/>
</g>
<g id="Group-102-Copy-7" transform="translate(45.000000, 280.000000)" class="st43">
	<path id="Fill-1_2_" class="st44" d="M28,11h4c-0.4-3-0.4-6,0-9h-4C28.4,5,28.4,8,28,11"/>
	<path id="Fill-3_2_" class="st44" d="M19.2,15l2.8-1.6c-1.7-2.3-3.1-4.7-4.2-7.4L15,7.6C16.7,9.9,18.1,12.4,19.2,15"/>
	<path id="Fill-5_1_" class="st44" d="M12.4,22l1.6-2.8c-2.6-1.1-5.1-2.5-7.4-4.2L5,17.8C7.6,18.9,10.1,20.3,12.4,22"/>
	<path id="Fill-7_1_" class="st44" d="M11,33v-4c-3,0.4-6,0.4-9,0v4C5,32.6,8,32.6,11,33"/>
	<path id="Fill-9_1_" class="st44" d="M14,41.8L12.4,39c-2.3,1.7-4.7,3.1-7.4,4.2L6.6,46C8.9,44.3,11.4,42.9,14,41.8"/>
	<path id="Fill-11_1_" class="st44" d="M22,46.6L19.2,45c-1.1,2.6-2.5,5.1-4.2,7.4l2.8,1.6C18.9,51.4,20.3,48.9,22,46.6"/>
	<path id="Fill-13_1_" class="st44" d="M32,50h-4c0.4,3,0.4,6,0,9h4C31.6,56,31.6,53,32,50"/>
	<path id="Fill-15_1_" class="st44" d="M41.8,45L39,46.6c1.7,2.3,3.1,4.7,4.2,7.4l2.8-1.6C44.3,50.1,42.9,47.6,41.8,45"/>
	<path id="Fill-17_1_" class="st44" d="M47.6,39L46,41.8c2.6,1.1,5.1,2.5,7.4,4.2l1.6-2.8C52.4,42.1,49.9,40.7,47.6,39"/>
	<path id="Fill-19_1_" class="st44" d="M50,29v4c3-0.4,6-0.4,9,0v-4C56,29.4,53,29.4,50,29"/>
	<path id="Fill-21_1_" class="st44" d="M46,19.2l1.6,2.8c2.3-1.7,4.7-3.1,7.4-4.2L53.4,15C51.1,16.7,48.6,18.1,46,19.2"/>
	<path id="Fill-23_1_" class="st44" d="M39,13.4l2.8,1.6c1.1-2.6,2.5-5.1,4.2-7.4L43.2,6C42.1,8.6,40.7,11.1,39,13.4"/>
	<path id="Fill-25_1_" class="st44" d="M52,30.5C52,42.4,41.9,52,29.5,52S7,42.4,7,30.5S17.1,9,29.5,9S52,18.6,52,30.5"/>
	<path id="Fill-27_1_" class="st44" d="M52,30.5c0,2.6-0.5,5.1-1.3,7.3c-0.6,1.5-1.3,2.8-2.1,4.1c-2.8,4.2-7,7.4-12,9
		c-2.2,0.7-4.6,1.1-7,1.1C17.1,52,7,42.4,7,30.5c0-2.3,0.4-4.6,1.1-6.7c1.6-4.8,5-8.8,9.4-11.5c1.3-0.8,2.8-1.5,4.3-2
		c2.4-0.8,5-1.3,7.7-1.3C41.9,9,52,18.6,52,30.5"/>
	<path id="Fill-29_1_" class="st44" d="M39,44c0,2.4-0.4,4.7-1.1,6.9c-2.2,0.7-4.6,1.1-7.1,1.1C18.2,52,8,42.1,8,30
		c0-2.4,0.4-4.7,1.1-6.9c2.2-0.7,4.6-1.1,7.1-1.1C28.8,22,39,31.9,39,44"/>
	<path id="Fill-31_1_" class="st45" d="M52,30.9c0,2.6-0.5,5.2-1.3,7.5c-0.5,1.5-1.2,2.9-2.1,4.2c-3.4,2.1-7.4,3.4-11.7,3.4
		C24.8,46,15,36.2,15,24.1c0-4.3,1.2-8.3,3.4-11.7c1.3-0.8,2.7-1.5,4.2-2.1C24.9,9.5,27.4,9,30.1,9C42.2,9,52,18.8,52,30.9"/>
	<path id="Fill-33_1_" class="st44" d="M35,18c0,1.1-0.9,2-2,2c-1.1,0-2-0.9-2-2s0.9-2,2-2C34.1,16,35,16.9,35,18"/>
	<path id="Fill-35_1_" class="st44" d="M48,34c0,1.1-0.9,2-2,2s-2-0.9-2-2s0.9-2,2-2S48,32.9,48,34"/>
	<path id="Fill-37_1_" class="st44" d="M18,28.5c0,1.9-1.6,3.5-3.5,3.5S11,30.4,11,28.5s1.6-3.5,3.5-3.5S18,26.6,18,28.5"/>
	<path id="Fill-39_1_" class="st44" d="M37,25c0,1.7-1.3,3-3,3s-3-1.3-3-3s1.3-3,3-3S37,23.3,37,25"/>
	<path id="Fill-41_1_" class="st44" d="M42,43c0,1.1-0.9,2-2,2s-2-0.9-2-2s0.9-2,2-2S42,41.9,42,43"/>
	<path id="Fill-43_1_" class="st44" d="M24,19c0,1.7-1.3,3-3,3s-3-1.3-3-3s1.3-3,3-3S24,17.3,24,19"/>
	<path id="Fill-45_1_" class="st44" d="M31,13c0,1.1-0.9,2-2,2s-2-0.9-2-2s0.9-2,2-2S31,11.9,31,13"/>
	<path id="Fill-47_1_" class="st44" d="M46,19c0,1.1-0.9,2-2,2s-2-0.9-2-2s0.9-2,2-2S46,17.9,46,19"/>
	<path id="Fill-49_1_" class="st44" d="M28,43c0,1.7-1.3,3-3,3s-3-1.3-3-3s1.3-3,3-3S28,41.3,28,43"/>
	<path id="Fill-51_1_" class="st44" d="M50,23c0,1.1-0.9,2-2,2s-2-0.9-2-2s0.9-2,2-2S50,21.9,50,23"/>
	<path id="Fill-53_1_" class="st44" d="M35,2c0,1.1-2.2,2-5,2s-5-0.9-5-2s2.2-2,5-2S35,0.9,35,2"/>
	<path id="Fill-55_1_" class="st44" d="M33,1.5C33,1.8,31.7,2,30,2s-3-0.2-3-0.5S28.3,1,30,1S33,1.2,33,1.5"/>
	<path id="Fill-57_1_" class="st44" d="M35,58c0,1.1-2.2,2-5,2s-5-0.9-5-2s2.2-2,5-2S35,56.9,35,58"/>
	<path id="Fill-59_1_" class="st44" d="M33,58.5c0,0.3-1.3,0.5-3,0.5s-3-0.2-3-0.5s1.3-0.5,3-0.5S33,58.2,33,58.5"/>
	<path id="Fill-61_1_" class="st44" d="M48.9,8.4c-0.6,1-3.1,0.7-5.5-0.6s-3.9-3.2-3.2-4.2s3.1-0.7,5.5,0.6S49.5,7.4,48.9,8.4"/>
	<path id="Fill-63_1_" class="st44" d="M46.9,7.7c-0.4,0.6-2,0.4-3.6-0.5S40.7,5,41.1,4.4c0.4-0.6,2-0.4,3.6,0.5S47.3,7,46.9,7.7"/>
	<path id="Fill-65_1_" class="st44" d="M19.9,56.4c-0.6,1-3.1,0.7-5.5-0.6s-3.9-3.2-3.2-4.2c0.6-1,3.1-0.7,5.5,0.6
		C19,53.5,20.5,55.4,19.9,56.4"/>
	<path id="Fill-67_1_" class="st44" d="M18.9,55.7c-0.4,0.6-2,0.4-3.6-0.5s-2.6-2.2-2.2-2.8c0.4-0.6,2-0.4,3.6,0.5
		C18.3,53.8,19.3,55,18.9,55.7"/>
	<path id="Fill-69_1_" class="st44" d="M57.4,20.9c-1,0.6-2.9-0.9-4.2-3.3s-1.5-4.8-0.5-5.4c1-0.6,2.9,0.9,4.2,3.3
		S58.4,20.3,57.4,20.9"/>
	<path id="Fill-71_1_" class="st44" d="M56.6,19.9c-0.6,0.4-1.9-0.7-2.8-2.3c-0.9-1.6-1.1-3.2-0.5-3.6c0.6-0.4,1.9,0.7,2.8,2.3
		C57.1,18,57.3,19.6,56.6,19.9"/>
	<path id="Fill-73_1_" class="st44" d="M8.4,47.9c-1,0.6-2.9-0.9-4.2-3.3c-1.3-2.4-1.5-4.8-0.5-5.4c1-0.6,2.9,0.9,4.2,3.3
		C9.2,44.8,9.4,47.3,8.4,47.9"/>
	<path id="Fill-75_1_" class="st44" d="M7.6,46.9c-0.6,0.4-1.9-0.7-2.8-2.3S3.7,41.4,4.3,41c0.6-0.4,1.9,0.7,2.8,2.3
		C8.1,45,8.3,46.6,7.6,46.9"/>
	<path id="Fill-77_1_" class="st44" d="M58.9,36c-1.1,0-2-2.3-1.9-5c0.1-2.8,1-5,2.1-5s2,2.3,1.9,5C60.9,33.8,60,36,58.9,36"/>
	<path id="Fill-79_1_" class="st44" d="M58.5,34c-0.3,0-0.5-1.4-0.5-3c0-1.7,0.2-3,0.5-3s0.5,1.4,0.5,3C59,32.7,58.8,34,58.5,34"/>
	<g id="Group-83_1_" transform="translate(0.000000, 25.000000)">
		<g id="Clip-82_1_">
		</g>
		<path id="Fill-81_1_" class="st44" d="M1.9,10C0.8,10,0,7.8,0,5.2c0.1-2.6,1-4.7,2.1-4.7S4,2.6,4,5.3C3.9,7.9,3,10,1.9,10"/>
	</g>
	<path id="Fill-84_1_" class="st44" d="M1.5,32C1.2,32,1,30.6,1,29c0-1.7,0.2-3,0.5-3S2,27.4,2,29C2,30.7,1.8,32,1.5,32"/>
	<path id="Fill-86_1_" class="st44" d="M51.6,47.9c-1-0.6-0.7-3,0.6-5.5c1.3-2.4,3.2-3.9,4.2-3.3c1,0.6,0.7,3-0.6,5.5
		C54.5,47,52.6,48.5,51.6,47.9"/>
	<path id="Fill-88_1_" class="st44" d="M53.4,46.9c-0.6-0.4-0.4-2,0.5-3.6s2.2-2.6,2.8-2.3c0.6,0.4,0.4,2-0.5,3.6S54,47.3,53.4,46.9
		"/>
	<path id="Fill-90_1_" class="st44" d="M3.6,20.9c-1-0.6-0.7-3,0.6-5.5c1.3-2.4,3.2-3.9,4.2-3.3c1,0.6,0.7,3-0.6,5.5
		C6.5,20,4.6,21.5,3.6,20.9"/>
	<path id="Fill-92_1_" class="st44" d="M4.4,18.9c-0.6-0.4-0.4-2,0.5-3.6s2.2-2.6,2.8-2.3c0.6,0.4,0.4,2-0.5,3.6
		C6.2,18.3,5,19.3,4.4,18.9"/>
	<path id="Fill-94_1_" class="st44" d="M40.1,56.4c-0.6-1,0.8-2.9,3.2-4.2s4.9-1.6,5.5-0.6s-0.8,2.9-3.2,4.2
		C43.2,57.1,40.8,57.4,40.1,56.4"/>
	<path id="Fill-96_1_" class="st44" d="M41.1,55.7c-0.4-0.6,0.6-1.9,2.2-2.8c1.6-0.9,3.2-1.2,3.6-0.5c0.4,0.6-0.6,1.9-2.2,2.8
		C43.1,56,41.5,56.3,41.1,55.7"/>
	<path id="Fill-98_1_" class="st44" d="M11.1,8.4c-0.6-1,0.8-2.9,3.2-4.2s4.9-1.6,5.5-0.6c0.6,1-0.8,2.9-3.2,4.2
		C14.2,9.1,11.8,9.4,11.1,8.4"/>
	<path id="Fill-100_1_" class="st44" d="M13.1,7.7c-0.4-0.6,0.6-1.9,2.2-2.8s3.2-1.2,3.6-0.5c0.4,0.6-0.6,1.9-2.2,2.8
		S13.5,8.3,13.1,7.7"/>
</g>
</svg>
