<?xml version="1.0" encoding="utf-8"?>
<!-- Generator: Adobe Illustrator 22.1.0, SVG Export Plug-In . SVG Version: 6.00 Build 0)  -->
<svg version="1.1" id="Layer_1" xmlns="http://www.w3.org/2000/svg" xmlns:xlink="http://www.w3.org/1999/xlink" x="0px" y="0px"
	 viewBox="0 0 484 503" style="enable-background:new 0 0 484 503;" xml:space="preserve">
<style type="text/css">
	.st0{opacity:0.4;}
	.st1{opacity:0.7;fill:#FE9933;enable-background:new    ;}
	.st2{fill:#FF9835;}
	.st3{fill:none;stroke:#FFF0DE;stroke-width:1.33;}
	.st4{opacity:0.45;}
	.st5{fill:#FE9933;}
	.st6{fill:#F9AF6B;}
	.st7{opacity:0.255;fill:#007CFF;enable-background:new    ;}
	.st8{opacity:0.2083;fill:#007CFF;enable-background:new    ;}
	.st9{fill:#007CFF;}
	.st10{fill:#FFFFFF;}
	.st11{fill:#1A2E35;}
	.st12{fill:#2B96F4;}
	.st13{fill:#D6F1EF;}
	.st14{fill:#0E131A;}
	.st15{fill:#633131;}
	.st16{fill:#461F1F;}
	.st17{fill:#474849;}
	.st18{fill:#905454;}
	.st19{fill:#0071D6;}
	.st20{opacity:0.5232;fill:#0071D6;enable-background:new    ;}
	.st21{fill:#5E5F60;}
	.st22{fill:#BCBEC0;}
	.st23{fill:#231F20;}
	.st24{fill:#D1D3D4;}
	.st25{fill:#F1F2F2;}
	.st26{fill:#FCAE88;}
	.st27{fill:#8D8F90;}
	.st28{fill:#58595B;}
	.st29{fill:#B06D4D;}
	.st30{fill:#720711;}
	.st31{fill:#E6E7E8;}
	.st32{fill:#9D9E9F;}
	.st33{clip-path:url(#SVGID_3_);}
	.st34{clip-path:url(#SVGID_4_);fill:#FCAE88;}
	.st35{fill:#7DCC89;}
	.st36{fill:#268B85;}
	.st37{fill:#7DB9B6;}
	.st38{fill:#B5B6B6;}
	.st39{fill:#BD8366;}
	.st40{fill:#2C2D2E;}
	.st41{fill:#6D6E71;}
	.st42{fill:#525355;}
	.st43{opacity:0.5035;fill:#F1F2F2;enable-background:new    ;}
</style>
<g id="Group-15_1_" transform="translate(0.000000, 62.000000)">
	<g id="Group-23-Copy_1_" class="st0">
		<g id="Group-12_2_">
			<path id="Fill-1_9_" class="st1" d="M28.8,64c0.6-12,2.3-24.3,8.9-34.4C47.4,14.8,66,8,83.7,7.3c28-1.1,55,10.5,79.3,24.6
				c24.2,14.1,47,30.9,72.8,42c47.3,20.3,100.4,19.7,151.7,23.7c16.9,1.3,34.9,3.6,48,14.4c10.9,9,16.9,22.9,19,36.8
				c5.7,36.8-13,74.4-41.3,98.6s-64.8,36.7-101.4,44c-40.7,8-83.1,10.1-123.4,0.2c-75.5-18.6-129.6-78-150.7-151.2
				C30.6,115.6,27.5,89.7,28.8,64"/>
			<g id="Group-5_3_">
				<g id="Clip-4_2_">
				</g>
				<path id="Fill-3_7_" class="st2" d="M266.6,65.7c38.4-24.1,76.7-53,121.8-57.6c14.8-1.5,30.3-0.2,43.7,6.3
					c18.9,9.1,31.8,27.5,39.7,46.9c17.4,42.7,13.8,90.8,7.2,136.5c-4.7,32.5-11,65.5-27.6,93.9c-22.4,38.4-62.1,64.8-104.8,77.3
					s-88.3,12.1-132.4,5.9c-43.2-6.1-86.2-18.1-123.6-40.4c-37.4-22.4-69.1-56-83.9-96.9c-5.4-15-8.5-31.6-4-46.9
					c12.7-43,82.3-44.6,117-56C171.2,117.7,220.7,94.5,266.6,65.7"/>
			</g>
			<path id="Stroke-6_2_" class="st3" d="M269.8,336.3c-15.7,0-32.7-1.3-50.6-3.8c-43.7-6.2-78.9-17.6-107.7-34.9
				C92.9,286.3,76,272,63.1,254.4c-9.6-13.1-31.4-44.1-14.3-58.3c5.1-4.3,11.9-6.1,18.4-7.4c10.1-2,20.1-3.7,30.1-5.8
				c12.4-2.6,24.1-5,34.7-8.5c54.9-18.1,107.5-42.8,156.2-73.4c5.8-3.7,11.6-7.4,17.3-11.1c29.7-19.2,57.8-37.4,86.2-40.3
				c2.2-0.2,4.4-0.3,6.5-0.3c5.8,0,10.7,0.9,14.2,2.6c16.5,8,23.1,34.1,25.7,50.5c8.5,52.7,1.7,134.5-32,178.3
				C374.4,322.1,319.8,336.3,269.8,336.3z"/>
			<path id="Stroke-8_2_" class="st3" d="M271,295.3c-32.2-0.1-66.5-5.9-96.6-15c-15.3-4.6-30.3-10.6-43.7-19.2
				c-3.1-2-36.3-30.7-33-32.7c6.3-3.7,13.6-4.9,20.8-6.4c51.4-10.3,100-31.1,145.7-56.1c19.4-10.7,38.2-22.8,57.2-34
				c8.1-4.8,63.9-44.2,71.7-37.8c1.8,1.4,2.4,3.9,2.8,6.1c5.7,27.7,3.5,61.3,0,89.3c-3.4,27.3-12.6,55-32.1,74.4
				c-19.9,20-48.6,29.2-76.8,31C281.8,295.1,276.5,295.3,271,295.3z"/>
			<path id="Stroke-10_2_" class="st3" d="M270.5,252.2c-22.5,0-47.6-3.4-72-9.7c27.6-10.3,56-23.4,85.6-39.5
				c13.5-7.3,26.4-15.2,38.9-22.8c6.8-4.1,13.2-8,19.7-11.8c2.3-1.3,5-3.1,10.3-6.6c0.9-0.6,1.7-1.1,2.5-1.6
				c-0.5,7.5-1.3,15.4-2.4,23.8c-1.9,15.3-6.9,36.3-20,49.3c-10.7,10.6-28.2,17.2-49.4,18.5c-4.1,0.3-8.5,0.4-13,0.4L270.5,252.2z"
				/>
		</g>
	</g>
	<path id="Path-7_1_" class="st3" d="M0.5,7.2"/>
</g>
<g id="Group-102-Copy-5_2_" transform="translate(334.000000, 271.000000)" class="st4">
	<path id="Fill-1_1_" class="st5" d="M69.1-213h6.4c-0.7-5.3-0.7-10.6,0-15.9h-6.4C69.8-223.6,69.8-218.3,69.1-213"/>
	<path id="Fill-3_1_" class="st5" d="M52.4-206.6l4.7-2.9c-2.9-4.1-5.3-8.4-7.3-13.1l-4.7,2.9C48.1-215.6,50.5-211.3,52.4-206.6"/>
	<path id="Fill-5_4_" class="st5" d="M41.5-193l2.9-4.7c-4.7-1.9-9-4.3-13.1-7.3l-2.9,4.7C33.1-198.4,37.4-196,41.5-193"/>
	<path id="Fill-7_4_" class="st5" d="M38-173.9v-6.4c-5.3,0.7-10.6,0.7-15.9,0v6.4C27.4-174.6,32.6-174.6,38-173.9"/>
	<path id="Fill-9_4_" class="st5" d="M44.3-157.3l-2.9-4.7c-4.1,2.9-8.4,5.3-13.1,7.3l2.9,4.7C35.3-153,39.6-155.3,44.3-157.3"/>
	<path id="Fill-11_4_" class="st5" d="M57.1-145.5l-4.7-2.9c-1.9,4.7-4.3,9-7.3,13.1l4.7,2.9C51.8-137.2,54.2-141.5,57.1-145.5"/>
	<path id="Fill-13_4_" class="st5" d="M75.4-142h-6.4c0.7,5.3,0.7,10.6,0,15.9h6.4C74.7-131.4,74.7-136.7,75.4-142"/>
	<path id="Fill-15_4_" class="st5" d="M93.7-148.4l-4.7,2.9c2.9,4.1,5.3,8.4,7.3,13.1l4.7-2.9C98-139.4,95.6-143.7,93.7-148.4"/>
	<path id="Fill-17_4_" class="st5" d="M104.6-162l-2.9,4.7c4.7,1.9,9,4.3,13.1,7.3l2.9-4.7C113-156.6,108.7-159,104.6-162"/>
	<path id="Fill-19_6_" class="st5" d="M108.1-180.3v6.4c5.3-0.7,10.6-0.7,15.9,0v-6.4C118.7-179.6,113.5-179.6,108.1-180.3"/>
	<path id="Fill-21_5_" class="st5" d="M101.7-197.7l2.9,4.7c4.1-2.9,8.4-5.3,13.1-7.3l-2.9-4.7C110.7-202.1,106.4-199.7,101.7-197.7
		"/>
	<path id="Fill-23_5_" class="st5" d="M89-209.5l4.7,2.9c1.9-4.7,4.3-9,7.3-13.1l-4.7-2.9C94.3-217.8,91.9-213.5,89-209.5"/>
	<path id="Fill-25_5_" class="st5" d="M112.1-176.7c0,22.2-17.9,40.3-39.9,40.3s-39.9-18-39.9-40.3S50.2-217,72.2-217
		S112.1-198.9,112.1-176.7"/>
	<path id="Fill-27_5_" class="st5" d="M112.1-176.7c0,4.9-0.9,9.5-2.4,13.8c-1,2.7-2.2,5.3-3.7,7.7c-4.9,7.8-12.4,13.9-21.3,16.8
		c-3.9,1.3-8.1,2-12.4,2c-22,0-39.9-18-39.9-40.3c0-4.4,0.7-8.6,2-12.5c2.9-8.9,8.8-16.5,16.6-21.5c2.4-1.5,4.9-2.8,7.7-3.8
		c4.2-1.6,8.8-2.4,13.6-2.4C94.2-217,112.1-198.9,112.1-176.7"/>
	<path id="Fill-29_5_" class="st5" d="M89-152.6c0,4.4-0.7,8.6-2,12.6c-4,1.3-8.2,2-12.6,2C52.1-138,34-156.1,34-178.5
		c0-4.4,0.7-8.6,2-12.6c4-1.3,8.2-2,12.6-2C70.9-193,89-175,89-152.6"/>
	<path id="Fill-31_5_" class="st6" d="M112.1-177.3c0,4.8-0.9,9.3-2.4,13.6c-1,2.7-2.2,5.3-3.7,7.6c-6.1,3.9-13.4,6.1-21.2,6.1
		c-21.8,0-39.6-17.8-39.6-39.7c0-7.8,2.2-15.1,6.1-21.2c2.4-1.5,4.9-2.8,7.6-3.7c4.2-1.5,8.8-2.4,13.6-2.4
		C94.3-217,112.1-199.2,112.1-177.3"/>
	<path id="Fill-33_5_" class="st5" d="M81.8-201c0,1.8-1.4,3.2-3.2,3.2s-3.2-1.4-3.2-3.2s1.4-3.2,3.2-3.2S81.8-202.8,81.8-201"/>
	<path id="Fill-35_5_" class="st5" d="M105.7-171.5c0,1.8-1.4,3.2-3.2,3.2s-3.2-1.4-3.2-3.2s1.4-3.2,3.2-3.2
		S105.7-173.3,105.7-171.5"/>
	<path id="Fill-37_5_" class="st5" d="M50.7-180.7c0,3.3-2.7,6-6,6s-6-2.7-6-6c0-3.3,2.7-6,6-6C48-186.7,50.7-184,50.7-180.7"/>
	<path id="Fill-39_5_" class="st5" d="M85-189.1c0,2.6-2.2,4.8-4.8,4.8c-2.6,0-4.8-2.2-4.8-4.8c0-2.6,2.2-4.8,4.8-4.8
		C82.8-193.8,85-191.7,85-189.1"/>
	<path id="Fill-41_5_" class="st5" d="M93-153.6c0,1.5-1.3,2.8-2.8,2.8s-2.8-1.3-2.8-2.8c0-1.5,1.3-2.8,2.8-2.8S93-155.1,93-153.6"
		/>
	<path id="Fill-43_5_" class="st5" d="M62.7-199c0,2.9-2.3,5.2-5.2,5.2s-5.2-2.3-5.2-5.2c0-2.9,2.3-5.2,5.2-5.2S62.7-201.9,62.7-199
		"/>
	<path id="Fill-45_5_" class="st5" d="M73-207.8c0,1.5-1.3,2.8-2.8,2.8s-2.8-1.3-2.8-2.8s1.3-2.8,2.8-2.8S73-209.3,73-207.8"/>
	<path id="Fill-47_5_" class="st5" d="M100.9-197.4c0,1.5-1.3,2.8-2.8,2.8s-2.8-1.3-2.8-2.8s1.3-2.8,2.8-2.8
		S100.9-198.9,100.9-197.4"/>
	<path id="Fill-49_5_" class="st5" d="M67.5-155.2c0,2.9-2.3,5.2-5.2,5.2c-2.9,0-5.2-2.3-5.2-5.2s2.3-5.2,5.2-5.2
		C65.2-160.4,67.5-158.1,67.5-155.2"/>
	<path id="Fill-51_5_" class="st5" d="M108.1-189.5c0,1.5-1.4,2.8-3.2,2.8s-3.2-1.3-3.2-2.8s1.4-2.8,3.2-2.8S108.1-191,108.1-189.5"
		/>
	<path id="Fill-53_5_" class="st5" d="M81-228.9c0,2.2-3.7,4-8.4,4c-4.6,0-8.4-1.8-8.4-4c0-2.2,3.7-4,8.4-4
		C77.3-232.9,81-231.1,81-228.9"/>
	<path id="Fill-55_5_" class="st5" d="M77-230.1c0,0.6-2.3,1.2-5.2,1.2s-5.2-0.6-5.2-1.2s2.3-1.2,5.2-1.2S77-230.7,77-230.1"/>
	<path id="Fill-57_5_" class="st5" d="M81-127.7c0,2.2-3.7,4-8.4,4c-4.6,0-8.4-1.8-8.4-4s3.7-4,8.4-4C77.3-131.7,81-129.9,81-127.7"
		/>
	<path id="Fill-59_5_" class="st5" d="M77-126.5c0,0.6-2.3,1.2-5.2,1.2s-5.2-0.6-5.2-1.2c0-0.6,2.3-1.2,5.2-1.2S77-127.1,77-126.5"
		/>
	<path id="Fill-61_5_" class="st5" d="M107.1-217.2c-1.1,1.7-5.4,1.2-9.7-1c-4.3-2.3-6.9-5.6-5.7-7.3s5.4-1.2,9.7,1
		C105.6-222.1,108.2-218.9,107.1-217.2"/>
	<path id="Fill-63_5_" class="st5" d="M103.2-219.1c-0.6,1-3.2,0.6-5.7-0.9c-2.6-1.4-4.1-3.4-3.6-4.5c0.6-1,3.2-0.6,5.7,0.9
		C102.2-222.1,103.8-220.1,103.2-219.1"/>
	<path id="Fill-65_5_" class="st5" d="M54.5-130.3c-1.1,1.7-5.4,1.2-9.7-1c-4.3-2.3-6.9-5.6-5.7-7.3s5.4-1.2,9.7,1
		C53-135.3,55.6-132,54.5-130.3"/>
	<path id="Fill-67_5_" class="st5" d="M52.2-132.2c-0.6,1-3.2,0.6-5.7-0.9c-2.6-1.4-4.1-3.4-3.6-4.5c0.6-1,3.2-0.6,5.7,0.9
		C51.2-135.2,52.8-133.2,52.2-132.2"/>
	<path id="Fill-69_5_" class="st5" d="M121.3-196.5c-1.8,1-5-1.6-7.3-5.8c-2.2-4.3-2.6-8.6-0.9-9.6c1.8-1,5,1.6,7.3,5.8
		C122.7-201.8,123.1-197.5,121.3-196.5"/>
	<path id="Fill-71_5_" class="st5" d="M119.5-197.1c-1,0.6-3-1-4.5-3.7c-1.4-2.6-1.8-5.1-0.8-5.7c1-0.6,3,1,4.5,3.7
		C120.1-200.3,120.5-197.7,119.5-197.1"/>
	<path id="Fill-73_5_" class="st5" d="M32.9-144.7c-1.8,1-5-1.6-7.3-5.8c-2.2-4.3-2.6-8.6-0.9-9.6s5,1.6,7.3,5.8
		C34.2-150,34.6-145.7,32.9-144.7"/>
	<path id="Fill-75_5_" class="st5" d="M31.8-148.5c-1,0.6-3-1-4.5-3.7c-1.4-2.6-1.8-5.1-0.8-5.7c1-0.6,3,1,4.5,3.7
		C32.5-151.7,32.8-149.1,31.8-148.5"/>
	<path id="Fill-77_5_" class="st5" d="M123.9-168.3c-2.2,0-3.9-3.8-3.8-8.4c0.1-4.6,2-8.4,4.1-8.3c2.2,0.1,3.9,3.8,3.8,8.4
		C128-172,126-168.3,123.9-168.3"/>
	<path id="Fill-79_5_" class="st5" d="M122.8-171.5c-0.6,0-1.2-2.4-1.1-5.3c0-2.9,0.6-5.2,1.3-5.1c0.6,0,1.2,2.4,1.1,5.3
		C124.1-173.8,123.5-171.5,122.8-171.5"/>
	<g id="Group-83_4_" transform="translate(0.000000, 57.000000)">
		<g id="Clip-82_4_">
		</g>
		<path id="Fill-81_5_" class="st5" d="M21.9-226.9c-2.2-0.1-3.9-4-3.8-8.8s2-8.7,4.1-8.7s3.9,4,3.8,8.8
			C25.9-230.8,24-226.9,21.9-226.9"/>
	</g>
	<path id="Fill-84_5_" class="st5" d="M21.6-174.7c-0.6,0-1.1-2.4-1.1-5.3c0-2.8,0.6-5.1,1.3-5.1c0.6,0,1.1,2.4,1.1,5.3
		C22.8-177,22.3-174.7,21.6-174.7"/>
	<path id="Fill-86_5_" class="st5" d="M112.3-144.7c-1.8-1-1.3-5.4,1-9.6c2.3-4.3,5.5-6.9,7.3-5.8s1.3,5.4-1,9.6
		C117.4-146.2,114.1-143.6,112.3-144.7"/>
	<path id="Fill-88_5_" class="st5" d="M114.3-148.5c-1-0.6-0.6-3.1,0.8-5.7c1.4-2.6,3.4-4.2,4.5-3.6c1,0.6,0.6,3.1-0.8,5.7
		C117.3-149.5,115.3-147.9,114.3-148.5"/>
	<path id="Fill-90_5_" class="st5" d="M24.7-196.5c-1.8-1-1.3-5.4,1-9.6c2.3-4.3,5.5-6.9,7.3-5.8c1.8,1,1.3,5.4-1,9.6
		C29.7-198,26.4-195.4,24.7-196.5"/>
	<path id="Fill-92_5_" class="st5" d="M26.6-198.7c-1-0.6-0.6-3.1,0.8-5.7c1.4-2.6,3.4-4.2,4.5-3.6c1,0.6,0.6,3.1-0.8,5.7
		C29.6-199.7,27.6-198.1,26.6-198.7"/>
	<path id="Fill-94_5_" class="st5" d="M91.6-130.3c-1.1-1.7,1.5-4.9,5.7-7.3s8.6-2.8,9.7-1.1c1.1,1.7-1.5,4.9-5.7,7.3
		C97-129,92.7-128.6,91.6-130.3"/>
	<path id="Fill-96_5_" class="st5" d="M93.9-132.2c-0.6-1,1-2.9,3.6-4.5c2.6-1.4,5.2-1.8,5.7-0.9c0.6,1-1,2.9-3.6,4.5
		C97-131.6,94.5-131.2,93.9-132.2"/>
	<path id="Fill-98_5_" class="st5" d="M39-217.2c-1.1-1.7,1.5-4.9,5.7-7.3s8.6-2.8,9.7-1.1c1.1,1.7-1.5,4.9-5.7,7.3
		C44.4-215.9,40.1-215.4,39-217.2"/>
	<path id="Fill-100_5_" class="st5" d="M42.9-219.1c-0.6-1,1-2.9,3.6-4.5c2.6-1.4,5.2-1.8,5.7-0.9c0.6,1-1,2.9-3.6,4.4
		C46-218.5,43.5-218.1,42.9-219.1"/>
</g>
<g id="Group-102-Copy-7_1_" transform="translate(45.000000, 280.000000)" class="st4">
	<path id="Fill-1_2_" class="st5" d="M21.5,35.2h4c-0.4-3-0.4-6,0-9h-4C21.9,29.2,21.9,32.2,21.5,35.2"/>
	<path id="Fill-3_2_" class="st5" d="M12.7,39.2l2.8-1.6c-1.7-2.3-3.1-4.7-4.2-7.4l-2.8,1.6C10.2,34.1,11.6,36.6,12.7,39.2"/>
	<path id="Fill-5_1_" class="st5" d="M5.9,46.2l1.6-2.8c-2.6-1.1-5.1-2.5-7.4-4.2L-1.5,42C1.1,43.1,3.6,44.5,5.9,46.2"/>
	<path id="Fill-7_1_" class="st5" d="M4.5,57.2v-4c-3,0.4-6,0.4-9,0v4C-1.5,56.8,1.5,56.8,4.5,57.2"/>
	<path id="Fill-9_1_" class="st5" d="M7.5,66l-1.6-2.8c-2.3,1.7-4.7,3.1-7.4,4.2l1.6,2.8C2.4,68.5,4.9,67.1,7.5,66"/>
	<path id="Fill-11_1_" class="st5" d="M15.5,70.8l-2.8-1.6c-1.1,2.6-2.5,5.1-4.2,7.4l2.8,1.6C12.4,75.6,13.8,73.1,15.5,70.8"/>
	<path id="Fill-13_1_" class="st5" d="M25.5,74.2h-4c0.4,3,0.4,6,0,9h4C25.1,80.2,25.1,77.2,25.5,74.2"/>
	<path id="Fill-15_1_" class="st5" d="M35.3,69.2l-2.8,1.6c1.7,2.3,3.1,4.7,4.2,7.4l2.8-1.6C37.8,74.3,36.4,71.8,35.3,69.2"/>
	<path id="Fill-17_1_" class="st5" d="M41.1,63.2L39.5,66c2.6,1.1,5.1,2.5,7.4,4.2l1.6-2.8C45.9,66.3,43.4,64.9,41.1,63.2"/>
	<path id="Fill-19_1_" class="st5" d="M43.5,53.2v4c3-0.4,6-0.4,9,0v-4C49.5,53.6,46.5,53.6,43.5,53.2"/>
	<path id="Fill-21_1_" class="st5" d="M39.5,43.4l1.6,2.8c2.3-1.7,4.7-3.1,7.4-4.2l-1.6-2.8C44.6,40.9,42.1,42.3,39.5,43.4"/>
	<path id="Fill-23_1_" class="st5" d="M32.5,37.6l2.8,1.6c1.1-2.6,2.5-5.1,4.2-7.4l-2.8-1.6C35.6,32.8,34.2,35.3,32.5,37.6"/>
	<path id="Fill-25_1_" class="st5" d="M45.5,54.7c0,11.9-10.1,21.5-22.5,21.5S0.5,66.6,0.5,54.7S10.6,33.2,23,33.2
		S45.5,42.8,45.5,54.7"/>
	<path id="Fill-27_1_" class="st5" d="M45.5,54.7c0,2.6-0.5,5.1-1.3,7.3c-0.6,1.5-1.3,2.8-2.1,4.1c-2.8,4.2-7,7.4-12,9
		c-2.2,0.7-4.6,1.1-7,1.1c-12.5,0-22.6-9.6-22.6-21.5c0-2.3,0.4-4.6,1.1-6.7c1.6-4.8,5-8.8,9.4-11.5c1.3-0.8,2.8-1.5,4.3-2
		c2.4-0.8,5-1.3,7.7-1.3C35.4,33.2,45.5,42.8,45.5,54.7"/>
	<path id="Fill-29_1_" class="st5" d="M32.5,68.2c0,2.4-0.4,4.7-1.1,6.9c-2.2,0.7-4.6,1.1-7.1,1.1c-12.6,0-22.8-9.9-22.8-22
		c0-2.4,0.4-4.7,1.1-6.9c2.2-0.7,4.6-1.1,7.1-1.1C22.3,46.2,32.5,56.1,32.5,68.2"/>
	<path id="Fill-31_1_" class="st6" d="M45.5,55.1c0,2.6-0.5,5.2-1.3,7.5c-0.5,1.5-1.2,2.9-2.1,4.2c-3.4,2.1-7.4,3.4-11.7,3.4
		c-12.1,0-21.9-9.8-21.9-21.9c0-4.3,1.2-8.3,3.4-11.7c1.3-0.8,2.7-1.5,4.2-2.1c2.3-0.8,4.8-1.3,7.5-1.3C35.7,33.2,45.5,43,45.5,55.1
		"/>
	<path id="Fill-33_1_" class="st5" d="M28.5,42.2c0,1.1-0.9,2-2,2c-1.1,0-2-0.9-2-2c0-1.1,0.9-2,2-2C27.6,40.2,28.5,41.1,28.5,42.2"
		/>
	<path id="Fill-35_1_" class="st5" d="M41.5,58.2c0,1.1-0.9,2-2,2s-2-0.9-2-2s0.9-2,2-2S41.5,57.1,41.5,58.2"/>
	<path id="Fill-37_1_" class="st5" d="M11.5,52.7c0,1.9-1.6,3.5-3.5,3.5s-3.5-1.6-3.5-3.5c0-1.9,1.6-3.5,3.5-3.5
		S11.5,50.8,11.5,52.7"/>
	<path id="Fill-39_1_" class="st5" d="M30.5,49.2c0,1.7-1.3,3-3,3s-3-1.3-3-3s1.3-3,3-3S30.5,47.5,30.5,49.2"/>
	<path id="Fill-41_1_" class="st5" d="M35.5,67.2c0,1.1-0.9,2-2,2s-2-0.9-2-2s0.9-2,2-2S35.5,66.1,35.5,67.2"/>
	<path id="Fill-43_1_" class="st5" d="M17.5,43.2c0,1.7-1.3,3-3,3s-3-1.3-3-3s1.3-3,3-3S17.5,41.5,17.5,43.2"/>
	<path id="Fill-45_1_" class="st5" d="M24.5,37.2c0,1.1-0.9,2-2,2s-2-0.9-2-2c0-1.1,0.9-2,2-2S24.5,36.1,24.5,37.2"/>
	<path id="Fill-47_1_" class="st5" d="M39.5,43.2c0,1.1-0.9,2-2,2s-2-0.9-2-2c0-1.1,0.9-2,2-2S39.5,42.1,39.5,43.2"/>
	<path id="Fill-49_1_" class="st5" d="M21.5,67.2c0,1.7-1.3,3-3,3s-3-1.3-3-3c0-1.7,1.3-3,3-3S21.5,65.5,21.5,67.2"/>
	<path id="Fill-51_1_" class="st5" d="M43.5,47.2c0,1.1-0.9,2-2,2s-2-0.9-2-2c0-1.1,0.9-2,2-2S43.5,46.1,43.5,47.2"/>
	<path id="Fill-53_1_" class="st5" d="M28.5,26.2c0,1.1-2.2,2-5,2s-5-0.9-5-2c0-1.1,2.2-2,5-2S28.5,25.1,28.5,26.2"/>
	<path id="Fill-55_1_" class="st5" d="M26.5,25.7c0,0.3-1.3,0.5-3,0.5s-3-0.2-3-0.5c0-0.3,1.3-0.5,3-0.5S26.5,25.4,26.5,25.7"/>
	<path id="Fill-57_1_" class="st5" d="M28.5,82.2c0,1.1-2.2,2-5,2s-5-0.9-5-2s2.2-2,5-2S28.5,81.1,28.5,82.2"/>
	<path id="Fill-59_1_" class="st5" d="M26.5,82.7c0,0.3-1.3,0.5-3,0.5s-3-0.2-3-0.5c0-0.3,1.3-0.5,3-0.5S26.5,82.4,26.5,82.7"/>
	<path id="Fill-61_1_" class="st5" d="M42.4,32.6c-0.6,1-3.1,0.7-5.5-0.6s-3.9-3.2-3.2-4.2s3.1-0.7,5.5,0.6S43,31.6,42.4,32.6"/>
	<path id="Fill-63_1_" class="st5" d="M40.4,31.9c-0.4,0.6-2,0.4-3.6-0.5c-1.6-0.9-2.6-2.2-2.2-2.8c0.4-0.6,2-0.4,3.6,0.5
		C39.8,30,40.8,31.2,40.4,31.9"/>
	<path id="Fill-65_1_" class="st5" d="M13.4,80.6c-0.6,1-3.1,0.7-5.5-0.6c-2.4-1.3-3.9-3.2-3.2-4.2c0.6-1,3.1-0.7,5.5,0.6
		C12.5,77.7,14,79.6,13.4,80.6"/>
	<path id="Fill-67_1_" class="st5" d="M12.4,79.9c-0.4,0.6-2,0.4-3.6-0.5s-2.6-2.2-2.2-2.8c0.4-0.6,2-0.4,3.6,0.5
		S12.8,79.2,12.4,79.9"/>
	<path id="Fill-69_1_" class="st5" d="M50.9,45.1c-1,0.6-2.9-0.9-4.2-3.3c-1.3-2.4-1.5-4.8-0.5-5.4s2.9,0.9,4.2,3.3
		C51.7,42.1,51.9,44.5,50.9,45.1"/>
	<path id="Fill-71_1_" class="st5" d="M50.1,44.1c-0.6,0.4-1.9-0.7-2.8-2.3c-0.9-1.6-1.1-3.2-0.5-3.6c0.6-0.4,1.9,0.7,2.8,2.3
		C50.6,42.2,50.8,43.8,50.1,44.1"/>
	<path id="Fill-73_1_" class="st5" d="M1.9,72.1c-1,0.6-2.9-0.9-4.2-3.3c-1.3-2.4-1.5-4.8-0.5-5.4c1-0.6,2.9,0.9,4.2,3.3
		C2.7,69,2.9,71.5,1.9,72.1"/>
	<path id="Fill-75_1_" class="st5" d="M1.1,71.1c-0.6,0.4-1.9-0.7-2.8-2.3s-1.1-3.2-0.5-3.6c0.6-0.4,1.9,0.7,2.8,2.3
		C1.6,69.2,1.8,70.8,1.1,71.1"/>
	<path id="Fill-77_1_" class="st5" d="M52.4,60.2c-1.1,0-2-2.3-1.9-5c0.1-2.8,1-5,2.1-5s2,2.3,1.9,5C54.4,58,53.5,60.2,52.4,60.2"/>
	<path id="Fill-79_1_" class="st5" d="M52,58.2c-0.3,0-0.5-1.4-0.5-3c0-1.7,0.2-3,0.5-3s0.5,1.4,0.5,3C52.5,56.9,52.3,58.2,52,58.2"
		/>
	<g id="Group-83_1_" transform="translate(0.000000, 25.000000)">
		<g id="Clip-82_1_">
		</g>
		<path id="Fill-81_1_" class="st5" d="M-4.6,34.2c-1.1,0-1.9-2.2-1.9-4.8c0.1-2.6,1-4.7,2.1-4.7s1.9,2.1,1.9,4.8
			C-2.6,32.1-3.5,34.2-4.6,34.2"/>
	</g>
	<path id="Fill-84_1_" class="st5" d="M-5,56.2c-0.3,0-0.5-1.4-0.5-3c0-1.7,0.2-3,0.5-3c0.3,0,0.5,1.4,0.5,3
		C-4.5,54.9-4.7,56.2-5,56.2"/>
	<path id="Fill-86_1_" class="st5" d="M45.1,72.1c-1-0.6-0.7-3,0.6-5.5c1.3-2.4,3.2-3.9,4.2-3.3c1,0.6,0.7,3-0.6,5.5
		C48,71.2,46.1,72.7,45.1,72.1"/>
	<path id="Fill-88_1_" class="st5" d="M46.9,71.1c-0.6-0.4-0.4-2,0.5-3.6s2.2-2.6,2.8-2.3c0.6,0.4,0.4,2-0.5,3.6
		S47.5,71.5,46.9,71.1"/>
	<path id="Fill-90_1_" class="st5" d="M-2.9,45.1c-1-0.6-0.7-3,0.6-5.5c1.3-2.4,3.2-3.9,4.2-3.3c1,0.6,0.7,3-0.6,5.5
		C0,44.2-1.9,45.7-2.9,45.1"/>
	<path id="Fill-92_1_" class="st5" d="M-2.1,43.1c-0.6-0.4-0.4-2,0.5-3.6c0.9-1.6,2.2-2.6,2.8-2.3c0.6,0.4,0.4,2-0.5,3.6
		C-0.3,42.5-1.5,43.5-2.1,43.1"/>
	<path id="Fill-94_1_" class="st5" d="M33.6,80.6c-0.6-1,0.8-2.9,3.2-4.2c2.4-1.3,4.9-1.6,5.5-0.6s-0.8,2.9-3.2,4.2
		C36.7,81.3,34.3,81.6,33.6,80.6"/>
	<path id="Fill-96_1_" class="st5" d="M34.6,79.9c-0.4-0.6,0.6-1.9,2.2-2.8c1.6-0.9,3.2-1.2,3.6-0.5c0.4,0.6-0.6,1.9-2.2,2.8
		C36.6,80.2,35,80.5,34.6,79.9"/>
	<path id="Fill-98_1_" class="st5" d="M4.6,32.6c-0.6-1,0.8-2.9,3.2-4.2s4.9-1.6,5.5-0.6c0.6,1-0.8,2.9-3.2,4.2
		C7.7,33.3,5.3,33.6,4.6,32.6"/>
	<path id="Fill-100_1_" class="st5" d="M6.6,31.9c-0.4-0.6,0.6-1.9,2.2-2.8c1.6-0.9,3.2-1.2,3.6-0.5c0.4,0.6-0.6,1.9-2.2,2.8
		C8.6,32.3,7,32.5,6.6,31.9"/>
</g>
<title>Group 24</title>
<desc>Created with Sketch.</desc>
<g id="Group-22" transform="translate(213.000000, 162.000000)">
	<g id="Group-5_1_" transform="translate(6.000000, 7.000000)">
		<polygon id="Fill-1_3_" class="st7" points="157.8,299 79.2,153 0.6,299 		"/>
		<polygon id="Fill-3_3_" class="st8" points="157.8,52.1 79.2,198 0.6,52.1 		"/>
	</g>
	<path id="Fill-6" class="st9" d="M100.5,145.8L89,167.3c-1.3,2.3-4.6,2.3-5.8,0l-11.7-21.5C67,137.3,73.1,127,82.7,127h6.7
		C98.9,127,105,137.3,100.5,145.8"/>
	<path id="Fill-8" class="st9" d="M87.3,270.2l35.7,14.5c3.3,1.4,2.4,6.3-1.3,6.3H50.3c-3.6,0-4.6-4.9-1.3-6.3l35.7-14.5
		C85.5,269.9,86.5,269.9,87.3,270.2"/>
	<path id="Fill-10" class="st9" d="M90,236.5c0,2.5-2,4.5-4.5,4.5s-4.5-2-4.5-4.5s2-4.5,4.5-4.5S90,234,90,236.5"/>
	<path id="Fill-12" class="st9" d="M88,188.5c0,1.4-1.1,2.5-2.5,2.5s-2.5-1.1-2.5-2.5s1.1-2.5,2.5-2.5S88,187.1,88,188.5"/>
	<path id="Fill-14" class="st9" d="M88,211.5c0,1.4-1.1,2.5-2.5,2.5s-2.5-1.1-2.5-2.5s1.1-2.5,2.5-2.5S88,210.1,88,211.5"/>
	<g id="Group-18" transform="translate(0.000000, 247.000000)">
		<g id="Clip-17">
		</g>
		<path id="Fill-16" class="st9" d="M164,52.5H7.2c-4,0-7.2,3.3-7.2,7.2S3.2,67,7.2,67H164c3.9,0,7.2-3.3,7.2-7.3
			S167.9,52.5,164,52.5"/>
	</g>
	<g id="Group-21">
		<g id="Clip-20">
		</g>
		<path id="Fill-19_2_" class="st9" d="M164,52.3H7.2c-4,0-7.2,3.3-7.2,7.3s3.2,7.3,7.2,7.3H164c3.9,0,7.2-3.3,7.2-7.3
			S167.9,52.3,164,52.3"/>
	</g>
</g>
<g id="Group-14" transform="translate(44.000000, 65.000000)">
	<g id="Group-3" transform="translate(19.000000, 0.000000)">
		<g id="Clip-2">
		</g>
		<path id="Fill-1_4_" class="st9" d="M0.8,56L0,54.9c2-1.1,4.2-2,6.4-2.8L7,53.2C4.8,54,2.7,54.9,0.8,56"/>
	</g>
	<path id="Fill-4" class="st9" d="M1.2,80L0,79.6C3.1,70.9,8.7,63.4,16.2,58l0.8,1.1C9.7,64.4,4.3,71.6,1.2,80"/>
	<path id="Fill-6_1_" class="st9" d="M83,94.5c0,22.4-18.1,40.5-40.5,40.5S2,116.9,2,94.5S20.1,54,42.5,54S83,72.1,83,94.5"/>
	<path id="Fill-8_1_" class="st10" d="M77,95c0,18.8-15.2,34-34,34c-8.9,0-17-3.4-23.1-9C13.2,113.8,9,104.9,9,95
		c0-18.8,15.2-34,34-34c9.9,0,18.9,4.3,25.1,11.1c0,0,0,0,0.1,0.1C73.7,78.2,77,86.2,77,95"/>
	<path id="Fill-10_1_" class="st10" d="M77,95c0,18.8-15.2,34-34,34c-8.9,0-17-3.4-23-9c-5.6-6-9-14.2-9-23c0-18.7,15.2-34,34-34
		c9,0,17.1,3.5,23.2,9.2c0,0,0,0,0.1,0.1C73.7,78.3,77,86.3,77,95"/>
	<path id="Fill-12_1_" class="st11" d="M43.1,96c-0.5,0-1-0.2-1.4-0.6L25.6,79.3c-0.8-0.8-0.8-2,0-2.7c0.8-0.8,2-0.8,2.7,0
		l14.8,14.8l8.6-8.5c0.8-0.8,2-0.8,2.7,0c0.8,0.8,0.8,2,0,2.7l-9.9,9.9C44.1,95.8,43.6,96,43.1,96"/>
</g>
<g id="Group-113" transform="translate(100.000000, 0.000000)">
	<g id="Group-3_1_" transform="translate(0.000000, 114.153595)">
		<g id="Clip-2_1_">
		</g>
		<path id="Fill-1_5_" class="st12" d="M56.1,0.3c0,0-56.1,57-56.1,76.2c0,23.1,44.6,73.3,44.6,73.3l12.5-26.2l-18.2-34l22.9-24.5
			C61.8,65.1,65.2,19.5,56.1,0.3"/>
	</g>
	<path id="Fill-4_1_" class="st12" d="M161.1,114.4c0,0,55.5,57,55.5,76.2c0,23.1-53.4,75.5-53.4,75.5l-0.3-32l14.8-30.4l-21-27.2
		C156.7,176.6,151.9,133.7,161.1,114.4"/>
	<path id="Fill-6_2_" class="st13" d="M165.7,239.6c0,0,3.5-14.6,0.7-14.8c-3.8-0.2-5.1,4.5-5.1,4.5l-0.6,9.2L165.7,239.6z"/>
	<path id="Fill-8_2_" class="st13" d="M49.4,239c0,0,0.2-15,3-14.5c3.7,0.7,3.8,5.7,3.8,5.7l-1.7,9L49.4,239z"/>
	<polygon id="Fill-10_2_" class="st14" points="149.8,490.3 150.7,467.7 138.6,467.7 137.7,490.3 	"/>
	<path id="Fill-12_2_" class="st15" d="M185.5,501.4h-55.2c0,0-1.3-4.6-0.6-7.6c0.2-1.1,0.8-2,1.8-2.3c0-3.6,1.7-11,7-11.9l0,0
		c0,0.3-1,7.7,10.4,0c2.8-1.9,18.9,14.4,30.7,14.2c2.8,0,4.3,2.7,5.1,5C185.3,500.2,185.5,501.4,185.5,501.4"/>
	<path id="Fill-14_1_" class="st16" d="M138.5,479.6c-0.2,0.2-6.2,8.8-3.6,15.2c-1.7,0-3.5-0.4-5.2-1c0.2-1.1,0.8-2,1.8-2.3
		C131.4,487.9,133.2,480.6,138.5,479.6L138.5,479.6"/>
	<g id="Clip-17_1_">
	</g>
	<polygon id="Fill-16_1_" class="st17" points="130.3,502.6 185.5,502.6 185.5,501.4 130.3,501.4 	"/>
	<path id="Fill-18" class="st16" d="M185.5,501.4h-55.2c0,0-2.5-8.9,1.1-9.9c0,0,33.7,13.5,53.3,7.2
		C185.3,500.2,185.5,501.4,185.5,501.4"/>
	<path id="Fill-19_3_" class="st18" d="M156.3,486.5c0,0.7-0.6,1.2-1.2,1.2c-0.7,0-1.2-0.6-1.2-1.2c0-0.7,0.5-1.2,1.2-1.2
		C155.8,485.2,156.3,485.8,156.3,486.5"/>
	<path id="Fill-20" class="st18" d="M160.4,488.6c0,0.7-0.6,1.2-1.2,1.2c-0.7,0-1.2-0.6-1.2-1.2c0-0.7,0.6-1.2,1.2-1.2
		C159.8,487.4,160.4,488,160.4,488.6"/>
	<path id="Fill-21_2_" class="st18" d="M164.4,490.8c0,0.7-0.6,1.2-1.2,1.2c-0.7,0-1.2-0.6-1.2-1.2c0-0.7,0.6-1.2,1.2-1.2
		C163.8,489.6,164.4,490.1,164.4,490.8"/>
	<path id="Fill-22" class="st16" d="M180.9,495.3c0,0.5-0.9,0.8-2.1,0.8c-1.2,0-2.1-0.4-2.1-0.8c0-0.5,0.9-0.8,2.1-0.8
		S180.9,494.9,180.9,495.3"/>
	<polygon id="Fill-23_2_" class="st14" points="72,490.3 71,467.7 83.2,467.7 84.1,490.3 	"/>
	<path id="Fill-24" class="st15" d="M36.3,501.4h55.2c0,0,1.3-4.6,0.6-7.6c-0.2-1.1-0.8-2-1.8-2.3c0-3.6-1.7-11-7-11.9l0,0
		c0,0.3,1,7.7-10.4,0c-2.8-1.9-18.9,14.4-30.7,14.2c-2.8,0-4.3,2.7-5.1,5C36.5,500.2,36.3,501.4,36.3,501.4"/>
	<path id="Fill-25_2_" class="st16" d="M83.3,479.6c0.2,0.2,6.2,8.8,3.6,15.2c1.7,0,3.5-0.4,5.2-1c-0.2-1.1-0.8-2-1.8-2.3
		C90.3,487.9,88.6,480.6,83.3,479.6L83.3,479.6"/>
	<polygon id="Fill-26" class="st17" points="36.3,502.6 91.5,502.6 91.5,501.4 36.3,501.4 	"/>
	<path id="Fill-27_2_" class="st16" d="M36.3,501.4h55.2c0,0,2.5-8.9-1.1-9.9c0,0-33.7,13.5-53.3,7.2
		C36.5,500.2,36.3,501.4,36.3,501.4"/>
	<path id="Fill-28" class="st18" d="M65.5,486.5c0,0.7,0.6,1.2,1.2,1.2c0.7,0,1.2-0.6,1.2-1.2c0-0.7-0.6-1.2-1.2-1.2
		C66,485.2,65.5,485.8,65.5,486.5"/>
	<path id="Fill-29_2_" class="st18" d="M61.4,488.6c0,0.7,0.6,1.2,1.2,1.2c0.7,0,1.2-0.6,1.2-1.2c0-0.7-0.6-1.2-1.2-1.2
		S61.4,488,61.4,488.6"/>
	<path id="Fill-30" class="st18" d="M57.4,490.8c0,0.7,0.6,1.2,1.2,1.2c0.7,0,1.2-0.6,1.2-1.2c0-0.7-0.6-1.2-1.2-1.2
		C58,489.6,57.4,490.1,57.4,490.8"/>
	<path id="Fill-31_2_" class="st16" d="M40.9,495.3c0,0.5,0.9,0.8,2.1,0.8c1.2,0,2.1-0.4,2.1-0.8c0-0.5-0.9-0.8-2.1-0.8
		C41.8,494.5,40.9,494.9,40.9,495.3"/>
	<polygon id="Fill-32" class="st12" points="126.5,479.5 156.5,479.5 156.5,251.3 136.6,251.3 136.6,251.2 80,251.2 80,251.3 
		62.2,251.3 62.2,479.5 92.3,479.5 107.1,296.6 111.6,296.6 	"/>
	<path id="Fill-33_2_" class="st19" d="M156.5,251.3v156.4c-12.1,3.3-24.1,4.9-35.4,5.4l-9.5-116.5h-4.5l-9.4,116.1
		c-15.2-1.2-27.8-3.8-35.5-5.8V251.3l17.8-0.1v-0.1h56.6v0.1L156.5,251.3z"/>
	<path id="Fill-34" class="st12" d="M161.1,114.4l-41.2-19H97.3l-41.2,19l-4.8,271.4c72.3,10.6,114.5,0,114.5,0L161.1,114.4z"/>
	<path id="Fill-35_2_" class="st20" d="M165.8,385.8c0,0-42.2,10.6-114.5,0v-2.2c74.4-68.7,108.1-196,108.1-196s1.2-1.5,2.9-3.7
		L165.8,385.8z"/>
	<path id="Fill-36" class="st21" d="M87.3,168.7l-7.6-4.1c-6.5-6.2-11.2-29.4-11.4-30.4l1-0.4c0,0.2,4.7,23.5,10.9,29.6l7.4,4
		L87.3,168.7z"/>
	<path id="Fill-37_2_" class="st22" d="M89.1,170c-0.1,0-0.2,0-0.3-0.1l-2.4-1.3c-0.2-0.1-0.4-0.4-0.5-0.7s-0.1-0.7,0-1
		c0.2-0.7,0.7-1,1.2-0.8l2.4,1.3c0.2,0.1,0.4,0.4,0.5,0.7s0.1,0.7,0,1C89.8,169.7,89.5,170,89.1,170"/>
	<path id="Fill-38" class="st21" d="M74.4,168.7l-0.4-1.3l7.4-4c6.2-6,10.9-29.3,10.9-29.6l1,0.4c-0.2,1-4.8,24.2-11.4,30.4
		l-0.1,0.1L74.4,168.7z"/>
	<path id="Fill-39_2_" class="st22" d="M72.6,170c-0.4,0-0.8-0.4-0.9-0.9c-0.1-0.3-0.1-0.7,0-1s0.3-0.6,0.5-0.7l2.4-1.3
		c0.5-0.2,1,0.1,1.2,0.8c0.1,0.3,0.1,0.7,0,1s-0.3,0.6-0.5,0.7l-2.4,1.3C72.8,170,72.7,170,72.6,170"/>
	<path id="Fill-40" class="st23" d="M93,134.4c-0.6,0-1-0.6-1-1.4c0-5.1-1.7-9.3-4.8-11.8c-3.8-3-9-3-12.7,0.1
		c-2.1,1.7-4.6,5.2-4.6,11.7c0,0.8-0.5,1.4-1,1.5l0,0c-0.6,0-1-0.6-1-1.4c0-6.1,2-11.2,5.6-14.2c4.3-3.6,10.4-3.6,14.7-0.1
		c3.7,3,5.8,8.1,5.8,14.3C94,133.7,93.5,134.4,93,134.4L93,134.4z"/>
	<path id="Fill-41_2_" class="st23" d="M81.9,117.3h-2.3c0-0.2,0.3-25,17.7-25v3C82.2,95.3,81.9,117.1,81.9,117.3"/>
	<polygon id="Fill-42" class="st10" points="120.4,169.8 147.1,169.8 147.1,155.4 120.4,155.4 	"/>
	<polygon id="Fill-43_2_" class="st24" points="122.2,165.8 129.7,165.8 129.7,159.4 122.2,159.4 	"/>
	<polygon id="Fill-44" class="st24" points="131.7,160.8 145.2,160.8 145.2,159.8 131.7,159.8 	"/>
	<polygon id="Fill-45_2_" class="st24" points="131.7,163 145.2,163 145.2,162.1 131.7,162.1 	"/>
	<polygon id="Fill-46" class="st24" points="131.7,165.3 145.2,165.3 145.2,164.4 131.7,164.4 	"/>
	<polygon id="Fill-47_2_" class="st25" points="132.3,156.7 135.1,156.7 135.1,152.8 132.3,152.8 	"/>
	<polygon id="Fill-48" class="st26" points="97.3,95.4 119.8,95.4 108.6,122 	"/>
	<path id="Fill-49_2_" class="st23" d="M140.2,162.5c-0.2-42.6-7.9-58.5-14.3-64.4c-3.5-3.1-5.9-3-6-3v-2.8c0,0,3.2,0.3,7.4,4
		c6.9,6.1,15.1,22.5,15.2,66.2H140.2z"/>
	<path id="Fill-50" class="st27" d="M146.5,164.7c0,3-2.4,5.5-5.5,5.5c-3,0-5.5-2.4-5.5-5.5c0-3,2.4-5.5,5.5-5.5
		C144.1,159.3,146.5,161.7,146.5,164.7"/>
	<path id="Fill-51_2_" class="st22" d="M146,164.7c0,2.7-2.2,4.9-4.9,4.9s-4.9-2.2-4.9-4.9s2.2-4.9,4.9-4.9S146,162,146,164.7"/>
	<path id="Fill-52" class="st28" d="M144.5,164.7c0,1.9-1.5,3.4-3.4,3.4s-3.4-1.5-3.4-3.4s1.5-3.4,3.4-3.4
		C142.9,161.3,144.5,162.8,144.5,164.7"/>
	<polygon id="Fill-53_2_" class="st26" points="97.3,95.4 119.8,95.4 119.8,77.6 97.3,77.6 	"/>
	<path id="Fill-54" class="st29" d="M119.8,77.6V89c-3.5,2.4-7.3,3.7-11.3,3.7s-7.8-1.3-11.3-3.7V77.6H119.8z"/>
	<path id="Fill-55_2_" class="st30" d="M107.9,77.6c-5.6,0-10.1-4.5-10.1-10.1H118C118,73.1,113.5,77.6,107.9,77.6"/>
	<path id="Fill-56" class="st25" d="M118,67.5c0,0-1.2,2.5-2,2.9c-3.5,1.9-12.4,1.8-16,0c-0.8-0.4-2.2-2.9-2.2-2.9H118z"/>
	<path id="Fill-57_2_" class="st26" d="M77.4,53.2c1.2,3,4.5,4.5,7.6,3.4c3-1.2,4.5-4.5,3.4-7.6l-3-7.9c-1.2-3-4.5-4.5-7.6-3.4
		c-3,1.2-4.5,4.5-3.4,7.6L77.4,53.2z"/>
	<path id="Fill-58" class="st29" d="M83.3,44.5c0,0-12.4-5.2-2,8.5C81.4,50.4,74.9,45.2,83.3,44.5"/>
	<path id="Fill-59_2_" class="st26" d="M138.6,53.2c-1.2,3-4.5,4.5-7.6,3.4c-3-1.2-4.5-4.5-3.4-7.6l3-7.9c1.2-3,4.5-4.5,7.6-3.4
		c3,1.2,4.5,4.5,3.4,7.6L138.6,53.2z"/>
	<path id="Fill-60" class="st29" d="M132.7,44.5c0,0,12.4-5.2,1.9,8.5C134.7,50.4,141.2,45.2,132.7,44.5"/>
	<path id="Fill-61_2_" class="st31" d="M91.1,11.4c0,0-11.8,1.5-13.6,4.6c-4,6.6,4.8,30.5,4.8,30.5L91.1,11.4z"/>
	<path id="Fill-62" class="st31" d="M133.8,44.6c0,0,7.4-20.7,4.7-27c-2.2-5.2-18.8-12.8-18.8-12.8L111,16.3L133.8,44.6z"/>
	<path id="Fill-63_2_" class="st26" d="M82.3,46.5c0,5.2,0.6,10.1,1.6,14.7l0,0c0.2,1.1,0.5,2.2,0.8,3.2c0.3,0.9,0.5,1.8,0.8,2.6
		C90,79.7,98.4,88.3,108,88.3c9.5,0,17.7-8.3,22.2-20.6c0.4-1.1,0.7-2.1,1.1-3.2c0.3-1,0.6-2.1,0.8-3.2l0,0
		c1.1-4.6,1.6-9.5,1.6-14.7c0-1.9-0.1-3.7-0.2-5.6c0-0.1,0-0.2,0-0.2c-1.7-20.3-12.5-36-25.5-36C95,4.8,84.2,20.6,82.5,41
		C82.4,42.8,82.3,44.7,82.3,46.5"/>
	<path id="Fill-64" class="st24" d="M129.9,68.6c-4.5,11.8-12.6,19.6-21.8,19.6c-9.4,0-17.6-8.2-22.1-20.4
		C94.6,65.1,111.1,61.7,129.9,68.6"/>
	<path id="Fill-65_2_" class="st32" d="M100.4,29v2h1.1v-2.1l3.4-0.6c0,0,1,4.6,0,5.5c-2.7,2.7-15.2,0-15.2,0V31L100.4,29z"/>
	<path id="Fill-66" class="st32" d="M115.6,28.4v1.9h-1.1v-2.1l-3.4-0.6c0,0-1,4.6,0,5.5c2.7,2.7,15.2,0,15.2,0v-2.8L115.6,28.4z"/>
	<path id="Fill-67_2_" class="st26" d="M108.7,43c0,0,1.5,10.9,2.6,18.6C94,65.6,108.4,43.5,108.7,43L108.7,43z"/>
	<path id="Fill-68" class="st29" d="M111.3,61.6c-17.3,4-3-18.1-2.7-18.5C108.4,43.5,99.1,62.7,111.3,61.6"/>
	<path id="Fill-69_2_" class="st24" d="M127.3,16.2c-0.8,0.6-2.7,0.9-5.4,1.2c-0.1,0-0.2,0-0.3,0c-3.7,0.4-8.7,0.5-13.6,0.6
		c-0.1,0-0.2,0-0.4,0c-5.6,0-11.1-0.1-14.7-0.1c-0.1,0-0.2,0-0.4,0c-2.3-0.1-3.7-0.1-3.7-0.1l-4.2-5.1c0,0-3-13.4,13.1-11.5
		c0.8,0.1,1.6,0.2,2.4,0.3c0.4,0,0.7,0.1,1.1,0.1c4.6,0.4,9.1,0.7,13.2,1.1c0.3,0,0.6,0.1,0.9,0.1c4.1,0.4,7.8,0.9,11,1.7
		c0.1,0,0.3,0.1,0.4,0.1c3.3,1,6,2.3,7.8,4.5C137.2,12,131.2,13.4,127.3,16.2"/>
	<path id="Fill-70" class="st32" d="M126.9,4.5c-0.3,0.2-0.5,0.4-0.8,0.6c-3.7,3.2-4.2,8.8-4.2,12.3c-0.1,0-0.2,0-0.3,0
		c0-3.5,0.5-9.3,4.3-12.6c0.2-0.2,0.4-0.3,0.6-0.5C126.6,4.4,126.7,4.5,126.9,4.5"/>
	<path id="Fill-71_2_" class="st32" d="M115.4,2.7c-2.5,0.7-4.5,1.9-5.8,3.7c-2.6,3.4-2.3,8.3-1.7,11.6c-0.1,0-0.2,0-0.4,0
		c-0.6-3.4-0.9-8.3,1.7-11.8c1.2-1.6,3-2.8,5.2-3.6C114.8,2.6,115.1,2.6,115.4,2.7"/>
	<path id="Fill-72" class="st32" d="M101.3,1.5c-3.1,0.6-5.4,1.9-6.9,3.9c-2.8,3.7-2.3,9-1.5,12.4c-0.1,0-0.2,0-0.4,0
		c-0.7-3.5-1.2-8.8,1.6-12.6c1.4-1.9,3.4-3.1,6.1-3.8C100.6,1.4,100.9,1.5,101.3,1.5"/>
	<path id="Fill-73_2_" class="st29" d="M132.1,61.2c-0.3,1.1-0.5,2.2-0.8,3.2c-0.3,1.1-0.7,2.2-1.1,3.2
		C125.8,80,117.5,88.3,108,88.3c-1.4,0-2.8-0.2-4.2-0.6C125.8,85.2,131.9,62,132.1,61.2"/>
	<g>
		<defs>
			<polygon id="SVGID_1_" points="1,1 2,1 1,2 			"/>
		</defs>
		<defs>
			<polygon id="SVGID_2_" points="-1,-1 -2,-1 -1,-2 			"/>
		</defs>
		<clipPath id="SVGID_3_">
			<use xlink:href="#SVGID_1_"  style="overflow:visible;"/>
		</clipPath>
		<clipPath id="SVGID_4_" class="st33">
			<use xlink:href="#SVGID_2_"  style="overflow:visible;"/>
		</clipPath>
		<path id="Fill-74" class="st34" d="M132.1,61.2L132.1,61.2L132.1,61.2L132.1,61.2"/>
	</g>
	<path id="Fill-75_2_" class="st35" d="M132.6,62.1c-0.2,2.7-0.6,5.3-1.3,7.7c-0.7,2.5-1.7,4.8-3,7c-4.5,7.7-11.9,12.8-20.3,12.8
		c-1,0-2.1-0.1-3.1-0.2l0,0c-4.1-0.6-8-2.5-11.2-5.2c-1.1-1-2.2-2-3.2-3.2c-1.2-1.4-2.2-3-3.1-4.6c-0.8-1.5-1.5-3-2.1-4.6
		c0-0.1-0.1-0.2-0.1-0.3c-0.2-0.5-0.3-1-0.5-1.6c-0.1-0.4-0.2-0.8-0.3-1.3c-0.1-0.2-0.1-0.5-0.2-0.8c-0.4-1.8-0.7-3.7-0.8-5.7
		c0.4-0.6,0.8-1.2,1.3-1.8c3.2-3.8,7.5-6.1,12.4-6.1H119C124.4,54.2,129.4,57.2,132.6,62.1"/>
	<path id="Fill-76" class="st36" d="M132.6,62.1c-0.2,2.7-0.6,5.3-1.3,7.7c-0.7,2.5-1.7,4.8-3,7c-4.5,7.7-11.9,12.8-20.3,12.8
		c-1,0-2.1-0.1-3.1-0.2l0,0c-4.1-0.6-8-2.5-11.2-5.2C119,83,132.6,62.1,132.6,62.1"/>
	<path id="Fill-77_2_" class="st37" d="M84.6,62.7c0,0,5.4-6.8,10.8-6.1C92.5,57.4,84.6,62.7,84.6,62.7"/>
	<path id="Fill-78" class="st36" d="M102.5,61.1c-0.2-0.1,13.5,0,13.5,0S103.7,61.7,102.5,61.1"/>
	<path id="Fill-79_2_" class="st36" d="M111.2,62.7c-0.2-0.1,13.5,0,13.5,0S112.4,63.3,111.2,62.7"/>
	<path id="Fill-80" class="st38" d="M102.6,67.8c0,0-9.4,0.5-18.3,0.7c-0.1-0.2-0.1-0.5-0.2-0.8C93.1,67.8,102.6,67.8,102.6,67.8"/>
	<path id="Fill-81_2_" class="st38" d="M91.6,71.3c0,0-2.7,0.1-6.4,0.3c0-0.1-0.1-0.2-0.1-0.3C88.9,71.3,91.6,71.3,91.6,71.3"/>
	<path id="Fill-82" class="st12" d="M136.9,34.7c-4.9-4.6-9.9-7.6-14.8-9.5c-23.1-8.8-43.8,9-43.8,9C64.1-1.7,92.1,0.3,92.1,0.3
		S104.2,0,125.6,0h0.4C143.7,0,139.8,29.9,136.9,34.7"/>
	<path id="Fill-83" class="st19" d="M81.4,8.5h27.8C109.2,8.5,87.2,9.6,81.4,8.5"/>
	<path id="Fill-84_2_" class="st19" d="M85.4,12.4h27.8C113.2,12.4,91.3,13.5,85.4,12.4"/>
	<path id="Fill-85" class="st19" d="M76.1,19.8h27.8C103.9,19.8,81.9,20.9,76.1,19.8"/>
	<path id="Fill-86_2_" class="st19" d="M122.3,15.1h15.3C137.6,15.1,125.5,15.7,122.3,15.1"/>
	<path id="Fill-87" class="st19" d="M136.9,34.7c-4.9-4.6-9.9-7.6-14.8-9.5c5.3-7.3,4.8-17.7,3.5-25.3h0.4
		C143.7,0,139.8,29.9,136.9,34.7"/>
	<path id="Fill-88_2_" class="st10" d="M112.9,43.4c0,0,7.4-17.9,13.8-0.9C124.1,45,118.2,47.3,112.9,43.4"/>
	<path id="Fill-89" class="st39" d="M126.7,42.5c-5.2-12.3-11.8-2.9-11.8-2.9l0,0C117.5,35.5,122.3,31,126.7,42.5"/>
	<path id="Fill-90_2_" class="st39" d="M126.7,42.5c-2.6,2.5-8.6,4.8-13.8,0.9C120.4,47.3,126.4,42.7,126.7,42.5"/>
	<path id="Fill-91" class="st28" d="M122.1,41.7c-0.3,1.9-2.1,3.1-4,2.8s-3.1-2.1-2.8-4c0.3-1.9,2.1-3.1,4-2.8
		C121.1,38.1,122.4,39.8,122.1,41.7"/>
	<path id="Fill-92_2_" class="st40" d="M121.3,38.9c0.4,0.7,0.5,1.4,0.4,2.3c-0.3,1.9-2.1,3.1-4,2.8c-0.8-0.1-1.5-0.5-2-1.1
		c0.5,0.9,1.4,1.5,2.4,1.7c1.9,0.3,3.6-1,4-2.8C122.3,40.6,121.9,39.6,121.3,38.9"/>
	<path id="Fill-93" class="st23" d="M120,41.4c-0.1,0.9-1,1.5-1.9,1.3c-0.9-0.1-1.5-1-1.3-1.9c0.1-0.9,1-1.5,1.9-1.3
		C119.5,39.7,120.1,40.5,120,41.4"/>
	<path id="Fill-94_2_" class="st10" d="M118.5,40c0,0.2-0.3,0.4-0.5,0.3c-0.2,0-0.4-0.3-0.3-0.5c0-0.2,0.3-0.4,0.5-0.3
		C118.4,39.5,118.6,39.8,118.5,40"/>
	<path id="Fill-95" class="st10" d="M103,43.4c0,0-7.4-17.9-13.8-0.9C91.8,45,97.7,47.3,103,43.4"/>
	<path id="Fill-96_2_" class="st39" d="M89.1,42.5c5.2-12.3,11.8-2.9,11.8-2.9l0,0C98.3,35.5,93.5,31,89.1,42.5"/>
	<path id="Fill-97" class="st39" d="M89.2,42.5c2.6,2.5,8.6,4.8,13.8,0.9C95.4,47.3,89.5,42.7,89.2,42.5"/>
	<path id="Fill-98_2_" class="st28" d="M93.8,41.7c0.3,1.9,2.1,3.1,4,2.8s3.1-2.1,2.8-4c-0.3-1.9-2.1-3.1-4-2.8
		C94.7,38.1,93.5,39.8,93.8,41.7"/>
	<path id="Fill-99" class="st40" d="M94.6,38.9c-0.4,0.7-0.5,1.4-0.4,2.3c0.3,1.9,2.1,3.1,4,2.8c0.8-0.1,1.5-0.5,2-1.1
		c-0.5,0.9-1.4,1.5-2.4,1.7c-1.9,0.3-3.6-1-4-2.8C93.6,40.6,93.9,39.6,94.6,38.9"/>
	<path id="Fill-100_2_" class="st23" d="M95.9,41.4c0.1,0.9,1,1.5,1.9,1.3c0.9-0.1,1.5-1,1.3-1.9c-0.1-0.9-1-1.5-1.9-1.3
		C96.4,39.7,95.8,40.5,95.9,41.4"/>
	<path id="Fill-101" class="st10" d="M97.3,40c0,0.2,0.3,0.4,0.5,0.3c0.2,0,0.4-0.3,0.3-0.5c0-0.2-0.3-0.4-0.5-0.3
		C97.4,39.5,97.3,39.8,97.3,40"/>
	<path id="Fill-102" class="st41" d="M114.8,35.3c0,0.6-0.5,1.1-1.1,1.1h-10.6c-0.6,0-1.1-0.5-1.1-1.1s0.5-1.1,1.1-1.1h10.6
		C114.3,34.2,114.8,34.7,114.8,35.3"/>
	<path id="Fill-103" class="st42" d="M86.6,36.4c0,0.9-0.8,1.7-1.7,1.7h-2.6c-0.9,0-1.7-0.8-1.7-1.7s0.8-1.7,1.7-1.7h2.6
		C85.8,34.7,86.6,35.5,86.6,36.4"/>
	<path id="Fill-104" class="st43" d="M105.5,36L105.5,36c0,0.5-0.1,1-0.2,1.5l0,0c-0.3,2-0.9,4-1.7,6l0,0c-0.5,1.2-1.1,2.5-1.8,3.7
		c-0.3,0.5-0.8,0.8-1.3,0.8c0,0,0,0-0.1,0c-2.2-0.1-4.5-0.2-6.8-0.2c-1.8,0-3.7,0-5.6,0.1c0,0,0,0-0.1,0c-0.4,0-0.7-0.1-1-0.4
		c-0.5-0.4-1-0.9-1.4-1.4c-0.1-0.1-0.1-0.1-0.2-0.2c-1.7-2.5-2.6-5.5-3.2-8.5c-0.1-0.4-0.2-0.9-0.3-1.3c-0.1-0.4,0-0.9,0.3-1.2
		s0.7-0.6,1.1-0.6c3.4-0.2,6.9-0.4,10.4-0.4c2.2,0,4.5,0.1,6.7,0.2l0,0c1.2,0.1,2.4,0.1,3.6,0.2c0.4,0,0.8,0.2,1.1,0.5
		C105.5,35.2,105.6,35.6,105.5,36"/>
	<path id="Fill-105" class="st41" d="M105.2,34.9c-0.3-0.3-0.6-0.5-1.1-0.5s-1-0.1-1.6-0.1c-0.2,0-0.4,0-0.6,0c-0.4,0-0.8,0-1.2-0.1
		c-0.1,0-0.2,0-0.3,0l0,0C98.2,34.1,96,34,93.8,34c-3.4,0-6.9,0.1-10.4,0.4c-0.4,0-0.8,0.3-1.1,0.6c-0.3,0.4-0.4,0.8-0.3,1.2
		s0.2,0.9,0.3,1.3c0,0,17.2-4,20.2-1c1.5,1.5,2.2,4.3,1.2,7c0.8-2,1.4-4,1.7-6l0,0c0.1-0.5,0.1-0.9,0.2-1.4l0,0
		C105.6,35.6,105.5,35.2,105.2,34.9"/>
	<path id="Fill-106" class="st22" d="M104.7,44.1c-0.1,0.3-0.4,0.6-0.8,0.5c-0.3-0.1-0.6-0.4-0.5-0.8l0.9-3.8
		c0.1-0.3,0.4-0.6,0.8-0.5c0.3,0.1,0.6,0.4,0.5,0.8L104.7,44.1z"/>
	<path id="Fill-107" class="st42" d="M129.2,36.4c0,0.9,0.8,1.7,1.7,1.7h2.6c0.9,0,1.7-0.8,1.7-1.7s-0.8-1.7-1.7-1.7h-2.6
		C130,34.7,129.2,35.5,129.2,36.4"/>
	<path id="Fill-108" class="st43" d="M110.3,36L110.3,36c0,0.5,0.1,1,0.2,1.5l0,0c0.3,2,0.9,4,1.7,6l0,0c0.5,1.2,1.1,2.5,1.8,3.7
		c0.3,0.5,0.8,0.8,1.3,0.8c0,0,0,0,0.1,0c2.2-0.1,4.5-0.2,6.8-0.2c1.8,0,3.7,0,5.6,0.1c0,0,0,0,0.1,0c0.4,0,0.7-0.1,1-0.4
		c0.5-0.4,1-0.9,1.4-1.4c0.1-0.1,0.1-0.1,0.2-0.2c1.7-2.5,2.6-5.5,3.2-8.5c0.1-0.4,0.2-0.9,0.3-1.3c0.1-0.4,0-0.9-0.3-1.2
		s-0.7-0.6-1.1-0.6c-3.4-0.2-6.9-0.4-10.4-0.4c-2.2,0-4.5,0.1-6.7,0.2l0,0c-1.2,0.1-2.4,0.1-3.6,0.2c-0.4,0-0.8,0.2-1.1,0.5
		C110.4,35.2,110.2,35.6,110.3,36"/>
	<path id="Fill-109" class="st41" d="M110.6,34.9c0.3-0.3,0.6-0.5,1.1-0.5s1-0.1,1.6-0.1c0.2,0,0.4,0,0.6,0c0.4,0,0.8,0,1.2-0.1
		c0.1,0,0.2,0,0.3,0l0,0c2.3-0.1,4.5-0.2,6.7-0.2c3.4,0,6.9,0.1,10.4,0.4c0.4,0,0.8,0.3,1.1,0.6c0.3,0.4,0.4,0.8,0.3,1.2
		c-0.1,0.4-0.2,0.9-0.3,1.3c0,0-17.2-4-20.2-1c-1.5,1.5-2.2,4.3-1.2,7c-0.8-2-1.4-4-1.7-6l0,0c-0.1-0.5-0.1-0.9-0.2-1.4l0,0
		C110.2,35.6,110.4,35.2,110.6,34.9"/>
	<path id="Fill-110" class="st22" d="M111.2,44.1c0.1,0.3,0.4,0.6,0.8,0.5c0.3-0.1,0.6-0.4,0.5-0.8l-0.9-3.8
		c-0.1-0.3-0.4-0.6-0.8-0.5c-0.3,0.1-0.6,0.4-0.5,0.8L111.2,44.1z"/>
	<path id="Fill-111" class="st13" d="M50.9,236.5c0,0-2.2,0.4-3.7,1.9s-1.6,2.5-2.4,4.5c-0.6,1.3-3.3,2.8-3.7,4.2
		c-0.3,1,0.9,3.1,0.6,4.1c-0.4,1.3-3.7,2.8-3.7,4.2c0,3.6,7.9,9.9,7.9,9.9s10.5,8.6,14.2,7.1c0.6-0.2,0.9-2.5,0.9-2.5
		s5.1,3.4,6.8,2.7c0.5-0.2,1-1.7,0.8-2.2c-0.5-1.7-5.7-4-5.7-4s5,2.6,6.6,1.8c0.5-0.3,1-1.7,0.8-2.2c-0.6-2.5-7.5-7.2-7.5-7.2
		s3.3,1.9,4.5,1.7c0.9-0.2,1.8-0.6,1.6-1.5c-0.6-2.4-11-7.6-10.8-11.6C58.5,238.8,50.9,236.5,50.9,236.5"/>
	<path id="Fill-112" class="st13" d="M164,236.5c0,0,2.2,0.4,3.7,1.9s1.6,2.5,2.4,4.5c0.6,1.3,3.3,2.8,3.7,4.2
		c0.3,1-0.9,3.1-0.6,4.1c0.4,1.3,3.7,2.8,3.7,4.2c0,3.6-7.9,9.9-7.9,9.9s-10.5,8.6-14.2,7.1c-0.6-0.2-0.9-2.5-0.9-2.5
		s-5.1,3.4-6.8,2.7c-0.5-0.2-1-1.7-0.8-2.2c0.5-1.7,5.7-4,5.7-4s-5,2.6-6.6,1.8c-0.5-0.3-1-1.7-0.8-2.2c0.6-2.5,7.5-7.2,7.5-7.2
		s-3.3,1.9-4.5,1.7c-0.9-0.2-1.8-0.6-1.6-1.5c0.6-2.4,11-7.6,10.8-11.6C156.4,238.8,164,236.5,164,236.5"/>
</g>
</svg>
