<?xml version="1.0" encoding="UTF-8"?>
<svg width="97px" height="97px" viewBox="0 0 97 97" version="1.1" xmlns="http://www.w3.org/2000/svg" xmlns:xlink="http://www.w3.org/1999/xlink">
    <!-- Generator: Sketch 61.1 (89650) - https://sketch.com -->
    <title>Group 35</title>
    <desc>Created with Sketch.</desc>
    <g id="Page-1" stroke="none" stroke-width="1" fill="none" fill-rule="evenodd">
        <g id="Home-Copy" transform="translate(-568.000000, -3215.000000)">
            <g id="Group-16" transform="translate(519.000000, 3175.000000)">
                <g id="Group-35" transform="translate(49.000000, 40.000000)">
                    <circle id="Oval-Copy-8" fill="#187DD7" cx="48.5" cy="48.5" r="48.5"></circle>
                    <g id="Group-11" transform="translate(21.000000, 23.000000)">
                        <g id="protection" fill="#FFFFFF" fill-rule="nonzero">
                            <path d="M20.8000003,38.4000006 L19.0390003,38.4000006 C18.8311003,37.3801006 18.4277003,36.4309005 17.8712003,35.5915005 L19.1193003,34.3434005 C19.7442003,33.7185005 19.7442003,32.7055005 19.1193003,32.0807005 C18.4945003,31.4558005 17.4815003,31.4558005 16.8566003,32.0807005 L15.6085002,33.3288005 C14.7691002,32.7723005 13.8199002,32.3689005 12.8000002,32.1610005 L12.8000002,30.4000005 C12.8000002,29.5164004 12.0836002,28.8000004 11.2000002,28.8000004 C10.3164002,28.8000004 9.60000014,29.5164004 9.60000014,30.4000005 L9.60000014,32.1610005 C8.58010013,32.3689005 7.63090011,32.7723005 6.7915001,33.3288005 L5.54340008,32.0807005 C4.91850007,31.4558005 3.90550006,31.4558005 3.28070005,32.0807005 C2.65580004,32.7055005 2.65580004,33.7186005 3.28070005,34.3434005 L4.52880007,35.5915005 C3.97230006,36.4309005 3.56890005,37.3801006 3.36100005,38.4000006 L1.60000002,38.4000006 C0.716400011,38.4000006 -4.26325648e-15,39.1164006 -4.26325648e-15,40.0000006 C-4.26325648e-15,40.8836006 0.716400011,41.6000006 1.60000002,41.6000006 L3.36100005,41.6000006 C3.56890005,42.6199006 3.97230006,43.5691006 4.52880007,44.4085007 L3.28070005,45.6566007 C2.65580004,46.2815007 2.65580004,47.2945007 3.28070005,47.9193007 C3.90540006,48.5441007 4.91850007,48.5442007 5.54340008,47.9193007 L6.7915001,46.6712007 C7.63090011,47.2277007 8.58010013,47.6311007 9.60000014,47.8390007 L9.60000014,49.6000007 C9.60000014,50.4836008 10.3164002,51.2000008 11.2000002,51.2000008 C12.0836002,51.2000008 12.8000002,50.4836008 12.8000002,49.6000007 L12.8000002,47.8390007 C13.8199002,47.6311007 14.7691002,47.2277007 15.6085002,46.6712007 L16.8566003,47.9193007 C17.4814003,48.5441007 18.4945003,48.5443007 19.1193003,47.9193007 C19.7442003,47.2945007 19.7442003,46.2814007 19.1193003,45.6566007 L17.8712003,44.4085007 C18.4277003,43.5691006 18.8311003,42.6199006 19.0390003,41.6000006 L20.8000003,41.6000006 C21.6836003,41.6000006 22.4000003,40.8836006 22.4000003,40.0000006 C22.4000003,39.1164006 21.6836003,38.4000006 20.8000003,38.4000006 L20.8000003,38.4000006 Z M15.7329002,41.5759006 C15.2515002,42.9566006 14.1566002,44.0514007 12.7759002,44.5329007 C12.6486002,43.7767007 11.9924002,43.2000006 11.2000002,43.2000006 C10.4076002,43.2000006 9.75140015,43.7767007 9.62410014,44.5329007 C8.24340012,44.0515007 7.14860011,42.9567006 6.6671001,41.5759006 C7.42330011,41.4486006 8.00000012,40.7924006 8.00000012,40.0000006 C8.00000012,39.2076006 7.42330011,38.5514006 6.6671001,38.4240006 C7.14850011,37.0433006 8.24340012,35.9485005 9.62410014,35.4670005 C9.75140015,36.2233005 10.4076002,36.8000005 11.2000002,36.8000005 C11.9924002,36.8000005 12.6486002,36.2233005 12.7759002,35.4671005 C14.1566002,35.9485005 15.2514002,37.0433006 15.7329002,38.4241006 C14.9767002,38.5514006 14.4000002,39.2075006 14.4000002,40.0000006 C14.4000002,40.7925006 14.9767002,41.4486006 15.7329002,41.5759006 Z" id="Shape"></path>
                            <path d="M28.8000004,51.2000008 C28.6793004,51.2000008 28.5586004,51.1863008 28.4402004,51.1590008 C26.5945004,50.7331008 24.7897004,50.1227007 23.0758003,49.3449007 C22.2711003,48.9798007 21.9148003,48.0314007 22.2800003,47.2267007 C22.6451003,46.4221007 23.5935004,46.0656007 24.3982004,46.4309007 C25.8075004,47.0705007 27.2865004,47.5825007 28.8002004,47.9551007 C40.1242006,45.1716007 48.0000007,35.1486005 48.0000007,23.4530003 L48.0000007,7.67280011 L28.8000004,3.24200005 L9.60000014,7.67280011 L9.60000014,23.4530003 C9.60000014,24.4781004 9.66260014,25.5099004 9.78620015,26.5197004 C9.89350015,27.3968004 9.26940014,28.1948004 8.39230013,28.3022004 C7.51540011,28.4092004 6.7172001,27.7854004 6.6099001,26.9083004 C6.4706001,25.7700004 6.4000001,24.6075004 6.4000001,23.4530003 L6.4000001,6.4000001 C6.4000001,5.65490008 6.9143001,5.00850007 7.64020011,4.84100007 L28.4402004,0.0410000006 C28.6769004,-0.0136000002 28.9230004,-0.0136000002 29.1597004,0.0410000006 L49.9597007,4.84100007 C50.6857008,5.00850007 51.2000008,5.65490008 51.2000008,6.4000001 L51.2000008,23.4530003 C51.2000008,29.8569004 49.0044007,36.1435005 45.0177007,41.1549006 C41.0312006,46.1661007 35.3994005,49.7190007 29.1598004,51.1591008 C29.0415004,51.1863008 28.9207004,51.2000008 28.8000004,51.2000008 L28.8000004,51.2000008 Z" id="Path"></path>
                        </g>
                        <g id="Group-8" transform="translate(20.750000, 16.000000)" stroke="#FFFFFF" stroke-linecap="round" stroke-linejoin="round" stroke-width="3">
                            <line x1="8.5" y1="0" x2="8.5" y2="16" id="Path-9"></line>
                            <line x1="8.25" y1="0.25" x2="8.25" y2="16.25" id="Path-9-Copy" transform="translate(8.250000, 8.250000) scale(1, -1) rotate(90.000000) translate(-8.250000, -8.250000) "></line>
                        </g>
                    </g>
                </g>
            </g>
        </g>
    </g>
</svg>