<?xml version="1.0" encoding="utf-8"?>
<!-- Generator: Adobe Illustrator 22.1.0, SVG Export Plug-In . SVG Version: 6.00 Build 0)  -->
<svg version="1.1" id="Layer_1" xmlns="http://www.w3.org/2000/svg" xmlns:xlink="http://www.w3.org/1999/xlink" x="0px" y="0px"
	 viewBox="0 0 493 488" style="enable-background:new 0 0 493 488;" xml:space="preserve">
<style type="text/css">
	.st0{opacity:0.4;}
	.st1{opacity:0.7;fill:#FE9933;enable-background:new    ;}
	.st2{fill:#FF9835;}
	.st3{fill:none;stroke:#FFF0DE;stroke-width:1.33;}
	.st4{fill:#FBA489;}
	.st5{fill:#F1856A;}
	.st6{fill:#391829;}
	.st7{fill:#DB675C;}
	.st8{fill:#382040;}
	.st9{fill:#E4776D;}
	.st10{fill:#F8918B;}
	.st11{fill:#6BDAED;}
	.st12{fill:#0066CF;}
	.st13{fill:#00ADFF;}
	.st14{fill:#88D1F5;}
</style>
<g id="Group-15_1_" transform="translate(0.000000, 62.000000)">
	<g id="Group-23-Copy_1_" class="st0">
		<g id="Group-12_1_">
			<path id="Fill-1_4_" class="st1" d="M28.3,105.6c0.6-12,2.3-24.3,8.9-34.4c9.7-14.8,28.3-21.6,46-22.3c28-1.1,55,10.5,79.3,24.6
				c24.2,14.1,47,30.9,72.8,42c47.3,20.3,100.4,19.7,151.7,23.7c16.9,1.3,34.9,3.6,48,14.4c10.9,9,16.9,22.9,19,36.8
				c5.7,36.8-13,74.4-41.3,98.6s-64.8,36.7-101.4,44c-40.7,8-83.1,10.1-123.4,0.2c-75.5-18.6-129.6-78-150.7-151.2
				C30.1,157.2,27,131.3,28.3,105.6"/>
			<g id="Group-5_2_">
				<g id="Clip-4_2_">
				</g>
				<path id="Fill-3_4_" class="st2" d="M266.1,107.3c38.4-24.1,76.7-53,121.8-57.6c14.8-1.5,30.3-0.2,43.7,6.3
					c18.9,9.1,31.8,27.5,39.7,46.9c17.4,42.7,13.8,90.8,7.2,136.5c-4.7,32.5-11,65.5-27.6,93.9c-22.4,38.4-62.1,64.8-104.8,77.3
					s-88.3,12.1-132.4,5.9c-43.2-6.1-86.2-18.1-123.6-40.4c-37.4-22.4-69.1-56-83.9-96.9c-5.4-15-8.5-31.6-4-46.9
					c12.7-43,82.3-44.6,117-56C170.7,159.3,220.2,136.1,266.1,107.3"/>
			</g>
			<path id="Stroke-6_2_" class="st3" d="M269.3,377.8c-15.7,0-32.7-1.3-50.6-3.8c-43.7-6.2-78.9-17.6-107.7-34.9
				c-18.6-11.2-35.5-25.6-48.4-43.1c-9.6-13.1-31.4-44.1-14.3-58.3c5.1-4.3,11.9-6.1,18.4-7.4c10.1-2,20.1-3.7,30.1-5.8
				c12.4-2.6,24.1-5,34.7-8.5c54.9-18.1,107.5-42.8,156.2-73.4c5.8-3.7,11.6-7.4,17.3-11.1c29.7-19.2,57.8-37.4,86.2-40.3
				c2.2-0.2,4.4-0.3,6.5-0.3c5.8,0,10.7,0.9,14.2,2.6c16.5,8,23.1,34.1,25.7,50.5c8.5,52.7,1.7,134.5-32,178.3
				C373.9,363.7,319.3,377.8,269.3,377.8z"/>
			<path id="Stroke-8_2_" class="st3" d="M270.5,336.8c-32.2-0.1-66.5-5.9-96.6-15c-15.3-4.6-30.3-10.6-43.7-19.2
				c-3.1-2-36.3-30.7-33-32.7c6.3-3.7,13.6-4.9,20.8-6.4c51.4-10.3,100-31.1,145.7-56.1c19.4-10.7,38.2-22.8,57.2-34
				c8.1-4.8,63.9-44.2,71.7-37.8c1.8,1.4,2.4,3.9,2.8,6.1c5.7,27.7,3.5,61.3,0,89.3c-3.4,27.3-12.6,55-32.1,74.4
				c-19.9,20-48.6,29.2-76.8,31C281.3,336.7,276,336.8,270.5,336.8z"/>
			<path id="Stroke-10_2_" class="st3" d="M270,293.8c-22.5,0-47.6-3.4-72-9.7c27.6-10.3,56-23.4,85.6-39.5
				c13.5-7.3,26.4-15.2,38.9-22.8c6.8-4.1,13.2-8,19.7-11.8c2.3-1.3,5-3.1,10.3-6.6c0.9-0.6,1.7-1.1,2.5-1.6
				c-0.5,7.5-1.3,15.4-2.4,23.8c-1.9,15.3-6.9,36.3-20,49.3c-10.7,10.6-28.2,17.2-49.4,18.5c-4.1,0.3-8.5,0.4-13,0.4L270,293.8z"/>
		</g>
	</g>
	<path id="Path-7_1_" class="st3" d="M0,48.8"/>
</g>
<title>Group 24</title>
<desc>Created with Sketch.</desc>
<g id="Page-1">
	<g id="Home-Copy" transform="translate(-782.000000, -2300.000000)">
		<g id="Group-24" transform="translate(782.000000, 2274.000000)">
			<g id="Group-13">
				<g id="Group-81" transform="translate(41.000000, 0.000000)">
					<g id="Mask">
					</g>
					<g>
						<g transform="translate(32.726531, 25.872483)">
							<g id="Group-47" transform="translate(32.726531, 0.000000)">
								<path id="Fill-1_1_" class="st4" d="M205.2,236.7c-8.3-1.5-15.8-2.4-22.6-2.8c-7.6-0.5-13.6-6.7-13.6-14.3v-33h-49.5v33
									c0,7.5-5.8,13.8-13.3,14.3c-5.9,0.4-12.5,1-19.6,2.2l-0.8,67.3H206L205.2,236.7z"/>
								<path id="Fill-3_1_" class="st5" d="M119.5,210.9c7.6,3.9,15.9,6.2,24.8,6.2c8.8,0,17.1-2.3,24.8-6.1v-39.3h-49.5v39.2
									H119.5z"/>
								<path id="Fill-5" class="st4" d="M102.3,131.7c0,11.8-8.9,21.5-20,21.5c-11,0-19.8-19.2-19.8-31c0-11.9,8.7-13.7,19.8-11.9
									C93.2,112,102.3,119.9,102.3,131.7"/>
								<path id="Fill-7" class="st4" d="M186.3,131.7c0,11.8,8.9,21.5,20,21.5s19.8-19.2,19.8-31c0-11.9-8.7-13.7-19.8-11.9
									C195.4,112,186.3,119.9,186.3,131.7"/>
								<path id="Fill-9" class="st4" d="M206.9,72.1c-7.6-22.2-62.6-22.9-62.6-22.9s-55,0.8-62.6,22.9c-7.6,22.2-6.9,68,4.6,90.2
									c11.4,22.2,32.8,40.5,58,40.5s46.6-18.3,58-40.5C213.8,140.1,214.5,94.2,206.9,72.1"/>
								<path id="Fill-11" class="st6" d="M116.6,121.4c0,5-3.2,9.1-7.2,9.1s-7.2-4.1-7.2-9.1s3.2-9.1,7.2-9.1
									S116.6,116.4,116.6,121.4"/>
								<path id="Fill-13" class="st6" d="M186.3,121.4c0,5-3.2,9.1-7.2,9.1s-7.2-4.1-7.2-9.1s3.2-9.1,7.2-9.1
									S186.3,116.4,186.3,121.4"/>
								<path id="Fill-15" class="st7" d="M144.3,159.5c14.4,0,19.5,10,19.7,10.4c0.6,1.2,0.1,2.5-1,3.1c-1.2,0.6-2.6,0.1-3.1-1
									c-0.2-0.3-4.2-7.9-15.6-7.9c-11.5,0-15.5,7.8-15.6,7.9c-0.6,1.1-2,1.6-3.1,1s-1.6-2-1-3.1
									C124.8,169.5,129.9,159.5,144.3,159.5"/>
								<path id="Fill-17" class="st8" d="M98.7,57c3.7-0.4,7.6-0.5,11.1,0.7s6.7,4,7.5,7.6c1,4.8-2.1,9.3-5.1,13.2
									c-4.3,5.6-8.6,11.1-12.9,16.7c-3.1,3.9-6.1,7.9-8,12.5c-1.6,3.9-2.3,8.1-2.7,12.3c-0.6,5.7-0.9,11.3-0.7,17
									c0,0.6,0,1.2-0.3,1.8s-1,0.9-1.6,1.2c-1.9,0.9-3.7,1.9-5.6,2.8C78,132.3,75.2,99.2,74,95.4c-2-6.6-3.3-13.4-4-20.3
									c-0.2-1.5-0.3-3.1,0.1-4.5c0.8-3.4,3.8-5.8,6.9-7.5C83.5,59.4,91.1,57.7,98.7,57"/>
								<path id="Fill-19" class="st8" d="M177.5,32.2c-0.4,0.1-0.7,0.3-0.9,0.5c-1.1,1.5,0.5,6.5,0.8,8.1
									c0.4,2.1,4.5,15.9,1.5,16.9c-3.5,1.2-6.7,4-7.5,7.6c-1,4.8,2.1,9.3,5.1,13.2c4.3,5.6,8.6,11.1,12.9,16.7
									c3.1,3.9,6.1,7.9,8,12.5c1.6,3.9,2.3,8.1,2.7,12.3c0.6,5.7,0.9,11.3,0.7,17c0,0.6,0,1.2,0.3,1.8s1,0.9,1.6,1.2
									c1.9,0.9,3.7,1.9,5.6,2.8l0.1-0.5c2.7-12.5,3.4-25.6,5-38.3c0.8-6.4,0.5-12.6,2.5-18.7c3.1-9.6,5.7-19.6,4.3-29.7
									c-0.5-3.8-1.6-7.5-3.8-10.6c-2.8-4-7.2-6.7-11.8-8.3s-9.5-2.2-14.3-2.8C188.1,33.7,180.3,31.5,177.5,32.2"/>
								<path id="Fill-21" class="st8" d="M184.1,24c-7.5-8.4-15.4-17.2-26-21.1c-12.3-4.6-25.9-1.9-38.6,1.3
									C112.4,6,105.2,8,99.4,12.4C93.1,17,89.1,24.1,83.8,29.8c-5.3,5.7-13.2,10.4-20.7,8.2c-0.7,6-1,12.2,0.3,18.1
									c3,13.2,14.4,23.4,27.1,27.9c12.8,4.5,26.8,4,40.1,1.8c13.2-2.2,26.4-6.1,36.8-14.5c9-7.2,15.3-17.3,19.7-28
									c1.6-3.8,2.9-7.9,1.8-11.9C188.1,28.6,186.1,26.2,184.1,24"/>
								<path id="Fill-23" class="st9" d="M144.3,145.2c-3.9,0-7.1-1.7-8.2-4c-0.3,0.5-0.5,1.1-0.5,1.6c0,3.1,3.9,5.7,8.7,5.7
									s8.7-2.5,8.7-5.7c0-0.6-0.3-1.1-0.5-1.6C151.4,143.5,148.2,145.2,144.3,145.2"/>
								<path id="Fill-25" class="st10" d="M113.2,144.8c0,5.5-4.5,9.9-10,9.9s-10-4.4-10-9.9s4.5-9.9,10-9.9
									C108.7,134.9,113.2,139.3,113.2,144.8"/>
								<path id="Fill-27" class="st10" d="M195.4,144.8c0,5.5-4.5,9.9-10,9.9s-10-4.4-10-9.9s4.5-9.9,10-9.9
									C190.9,134.9,195.4,139.3,195.4,144.8"/>
								<g id="Group-31" transform="translate(35.351876, 233.096573)">
									<g id="Clip-30">
									</g>
									<path id="Fill-29" class="st11" d="M214.9,18.3c-31.6-13.5-48-16.8-67.3-18c-3.4,7.9-19.4,13.8-38.6,13.8
										c-19.3,0-35.3-6-38.6-13.8C51,1.5,32.2,6.6,0.7,20.1c0,0,33.8,117.7,35.9,156.5c1.1,20.2,0.4,70.2-0.4,83.6h145.6
										c-0.9-13.4-1.5-63.4-0.4-83.6C183.4,137.8,214.9,18.3,214.9,18.3"/>
								</g>
								<g id="Group-34" transform="translate(35.351876, 233.096573)">
									<g id="Clip-33">
									</g>
									<path id="Fill-32" class="st12" d="M214.9,18.3c-31.6-13.5-48-16.8-67.3-18c-3.4,7.9-19.4,13.8-38.6,13.8
										c-19.3,0-35.3-6-38.6-13.8C51,1.5,32.2,6.6,0.7,20.1c0,0,33.8,117.7,35.9,156.5c1.1,20.2,0.4,70.2-0.4,83.6h145.6
										c-0.9-13.4-1.5-63.4-0.4-83.6C183.4,137.8,214.9,18.3,214.9,18.3"/>
								</g>
								<path id="Fill-35" class="st8" d="M98.1,108.4c-0.5,0-1-0.2-1.3-0.6c-0.7-0.7-0.7-1.9,0.1-2.6c0.1-0.1,10.9-10.2,24.9-2.1
									c0.9,0.5,1.2,1.7,0.7,2.6s-1.7,1.2-2.6,0.7c-11.6-6.7-20.4,1.5-20.4,1.6C99.1,108.3,98.6,108.4,98.1,108.4"/>
								<path id="Fill-37" class="st8" d="M190.5,108.4c-0.5,0-0.9-0.2-1.3-0.5c-0.4-0.3-9-8.3-20.4-1.6c-0.9,0.5-2,0.2-2.6-0.7
									c-0.5-0.9-0.2-2,0.7-2.6c13.9-8.1,24.8,2,24.9,2.1c0.7,0.7,0.8,1.9,0.1,2.6C191.5,108.2,191,108.4,190.5,108.4"/>
								<path id="Fill-39" class="st4" d="M135.9,295.7c-0.1-0.5-0.2-1-0.3-1.6c-0.9-8.4,0.5-14.5,0.4-22.8
									c-0.1-3.8-1.7-7.7-2.7-12.9c-0.8-4.2-6.8-8.2-8.4-3.9c-1.2,3.4,1,8,1.2,11.3c0.3,5.6-0.2,8.1-5,6c-4.5-2-6.3-5.6-7.1-10.7
									c-0.7-4.7-0.9-9.5,0.7-14.1c0.8-2.5,1.7-5,2-7.6c0.4-3.2-4.8-5.6-6.9-2.3c-3,4.7-4,10.7-4.3,13.5c-0.2,1.4-0.6,7.2-0.9,7.4
									c-0.3,0.1,0.7-9.1,0.8-10.4c0.3-6.5,1.6-10,1.8-13.9c0.2-5.6-6.6-3.2-8.3,0.9c-1.2,2.7-1.5,5.7-1.7,8.5
									c-0.2,2.9-0.2,5.8-0.1,8.7c0,1.5,0.1,3,0.3,4.5c0.1,1,0.6,4.3,0.1,4.6c0,0-1.4-9.6-1.3-8.9c0,0.2,0.3-7.3,0.2-9.3
									c-0.1-1.9-0.5-4.2-2.8-4.9c-2.4-0.8-4,2.9-4.4,4.9c-2.1,9.6,2.5,21.8,2,22.7c-0.7,1.2-2.5-13.9-5.5-13.9
									c-0.2,0-0.5,0-0.7,0.1c-4,0.9-1,11.5,1.4,17.6c2.3,5.8,3.8,9.1,6.6,13.3c3.9,5.9,8.2,10.5,15.2,12.9c3.5,1.2,6.3,2,9.1,4.6
									c1,0.9,1.4,3.3,2.5,3.7c0.6,1.1,1.3,2.4,2,3.7C126.8,303.8,131.4,299.9,135.9,295.7"/>
								<path id="Fill-41" class="st13" d="M252.3,251.8c-8.5-5-36.6,35.1-44.6,64.3c-4.4,15.9-6.5,29.4-8.1,40
									c-22.1-23.3-51.6-56.4-59.5-70c-9.3,1.4-30.7,16.1-30.7,16.1c10.2,17.5,59.4,101.1,71.4,114c8.4,9,17.2,13.3,25.2,14.1
									c0,0.1,0,0.1,0.1,0.2c27.1,10.8,46.9-48,58.5-117.4C267.6,295.1,271.7,263.3,252.3,251.8"/>
								<path id="Fill-43" class="st4" d="M143.2,437.7c0.5,0,1-0.1,1.6-0.1c8.3-1.2,13.9-4.1,22-6c3.7-0.9,7.9-0.3,13.2-0.6
									c4.2-0.3,9.6,4.6,5.8,7.2c-3,2-8,1-11.2,1.6c-5.5,1-7.8,2.2-4.6,6.3c3,3.9,7,4.8,12.1,4.2c4.7-0.5,9.4-1.5,13.5-4.1
									c2.2-1.4,4.4-2.9,6.9-3.9c3-1.2,6.6,3.3,3.9,6.1c-3.8,4-9.4,6.5-12,7.5c-1.3,0.5-6.8,2.4-6.9,2.7c-0.1,0.3,8.7-2.9,9.9-3.3
									c6.2-1.9,9.3-4,13-5.2c5.4-1.6,4.7,5.6,1.2,8.3c-2.3,1.8-5.1,2.8-7.8,3.7c-2.7,0.9-5.5,1.6-8.4,2.3
									c-1.5,0.3-2.9,0.6-4.4,0.8c-0.9,0.1-4.3,0.5-4.5,1c0,0,9.7-1,9-0.9c-0.2,0,7-2.1,9-2.4c1.8-0.3,4.2-0.5,5.4,1.5
									c1.4,2.1-1.8,4.6-3.6,5.5c-8.8,4.4-21.7,2.9-22.4,3.6c-1,1,14.1-1,14.8,1.9c0.1,0.2,0.1,0.5,0.1,0.7
									c0.1,4.1-10.9,3.8-17.4,3c-6.2-0.8-9.7-1.5-14.6-3.1c-6.7-2.3-12.2-5.3-16.3-11.6c-2-3.1-3.5-5.6-6.7-7.7
									c-1.1-0.7-3.5-0.5-4.2-1.5c-1.3-0.3-2.6-0.7-4.1-1C137.5,448.5,140.3,443.1,143.2,437.7"/>
								<path id="Fill-45" class="st13" d="M151.4,431.2c-13.2-3.7-64.1-24-88.9-35.9c-7.5-3.6-9.4-8.4-8.1-13.9
									c4.3-18.2,7.6-35,8-38.7c4.2-35.1-4.6-92.5-13.3-93.3c-11.1-1-31.7,13.9-35.6,43.3c-4.2,31.5-13,88.4-13,115.2
									c0,33,123.5,51.5,143,57C143.3,464.9,152.3,440.5,151.4,431.2"/>
							</g>
							<g id="Group-50" transform="translate(0.000000, 213.879195)">
								<g id="Clip-49">
								</g>
							</g>
							<g id="Group-53" transform="translate(105.069388, 181.107383)">
								<g id="Clip-52">
								</g>
							</g>
							<g id="Group-56" transform="translate(21.669388, 262.174497)">
								<g id="Clip-55">
								</g>
							</g>
							<g id="Group-59" transform="translate(46.506122, 163.859060)">
								<g id="Clip-58">
								</g>
							</g>
							<g id="Group-62" transform="translate(279.036735, 164.859060)">
								<g id="Clip-61">
								</g>
							</g>
							<g id="Group-65" transform="translate(300.706122, 248.298443)">
								<g id="Clip-64">
								</g>
							</g>
							<g id="Group-68" transform="translate(227.363265, 194.906040)">
								<g id="Clip-67">
								</g>
							</g>
							<g id="Group-71" transform="translate(294.538776, 191.456376)">
								<g id="Clip-70">
								</g>
							</g>
							<g id="Group-74" transform="translate(274.869388, 382.912752)">
								<g id="Clip-73">
								</g>
							</g>
							<g id="Group-77" transform="translate(263.534694, 439.832215)">
								<g id="Clip-76">
								</g>
							</g>
							<g id="Group-80" transform="translate(268.702041, 428.758389)">
								<g id="Clip-79">
								</g>
							</g>
						</g>
					</g>
				</g>
			</g>
			<g id="Group-7" transform="translate(173.000000, 108.000000)">
				<path id="Fill-1_2_" class="st14" d="M9,265.3C8.2,260.6,4.5,253,4.5,253s-3.7,7.6-4.4,12.3C0,265.7,0,266,0,266.3
					c0,2.5,2,4.5,4.5,4.5s4.5-2,4.5-4.5C9.1,266,9,265.7,9,265.3"/>
				<path id="Fill-3_2_" class="st14" d="M121.9,98.3c-0.7-4.7-4.4-12.3-4.4-12.3s-3.7,7.6-4.4,12.3c-0.1,0.3-0.1,0.6-0.1,1
					c0,2.5,2,4.5,4.5,4.5s4.5-2,4.5-4.5C122.1,99,122,98.7,121.9,98.3"/>
				<path id="Fill-3-Copy" class="st14" d="M37.9,92.2c-0.4-2.4-2.4-6.2-2.4-6.2s-2,3.9-2.4,6.2c0,0.2-0.1,0.3-0.1,0.5
					c0,1.3,1.1,2.3,2.5,2.3s2.5-1,2.5-2.3C38,92.5,38,92.4,37.9,92.2"/>
				<path id="Fill-5_1_" class="st14" d="M97.1,12.4C96.3,7.6,92.7,0,92.7,0S89,7.6,88.3,12.4c-0.1,0.3-0.1,0.6-0.1,1
					c0,2.5,2,4.5,4.5,4.5s4.5-2,4.5-4.5C97.2,13,97.1,12.7,97.1,12.4"/>
			</g>
		</g>
	</g>
</g>
</svg>
