<?xml version="1.0" encoding="utf-8"?>
<!-- Generator: Adobe Illustrator 22.1.0, SVG Export Plug-In . SVG Version: 6.00 Build 0)  -->
<svg version="1.1" id="Layer_1" xmlns="http://www.w3.org/2000/svg" xmlns:xlink="http://www.w3.org/1999/xlink" x="0px" y="0px"
	 viewBox="0 0 367 591" style="enable-background:new 0 0 367 591;" xml:space="preserve">
<style type="text/css">
	.st0{fill:#4D72D1;}
	.st1{fill:#3F4DC2;}
	.st2{fill:#FFC0BE;}
	.st3{fill:#FF8A91;}
	.st4{fill:#AB6C6C;}
	.st5{fill:#FFFFFF;}
	.st6{fill:#EFEFEF;}
	.st7{fill:#0F1E3F;}
	.st8{fill:#4476DC;}
	.st9{fill:#2657BD;}
	.st10{fill:#8CB2FF;}
	.st11{fill:#633131;}
	.st12{fill:#3E3E3E;}
	.st13{fill:#2A2A2A;}
	.st14{fill:#1E0315;}
	.st15{fill:#6A1A51;}
	.st16{fill:#D9D9D9;}
	.st17{fill:#7992E5;}
	.st18{fill:#58B8D2;}
	.st19{fill:#84E3DF;}
	.st20{fill:#0098B7;}
	.st21{fill:#CBCCFE;}
	.st22{fill:#FF9835;}
	.st23{opacity:0.2;fill:#FFFFFF;}
	.st24{fill:#EA8532;}
	.st25{opacity:0.4;}
	.st26{opacity:0.7;fill:#FE9933;enable-background:new    ;}
	.st27{fill:none;stroke:#FFF0DE;stroke-width:1.33;}
	.st28{fill:#0E131A;}
	.st29{fill:#866C57;}
	.st30{fill:#9E8979;}
	.st31{fill:#474849;}
	.st32{fill:#655141;}
	.st33{fill:#43362C;}
	.st34{fill:#B6A79A;}
	.st35{fill:#2B96F4;}
	.st36{fill:#0071D6;}
	.st37{opacity:0.49;fill:#0071D6;enable-background:new    ;}
	.st38{fill:#D1D3D4;}
	.st39{fill:#F1F2F2;}
	.st40{fill:#FCAE88;}
	.st41{opacity:0.32;fill:#B06D4D;enable-background:new    ;}
	.st42{fill:#720711;}
	.st43{fill:#B06D4D;}
	.st44{fill:#E6E7E8;}
	.st45{fill:#9D9E9F;}
	.st46{opacity:0.3;fill:#B06D4D;enable-background:new    ;}
	.st47{fill:#7DCC89;}
	.st48{opacity:0.18;fill:#268B85;enable-background:new    ;}
	.st49{fill:#7DB9B6;}
	.st50{opacity:0.18;fill:#B5B6B6;enable-background:new    ;}
	.st51{opacity:0.34;fill:#268B85;enable-background:new    ;}
	.st52{opacity:0.19;fill:#268B85;enable-background:new    ;}
	.st53{fill:#BD8366;}
	.st54{fill:#58595B;}
	.st55{fill:#2C2D2E;}
	.st56{fill:#231F20;}
	.st57{fill:#FAA284;}
	.st58{fill:#006ABA;}
	.st59{fill:#BBDEFB;}
	.st60{fill:#E5AB35;}
	.st61{fill:#26C7DB;}
	.st62{fill:#F7BD3C;}
	.st63{opacity:0.4;fill:#FFFFFF;enable-background:new    ;}
	.st64{fill:#2778C1;}
	.st65{fill:#1D69BC;}
	.st66{opacity:0.45;}
	.st67{fill:#FE9933;}
	.st68{fill:#F9AF6B;}
</style>
<title>Group 20</title>
<desc>Created with Sketch.</desc>
<path id="Fill-1" class="st0" d="M174,264c0,0,6.5-71.4,6.5-92.1c0-20.8,17.8-85.3,17.8-85.3l11.7-3.7l33.1,1.5l14.2-2.3l12.1,7.8
	L281,261.3c0,0-6.9,5-14.5,5.7C258.8,267.7,183.7,270,174,264"/>
<path id="Fill-3" class="st1" d="M247,66c0,0,10.6-7.1,13.3-17.8c2.7-10.7,1.4-20.2,1.4-20.2l-12.4,24.9L247,66z"/>
<path id="Fill-5" class="st2" d="M243.3,101.1c-4.7,6-14.4,11.2-19.1,7.8c-4.7-3.3-7.8-9.1-8.8-14.3c-1-5.2,0.4-14.5,0.4-14.5
	s0.3-1.4,0.7-3.5c0.1-0.5,0.2-1.1,0.3-1.8c0.1-0.4,0.1-0.8,0.2-1.2c0.4-2.6,0.8-5.5,0.8-7.8c0-5.6,26.6-1.5,26.6-1.5l0.9,5.4L246,74
	l0.3,1.9l0.6,3.3C246.9,79.4,248.1,95.1,243.3,101.1"/>
<path id="Fill-7" class="st3" d="M245,70.9c-3.2,3.9-9.2,10.7-13.3,12.6c-4.6,2.1-10.9-3.5-14.7-8.7c0.4-2.6,0.8-5.5,0.8-7.9
	c0-5.6,26.3-1.5,26.3-1.5L245,70.9z"/>
<path id="Fill-9" class="st2" d="M206.4,29.1c0,0,0,24.4,2.5,30.3s13.4,17.7,17.2,18.5c3.8,0.8,17.6-6.3,23.9-16.4
	c6.3-10.1,5-31.6,4.6-37.5S233.2,3.8,225.7,6.3c-7.6,2.5-18.5,2.5-19.3,8C205.5,19.8,206.4,29.1,206.4,29.1"/>
<path id="Fill-11" class="st0" d="M219.8,39.7c-0.1-0.2-0.3-0.4-0.5-0.5s-0.5-0.2-0.7-0.2c-0.3,0-0.5,0.1-0.7,0.2l0,0l0,0
	c-0.3,0.2-0.3,0.2-0.5,0.5c0,0,0,0.1-0.1,0.1c-0.1,0.2-0.2,0.5-0.2,0.7c0,0.1,0,0.3,0.1,0.4c0.1,0.2,0.2,0.5,0.4,0.6
	c0.1,0.1,0.3,0.2,0.5,0.3s0.4,0.1,0.6,0.1c0.2,0,0.4,0,0.6-0.1c0.2-0.1,0.3-0.2,0.5-0.3c0.2-0.2,0.3-0.4,0.4-0.6v-0.1
	c0.1-0.2,0.1-0.3,0.1-0.5C220,40.1,219.9,39.9,219.8,39.7"/>
<path id="Fill-13" class="st0" d="M236.9,39.1l-0.2-0.4c-0.1-0.1-0.2-0.2-0.3-0.3c-0.2-0.1-0.4-0.2-0.6-0.3
	c-0.2-0.1-0.3-0.1-0.5-0.1c-0.3,0-0.5,0-0.8,0c-0.2,0.1-0.3,0.1-0.5,0.2c-0.1,0.1-0.3,0.2-0.4,0.2c-0.2,0.1-0.3,0.3-0.3,0.4v-0.1
	l-0.1,0.1l0,0c-0.2,0.2-0.3,0.4-0.3,0.7c0,0.1,0,0.3,0.1,0.4c0.1,0.2,0.2,0.4,0.5,0.6c0.1,0.1,0.2,0.2,0.4,0.2
	c0.2,0.1,0.4,0.1,0.6,0.1c0.1,0,0.2,0.1,0.3,0.1l0,0l0,0l0,0c0,0,0,0,0.1,0h0.1c0,0,0,0-0.1,0c0.1,0,0.2,0,0.3,0
	c0.3,0,0.5-0.1,0.7-0.2c0.1-0.1,0.3-0.2,0.4-0.2c0.1-0.1,0.2-0.2,0.3-0.3c0.1-0.2,0.2-0.4,0.2-0.6C237,39.5,237,39.3,236.9,39.1"/>
<path id="Fill-15" class="st4" d="M220.9,33.6c-0.3-0.6-1.4-0.6-2-0.6c-0.7,0-1.3,0-2,0.1c-1.3,0.2-2.6,0.5-3.7,1.2
	c-0.4,0.2-0.1,0.8,0.3,0.7c1.1-0.4,2.3-0.6,3.5-0.7c0.6,0,1.2-0.1,1.7,0.1c0.3,0.1,0.6,0.1,0.9,0.2c0.5,0.1,0.8,0.1,1.2-0.2
	C221,34.1,221,33.8,220.9,33.6"/>
<path id="Fill-17" class="st4" d="M239.8,34c-1-0.6-2.2-0.9-3.4-1c-0.6-0.1-1.2,0-1.7,0c-0.3,0-0.6,0.1-1,0.1
	c-0.1,0-0.3,0.1-0.4,0.1c-0.1,0-0.1,0-0.2,0.1c0,0-0.2,0.1-0.1,0c-0.6,0.1-1.1,0.5-0.9,1.1c0.3,0.5,1,0.6,1.5,0.3
	c0.3-0.2,0.9-0.3,1.3-0.4c0.5-0.1,0.9-0.2,1.4-0.2c1,0,2.1,0.1,3,0.5C239.8,34.9,240.3,34.3,239.8,34"/>
<path id="Fill-19" class="st5" d="M237,59c-2.1,3.5-5.9,5.8-9.8,6c-3.7,0.1-8.1-1.8-10.2-5.2c3.1-0.4,6.2-0.5,9.3-0.6
	c1.8,0,3.7-0.1,5.5-0.1C232.5,59.1,236.7,59.4,237,59"/>
<path id="Fill-21" class="st4" d="M226.8,53.4c-1-0.3-2.6-0.8-3-1.8s0.8-2,1.6-2.5c0.5-0.3,1.1-0.7,1.2-1.3c0.2-0.7-0.2-1.4-0.3-2.2
	s-0.2-1.5-0.1-2.3c0-0.8,0.3-1.7,0.3-2.5c0-0.9-1.5-1.1-1.8-0.2c-0.3,0.8-0.2,1.9-0.2,2.7c0,0.9,0.1,1.8,0.2,2.8
	c0,0.3,0.1,0.7-0.1,1c-0.1,0.2-0.4,0.4-0.6,0.5c-0.7,0.4-1.2,0.9-1.5,1.5c-0.6,1.2-0.4,2.6,0.6,3.6s2.4,1.2,3.8,1.3
	C227.1,54,227.1,53.5,226.8,53.4"/>
<path id="Fill-23" class="st5" d="M249.1,54l-1.1-0.3c0.1-0.3,2.1-7.9,6.2-12.7l0.8,0.7C251.1,46.4,249.1,53.9,249.1,54"/>
<path id="Fill-25" class="st5" d="M251.8,56l-0.8-0.5c0,0,2.3-3.8,3-10.5l1,0.1C254.3,52,251.9,55.8,251.8,56"/>
<path id="Fill-27" class="st5" d="M206.4,52.4c0-0.1-1-6.9-1.4-12.3l1.2-0.1c0.4,5.3,1.8,12.9,1.8,13L206.4,52.4z"/>
<path id="Fill-29" class="st5" d="M207,53.3c0,0,6.6-3.6,17.1-5.9c10.5-2.3,23.3,4.3,28.8,8.7c0,0,0.6,3.4-3,9S237.7,82.3,228,80.9
	C221.3,79.9,207,69.9,207,53.3"/>
<path id="Fill-31" class="st6" d="M247,53.9c-1.7-0.5-4.6-2.4-8.1-3.5c-3.6-1.1-11.4-1.4-11.4-1.4s3.4,2.3,5.8,3.9
	c-3.6-0.6-7.9-1.3-8.2-1.2l8.3,3.1l2.8,0.5c0.8,0.9,1.4,2.1,2.3,4c1.6,3.5-1,9.7-3,13.4s-9.2,6.1-9.2,6.1s4.8,0.6,7.5-0.5
	c2.6-1.1,8-5.4,10.5-8.4s6.9-14.1,6.9-14.1S248.7,54.4,247,53.9"/>
<path id="Fill-33" class="st7" d="M221.4,45.7c-1.7,2.2-4.2,3.7-7,3.3c-2.6-0.4-4.9-2.4-5.6-5c-0.7-2.6,0.2-5.4,2.4-6.9
	s5-1.8,7.4-0.6C221.6,38.2,223.7,42.6,221.4,45.7L221.4,45.7z M222.7,37.5c-1-1.6-2.7-2.7-4.6-3.2c-3.6-1-8.1,0.3-10.1,3.7
	c-1.6,2.9-1.4,6.6,0.5,9.3c1,1.4,2.5,2.5,4.1,3.1c3.3,1.3,7.3-0.2,9.4-2.9c1.8-2.2,2.3-5.3,1.5-8.1
	C223.5,38.9,223.1,38.2,222.7,37.5L222.7,37.5z"/>
<path id="Fill-35" class="st7" d="M229.2,37.7c-0.3-0.1-0.6-0.3-1-0.4c-0.7-0.2-1.3-0.4-2.1-0.4c-1.3,0-2.8,0.2-3.9,1
	c-0.4,0.3-0.2,1,0.4,0.8c0.6-0.1,1.2-0.3,1.8-0.4c0.5-0.1,1.1-0.1,1.7,0c0.5,0,1.1,0,1.6,0.2c0.3,0.1,0.6,0.1,0.9,0.2
	c0.3,0.1,0.6,0.3,1,0.2c0.3-0.1,0.5-0.4,0.4-0.6C229.8,38,229.5,37.9,229.2,37.7"/>
<path id="Fill-37" class="st7" d="M243.4,45.9c-1.9,3.3-6.2,4.3-9.4,2.4c-3.1-1.8-4.5-6.2-2.4-9.2c1.9-2.7,5.7-3.5,8.7-2.4
	C244,38,245.3,42.6,243.4,45.9 M255.6,34c-2.1,0.2-4.1,0.9-6.1,1.6c-1.7,0.6-3.3,1.3-4.9,2.1c-1-1.5-2.4-2.7-4.3-2.9
	c-1.9-0.2-4.2-0.3-6.1,0.3c-5.2,1.8-6.8,8.2-3.6,12.4c1,1.4,2.4,2.4,4,3c3.2,1.2,7.2-0.2,9.4-2.8c2-2.5,2.4-6,1.1-9
	c1.7-0.4,3.3-0.9,4.9-1.4c2-0.7,4-1.4,5.7-2.5C256.1,34.6,256.1,34,255.6,34"/>
<path id="Fill-39" class="st7" d="M208.7,37.9c-0.3-0.2-0.6-0.4-0.9-0.5c-0.3-0.1-0.6-0.3-0.9-0.4c-0.3-0.2-0.6-0.3-0.9-0.4
	c-0.1-0.1-0.3-0.1-0.4-0.2c-0.1,0-0.2-0.1-0.2-0.1c-0.2-0.1-0.4-0.1-0.6-0.2c-0.3,0-0.7,0.3-0.8,0.5c-0.1,0.3-0.1,0.7,0.2,1
	c0.2,0.3,0.7,0.4,1,0.6c0.4,0.2,0.7,0.3,1.1,0.5c0.3,0.1,0.6,0.2,1,0.3s0.7,0.1,1.1,0.2c0.2,0,0.5-0.2,0.6-0.4
	C209,38.3,208.9,38.1,208.7,37.9"/>
<path id="Fill-41" class="st8" d="M261.5,40.3c-1.4,11.2-9.1,15.7-9.1,15.7s3.7-16.2,0.1-22c-0.7-1.2-1.7-2.3-2.8-3.4
	c-4.4-4.3-11.5-7.5-19-8.1c-9.4-0.7-18.9,0.4-22.8,6.9c-3.9,6.5-1.8,23-1.8,23c-6.4-4.3-7-23.8-5.2-30.8c1.8-6.9,7.3-15.7,19.7-19.9
	c12.3-4.1,26.4-0.4,33.6,4.5c2,1.3,3.5,3.6,4.7,6.5C262,20.4,262.6,32,261.5,40.3"/>
<path id="Fill-43" class="st9" d="M261.5,40.4c-1.4,11.1-8.9,15.6-8.9,15.6s3.6-16.1,0.1-21.9c-0.7-1.2-1.6-2.3-2.7-3.4
	c2,0.5,4.1,1.1,4.8,1.7c1.3,1.1,2.3,0.1,3.6-3.7c1.3-3.9,1.4-6.6,1.3-10c0-1.4-0.4-3.6-0.9-5.7C262,20.6,262.6,32.1,261.5,40.4"/>
<path id="Fill-45" class="st10" d="M239.6,22.3c-2.1-1.7-14-2.5-18.4-2.3c-4.4,0.3-12.1,4.3-14.9,9.1c-1.8,3.1-1.3,9.1-0.7,12.8
	c0-4.7,0.5-9.8,2.3-12.8c3.9-6.5,13.3-7.6,22.6-6.9c4.5,0.3,8.8,1.7,12.6,3.6C241.9,24.6,240.6,23.1,239.6,22.3"/>
<path id="Fill-47" class="st10" d="M220.4,1.8c-12.3,4.2-17.8,12.9-19.6,19.9c-1.1,4.2-1.3,13.1,0.2,20.3c0.2-7,0.7-17.8,1.3-20.3
	c1-3.7,7.3-11.3,8.7-12.6c1.4-1.2,6.1-2.8,6.1-2.8s-5,3.6-3.5,5.1s10.7-0.7,12.2-3.5s0.4-5.5,0.4-5.5s6.7-1.3,12.1-0.6
	c2.1,0.3,5,0.4,7.6,0.5C238.6-0.1,229.1-1.1,220.4,1.8"/>
<g id="Group-51" transform="translate(127.000000, 559.000000)">
	<g id="Clip-50">
	</g>
	<path id="Fill-49" class="st11" d="M125.9,3.4c0,0-3.7,6.6-4.4,8.9c-0.6,2.3-0.4,18.4-0.4,18.4s25.5,3.1,40.7-0.2
		c0,0-1-18.2-1.7-21.1c-0.6-2.9-4.2-8.9-4.2-8.9L125.9,3.4z"/>
</g>
<path id="Fill-52" class="st11" d="M218.8,562.5c0,0,1.6,26.9,1,27.1c-0.6,0.2-25.4,0.2-25.4,0.2l-1.2-3.3l-2,3.5
	c0,0-46.2,0-47.9-0.2c-1.6-0.2,2.5-14.4,7-16.2s25-4.7,25-4.7l8.2-9.9L218.8,562.5z"/>
<path id="Fill-54" class="st12" d="M227,266c0,0,0,1-0.1,3c-0.4,8.9-1.6,36.4-2.8,66.1l0,0c0,0.6-0.1,1.1-0.1,1.6l0,0
	c-1.3,30.5-2.7,62.9-3.5,79.5c-1.7,36.7,0,145.8,0,145.8s-23.1,4.9-41.2-1.1c0,0-4.2-148.8-5.1-199.5c-0.1-8.2-0.2-13.8-0.2-15.9
	c0.3-14.8,0-75.3,0-75.3L227,266z"/>
<path id="Fill-56" class="st12" d="M289,563.4c0,0-1.3,0.3-3.6,0.6c-5.9,0.8-18.4,1.9-33-0.3c-1.5-0.2-3-0.5-4.6-0.8
	c0,0-9.9-109.8-10.4-121.9c-0.2-5-4-35.5-8.2-69.4c-1.5-12.1-3.1-24.7-4.7-36.7l0,0c-0.1-0.6-0.2-1.2-0.3-1.8
	c-3.3-25.5-6.2-48.2-7.5-58.4c-0.2-1.4-0.3-2.5-0.4-3.4c-0.2-1.4-0.3-2.2-0.3-2.2h1l10.3-0.4h0.2l2.4-0.1l5.1-0.2l38.1-1.5
	c0,0,0,0.7,0.1,2.1c0,1.7,0.1,4.5,0.3,8.1c0.4,10.8,1,28.9,1.7,49.4c0,0.6,0,1.3,0.1,1.9c0,0.4,0,0.8,0,1.2
	c0.5,15.6,1.1,32.3,1.7,48c0.3,9.1,0.6,17.8,1,25.8c0.8,20.7,1.5,36.1,1.8,39.1C280.8,453.1,289,563.4,289,563.4"/>
<path id="Fill-58" class="st13" d="M278,404l-28.2-14.2l-0.5-6.6l-0.7-9.1l-7.2-0.8l-11.9-1.3c-1.5-12.1-3.1-24.7-4.6-36.7l0,0
	c-0.1-0.6-0.2-1.2-0.3-1.8l-7.7-36l-5.5,72c0,0-4.8-1.1-10.4-2.4c-7.6-1.7-16.9-3.7-18.5-3.7l-7.3-1.7c-0.1-8.2-0.2-13.9-0.1-15.9
	c0.3-14.9,0-75.5,0-75.5l52.7-4.3c0,0,0,1-0.1,3h0.2l2.4-0.1l5.1-0.2l37.9-1.5c0,0,0,0.7,0.1,2.2c0,1.7,0.1,4.5,0.3,8.2
	c0.4,10.8,1,29,1.7,49.5c0,0.6,0,1.3,0.1,1.9c0,0.4,0,0.8,0,1.2c0.5,15.6,1.1,32.4,1.7,48.1C277.4,387.3,277.7,396,278,404"/>
<path id="Fill-60" class="st14" d="M171,263.4c0,0,62.7,4.5,110-2.4v8.3c0,0-75.4,5.3-110,1.1V263.4z"/>
<path id="Fill-62" class="st15" d="M229.1,275.8l-13.9,0.2c-0.5,0-0.9-0.4-0.9-0.9l-0.2-13.9c0-0.5,0.4-0.9,0.9-0.9l13.9-0.2
	c0.5,0,0.9,0.4,0.9,0.9l0.2,13.9C230,275.3,229.6,275.7,229.1,275.8"/>
<polygon id="Fill-64" class="st5" points="228,272.8 217.2,273 217,262.2 227.8,262 "/>
<path id="Fill-66" class="st5" d="M209.6,217.4c-0.2,2.3-0.3,5.8-0.3,10.1c0,17.3,1.4,47.3,1.1,60.7c-0.3,16.7-11,85.6-11,85.6
	c-22.7,1.9-45.5-5.5-45.5-5.5s15.3-105,15.9-124.5c0.1-5.1,0.5-12.5,1-21.3c0.3-5.3,0.6-11.1,1-17.3c1.4-22.5,3.4-49.3,5.4-70.6
	c3.3-36.7,21.1-48.5,21.1-48.5s3.8,14.8,5.2,30.7s10.4,36.2,10.4,36.2s-1.7,27.7-3.1,47.4C210.4,207.8,209.9,214.2,209.6,217.4"/>
<path id="Fill-68" class="st16" d="M211,201c-0.5,7.5-1,13.8-1.3,17c-0.2,2.3-0.3,5.8-0.3,10c-8.1-1.1-28.1-3.6-38.4-5
	c0.3-5.3,0.6-11.1,1-17.2L211,201z"/>
<path id="Fill-70" class="st5" d="M299,369.8c-6.9,3.8-14.6,6.6-22.1,8.7c-10.9,3-21.3,4.4-27.7,5.1c-4.2,0.4-6.7,0.5-6.7,0.5
	s-0.5-4.2-1.2-10.4c-1.8-15.4-5.1-42.7-5.3-45.8c-0.1-2.4-0.2-29.1-0.7-56c0-0.9,0-1.7-0.1-2.5c0-0.6,0-1.2,0-1.8c0-1,0-1.9-0.1-2.8
	c-0.2-11-0.5-21.8-0.9-30.5c0-1.1-0.1-2.3-0.2-3.3c-0.2-4.6-0.5-8.6-0.8-11.5c-0.3-2.8-0.6-5.9-0.8-9.1c0-0.3,0-0.7-0.1-1
	c-0.2-3.1-0.4-6.3-0.5-9.5c-0.2-4.5-0.4-9.2-0.5-13.7c-0.1-2.3-0.1-4.5-0.1-6.6c-0.3-13.6-0.2-24.4-0.2-24.4l0,0l0,0c0,0,0,0,0-0.1
	c7.2-8.9,15.2-25.9,20.6-38.8c0.7-1.7,1.4-3.2,1.9-4.7c2.9-7.1,4.7-12,4.7-12l3.5-2.9l6.1-5.1l1.7-1.4l9.5,3.6c0,0-0.1,1.5-0.2,4.1
	V98c-0.5,8.9-1.5,29.1-2.1,42.7c-0.2,5.2-0.4,9.5-0.5,11.7c-0.1,2.7,0.5,10.1,1.5,20c0.1,1.5,0.3,3,0.4,4.6c0,0.3,0.1,0.6,0.1,0.9
	c0.1,1.4,0.3,2.8,0.4,4.3c0.1,0.8,0.2,1.6,0.3,2.5c0.1,0.6,0.1,1.3,0.2,1.9c0.8,7.8,1.7,16.2,2.5,24.7c0.3,2.4,0.5,4.9,0.7,7.3
	c0.1,1,0.2,1.9,0.3,2.9c0.1,1.2,0.2,2.3,0.3,3.5c0.6,5.7,1.1,11.3,1.6,16.5c0.9,9.9,1.5,18.4,1.7,24.1c0.1,2.8,0.3,6.5,0.7,10.6
	c0.3,3.3,0.7,6.9,1.1,10.8c0.2,1.6,0.3,3.2,0.5,4.9c0.1,1.4,0.3,2.7,0.5,4.1c0,0.3,0.1,0.6,0.1,1c0.2,1.7,0.4,3.4,0.6,5.2
	c0.1,1.1,0.3,2.2,0.4,3.3c0.2,1.6,0.4,3.2,0.6,4.8c0.2,1.6,0.4,3.2,0.6,4.9c0.4,2.8,0.7,5.6,1.1,8.4c0.1,0.4,0.1,0.8,0.2,1.3
	c0.2,1.3,0.4,2.7,0.5,4C296.2,350.9,299,369.8,299,369.8"/>
<g id="Clip-73">
</g>
<polygon id="Fill-72" class="st17" points="247,161 260,161 260,157 247,157 "/>
<path id="Fill-74" class="st16" d="M279.8,239.7l-21.1-7.5l16,14.8l-40.8-12.8c0-1.1-0.1-2.2-0.2-3.3c-0.2-4.6-0.5-8.5-0.8-11.5
	c-0.3-2.8-0.6-5.9-0.8-9.1c0-0.3,0-0.7-0.1-1c-0.2-3.1-0.4-6.3-0.5-9.5c-0.2-4.5-0.4-9.2-0.5-13.7l9.8-4.5l24.3-11.2l5.2-33.4
	l0.1,0.1l2.5,1.5l4.1,2.3c-0.2,5.2-0.4,9.5-0.5,11.7c-0.1,2.7,0.5,10.1,1.5,20c0.1,1.5,0.3,3,0.4,4.6c0,0.3,0.1,0.6,0.1,0.9
	c0.1,1.4,0.3,2.8,0.4,4.3c0.1,0.8,0.2,1.6,0.3,2.5c0.1,0.6,0.1,1.3,0.2,1.9c0.8,7.8,1.7,16.2,2.5,24.7c0.3,2.4,0.5,4.9,0.8,7.3
	c0.1,1,0.2,1.9,0.3,2.9c0.1,1.2,0.2,2.3,0.3,3.5c0.6,5.7,1.1,11.3,1.6,16.5L279.8,239.7z"/>
<path id="Fill-75" class="st16" d="M266,88l3,1.9c0,0-1.9,26.4-6.6,36.2l-5,1.4l1.7,4.7c0,0-15.8,16.5-29,22.8
	c0,0,14.9-14.6,21.3-34.6C257.7,100.4,266,88,266,88"/>
<path id="Fill-76" class="st5" d="M256.9,82l11.1,5.1c0,0-3.3,26.4-8,37.9l-6.7,0.5l2.5,5.8c0,0-11.1,13.5-25.8,23.6
	C230,155,258,106.1,256.9,82"/>
<path id="Fill-77" class="st16" d="M198.2,89c0,0-5.2,14.2-5.2,24.3s7.6,32.8,21,39.7l-8.2-22.9l-2.3-26.7L198.2,89z"/>
<path id="Fill-78" class="st5" d="M214,153c0,0-12.9-41.4-3.9-71l-11.4,3.7c0,0-5.4,19.9-3.2,31.4l5.9,3.3l-4.8,3
	C196.6,123.5,202.5,143.3,214,153"/>
<path id="Fill-79" class="st5" d="M293,324.2c-4.2,1.6-12.3,4.5-15.2,4.7c-0.7,0-1.6,0-2.6-0.2c-4.1-0.7-9.8-2.9-10.2-3.1l0,0
	c0,0-2.5-11.2-4.6-24.8c-1-6.7-2-14.1-2.4-20.9c0,0,7.6-1,15.5-2c5.1-0.7,10.4-1.4,13.8-1.9c0.3,3.3,0.7,6.9,1.1,10.7
	c0.2,1.6,0.3,3.2,0.5,4.8c0.1,1.4,0.3,2.7,0.5,4.1c0,0.3,0.1,0.6,0.1,1c0.2,1.7,0.4,3.4,0.6,5.2c0.1,1.1,0.3,2.2,0.4,3.3
	c0.2,1.6,0.4,3.2,0.6,4.8c0.2,1.6,0.4,3.2,0.6,4.8c0.4,2.8,0.7,5.6,1.1,8.4C292.9,323.4,292.9,323.8,293,324.2"/>
<path id="Fill-80" class="st5" d="M165.1,277H187c0,0-4.1,37.6-7.5,42.9c-3.4,5.2-17.5,4-17.5,4L165.1,277z"/>
<path id="Fill-81" class="st16" d="M293,329.1c-6.5,0.9-16.3,2.2-17.7,1.9c-0.1,0-0.2-0.1-0.3-0.1c-2.4-0.6-8.2-1.9-10.2-4.3l0,0
	c-2-2.5-4.8-25.9-4.8-25.9s0.1,0.3,0.2,0.8c1,4,5.3,22,6.1,23.5c0.6,1.1,5.5,2.3,8.6,2.9c1.4,0.3,2.3,0.4,2.3,0.4l10.6-6.3
	l-2.7-14.4l-6.6-2.8l9-9.1l0.4-8.6c0.2,1.6,0.3,3.2,0.5,4.9c0.1,1.4,0.3,2.7,0.5,4.1c0,0.3,0.1,0.6,0.1,1c0.2,1.7,0.4,3.5,0.6,5.2
	c0.1,1.1,0.3,2.2,0.4,3.3c0.2,1.6,0.4,3.2,0.6,4.9c0.2,1.6,0.4,3.3,0.6,4.9c0.4,2.8,0.7,5.7,1.1,8.5c0.1,0.4,0.1,0.8,0.2,1.3
	C292.6,326.4,292.8,327.7,293,329.1"/>
<path id="Fill-82" class="st16" d="M184,297c0,0-1.6,21.8-4.6,24.5S162,324,162,324l0.4-2.8c0,0,12.9,1.9,15.4-1.9
	C180.2,315.5,184,297,184,297"/>
<polygon id="Fill-83" class="st16" points="177,276.1 185.4,276.8 185.9,285 187,275 "/>
<path id="Fill-84" class="st15" d="M222.9,127c0,0-10.3,49.8-11.9,71.4c0,0,0.9,30.7,7.5,43.5c0,0,12.1-33.3,12.5-44.8l-2.2-70.2
	C228.8,127,225.2,124.7,222.9,127"/>
<path id="Fill-85" class="st15" d="M220,110.9c0,0,1.2,11.6,3.2,17.1c0,0,2.8-0.8,5.7,0c0,0,6.5-11,7.1-16.3s-6.7-6.7-6.7-6.7
	l-8.5,2L220,110.9z"/>
<path id="Fill-86" class="st17" d="M229,104.4c0,0,4.5,4.9,7.3,10.6c0,0,19.5-12.6,20.7-32.9L246.1,78
	C246.1,78,243.6,95.1,229,104.4"/>
<path id="Fill-87" class="st17" d="M229,104.4c0,0-7.4,1.6-10.5,10.6c0,0-9.1-12.5-8.5-32.1l6.2-4.9C216.3,78,215,97.5,229,104.4"/>
<path id="Fill-88" class="st5" d="M233,208.7c0,0-7.3,1.2-17,2.6c-10.5,1.6-23.7,3.6-33.1,4.7c-18.1,2.2-32.3-0.3-32.3-0.3
	s-9-16.2-9.6-21.5c-0.6-5.2,23.3-87.7,28.5-96.3c0,0,15.3-8.8,28.5-12.1c0,0-9.8,13-15.3,29.3c-1,3-1.9,6.1-2.5,9.2
	c-4.1,20.4-6.3,65.7-6.3,65.7s47.2-5.1,54-6.5l2.3,11.2L233,208.7z"/>
<path id="Fill-89" class="st16" d="M158,206.9c0,0,31.4-0.5,52.1-4.9l6.9,4.9C217,206.9,176,211.6,158,206.9"/>
<path id="Fill-90" class="st16" d="M234,208.3c0,0-7.5,1.2-17.3,2.7l-6.7-9.4l16.5-8.6l4.6,1.4L234,208.3z"/>
<path id="Fill-91" class="st16" d="M183,115.5c-1,2.9-1.9,6-2.6,9.2c-4.2,20.2-6.4,65.3-6.4,65.3s-10.9-1.1-17,0l8.5-5.8l-4.3-15.3
	l7.2-0.5c0,0,1.7-41,14.4-59.4L183,115.5z"/>
<path id="Fill-92" class="st18" d="M222,180.7l-9,15.4l-1.1,1.9c0,0-13.2-4.4-17.9-5.9c-4.1-1.3-11.7-2-13.6-2.2c-0.3,0-0.4,0-0.4,0
	s1.4-1.4,3.5-3.3c3.6-3.2,9.3-7.9,13.8-9.1c6-1.8,19.1,1.6,23.3,2.8C221.5,180.6,222,180.7,222,180.7"/>
<path id="Fill-93" class="st19" d="M220,180.1l-0.7,1.1c0,0-12.1-3.7-17.9-3.5c-5.8,0.2-18.5,8.3-18.5,8.3c3.6-3,9.2-7.3,13.8-8.5
	C202.7,175.8,215.8,179,220,180.1"/>
<path id="Fill-94" class="st20" d="M214,184l-1.7,11.2l-1.1,1.8c0,0-13-4.3-17.7-5.7c-4.1-1.2-11.6-1.9-13.4-2.1
	c3-0.9,7.7-2.4,10.4-2.8c4.1-0.6,15.1,0.6,15.1,0.6L214,184z"/>
<path id="Fill-95" class="st5" d="M294.7,103.5C290.6,98,278.8,93,278.8,93c-3,3.3-8.7,21.2-9,35.5c-0.2,9.4,1.9,31.3,3.3,45.1
	c0.7,7.1,1.3,12.1,1.3,12.1c-5.5,0.1-12.8-0.7-20.1-1.9c-15.7-2.5-31.6-6.6-31.6-6.6s-8.7,3.6-10.9,6.9c-2.2,3.3-1.9,18.1-1.9,18.1
	s12.6,4.4,28.4,10.2s52.7,11.3,56,9.4c3.3-1.9,12.6-14,12.6-15.4C307,204.8,298.8,109,294.7,103.5"/>
<path id="Fill-96" class="st16" d="M285.8,172c0,0,6.6,2.2,7.2,3.6c0.6,1.4-8.4,12.4-8.4,12.4l-2.6-9.5L285.8,172z"/>
<path id="Fill-97" class="st16" d="M242,210.2c0,0,42.4,1.3,47.7,0c5.3-1.3,14.3-4.2,14.3-4.2s-5.5,9.3-6.3,9.3s-13.7,1.3-13.7,1.3
	l9.9,1l-2.7,1.4C291.1,219,253.7,215.2,242,210.2"/>
<path id="Fill-98" class="st16" d="M271.1,118c0,0,1.9-15.8,8.9-22C280,96,270.2,101.2,271.1,118"/>
<path id="Fill-99" class="st14" d="M216,75c-0.1,0.6-0.2,1.2-0.3,1.8c-23.7,10-20,61.6-19.9,62.1l-1.5,0.1
	C194.1,136.7,190.4,84.5,216,75"/>
<path id="Fill-100" class="st14" d="M251.1,135l-1.5-0.2c0-0.4,5.2-41.1,3.5-47.8c-1.1-4.7-3.4-8.1-6.9-10.2L246,75
	c0.3,0.2,0.6,0.3,0.9,0.5c3.9,2.3,6.4,6,7.7,11.2C256.3,93.6,251.3,133.3,251.1,135"/>
<path id="Fill-101" class="st14" d="M255,138.5c0,3-2.5,5.5-5.5,5.5s-5.5-2.5-5.5-5.5s2.5-5.5,5.5-5.5S255,135.5,255,138.5"/>
<path id="Fill-102" class="st5" d="M252,139c0,1.7-1.3,3-3,3s-3-1.3-3-3s1.3-3,3-3S252,137.3,252,139"/>
<path id="Fill-103" class="st14" d="M188.5,164c-0.1-0.7-2.2-17.4,2.8-23.7c1.1-1.4,2.5-2.2,4.2-2.3c3.1-0.1,5.7,1,7.6,3.1
	c5.9,6.6,3.4,21.6,3.3,22.2l-1.5-0.2c0-0.1,2.4-14.9-3-21c-1.6-1.8-3.7-2.7-6.3-2.6c-1.2,0.1-2.2,0.7-3.1,1.8
	c-4.6,5.7-2.5,22.4-2.5,22.5L188.5,164z"/>
<path id="Fill-104" class="st14" d="M192,164.5c0,1.4-1.1,2.5-2.5,2.5s-2.5-1.1-2.5-2.5s1.1-2.5,2.5-2.5S192,163.1,192,164.5"/>
<path id="Fill-105" class="st14" d="M207,164.5c0,1.4-1.1,2.5-2.5,2.5s-2.5-1.1-2.5-2.5s1.1-2.5,2.5-2.5S207,163.1,207,164.5"/>
<path id="Fill-106" class="st14" d="M195.7,132c-0.8,0-1.5-0.6-1.6-1.4c-0.4-4.5,0.6-14.7,0.7-15.1c0.1-0.9,0.9-1.5,1.8-1.4
	c0.9,0.1,1.5,0.9,1.4,1.7c0,0.1-1.1,10.4-0.7,14.5C197.4,131.2,196.7,131.9,195.7,132C195.8,132,195.7,132,195.7,132"/>
<path id="Fill-107" class="st18" d="M285.9,182.2c-0.1,0.8-0.5,1.8-0.8,2.7c-0.6,1.6-1.3,3.1-1.3,3.1s-4.4-2.1-10.1-2.6
	c-2.8,0-6-0.2-9.5-0.5l0,0c-3.1-0.3-6.4-0.8-9.7-1.3c-0.5-0.1-1-0.2-1.5-0.2c2.1-1.6,11.3-8.7,19.3-10.6h0.1
	c9.1-2.2,11-1.8,11.8-1.5c0.7,0.2,1.1,0.8,1.2,1.6c0,0.2,0,0.3,0,0.5c0,0.4-0.1,1-0.2,1.4c-0.2,0.7-0.4,1.2-0.4,1.2l0,0
	C285,176.3,286.3,179.9,285.9,182.2"/>
<path id="Fill-108" class="st19" d="M286,173.7c-2.6,0.1-13.3,0.4-16.2,1.3c-2.7,0.8-11.7,6.7-15.3,9c-0.5-0.1-1-0.1-1.5-0.2
	c2.1-1.6,11.5-8.3,19.7-10.1h0.1c9.2-2.1,11.2-1.7,12-1.4C285.5,172.4,285.9,172.9,286,173.7"/>
<path id="Fill-109" class="st20" d="M286,175c-0.2,0.6-0.4,1.2-0.4,1.2l0,0c-1.2,0.1-4.1,0.3-5.8,0.9c-1.9,0.6-4.5,1.8-4.8,1.9
	c0.4-0.3,3.5-2.9,6.3-3.4C282.9,175.3,284.6,175.1,286,175"/>
<path id="Fill-110" class="st20" d="M286,184.9c-0.6,1.7-1.3,3.1-1.3,3.1s-4.5-2.1-10.1-2.7c-2.8,0-6.1-0.2-9.5-0.5
	c2.4-0.4,8.8-1.5,10.9-2.3c2.6-1,7.4-1.6,7.4-1.6l0.8,0.4l-4.8,2.8c0,0,2.2,0,3.8,0.1C283.8,184.4,284.9,184.6,286,184.9"/>
<path id="Fill-111" class="st21" d="M299,173.3c0,0.3,0,0.7,0,1c-0.2,28.6-9.1,57.9-24.9,82.3c-7,10.9-15.2,20.4-24.3,28.4H240
	c1.7-1.2,3.4-2.5,5-3.9c10.4-8.5,19.7-19,27.6-31.2c15.9-24.5,24.7-53.7,24.9-82.3c0-0.3,0-0.7,0-1c0-5.2-0.3-10.5-0.9-15.6
	c0.4,0.4,0.7,0.9,0.8,1.5C298.5,159.3,299,166.3,299,173.3"/>
<path id="Fill-112" class="st22" d="M297,166.6c0,0.3,0,0.7,0,1c-0.2,28.5-9,57.7-24.7,82c-7.8,12.1-17,22.6-27.4,31.1
	c-10.2,8.3-21.1,14.5-32.6,18.4c-0.7,0.3-1.5,0.5-2.2,0.7c-0.1,0-0.2,0.1-0.3,0.1c-0.2,0-0.4,0-0.6,0c-0.3,0-0.6,0-0.9-0.1
	c-12.3-3.8-24-10.2-34.9-19.1c-10.4-8.5-19.6-18.9-27.5-31.1c-15.8-24.4-24.7-53.5-24.9-82c0-0.3,0-0.7,0-1c0-6.9,0.5-13.9,1.5-20.7
	c0.2-1.4,1.5-2.4,3-2.4c0.8,0,1.6,0,2.5,0c27.4,0,58.4-15.6,78.8-39.6c0.4-0.5,0.9-0.8,1.5-0.9c0.3-0.1,0.5-0.1,0.8-0.1
	c0.9,0,1.7,0.4,2.3,1.1c0.7,0.9,1.4,1.8,2.2,2.6c3.1,3.6,6.6,7,10.3,10.2c18.9,16.4,44.6,26.7,68.3,26.7c0.2,0,0.4,0,0.6,0
	c1.5,0,2.7,1,2.9,2.4c0.1,0.4,0.1,0.9,0.2,1.3c0.2,1.2,0.3,2.5,0.5,3.8C296.7,156.2,297,161.4,297,166.6"/>
<path id="Fill-113" class="st5" d="M286.6,169.3c-0.4,53.7-33.4,104.4-76.9,118.4c-43.7-14-76.8-64.7-77.2-118.4c0-0.3,0-0.6,0-0.9
	c0-5.5,0.4-10.9,1.1-16.3c13.7,0,28.4-3.8,42.5-11c6.7-3.4,13.2-7.6,19.2-12.3c5.2-4,9.9-8.5,14.2-13.1
	c9.1,10.5,20.9,19.4,34.4,25.9c7,3.4,14.3,6,21.6,7.8c6.8,1.7,13.5,2.6,20.1,2.7c0.7,5.4,1.1,10.9,1.1,16.4
	C286.6,168.7,286.6,169,286.6,169.3 M290.6,149.1c-0.2-1.3-1.3-2.2-2.7-2.2c-0.2,0-0.4,0-0.5,0c-27.6,0-58-14.8-75.7-36.9
	c-0.5-0.6-1.3-1-2.1-1s-1.6,0.3-2.1,1c-19.2,22.5-48.2,37-73.9,37c-0.8,0-1.5,0-2.3,0c-1.4,0-2.6,0.9-2.8,2.2
	c-1,6.3-1.4,12.8-1.4,19.3c0,0.3,0,0.6,0,1c0.2,26.6,8.5,53.8,23.3,76.6c7.4,11.3,16,21.1,25.8,29c10.2,8.3,21.2,14.3,32.7,17.9
	c0.3,0.1,0.6,0.1,0.8,0.1c0.3,0,0.6,0,0.8-0.1c11.5-3.6,22.5-9.6,32.7-17.9c9.7-7.9,18.3-17.7,25.7-29c14.8-22.8,23-50,23.2-76.6
	c0-0.3,0-0.6,0-1C292,161.9,291.5,155.4,290.6,149.1"/>
<path id="Fill-114" class="st23" d="M297,166.6c0,0.3,0,0.7,0,1c-0.2,28.5-9,57.7-24.8,82c-7.8,12.1-17.1,22.6-27.5,31.1
	c-2.5,2-5,3.9-7.6,5.7c-8.7,6-17.8,10.5-27.3,13.4c-0.3,0.1-0.6,0.1-0.9,0.1c-0.1,0-0.3,0-0.4,0c-0.2,0-0.3-0.1-0.5-0.1V103
	c0.3-0.1,0.5-0.1,0.8-0.1c0.9,0,1.7,0.4,2.3,1.1c18.9,23.6,51.4,39.5,80.9,39.5c0.2,0,0.4,0,0.6,0c1.5,0,2.7,1,2.9,2.4
	C296.5,152.7,297,159.7,297,166.6"/>
<path id="Fill-1_1_" class="st22" d="M57.5,312h6c-0.7-5.3-0.7-10.7,0-16h-6C58.2,301.3,58.2,306.7,57.5,312"/>
<path id="Fill-3_1_" class="st22" d="M38,318l5.5-3c-3.4-4.3-6.3-9-8.5-14l-5.5,3C32.9,308.4,35.8,313,38,318"/>
<path id="Fill-5_1_" class="st22" d="M25.5,334l3-5.5c-5-2.2-9.6-5-14-8.5l-3,5.5C16.5,327.8,21.1,330.6,25.5,334"/>
<path id="Fill-7_1_" class="st22" d="M21.5,353v-6c-5.7,0.7-11.3,0.7-17,0v6C10.2,352.3,15.8,352.3,21.5,353"/>
<path id="Fill-9_1_" class="st22" d="M28.5,372.5l-3-5.5c-4.3,3.4-9,6.2-14,8.5l3,5.5C18.9,377.6,23.5,374.7,28.5,372.5"/>
<path id="Fill-11_1_" class="st22" d="M43.5,385l-5.5-3c-2.2,5-5,9.6-8.5,14l5.5,3C37.2,394,40.1,389.4,43.5,385"/>
<path id="Fill-13_1_" class="st22" d="M63.5,389h-6c0.7,5.3,0.7,10.7,0,16h6C62.8,399.7,62.8,394.3,63.5,389"/>
<path id="Fill-15_1_" class="st22" d="M83,382l-5.5,3c3.4,4.3,6.3,9,8.5,14l5.5-3C88.1,391.6,85.3,387,83,382"/>
<path id="Fill-17_1_" class="st22" d="M95.6,367l-3.1,5.5c5,2.2,9.6,5,14,8.5l3-5.5C104.5,373.3,99.9,370.4,95.6,367"/>
<path id="Fill-19_1_" class="st22" d="M99.5,347v6c5.7-0.7,11.3-0.7,17,0v-6C110.8,347.7,105.2,347.7,99.5,347"/>
<path id="Fill-21_1_" class="st22" d="M92.5,328.5l3,5.5c4.3-3.4,9-6.3,14-8.5l-3-5.5C102.1,323.4,97.5,326.3,92.5,328.5"/>
<path id="Fill-23_1_" class="st22" d="M77.5,314.9L83,318c2.2-5,5-9.6,8.5-14l-5.5-3C83.8,306,80.9,310.6,77.5,314.9"/>
<path id="Fill-25_1_" class="st22" d="M104.5,350.5c0,24-19.7,43.5-44,43.5s-44-19.5-44-43.5s19.7-43.5,44-43.5
	S104.5,326.5,104.5,350.5"/>
<path id="Fill-27_1_" class="st22" d="M104.5,350.5c0,5.2-0.9,10.2-2.6,14.9c-1.1,2.9-2.5,5.7-4.1,8.3c-5.4,8.5-13.7,15-23.5,18.1
	c-4.3,1.4-8.9,2.2-13.7,2.2c-24.3,0-44-19.5-44-43.5c0-4.7,0.8-9.3,2.2-13.6c3.2-9.7,9.8-17.9,18.3-23.2c2.6-1.7,5.5-3,8.4-4.1
	c4.7-1.7,9.8-2.6,15-2.6C84.8,307,104.5,326.5,104.5,350.5"/>
<path id="Fill-29_1_" class="st22" d="M76.5,378.1c0,4.8-0.8,9.4-2.2,13.7c-4.3,1.4-8.9,2.2-13.7,2.2c-24.3,0-44.1-19.7-44.1-44.1
	c0-4.8,0.8-9.4,2.2-13.7c4.3-1.4,8.9-2.2,13.7-2.2C56.8,334,76.5,353.7,76.5,378.1"/>
<path id="Fill-31_1_" class="st23" d="M104.5,349.8c0,5.3-0.9,10.3-2.6,15c-1.1,3-2.5,5.8-4.1,8.4C91,377.5,83,380,74.4,380
	c-24.2,0-43.8-19.6-43.8-43.8c0-8.6,2.5-16.6,6.8-23.4c2.6-1.7,5.4-3.1,8.4-4.1c4.7-1.7,9.7-2.6,15-2.6
	C84.9,306,104.5,325.6,104.5,349.8"/>
<path id="Fill-33_1_" class="st22" d="M70.5,325.5c0,1.9-1.6,3.5-3.5,3.5s-3.5-1.6-3.5-3.5s1.6-3.5,3.5-3.5S70.5,323.6,70.5,325.5"
	/>
<path id="Fill-35_1_" class="st22" d="M95.5,357.5c0,1.9-1.6,3.5-3.5,3.5s-3.5-1.6-3.5-3.5s1.6-3.5,3.5-3.5S95.5,355.6,95.5,357.5"
	/>
<path id="Fill-37_1_" class="st22" d="M37.5,347.5c0,3.6-2.9,6.5-6.5,6.5s-6.5-2.9-6.5-6.5s2.9-6.5,6.5-6.5S37.5,343.9,37.5,347.5"
	/>
<path id="Fill-39_1_" class="st22" d="M74.5,339c0,2.8-2.2,5-5,5s-5-2.2-5-5s2.2-5,5-5S74.5,336.2,74.5,339"/>
<path id="Fill-41_1_" class="st22" d="M81.5,376.5c0,1.4-1.1,2.5-2.5,2.5s-2.5-1.1-2.5-2.5s1.1-2.5,2.5-2.5S81.5,375.1,81.5,376.5"
	/>
<path id="Fill-43_1_" class="st22" d="M49.5,327c0,3.3-2.7,6-6,6s-6-2.7-6-6s2.7-6,6-6S49.5,323.7,49.5,327"/>
<path id="Fill-45_1_" class="st22" d="M60.5,317.5c0,1.4-1.1,2.5-2.5,2.5s-2.5-1.1-2.5-2.5s1.1-2.5,2.5-2.5S60.5,316.1,60.5,317.5"
	/>
<path id="Fill-47_1_" class="st22" d="M91.5,329.5c0,1.4-1.1,2.5-2.5,2.5s-2.5-1.1-2.5-2.5s1.1-2.5,2.5-2.5S91.5,328.1,91.5,329.5"
	/>
<path id="Fill-49_1_" class="st22" d="M55.5,374c0,3.3-2.7,6-6,6s-6-2.7-6-6s2.7-6,6-6S55.5,370.7,55.5,374"/>
<path id="Fill-51" class="st22" d="M98.5,338.5c0,1.4-1.3,2.5-3,2.5s-3-1.1-3-2.5s1.3-2.5,3-2.5S98.5,337.1,98.5,338.5"/>
<path id="Fill-53" class="st22" d="M69.5,294c0,2.2-4.3,4-9.5,4s-9.5-1.8-9.5-4s4.3-4,9.5-4S69.5,291.8,69.5,294"/>
<path id="Fill-55" class="st22" d="M65.5,294c0,1.1-2.5,2-5.5,2s-5.5-0.9-5.5-2s2.5-2,5.5-2S65.5,292.9,65.5,294"/>
<path id="Fill-57" class="st22" d="M69.5,405c0,2.2-4.3,4-9.5,4s-9.5-1.8-9.5-4s4.3-4,9.5-4S69.5,402.8,69.5,405"/>
<path id="Fill-59" class="st22" d="M65.5,405c0,1.1-2.5,2-5.5,2s-5.5-0.9-5.5-2s2.5-2,5.5-2S65.5,403.9,65.5,405"/>
<path id="Fill-61" class="st22" d="M97.2,306.8c-1.2,2-5.8,1.4-10.3-1.2c-4.5-2.7-7.3-6.4-6.1-8.4c1.2-2,5.8-1.4,10.3,1.2
	S98.4,304.8,97.2,306.8"/>
<path id="Fill-63" class="st22" d="M93.4,304.4c-0.6,1.1-3.3,0.7-6-0.9s-4.4-3.8-3.7-4.9c0.6-1.1,3.3-0.7,6,0.9
	C92.3,301.1,94,303.3,93.4,304.4"/>
<path id="Fill-65" class="st22" d="M40.2,402.8c-1.2,2-5.8,1.4-10.3-1.2c-4.5-2.7-7.3-6.4-6.1-8.4s5.8-1.4,10.3,1.2
	C38.7,397.1,41.4,400.8,40.2,402.8"/>
<path id="Fill-67" class="st22" d="M36.4,400.4c-0.6,1.1-3.3,0.7-6-0.9s-4.4-3.8-3.7-4.9c0.6-1.1,3.3-0.7,6,0.9
	C35.3,397.1,37,399.3,36.4,400.4"/>
<path id="Fill-69" class="st22" d="M114.2,330.8c-2,1.1-5.8-1.7-8.4-6.2c-2.6-4.6-3.1-9.2-1-10.3c2-1.1,5.8,1.7,8.4,6.2
	S116.3,329.6,114.2,330.8"/>
<path id="Fill-71" class="st22" d="M111.9,327.9c-1.1,0.6-3.3-1.1-4.9-3.8c-1.6-2.7-2-5.4-0.8-6c1.1-0.6,3.3,1.1,4.9,3.8
	C112.6,324.6,113,327.3,111.9,327.9"/>
<path id="Fill-73" class="st22" d="M16.2,384.8c-2,1.1-5.8-1.7-8.4-6.2c-2.6-4.6-3.1-9.2-1-10.3c2-1.1,5.8,1.7,8.4,6.2
	S18.3,383.6,16.2,384.8"/>
<path id="Fill-75_1_" class="st22" d="M13.9,381.9c-1.1,0.6-3.3-1.1-4.9-3.8c-1.6-2.7-2-5.4-0.8-6c1.1-0.6,3.3,1.1,4.9,3.8
	C14.6,378.6,15,381.3,13.9,381.9"/>
<path id="Fill-77_1_" class="st22" d="M116.3,360c-2.2,0-3.9-4.3-3.8-9.6c0.1-5.2,2-9.5,4.2-9.4c2.2,0,3.9,4.3,3.8,9.6
	C120.4,355.8,118.5,360,116.3,360"/>
<path id="Fill-79_1_" class="st22" d="M116.4,356c-1.1,0-2-2.5-1.9-5.5s1-5.5,2.1-5.5s2,2.5,1.9,5.5
	C118.4,353.6,117.5,356,116.4,356"/>
<g id="Group-83" transform="translate(0.500000, 48.000000)">
	<g id="Clip-82">
	</g>
	<path id="Fill-81_1_" class="st22" d="M3.8,310c-2.2,0-3.9-4.4-3.8-9.6c0.1-5.3,2-9.5,4.2-9.4s3.9,4.4,3.8,9.6
		C7.9,305.8,6,310,3.8,310"/>
</g>
<path id="Fill-84_1_" class="st22" d="M4.4,354c-1.1,0-2-2.5-1.9-5.5s1-5.5,2.1-5.5s2,2.5,1.9,5.5C6.4,351.6,5.5,354,4.4,354"/>
<path id="Fill-86_1_" class="st22" d="M103.7,385.7c-2-1.1-1.5-5.7,1.1-10.3c2.6-4.6,6.4-7.3,8.4-6.2c2,1.1,1.5,5.7-1.1,10.3
	C109.5,384.1,105.7,386.9,103.7,385.7"/>
<path id="Fill-88_1_" class="st22" d="M106.1,381.9c-1.1-0.6-0.7-3.3,0.9-6s3.8-4.4,4.9-3.8s0.7,3.3-0.9,6
	C109.4,380.8,107.2,382.5,106.1,381.9"/>
<path id="Fill-90_1_" class="st22" d="M6.7,330.7c-2-1.1-1.5-5.7,1.1-10.3c2.6-4.6,6.4-7.3,8.4-6.2c2,1.1,1.5,5.7-1.1,10.3
	C12.5,329.1,8.7,331.9,6.7,330.7"/>
<path id="Fill-92_1_" class="st22" d="M9.1,326.9c-1.1-0.6-0.7-3.3,0.9-6s3.8-4.4,4.9-3.8s0.7,3.3-0.9,6
	C12.4,325.8,10.2,327.5,9.1,326.9"/>
<path id="Fill-94_1_" class="st22" d="M80.8,402.8c-1.2-2,1.6-5.7,6.1-8.4c4.5-2.7,9.2-3.2,10.3-1.3c1.2,2-1.6,5.7-6.1,8.4
	C86.6,404.2,81.9,404.8,80.8,402.8"/>
<path id="Fill-96_1_" class="st22" d="M83.6,400.4c-0.6-1.1,1-3.3,3.7-4.9s5.4-2,6-1c0.6,1.1-1,3.3-3.7,4.9
	C86.9,401.1,84.3,401.5,83.6,400.4"/>
<path id="Fill-98_1_" class="st22" d="M23.8,306.8c-1.2-2,1.6-5.7,6.1-8.4c4.5-2.7,9.2-3.2,10.3-1.3c1.2,2-1.6,5.7-6.1,8.4
	C29.6,308.2,24.9,308.8,23.8,306.8"/>
<path id="Fill-100_1_" class="st22" d="M26.6,304.4c-0.6-1.1,1-3.3,3.7-4.9s5.4-2,6-1c0.6,1.1-1,3.3-3.7,4.9S27.3,305.5,26.6,304.4"
	/>
<path id="Fill-1_3_" class="st22" d="M117,49h3c-0.3-2.7-0.3-5.3,0-8h-3C117.3,43.7,117.3,46.3,117,49"/>
<path id="Fill-3_3_" class="st22" d="M108.2,52l2.8-1.4c-1.7-2-3.1-4.2-4.2-6.6l-2.8,1.4C105.7,47.5,107.1,49.7,108.2,52"/>
<path id="Fill-5_3_" class="st22" d="M101.6,60l1.4-2.8c-2.3-1.1-4.5-2.5-6.6-4.2L95,55.8C97.3,56.9,99.5,58.3,101.6,60"/>
<path id="Fill-7_3_" class="st22" d="M99,69v-3c-2.7,0.3-5.3,0.3-8,0v3C93.7,68.7,96.3,68.7,99,69"/>
<path id="Fill-9_3_" class="st22" d="M103,78.8l-1.4-2.8c-2,1.7-4.2,3.1-6.6,4.2l1.4,2.8C98.5,81.3,100.7,79.9,103,78.8"/>
<path id="Fill-11_3_" class="st22" d="M111,85.4l-2.8-1.4c-1.1,2.3-2.5,4.5-4.2,6.6l2.8,1.4C107.9,89.7,109.3,87.5,111,85.4"/>
<path id="Fill-13_3_" class="st22" d="M120,87h-3c0.3,2.7,0.3,5.3,0,8h3C119.7,92.3,119.7,89.7,120,87"/>
<path id="Fill-15_3_" class="st22" d="M129.8,84l-2.8,1.4c1.7,2,3.1,4.2,4.2,6.6l2.8-1.4C132.3,88.5,130.9,86.3,129.8,84"/>
<path id="Fill-17_3_" class="st22" d="M136.4,76l-1.4,2.8c2.3,1.1,4.5,2.5,6.6,4.2l1.4-2.8C140.7,79.1,138.5,77.7,136.4,76"/>
<path id="Fill-19_3_" class="st22" d="M139,66v3c2.7-0.3,5.3-0.3,8,0v-3C144.3,66.3,141.7,66.3,139,66"/>
<path id="Fill-21_3_" class="st22" d="M135,57.2l1.4,2.8c2-1.7,4.2-3.1,6.6-4.2l-1.4-2.8C139.5,54.7,137.3,56.1,135,57.2"/>
<path id="Fill-23_3_" class="st22" d="M127,50.6l2.8,1.4c1.1-2.3,2.5-4.5,4.2-6.6l-2.8-1.4C130.1,46.3,128.7,48.5,127,50.6"/>
<path id="Fill-25_3_" class="st22" d="M141,67.5c0,11.9-9.8,21.5-22,21.5c-12.1,0-22-9.6-22-21.5S106.8,46,119,46S141,55.6,141,67.5
	"/>
<path id="Fill-27_3_" class="st22" d="M141,67.5c0,2.6-0.5,5.1-1.3,7.3c-0.5,1.5-1.2,2.8-2.1,4.1c-2.7,4.2-6.8,7.4-11.7,9
	c-2.2,0.7-4.5,1.1-6.9,1.1c-12.2,0-22-9.6-22-21.5c0-2.3,0.4-4.6,1.1-6.7c1.6-4.8,4.9-8.8,9.2-11.5c1.3-0.8,2.7-1.5,4.2-2
	c2.3-0.8,4.9-1.3,7.5-1.3C131.2,46,141,55.6,141,67.5"/>
<path id="Fill-29_3_" class="st22" d="M127,82c0,2.4-0.4,4.7-1.1,6.9c-2.2,0.7-4.5,1.1-6.9,1.1c-12.2,0-22-9.9-22-22
	c0-2.4,0.4-4.7,1.1-6.9c2.2-0.7,4.5-1.1,6.9-1.1C117.1,60,127,69.9,127,82"/>
<path id="Fill-31_3_" class="st23" d="M141,67.9c0,2.6-0.5,5.2-1.3,7.5c-0.5,1.5-1.2,2.9-2.1,4.2c-3.4,2.1-7.4,3.4-11.7,3.4
	c-12.1,0-21.9-9.8-21.9-21.9c0-4.3,1.2-8.3,3.4-11.7c1.3-0.8,2.7-1.5,4.2-2.1c2.3-0.8,4.9-1.3,7.5-1.3C131.2,46,141,55.8,141,67.9"
	/>
<path id="Fill-33_3_" class="st22" d="M124,55.5c0,0.8-0.7,1.5-1.5,1.5s-1.5-0.7-1.5-1.5s0.7-1.5,1.5-1.5S124,54.7,124,55.5"/>
<path id="Fill-35_3_" class="st22" d="M136,71.5c0,0.8-0.7,1.5-1.5,1.5s-1.5-0.7-1.5-1.5s0.7-1.5,1.5-1.5S136,70.7,136,71.5"/>
<path id="Fill-37_3_" class="st22" d="M107,67c0,1.7-1.3,3-3,3s-3-1.3-3-3s1.3-3,3-3S107,65.3,107,67"/>
<path id="Fill-39_3_" class="st22" d="M126,62.5c0,1.4-1.1,2.5-2.5,2.5s-2.5-1.1-2.5-2.5s1.1-2.5,2.5-2.5S126,61.1,126,62.5"/>
<path id="Fill-41_3_" class="st22" d="M129,81c0,0.6-0.4,1-1,1c-0.6,0-1-0.4-1-1s0.4-1,1-1C128.6,80,129,80.4,129,81"/>
<path id="Fill-43_3_" class="st22" d="M114,56c0,1.7-1.3,3-3,3s-3-1.3-3-3s1.3-3,3-3S114,54.3,114,56"/>
<path id="Fill-45_3_" class="st22" d="M119,52c0,0.6-0.4,1-1,1s-1-0.4-1-1s0.4-1,1-1S119,51.4,119,52"/>
<path id="Fill-47_3_" class="st22" d="M134,58c0,0.6-0.4,1-1,1s-1-0.4-1-1s0.4-1,1-1S134,57.4,134,58"/>
<path id="Fill-49_3_" class="st22" d="M117,80c0,1.7-1.3,3-3,3s-3-1.3-3-3s1.3-3,3-3S117,78.3,117,80"/>
<path id="Fill-51_2_" class="st22" d="M138,62c0,0.6-0.7,1-1.5,1s-1.5-0.4-1.5-1s0.7-1,1.5-1S138,61.4,138,62"/>
<path id="Fill-53_2_" class="st22" d="M123,40c0,1.1-2,2-4.5,2s-4.5-0.9-4.5-2s2-2,4.5-2S123,38.9,123,40"/>
<path id="Fill-55_2_" class="st22" d="M121,40c0,0.6-1.1,1-2.5,1s-2.5-0.4-2.5-1s1.1-1,2.5-1S121,39.4,121,40"/>
<path id="Fill-57_2_" class="st22" d="M123,95c0,1.1-2,2-4.5,2s-4.5-0.9-4.5-2s2-2,4.5-2S123,93.9,123,95"/>
<path id="Fill-59_2_" class="st22" d="M121,95c0,0.6-1.1,1-2.5,1s-2.5-0.4-2.5-1s1.1-1,2.5-1S121,94.4,121,95"/>
<path id="Fill-61_2_" class="st22" d="M136.9,46.4c-0.5,1-2.7,0.7-4.9-0.6c-2.1-1.3-3.4-3.2-2.9-4.2s2.7-0.7,4.9,0.6
	C136.1,43.5,137.4,45.4,136.9,46.4"/>
<path id="Fill-63_2_" class="st22" d="M134.9,44.7c-0.3,0.5-1.7,0.3-3-0.4s-2.2-1.6-1.9-2.1s1.7-0.3,3,0.4
	C134.4,43.3,135.2,44.3,134.9,44.7"/>
<path id="Fill-65_2_" class="st22" d="M108.9,94.4c-0.5,1-2.7,0.7-4.9-0.6c-2.1-1.3-3.4-3.2-2.9-4.2s2.7-0.7,4.9,0.6
	C108.1,91.5,109.4,93.4,108.9,94.4"/>
<path id="Fill-67_2_" class="st22" d="M106.9,92.7c-0.3,0.5-1.7,0.3-3-0.4c-1.3-0.7-2.2-1.6-1.9-2.1c0.3-0.5,1.7-0.3,3,0.4
	C106.4,91.3,107.2,92.3,106.9,92.7"/>
<path id="Fill-69_2_" class="st22" d="M145.4,57.9c-1,0.5-2.9-0.8-4.2-2.9c-1.3-2.1-1.5-4.3-0.5-4.8s2.9,0.8,4.2,2.9
	C146.2,55.2,146.4,57.4,145.4,57.9"/>
<path id="Fill-71_2_" class="st22" d="M144.7,56.9c-0.5,0.3-1.4-0.6-2.1-1.9c-0.7-1.3-0.8-2.7-0.4-3c0.5-0.3,1.4,0.6,2.1,1.9
	C145,55.3,145.2,56.6,144.7,56.9"/>
<path id="Fill-73_2_" class="st22" d="M97.4,84.9c-1,0.5-2.9-0.8-4.2-2.9c-1.3-2.1-1.5-4.3-0.5-4.8s2.9,0.8,4.2,2.9
	S98.4,84.4,97.4,84.9"/>
<path id="Fill-75_3_" class="st22" d="M95.7,83.9c-0.5,0.3-1.4-0.6-2.1-1.9s-0.8-2.7-0.4-3c0.5-0.3,1.4,0.6,2.1,1.9
	C96,82.3,96.2,83.6,95.7,83.9"/>
<path id="Fill-77_3_" class="st22" d="M146.9,72c-1.1,0-2-2.1-1.9-4.5c0.1-2.5,1-4.5,2.1-4.5s2,2.1,1.9,4.5
	C148.9,70,148,72,146.9,72"/>
<path id="Fill-79_3_" class="st22" d="M146.9,70c-0.6,0-1-1.1-0.9-2.5c0-1.4,0.5-2.5,1-2.5c0.6,0,1,1.1,0.9,2.5
	C148,68.9,147.5,70,146.9,70"/>
<g id="Group-83_2_" transform="translate(0.000000, 24.000000)">
	<g id="Clip-82_2_">
	</g>
	<path id="Fill-81_3_" class="st22" d="M90.9,48c-1.1,0-2-2.2-1.9-4.8s1-4.7,2.1-4.7s2,2.2,1.9,4.8C92.9,45.9,92,48,90.9,48"/>
</g>
<path id="Fill-84_3_" class="st22" d="M90.9,70c-0.6,0-1-1.1-0.9-2.5c0-1.4,0.5-2.5,1-2.5c0.6,0,1,1.1,0.9,2.5
	C92,68.9,91.5,70,90.9,70"/>
<path id="Fill-86_3_" class="st22" d="M140.6,84.9c-1-0.5-0.7-2.7,0.6-4.8c1.3-2.1,3.2-3.4,4.2-2.9s0.7,2.7-0.6,4.8
	C143.5,84.1,141.6,85.4,140.6,84.9"/>
<path id="Fill-88_3_" class="st22" d="M142.3,83.9c-0.5-0.3-0.3-1.6,0.4-3c0.7-1.3,1.6-2.2,2.1-1.9c0.5,0.3,0.3,1.6-0.4,3
	C143.7,83.4,142.7,84.2,142.3,83.9"/>
<path id="Fill-90_3_" class="st22" d="M92.6,57.9c-1-0.5-0.7-2.7,0.6-4.8c1.3-2.1,3.2-3.4,4.2-2.9s0.7,2.7-0.6,4.8
	S93.6,58.4,92.6,57.9"/>
<path id="Fill-92_3_" class="st22" d="M93.3,55.9c-0.5-0.3-0.3-1.6,0.4-3c0.7-1.3,1.6-2.2,2.1-1.9s0.3,1.6-0.4,3
	S93.7,56.2,93.3,55.9"/>
<path id="Fill-94_3_" class="st22" d="M129.1,94.4c-0.5-1,0.7-2.9,2.9-4.2c2.1-1.3,4.3-1.6,4.9-0.6c0.6,1-0.7,2.9-2.9,4.2
	C131.9,95.1,129.7,95.4,129.1,94.4"/>
<path id="Fill-96_3_" class="st22" d="M130.1,92.7c-0.3-0.5,0.5-1.4,1.9-2.1c1.3-0.7,2.7-0.9,3-0.4s-0.5,1.4-1.9,2.1
	C131.7,93,130.4,93.2,130.1,92.7"/>
<path id="Fill-98_3_" class="st22" d="M101.1,46.4c-0.5-1,0.7-2.9,2.9-4.2c2.1-1.3,4.3-1.6,4.9-0.6s-0.7,2.9-2.9,4.2
	C103.9,47.1,101.7,47.4,101.1,46.4"/>
<path id="Fill-100_3_" class="st22" d="M102.1,44.7c-0.3-0.5,0.5-1.4,1.9-2.1c1.3-0.7,2.7-0.9,3-0.4s-0.5,1.4-1.9,2.1
	C103.7,45,102.4,45.2,102.1,44.7"/>
<g>
	<path id="Fill-1_4_" class="st22" d="M335,307h3c-0.3-2.7-0.3-5.3,0-8h-3C335.3,301.7,335.3,304.3,335,307"/>
	<path id="Fill-3_4_" class="st22" d="M326.2,310l2.8-1.4c-1.7-2-3.1-4.2-4.2-6.6l-2.8,1.4C323.7,305.5,325.1,307.7,326.2,310"/>
	<path id="Fill-5_4_" class="st22" d="M319.6,318l1.4-2.8c-2.3-1.1-4.5-2.5-6.6-4.2l-1.4,2.8C315.3,314.9,317.5,316.3,319.6,318"/>
	<path id="Fill-7_4_" class="st22" d="M317,327v-3c-2.7,0.3-5.3,0.3-8,0v3C311.7,326.7,314.3,326.7,317,327"/>
	<path id="Fill-9_4_" class="st22" d="M321,336.8l-1.4-2.8c-2,1.7-4.2,3.1-6.6,4.2l1.4,2.8C316.5,339.3,318.7,337.9,321,336.8"/>
	<path id="Fill-11_4_" class="st22" d="M329,343.4l-2.8-1.4c-1.1,2.3-2.5,4.5-4.2,6.6l2.8,1.4C325.9,347.7,327.3,345.5,329,343.4"/>
	<path id="Fill-13_4_" class="st22" d="M338,345h-3c0.3,2.7,0.3,5.3,0,8h3C337.7,350.3,337.7,347.7,338,345"/>
	<path id="Fill-15_4_" class="st22" d="M347.8,342l-2.8,1.4c1.7,2,3.1,4.2,4.2,6.6l2.8-1.4C350.3,346.5,348.9,344.3,347.8,342"/>
	<path id="Fill-17_4_" class="st22" d="M354.4,334l-1.4,2.8c2.3,1.1,4.5,2.5,6.6,4.2l1.4-2.8C358.7,337.1,356.5,335.7,354.4,334"/>
	<path id="Fill-19_4_" class="st22" d="M357,324v3c2.7-0.3,5.3-0.3,8,0v-3C362.3,324.3,359.7,324.3,357,324"/>
	<path id="Fill-21_4_" class="st22" d="M353,315.2l1.4,2.8c2-1.7,4.2-3.1,6.6-4.2l-1.4-2.8C357.5,312.7,355.3,314.1,353,315.2"/>
	<path id="Fill-23_4_" class="st22" d="M345,308.6l2.8,1.4c1.1-2.3,2.5-4.5,4.2-6.6l-2.8-1.4C348.1,304.3,346.7,306.5,345,308.6"/>
	<path id="Fill-25_4_" class="st22" d="M359,325.5c0,11.9-9.8,21.5-22,21.5c-12.1,0-22-9.6-22-21.5s9.8-21.5,22-21.5
		S359,313.6,359,325.5"/>
	<path id="Fill-27_4_" class="st22" d="M359,325.5c0,2.6-0.5,5.1-1.3,7.3c-0.5,1.5-1.2,2.8-2.1,4.1c-2.7,4.2-6.8,7.4-11.7,9
		c-2.2,0.7-4.5,1.1-6.9,1.1c-12.2,0-22-9.6-22-21.5c0-2.3,0.4-4.6,1.1-6.7c1.6-4.8,4.9-8.8,9.2-11.5c1.3-0.8,2.7-1.5,4.2-2
		c2.3-0.8,4.9-1.3,7.5-1.3C349.2,304,359,313.6,359,325.5"/>
	<path id="Fill-29_4_" class="st22" d="M345,340c0,2.4-0.4,4.7-1.1,6.9c-2.2,0.7-4.5,1.1-6.9,1.1c-12.2,0-22-9.9-22-22
		c0-2.4,0.4-4.7,1.1-6.9c2.2-0.7,4.5-1.1,6.9-1.1C335.1,318,345,327.9,345,340"/>
	<path id="Fill-31_4_" class="st23" d="M359,325.9c0,2.6-0.5,5.2-1.3,7.5c-0.5,1.5-1.2,2.9-2.1,4.2c-3.4,2.1-7.4,3.4-11.7,3.4
		c-12.1,0-21.9-9.8-21.9-21.9c0-4.3,1.2-8.3,3.4-11.7c1.3-0.8,2.7-1.5,4.2-2.1c2.3-0.8,4.9-1.3,7.5-1.3
		C349.2,304,359,313.8,359,325.9"/>
	<path id="Fill-33_4_" class="st22" d="M342,313.5c0,0.8-0.7,1.5-1.5,1.5s-1.5-0.7-1.5-1.5s0.7-1.5,1.5-1.5S342,312.7,342,313.5"/>
	<path id="Fill-35_4_" class="st22" d="M354,329.5c0,0.8-0.7,1.5-1.5,1.5s-1.5-0.7-1.5-1.5s0.7-1.5,1.5-1.5S354,328.7,354,329.5"/>
	<path id="Fill-37_4_" class="st22" d="M325,325c0,1.7-1.3,3-3,3s-3-1.3-3-3s1.3-3,3-3S325,323.3,325,325"/>
	<path id="Fill-39_4_" class="st22" d="M344,320.5c0,1.4-1.1,2.5-2.5,2.5s-2.5-1.1-2.5-2.5s1.1-2.5,2.5-2.5S344,319.1,344,320.5"/>
	<path id="Fill-41_4_" class="st22" d="M347,339c0,0.6-0.4,1-1,1s-1-0.4-1-1s0.4-1,1-1S347,338.4,347,339"/>
	<path id="Fill-43_4_" class="st22" d="M332,314c0,1.7-1.3,3-3,3s-3-1.3-3-3s1.3-3,3-3S332,312.3,332,314"/>
	<path id="Fill-45_4_" class="st22" d="M337,310c0,0.6-0.4,1-1,1s-1-0.4-1-1s0.4-1,1-1S337,309.4,337,310"/>
	<path id="Fill-47_4_" class="st22" d="M352,316c0,0.6-0.4,1-1,1s-1-0.4-1-1s0.4-1,1-1S352,315.4,352,316"/>
	<path id="Fill-49_4_" class="st22" d="M335,338c0,1.7-1.3,3-3,3s-3-1.3-3-3s1.3-3,3-3S335,336.3,335,338"/>
	<path id="Fill-51_3_" class="st22" d="M356,320c0,0.6-0.7,1-1.5,1s-1.5-0.4-1.5-1s0.7-1,1.5-1S356,319.4,356,320"/>
	<path id="Fill-53_3_" class="st22" d="M341,298c0,1.1-2,2-4.5,2s-4.5-0.9-4.5-2s2-2,4.5-2S341,296.9,341,298"/>
	<path id="Fill-55_3_" class="st22" d="M339,298c0,0.6-1.1,1-2.5,1s-2.5-0.4-2.5-1s1.1-1,2.5-1S339,297.4,339,298"/>
	<path id="Fill-57_3_" class="st22" d="M341,353c0,1.1-2,2-4.5,2s-4.5-0.9-4.5-2s2-2,4.5-2S341,351.9,341,353"/>
	<path id="Fill-59_3_" class="st22" d="M339,353c0,0.6-1.1,1-2.5,1s-2.5-0.4-2.5-1s1.1-1,2.5-1S339,352.4,339,353"/>
	<path id="Fill-61_3_" class="st22" d="M354.9,304.4c-0.5,1-2.7,0.7-4.9-0.6c-2.1-1.3-3.4-3.2-2.9-4.2s2.7-0.7,4.9,0.6
		C354.1,301.5,355.4,303.4,354.9,304.4"/>
	<path id="Fill-63_3_" class="st22" d="M352.9,302.7c-0.3,0.5-1.7,0.3-3-0.4c-1.3-0.7-2.2-1.6-1.9-2.1c0.3-0.5,1.7-0.3,3,0.4
		C352.4,301.3,353.2,302.3,352.9,302.7"/>
	<path id="Fill-65_3_" class="st22" d="M326.9,352.4c-0.5,1-2.7,0.7-4.9-0.6c-2.1-1.3-3.4-3.2-2.9-4.2s2.7-0.7,4.9,0.6
		C326.1,349.5,327.4,351.4,326.9,352.4"/>
	<path id="Fill-67_3_" class="st22" d="M324.9,350.7c-0.3,0.5-1.7,0.3-3-0.4c-1.3-0.7-2.2-1.6-1.9-2.1c0.3-0.5,1.7-0.3,3,0.4
		C324.4,349.3,325.2,350.3,324.9,350.7"/>
	<path id="Fill-69_3_" class="st22" d="M363.4,315.9c-1,0.5-2.9-0.8-4.2-2.9c-1.3-2.1-1.5-4.3-0.5-4.8s2.9,0.8,4.2,2.9
		S364.4,315.4,363.4,315.9"/>
	<path id="Fill-71_3_" class="st22" d="M362.7,314.9c-0.5,0.3-1.4-0.6-2.1-1.9s-0.8-2.7-0.4-3c0.5-0.3,1.4,0.6,2.1,1.9
		C363,313.3,363.2,314.6,362.7,314.9"/>
	<path id="Fill-73_3_" class="st22" d="M315.4,342.9c-1,0.5-2.9-0.8-4.2-2.9c-1.3-2.1-1.5-4.3-0.5-4.8s2.9,0.8,4.2,2.9
		S316.4,342.4,315.4,342.9"/>
	<path id="Fill-75_4_" class="st22" d="M313.7,341.9c-0.5,0.3-1.4-0.6-2.1-1.9s-0.8-2.7-0.4-3c0.5-0.3,1.4,0.6,2.1,1.9
		C314,340.3,314.2,341.6,313.7,341.9"/>
	<path id="Fill-77_4_" class="st22" d="M364.9,330c-1.1,0-2-2.1-1.9-4.5c0.1-2.5,1-4.5,2.1-4.5s2,2.1,1.9,4.5
		C366.9,328,366,330,364.9,330"/>
	<path id="Fill-79_4_" class="st22" d="M364.9,328c-0.6,0-1-1.1-0.9-2.5c0-1.4,0.5-2.5,1-2.5c0.6,0,1,1.1,0.9,2.5
		C366,326.9,365.5,328,364.9,328"/>
	<g id="Group-83_3_" transform="translate(0.000000, 24.000000)">
		<g id="Clip-82_3_">
		</g>
		<path id="Fill-81_4_" class="st22" d="M308.9,306c-1.1,0-2-2.2-1.9-4.8c0.1-2.6,1-4.7,2.1-4.7s2,2.2,1.9,4.8
			C310.9,303.9,310,306,308.9,306"/>
	</g>
	<path id="Fill-84_4_" class="st22" d="M308.9,328c-0.6,0-1-1.1-0.9-2.5c0-1.4,0.5-2.5,1-2.5c0.6,0,1,1.1,0.9,2.5
		C310,326.9,309.5,328,308.9,328"/>
	<path id="Fill-86_4_" class="st22" d="M358.6,342.9c-1-0.5-0.7-2.7,0.6-4.8c1.3-2.1,3.2-3.4,4.2-2.9s0.7,2.7-0.6,4.8
		C361.5,342.1,359.6,343.4,358.6,342.9"/>
	<path id="Fill-88_4_" class="st22" d="M360.3,341.9c-0.5-0.3-0.3-1.6,0.4-3c0.7-1.3,1.6-2.2,2.1-1.9c0.5,0.3,0.3,1.6-0.4,3
		S360.7,342.2,360.3,341.9"/>
	<path id="Fill-90_4_" class="st22" d="M310.6,315.9c-1-0.5-0.7-2.7,0.6-4.8c1.3-2.1,3.2-3.4,4.2-2.9s0.7,2.7-0.6,4.8
		C313.5,315.1,311.6,316.4,310.6,315.9"/>
	<path id="Fill-92_4_" class="st22" d="M311.3,313.9c-0.5-0.3-0.3-1.6,0.4-3c0.7-1.3,1.6-2.2,2.1-1.9c0.5,0.3,0.3,1.6-0.4,3
		S311.7,314.2,311.3,313.9"/>
	<path id="Fill-94_4_" class="st22" d="M347.1,352.4c-0.5-1,0.7-2.9,2.9-4.2c2.1-1.3,4.3-1.6,4.9-0.6s-0.7,2.9-2.9,4.2
		C349.9,353.1,347.7,353.4,347.1,352.4"/>
	<path id="Fill-96_4_" class="st22" d="M348.1,350.7c-0.3-0.5,0.5-1.4,1.9-2.1c1.3-0.7,2.7-0.9,3-0.4s-0.5,1.4-1.9,2.1
		C349.7,351,348.4,351.2,348.1,350.7"/>
	<path id="Fill-98_4_" class="st22" d="M319.1,304.4c-0.5-1,0.7-2.9,2.9-4.2c2.1-1.3,4.3-1.6,4.9-0.6s-0.7,2.9-2.9,4.2
		C321.9,305.1,319.7,305.4,319.1,304.4"/>
	<path id="Fill-100_4_" class="st22" d="M320.1,302.7c-0.3-0.5,0.5-1.4,1.9-2.1c1.3-0.7,2.7-0.9,3-0.4s-0.5,1.4-1.9,2.1
		S320.4,303.2,320.1,302.7"/>
</g>
<g>
	<path id="Fill-1_2_" class="st24" d="M208.6,184h3c-0.3-2.7-0.3-5.3,0-8h-3C208.9,178.7,208.9,181.3,208.6,184"/>
	<path id="Fill-3_2_" class="st24" d="M199.8,187l2.8-1.4c-1.7-2-3.1-4.2-4.2-6.6l-2.8,1.4C197.3,182.5,198.7,184.7,199.8,187"/>
	<path id="Fill-5_2_" class="st24" d="M193.2,195l1.4-2.8c-2.3-1.1-4.5-2.5-6.6-4.2l-1.4,2.8C188.9,191.9,191.1,193.3,193.2,195"/>
	<path id="Fill-7_2_" class="st24" d="M190.6,204v-3c-2.7,0.3-5.3,0.3-8,0v3C185.3,203.7,187.9,203.7,190.6,204"/>
	<path id="Fill-9_2_" class="st24" d="M194.6,213.8l-1.4-2.8c-2,1.7-4.2,3.1-6.6,4.2l1.4,2.8C190.1,216.3,192.3,214.9,194.6,213.8"
		/>
	<path id="Fill-11_2_" class="st24" d="M202.6,220.4l-2.8-1.4c-1.1,2.3-2.5,4.5-4.2,6.6l2.8,1.4
		C199.5,224.7,200.9,222.5,202.6,220.4"/>
	<path id="Fill-13_2_" class="st24" d="M211.6,222h-3c0.3,2.7,0.3,5.3,0,8h3C211.3,227.3,211.3,224.7,211.6,222"/>
	<path id="Fill-15_2_" class="st24" d="M221.4,219l-2.8,1.4c1.7,2,3.1,4.2,4.2,6.6l2.8-1.4C223.9,223.5,222.5,221.3,221.4,219"/>
	<path id="Fill-17_2_" class="st24" d="M228,211l-1.4,2.8c2.3,1.1,4.5,2.5,6.6,4.2l1.4-2.8C232.3,214.1,230.1,212.7,228,211"/>
	<path id="Fill-19_2_" class="st24" d="M230.6,201v3c2.7-0.3,5.3-0.3,8,0v-3C235.9,201.3,233.3,201.3,230.6,201"/>
	<path id="Fill-21_2_" class="st24" d="M226.6,192.2l1.4,2.8c2-1.7,4.2-3.1,6.6-4.2l-1.4-2.8C231.1,189.7,228.9,191.1,226.6,192.2"
		/>
	<path id="Fill-23_2_" class="st24" d="M218.6,185.6l2.8,1.4c1.1-2.3,2.5-4.5,4.2-6.6l-2.8-1.4C221.7,181.3,220.3,183.5,218.6,185.6
		"/>
	<path id="Fill-25_2_" class="st24" d="M232.6,202.5c0,11.9-9.8,21.5-22,21.5c-12.1,0-22-9.6-22-21.5s9.8-21.5,22-21.5
		S232.6,190.6,232.6,202.5"/>
	<path id="Fill-27_2_" class="st24" d="M232.6,202.5c0,2.6-0.5,5.1-1.3,7.3c-0.5,1.5-1.2,2.8-2.1,4.1c-2.7,4.2-6.8,7.4-11.7,9
		c-2.2,0.7-4.5,1.1-6.9,1.1c-12.2,0-22-9.6-22-21.5c0-2.3,0.4-4.6,1.1-6.7c1.6-4.8,4.9-8.8,9.2-11.5c1.3-0.8,2.7-1.5,4.2-2
		c2.3-0.8,4.9-1.3,7.5-1.3C222.8,181,232.6,190.6,232.6,202.5"/>
	<path id="Fill-29_2_" class="st24" d="M218.6,217c0,2.4-0.4,4.7-1.1,6.9c-2.2,0.7-4.5,1.1-6.9,1.1c-12.2,0-22-9.9-22-22
		c0-2.4,0.4-4.7,1.1-6.9c2.2-0.7,4.5-1.1,6.9-1.1C208.7,195,218.6,204.9,218.6,217"/>
	<path id="Fill-31_2_" class="st23" d="M232.6,202.9c0,2.6-0.5,5.2-1.3,7.5c-0.5,1.5-1.2,2.9-2.1,4.2c-3.4,2.1-7.4,3.4-11.7,3.4
		c-12.1,0-21.9-9.8-21.9-21.9c0-4.3,1.2-8.3,3.4-11.7c1.3-0.8,2.7-1.5,4.2-2.1c2.3-0.8,4.9-1.3,7.5-1.3
		C222.8,181,232.6,190.8,232.6,202.9"/>
	<path id="Fill-33_2_" class="st24" d="M215.6,190.5c0,0.8-0.7,1.5-1.5,1.5s-1.5-0.7-1.5-1.5s0.7-1.5,1.5-1.5
		S215.6,189.7,215.6,190.5"/>
	<path id="Fill-35_2_" class="st24" d="M227.6,206.5c0,0.8-0.7,1.5-1.5,1.5s-1.5-0.7-1.5-1.5s0.7-1.5,1.5-1.5
		S227.6,205.7,227.6,206.5"/>
	<path id="Fill-37_2_" class="st24" d="M198.6,202c0,1.7-1.3,3-3,3s-3-1.3-3-3s1.3-3,3-3S198.6,200.3,198.6,202"/>
	<path id="Fill-39_2_" class="st24" d="M217.6,197.5c0,1.4-1.1,2.5-2.5,2.5s-2.5-1.1-2.5-2.5s1.1-2.5,2.5-2.5
		S217.6,196.1,217.6,197.5"/>
	<path id="Fill-41_2_" class="st24" d="M220.6,216c0,0.6-0.4,1-1,1s-1-0.4-1-1s0.4-1,1-1S220.6,215.4,220.6,216"/>
	<path id="Fill-43_2_" class="st24" d="M205.6,191c0,1.7-1.3,3-3,3s-3-1.3-3-3s1.3-3,3-3S205.6,189.3,205.6,191"/>
	<path id="Fill-45_2_" class="st24" d="M210.6,187c0,0.6-0.4,1-1,1s-1-0.4-1-1s0.4-1,1-1S210.6,186.4,210.6,187"/>
	<path id="Fill-47_2_" class="st24" d="M225.6,193c0,0.6-0.4,1-1,1s-1-0.4-1-1s0.4-1,1-1S225.6,192.4,225.6,193"/>
	<path id="Fill-49_2_" class="st24" d="M208.6,215c0,1.7-1.3,3-3,3s-3-1.3-3-3s1.3-3,3-3S208.6,213.3,208.6,215"/>
	<path id="Fill-51_1_" class="st24" d="M229.6,197c0,0.6-0.7,1-1.5,1s-1.5-0.4-1.5-1s0.7-1,1.5-1S229.6,196.4,229.6,197"/>
	<path id="Fill-53_1_" class="st24" d="M214.6,175c0,1.1-2,2-4.5,2s-4.5-0.9-4.5-2s2-2,4.5-2S214.6,173.9,214.6,175"/>
	<path id="Fill-55_1_" class="st24" d="M212.6,175c0,0.6-1.1,1-2.5,1s-2.5-0.4-2.5-1s1.1-1,2.5-1S212.6,174.4,212.6,175"/>
	<path id="Fill-57_1_" class="st24" d="M214.6,230c0,1.1-2,2-4.5,2s-4.5-0.9-4.5-2s2-2,4.5-2S214.6,228.9,214.6,230"/>
	<path id="Fill-59_1_" class="st24" d="M212.6,230c0,0.6-1.1,1-2.5,1s-2.5-0.4-2.5-1s1.1-1,2.5-1S212.6,229.4,212.6,230"/>
	<path id="Fill-61_1_" class="st24" d="M228.5,181.4c-0.5,1-2.7,0.7-4.9-0.6c-2.1-1.3-3.4-3.2-2.9-4.2s2.7-0.7,4.9,0.6
		C227.7,178.5,229,180.4,228.5,181.4"/>
	<path id="Fill-63_1_" class="st24" d="M226.5,179.7c-0.3,0.5-1.7,0.3-3-0.4c-1.3-0.7-2.2-1.6-1.9-2.1c0.3-0.5,1.7-0.3,3,0.4
		C226,178.3,226.8,179.3,226.5,179.7"/>
	<path id="Fill-65_1_" class="st24" d="M200.5,229.4c-0.5,1-2.7,0.7-4.9-0.6c-2.1-1.3-3.4-3.2-2.9-4.2s2.7-0.7,4.9,0.6
		C199.7,226.5,201,228.4,200.5,229.4"/>
	<path id="Fill-67_1_" class="st24" d="M198.5,227.7c-0.3,0.5-1.7,0.3-3-0.4c-1.3-0.7-2.2-1.6-1.9-2.1c0.3-0.5,1.7-0.3,3,0.4
		C198,226.3,198.8,227.3,198.5,227.7"/>
	<path id="Fill-69_1_" class="st24" d="M237,192.9c-1,0.5-2.9-0.8-4.2-2.9c-1.3-2.1-1.5-4.3-0.5-4.8s2.9,0.8,4.2,2.9
		S238,192.4,237,192.9"/>
	<path id="Fill-71_1_" class="st24" d="M236.3,191.9c-0.5,0.3-1.4-0.6-2.1-1.9s-0.8-2.7-0.4-3c0.5-0.3,1.4,0.6,2.1,1.9
		C236.6,190.3,236.8,191.6,236.3,191.9"/>
	<path id="Fill-73_1_" class="st24" d="M189,219.9c-1,0.5-2.9-0.8-4.2-2.9c-1.3-2.1-1.5-4.3-0.5-4.8s2.9,0.8,4.2,2.9
		S190,219.4,189,219.9"/>
	<path id="Fill-75_2_" class="st24" d="M187.3,218.9c-0.5,0.3-1.4-0.6-2.1-1.9s-0.8-2.7-0.4-3c0.5-0.3,1.4,0.6,2.1,1.9
		C187.6,217.3,187.8,218.6,187.3,218.9"/>
	<path id="Fill-77_2_" class="st24" d="M238.5,207c-1.1,0-2-2.1-1.9-4.5c0.1-2.5,1-4.5,2.1-4.5s2,2.1,1.9,4.5
		C240.5,205,239.6,207,238.5,207"/>
	<path id="Fill-79_2_" class="st24" d="M238.5,205c-0.6,0-1-1.1-0.9-2.5c0-1.4,0.5-2.5,1-2.5c0.6,0,1,1.1,0.9,2.5
		C239.6,203.9,239.1,205,238.5,205"/>
	<g id="Group-83_1_" transform="translate(0.000000, 24.000000)">
		<g id="Clip-82_1_">
		</g>
		<path id="Fill-81_2_" class="st24" d="M182.5,183c-1.1,0-2-2.2-1.9-4.8c0.1-2.6,1-4.7,2.1-4.7s2,2.2,1.9,4.8
			C184.5,180.9,183.6,183,182.5,183"/>
	</g>
	<path id="Fill-84_2_" class="st24" d="M182.5,205c-0.6,0-1-1.1-0.9-2.5c0-1.4,0.5-2.5,1-2.5c0.6,0,1,1.1,0.9,2.5
		C183.6,203.9,183.1,205,182.5,205"/>
	<path id="Fill-86_2_" class="st24" d="M232.2,219.9c-1-0.5-0.7-2.7,0.6-4.8c1.3-2.1,3.2-3.4,4.2-2.9s0.7,2.7-0.6,4.8
		C235.1,219.1,233.2,220.4,232.2,219.9"/>
	<path id="Fill-88_2_" class="st24" d="M233.9,218.9c-0.5-0.3-0.3-1.6,0.4-3c0.7-1.3,1.6-2.2,2.1-1.9c0.5,0.3,0.3,1.6-0.4,3
		S234.3,219.2,233.9,218.9"/>
	<path id="Fill-90_2_" class="st24" d="M184.2,192.9c-1-0.5-0.7-2.7,0.6-4.8c1.3-2.1,3.2-3.4,4.2-2.9s0.7,2.7-0.6,4.8
		C187.1,192.1,185.2,193.4,184.2,192.9"/>
	<path id="Fill-92_2_" class="st24" d="M184.9,190.9c-0.5-0.3-0.3-1.6,0.4-3c0.7-1.3,1.6-2.2,2.1-1.9c0.5,0.3,0.3,1.6-0.4,3
		S185.3,191.2,184.9,190.9"/>
	<path id="Fill-94_2_" class="st24" d="M220.7,229.4c-0.5-1,0.7-2.9,2.9-4.2c2.1-1.3,4.3-1.6,4.9-0.6s-0.7,2.9-2.9,4.2
		C223.5,230.1,221.3,230.4,220.7,229.4"/>
	<path id="Fill-96_2_" class="st24" d="M221.7,227.7c-0.3-0.5,0.5-1.4,1.9-2.1c1.3-0.7,2.7-0.9,3-0.4s-0.5,1.4-1.9,2.1
		C223.3,228,222,228.2,221.7,227.7"/>
	<path id="Fill-98_2_" class="st24" d="M192.7,181.4c-0.5-1,0.7-2.9,2.9-4.2c2.1-1.3,4.3-1.6,4.9-0.6s-0.7,2.9-2.9,4.2
		C195.5,182.1,193.3,182.4,192.7,181.4"/>
	<path id="Fill-100_2_" class="st24" d="M193.7,179.7c-0.3-0.5,0.5-1.4,1.9-2.1c1.3-0.7,2.7-0.9,3-0.4s-0.5,1.4-1.9,2.1
		S194,180.2,193.7,179.7"/>
</g>
<g id="Group-15" transform="translate(0.000000, 62.000000)">
	<g id="Group-23-Copy" class="st25">
		<g id="Group-12">
			<path id="Fill-1_7_" class="st26" d="M885.3-1.8c0.6-12,2.3-24.3,8.9-34.4c9.7-14.8,28.3-21.6,46-22.3c28-1.1,55,10.5,79.3,24.6
				c24.2,14.1,47,30.9,72.8,42c47.3,20.3,100.4,19.7,151.7,23.7c16.9,1.3,34.9,3.6,48,14.4c10.9,9,16.9,22.9,19,36.8
				c5.7,36.8-13,74.4-41.3,98.6c-28.3,24.2-64.8,36.7-101.4,44c-40.7,8-83.1,10.1-123.4,0.2c-75.5-18.6-129.6-78-150.7-151.2
				C887.1,49.8,884,23.9,885.3-1.8"/>
			<g id="Group-5">
				<g id="Clip-4">
				</g>
				<path id="Fill-3_7_" class="st22" d="M1123.1-0.1c38.4-24.1,76.7-53,121.8-57.6c14.8-1.5,30.3-0.2,43.7,6.3
					c18.9,9.1,31.8,27.5,39.7,46.9c17.4,42.7,13.8,90.8,7.2,136.5c-4.7,32.5-11,65.5-27.6,93.9c-22.4,38.4-62.1,64.8-104.8,77.3
					c-42.7,12.5-88.3,12.1-132.4,5.9c-43.2-6.1-86.2-18.1-123.6-40.4c-37.4-22.4-69.1-56-83.9-96.9c-5.4-15-8.5-31.6-4-46.9
					c12.7-43,82.3-44.6,117-56C1027.7,51.9,1077.2,28.8,1123.1-0.1"/>
			</g>
			<path id="Stroke-6" class="st27" d="M1126.3,270.5c-15.7,0-32.7-1.3-50.6-3.8c-43.7-6.2-78.9-17.6-107.7-34.9
				c-18.6-11.2-35.5-25.6-48.4-43.1c-9.6-13.1-31.4-44.1-14.3-58.3c5.1-4.3,11.9-6.1,18.4-7.4c10.1-2,20.1-3.7,30.1-5.8
				c12.4-2.6,24.1-5,34.7-8.5c54.9-18.1,107.5-42.8,156.2-73.4c5.8-3.7,11.6-7.4,17.3-11.1c29.7-19.2,57.8-37.4,86.2-40.3
				c2.2-0.2,4.4-0.3,6.5-0.3c5.8,0,10.7,0.9,14.2,2.6c16.5,8,23.1,34.1,25.7,50.5c8.5,52.7,1.7,134.5-32,178.3
				C1230.9,256.3,1176.3,270.5,1126.3,270.5z"/>
			<path id="Stroke-8" class="st27" d="M1127.5,229.4c-32.2-0.1-66.5-5.9-96.6-15c-15.3-4.6-30.3-10.6-43.7-19.2
				c-3.1-2-36.3-30.7-33-32.7c6.3-3.7,13.6-4.9,20.8-6.4c51.4-10.3,100-31.1,145.7-56.1c19.4-10.7,38.2-22.8,57.2-34
				c8.1-4.8,63.9-44.2,71.7-37.8c1.8,1.4,2.4,3.9,2.8,6.1c5.7,27.7,3.5,61.3,0,89.3c-3.4,27.3-12.6,55-32.1,74.4
				c-19.9,20-48.6,29.2-76.8,31C1138.3,229.3,1133,229.4,1127.5,229.4z"/>
			<path id="Stroke-10" class="st27" d="M1127,186.4c-22.5,0-47.6-3.4-72-9.7c27.6-10.3,56-23.4,85.6-39.5
				c13.5-7.3,26.4-15.2,38.9-22.8c6.8-4.1,13.2-8,19.7-11.8c2.3-1.3,5-3.1,10.3-6.6c0.9-0.6,1.7-1.1,2.5-1.6
				c-0.5,7.5-1.3,15.4-2.4,23.8c-1.9,15.3-6.9,36.3-20,49.3c-10.7,10.6-28.2,17.2-49.4,18.5c-4.1,0.3-8.5,0.4-13,0.4L1127,186.4z"/>
		</g>
	</g>
	<path id="Path-7" class="st27" d="M857-58.6"/>
</g>
<g id="dis-29" transform="translate(59.000000, 0.000000)">
	<g id="doctor" transform="translate(117.040000, 0.000000)">
		<polygon id="Path" class="st28" points="965.1,407.2 966,385.8 954.4,385.8 953.5,407.2 		"/>
		<path id="Path_1_" class="st29" d="M998.9,417.8h-52.4c0,0-1.2-4.4-0.6-7.2c0.2-1.1,0.7-1.9,1.7-2.2c0-3.4,1.6-10.4,6.7-11.3l0,0
			c0,0.2-0.9,7.3,9.9,0c2.7-1.8,18,13.7,29.2,13.5c2.6,0,4.1,2.6,4.9,4.7C998.6,416,998.8,417,998.9,417.8L998.9,417.8z"/>
		<path id="Path_2_" class="st30" d="M954.3,397c-0.2,0.2-5.9,8.3-3.5,14.5c-1.7,0-3.3-0.4-4.9-1c0.2-1.1,0.7-1.9,1.7-2.2
			C947.6,405,949.2,398,954.3,397L954.3,397z"/>
		<rect id="Rectangle" x="946.5" y="417.8" class="st31" width="52.4" height="1.2"/>
		<path id="Path_3_" class="st32" d="M998.9,417.8h-52.4c0,0-2.3-8.5,1.1-9.4c0,0,32,12.8,50.6,6.9C998.5,416,998.8,417,998.9,417.8
			L998.9,417.8z"/>
		<path id="Path_4_" class="st33" d="M971.3,403.5c0,0.6-0.5,1.2-1.2,1.2c-0.7,0-1.2-0.5-1.2-1.2s0.5-1.2,1.2-1.2
			C970.8,402.3,971.3,403,971.3,403.5L971.3,403.5z"/>
		<path id="Path_5_" class="st33" d="M975.1,405.7c0,0.6-0.5,1.2-1.2,1.2c-0.7,0-1.2-0.5-1.2-1.2s0.5-1.2,1.2-1.2
			C974.6,404.5,975.1,405,975.1,405.7L975.1,405.7z"/>
		<path id="Path_6_" class="st33" d="M978.9,407.8c0,0.6-0.5,1.2-1.2,1.2c-0.6,0-1.2-0.5-1.2-1.2s0.5-1.2,1.2-1.2
			S978.9,407,978.9,407.8L978.9,407.8z"/>
		<path id="Path_7_" class="st34" d="M994.6,412c0,0.4-0.9,0.8-2,0.8c-1.1,0-2-0.4-2-0.8c0-0.4,0.9-0.8,2-0.8
			C993.7,411.3,994.6,411.5,994.6,412z"/>
		<polygon id="Path_8_" class="st28" points="891.1,407.2 890.2,385.8 901.8,385.8 902.7,407.2 		"/>
		<path id="Path_9_" class="st29" d="M857.2,417.8h52.4c0,0,1.2-4.4,0.6-7.2c-0.2-1.1-0.7-1.9-1.7-2.2c0-3.4-1.6-10.4-6.7-11.3l0,0
			c0,0.2,0.9,7.3-9.9,0c-2.7-1.8-18,13.7-29.2,13.5c-2.6,0-4.1,2.6-4.9,4.7C857.6,416,857.4,417,857.2,417.8L857.2,417.8z"/>
		<path id="Path_10_" class="st30" d="M901.9,397c0.2,0.2,5.9,8.3,3.5,14.5c1.7,0,3.3-0.4,4.9-1c-0.2-1.1-0.7-1.9-1.7-2.2
			C908.6,405,906.9,398,901.9,397L901.9,397z"/>
		<rect id="Rectangle_1_" x="857.2" y="417.8" class="st31" width="52.4" height="1.2"/>
		<path id="Path_11_" class="st32" d="M857.2,417.8h52.4c0,0,2.3-8.5-1.1-9.4c0,0-32,12.8-50.6,6.9C857.6,416,857.4,417,857.2,417.8
			L857.2,417.8z"/>
		<path id="Path_12_" class="st33" d="M884.9,403.5c0,0.6,0.5,1.2,1.2,1.2c0.7,0,1.2-0.5,1.2-1.2s-0.5-1.2-1.2-1.2
			C885.4,402.3,884.9,403,884.9,403.5z"/>
		<path id="Path_13_" class="st33" d="M881.1,405.7c0,0.6,0.5,1.2,1.2,1.2c0.6,0,1.2-0.5,1.2-1.2s-0.5-1.2-1.2-1.2
			c-0.3,0-0.6,0.1-0.8,0.3C881.2,405,881.1,405.3,881.1,405.7L881.1,405.7z"/>
		<path id="Path_14_" class="st33" d="M877.3,407.8c0,0.6,0.5,1.2,1.2,1.2c0.6,0,1.2-0.5,1.2-1.2s-0.5-1.2-1.2-1.2
			S877.3,407,877.3,407.8L877.3,407.8z"/>
		<path id="Path_15_" class="st34" d="M861.6,412c0,0.4,0.9,0.8,2,0.8c1.1,0,2-0.4,2-0.8c0-0.4-0.9-0.8-2-0.8
			C862.5,411.3,861.6,411.5,861.6,412z"/>
		<polygon id="Path_16_" class="st35" points="942.9,397 971.5,397 971.5,180.3 952.5,180.1 952.5,180.1 898.7,180.1 898.7,180.1 
			881.8,180.3 881.8,397 910.4,397 924.5,223.2 928.8,223.2 		"/>
		<path id="Path_17_" class="st36" d="M971.5,180.3v148.6c-11,3-22.3,4.7-33.7,5.1l-9-110.7h-4.3l-9,110.3
			c-11.4-0.9-22.6-2.7-33.7-5.5V180.3l16.9-0.1V180h53.8v0.1L971.5,180.3z"/>
		<path id="Path_18_" class="st35" d="M975.8,50.1L936.6,32h-21.4L876,50.1L871.5,308c68.7,10,108.8,0,108.8,0L975.8,50.1z"/>
		<path id="Path_19_" class="st37" d="M980.3,308c0,0-40.1,10-108.8,0v-2.1c70.7-65.3,102.7-186.2,102.7-186.2s1.1-1.5,2.7-3.5
			L980.3,308z"/>
		<rect id="Rectangle_2_" x="937.1" y="89.1" class="st5" width="25.3" height="13.7"/>
		<rect id="Rectangle_3_" x="938.9" y="92.8" class="st38" width="7.1" height="6.1"/>
		<rect id="Rectangle_4_" x="947.9" y="93.3" class="st38" width="12.8" height="1"/>
		<rect id="Rectangle_5_" x="947.9" y="95.4" class="st38" width="12.8" height="1"/>
		<rect id="Rectangle_6_" x="947.9" y="97.6" class="st38" width="12.8" height="1"/>
		<rect id="Rectangle_7_" x="948.4" y="86.6" class="st39" width="2.7" height="3.7"/>
		<polygon id="Path_20_" class="st40" points="915.2,32 936.6,32 925.9,57.3 		"/>
		<rect id="Rectangle_8_" x="915.2" y="15.3" class="st40" width="21.4" height="16.9"/>
		<path id="Path_21_" class="st41" d="M936.6,15.3v10.9c-3.3,2.2-6.9,3.5-10.7,3.5c-3.8,0-7.4-1.2-10.7-3.5V15.3H936.6z"/>
		<path id="Path_22_" class="st42" d="M925.3,15.1c-5.3,0-9.6-4.3-9.6-9.6h19.2C934.9,10.8,930.6,15.1,925.3,15.1L925.3,15.1z"/>
		<path id="Path_23_" class="st39" d="M934.9,5.5c0,0-1.2,2.4-1.9,2.8c-3.3,1.8-11.8,1.7-15.2,0c-0.8-0.4-2.1-2.8-2.1-2.8H934.9z"/>
		<path id="Path_24_" class="st40" d="M896.3-8.1c1.1,2.9,4.3,4.3,7.2,3.2l0,0c1.4-0.5,2.5-1.6,3.1-2.9c0.6-1.3,0.6-2.9,0.1-4.3
			l-2.9-7.5c-0.5-1.4-1.6-2.5-2.9-3.1c-1.3-0.6-2.9-0.6-4.3-0.1l0,0c-1.4,0.5-2.5,1.6-3.1,2.9c-0.6,1.3-0.6,2.9-0.1,4.3L896.3-8.1z"
			/>
		<path id="Path_25_" class="st43" d="M901.9-16.3c0,0-11.7-4.9-1.9,8C900-10.7,893.9-15.7,901.9-16.3z"/>
		<path id="Path_26_" class="st40" d="M954.4-8.1c-1.1,2.9-4.3,4.3-7.2,3.2l0,0c-2.9-1.1-4.3-4.3-3.2-7.2l2.9-7.5
			c1.1-2.9,4.3-4.3,7.2-3.2l0,0c1.4,0.5,2.5,1.6,3.1,2.9c0.6,1.3,0.6,2.9,0.1,4.3L954.4-8.1z"/>
		<path id="Path_27_" class="st43" d="M948.8-16.3c0,0,11.7-4.9,1.9,8C950.7-10.7,956.9-15.7,948.8-16.3z"/>
		<path id="Path_28_" class="st44" d="M909.3-47.7c0,0-11.2,1.5-12.9,4.4c-3.8,6.3,4.6,29,4.6,29L909.3-47.7z"/>
		<path id="Path_29_" class="st44" d="M949.8-16.2c0,0,7-19.7,4.5-25.7c-2.1-5-17.8-12.2-17.8-12.2l-8.3,11L949.8-16.2z"/>
		<path id="Path_30_" class="st40" d="M900.9-14.4c0,4.7,0.5,9.4,1.6,13.9l0,0c0.2,1,0.5,2.1,0.8,3.1c0.2,0.8,0.5,1.7,0.8,2.5
			c4.2,12.1,12.2,20.2,21.3,20.2c9,0,16.8-7.9,21.1-19.6c0.4-1,0.7-2,1-3.1c0.3-1,0.6-2,0.8-3l0,0c1-4.6,1.6-9.2,1.6-13.9
			c0-1.8-0.1-3.5-0.2-5.3c0-0.1,0-0.2,0-0.2c-1.8-19.4-12-34.2-24.3-34.2c-12.3,0-22.7,14.9-24.3,34.4
			C901-17.9,900.9-16.2,900.9-14.4z"/>
		<path id="Path_31_" class="st38" d="M946.1,6.6c-4.3,11.2-12,18.7-20.7,18.7c-8.9,0-16.7-7.8-21-19.3C912.6,3.2,928.3,0,946.1,6.6
			z"/>
		<path id="Path_32_" class="st45" d="M918.1-31v1.8h1v-2l3.2-0.6c0,0,0.9,4.3,0,5.3c-2.6,2.6-14.4,0-14.4,0v-2.6L918.1-31z"/>
		<path id="Path_33_" class="st45" d="M932.6-31.7v1.8h-1v-2l-3.2-0.6c0,0-0.9,4.3,0,5.3c2.6,2.6,14.4,0,14.4,0v-2.6L932.6-31.7z"/>
		<path id="Path_34_" class="st40" d="M926-17.7c0,0,1.5,10.3,2.5,17.6C912.1,3.7,925.7-17.3,926-17.7L926-17.7z"/>
		<path id="Path_35_" class="st43" d="M928.5-0.1c-16.4,3.8-2.8-17.2-2.5-17.6C925.8-17.3,916.8,1,928.5-0.1z"/>
		<path id="Path_36_" class="st38" d="M943.7-43.2c-0.7,0.5-2.6,0.9-5.1,1.2h-0.3c-3.5,0.4-8.3,0.5-13,0.5H925
			c-5.3,0-10.5,0-13.9-0.1h-0.3c-2.2-0.1-3.5-0.1-3.5-0.1l-4-4.8c0,0-2.9-12.8,12.5-10.9c0.8,0.1,1.5,0.2,2.3,0.2l1,0.1
			c4.4,0.4,8.6,0.7,12.5,1l0.9,0.1c3.9,0.4,7.4,0.8,10.5,1.6l0.4,0.1c3.2,0.9,5.7,2.2,7.4,4.3C953-47.2,947.4-45.9,943.7-43.2z"/>
		<path id="Path_37_" class="st45" d="M943.3-54.3c-0.3,0.2-0.5,0.4-0.7,0.6c-3.5,3-4,8.4-4,11.7h-0.3c0-3.3,0.5-8.8,4.1-11.9
			c0.2-0.2,0.4-0.3,0.6-0.4H943.3z"/>
		<path id="Path_38_" class="st45" d="M932.4-56.1c-2.4,0.7-4.2,1.9-5.5,3.5c-2.4,3.3-2.2,7.8-1.6,11.1H925
			c-0.6-3.3-0.8-7.9,1.7-11.2c1.2-1.6,3-2.8,4.9-3.4H932.4z"/>
		<path id="Path_39_" class="st45" d="M919-57.2c-2.9,0.6-5.1,1.8-6.5,3.7c-2.7,3.6-2.2,8.7-1.5,11.9h-0.3c-0.7-3.3-1.2-8.4,1.5-12
			c1.3-1.8,3.2-3,5.8-3.6H919z"/>
		<path id="Path_40_" class="st46" d="M948.2-0.4c-0.2,1-0.5,2.1-0.8,3c-0.3,1.1-0.6,2.1-1,3.1c-4.2,11.7-12.1,19.6-21,19.6
			c-1.4,0-2.7-0.2-4-0.5C942.3,22.4,948.1,0.3,948.2-0.4z"/>
		<path id="Path_41_" class="st40" d="M948.2-0.5L948.2-0.5C948.2-0.4,948.2-0.4,948.2-0.5z"/>
		<path id="Path_42_" class="st47" d="M948.7,0.4c-0.1,2.5-0.6,4.9-1.3,7.3c-0.7,2.3-1.6,4.5-2.8,6.6c-4.2,7.3-11.3,12.1-19.3,12.1
			c-1,0-1.9-0.1-2.9-0.2l0,0c-3.9-0.6-7.6-2.3-10.6-5c-1.1-0.9-2.1-1.9-3-3c-1.1-1.4-2.1-2.8-3-4.4c-0.8-1.4-1.4-2.9-2-4.4
			c0-0.1-0.1-0.2-0.1-0.3c-0.2-0.5-0.3-1-0.5-1.5c-0.1-0.4-0.2-0.8-0.3-1.2c-0.1-0.2-0.1-0.5-0.2-0.7c-0.4-1.8-0.7-3.6-0.8-5.4
			c0.4-0.6,0.8-1.1,1.2-1.7c3-3.6,7.2-5.8,11.7-5.8h20.8C940.9-7.2,945.6-4.2,948.7,0.4z"/>
		<path id="Path_43_" class="st48" d="M948.7,0.4c-0.1,2.5-0.6,4.9-1.3,7.3c-0.7,2.3-1.6,4.5-2.8,6.6c-4.2,7.3-11.3,12.1-19.3,12.1
			c-1,0-1.9-0.1-2.9-0.2l0,0c-3.9-0.6-7.6-2.3-10.6-5C935.8,20.3,948.7,0.4,948.7,0.4z"/>
		<path id="Path_44_" class="st49" d="M903.1,0.9c0,0,5.2-6.5,10.3-5.8C910.6-4,903.1,0.9,903.1,0.9z"/>
		<path id="Path_45_" class="st48" d="M920.2-0.6c-0.2-0.1,12.8,0,12.8,0S921.3,0,920.2-0.6z"/>
		<path id="Path_46_" class="st48" d="M928.4,1c-0.2-0.1,12.8,0,12.8,0S929.5,1.6,928.4,1z"/>
		<path id="Path_47_" class="st50" d="M920.2,5.8c0,0-8.9,0.5-17.4,0.6c-0.1-0.2-0.1-0.5-0.2-0.7C911.2,5.8,920.2,5.8,920.2,5.8z"/>
		<path id="Path_48_" class="st50" d="M909.8,9.3c0,0-2.6,0.1-6.1,0.3c0-0.1-0.1-0.2-0.1-0.3H909.8z"/>
		<path id="Path_49_" class="st35" d="M952.8-25.6c-4.7-4.4-9.4-7.3-14.1-9c-22-8.3-41.6,8.6-41.6,8.6
			c-13.4-34.2,13.1-32.3,13.1-32.3s11.6-0.3,31.8-0.3h0.3C959.2-58.6,955.5-30.2,952.8-25.6z"/>
		<path id="Path_50_" class="st51" d="M900-50.5h26.4C926.4-50.5,905.6-49.4,900-50.5z"/>
		<path id="Path_51_" class="st51" d="M903.9-46.8h26.4C930.3-46.8,909.4-45.7,903.9-46.8z"/>
		<path id="Path_52_" class="st51" d="M895-39.8h26.4C921.4-39.8,900.5-38.7,895-39.8z"/>
		<path id="Path_53_" class="st51" d="M938.9-44.3h14.6C953.5-44.3,942-43.7,938.9-44.3z"/>
		<path id="Path_54_" class="st52" d="M952.8-25.6c-4.7-4.4-9.4-7.3-14.1-9c5-6.9,4.6-16.8,3.3-24h0.3
			C959.2-58.6,955.5-30.2,952.8-25.6z"/>
		<path id="Path_55_" class="st5" d="M930-17.4c0,0,7-17,13.2-0.9C940.6-15.9,935-13.7,930-17.4z"/>
		<path id="Path_56_" class="st53" d="M943.1-18.3C938.2-30,931.9-21,931.9-21C934.4-24.9,938.9-29.2,943.1-18.3z"/>
		<path id="Path_57_" class="st53" d="M943.1-18.3c-2.5,2.4-8.1,4.6-13.1,0.9C934.1-15.1,939.3-15.4,943.1-18.3L943.1-18.3z"/>
		<path id="Path_58_" class="st54" d="M938.7-19c-0.2,1.3-1.2,2.4-2.5,2.7c-1.3,0.3-2.6-0.2-3.4-1.3s-0.8-2.5-0.1-3.6s2-1.7,3.3-1.5
			C937.8-22.4,939-20.8,938.7-19L938.7-19z"/>
		<path id="Path_59_" class="st55" d="M937.9-21.7c0.8,1.5,0.4,3.3-0.9,4.3c-1.4,1-3.2,0.8-4.3-0.5c0.6,1.1,1.8,1.7,3,1.6
			c1.2-0.1,2.3-0.9,2.8-2S938.8-20.8,937.9-21.7L937.9-21.7z"/>
		<path id="Path_60_" class="st56" d="M936.7-19.3c-0.1,0.8-0.9,1.4-1.7,1.2c-0.8-0.1-1.4-0.9-1.3-1.7c0.1-0.8,0.9-1.4,1.7-1.3
			c0.4,0.1,0.8,0.3,1,0.6C936.7-20.1,936.8-19.7,936.7-19.3L936.7-19.3z"/>
		<path id="Path_61_" class="st5" d="M935.4-20.6c0,0.1-0.1,0.3-0.3,0.3c-0.1,0.1-0.3,0-0.4-0.1c-0.1-0.1-0.2-0.2-0.1-0.4
			c0-0.1,0.1-0.2,0.2-0.3s0.2-0.1,0.3-0.1C935.2-21,935.4-20.8,935.4-20.6L935.4-20.6z"/>
		<path id="Path_62_" class="st5" d="M920.6-17.4c0,0-7-17-13.1-0.9C909.9-15.9,915.6-13.7,920.6-17.4z"/>
		<path id="Path_63_" class="st53" d="M907.4-18.3c4.9-11.7,11.2-2.7,11.2-2.7l0,0C916.1-24.9,911.6-29.2,907.4-18.3z"/>
		<path id="Path_64_" class="st53" d="M907.4-18.3c2.5,2.4,8.1,4.6,13.1,0.9C916.4-15.1,911.3-15.4,907.4-18.3z"/>
		<path id="Path_65_" class="st54" d="M911.8-19c0.2,1.3,1.2,2.4,2.5,2.7s2.6-0.2,3.4-1.3s0.8-2.5,0.1-3.6s-2-1.7-3.3-1.5
			C912.7-22.4,911.5-20.8,911.8-19z"/>
		<path id="Path_66_" class="st55" d="M912.6-21.7c-0.8,1.5-0.4,3.3,0.9,4.3c1.4,1,3.2,0.8,4.3-0.5c-0.6,1.1-1.8,1.7-3,1.6
			c-1.2-0.1-2.3-0.9-2.8-2S911.8-20.8,912.6-21.7L912.6-21.7z"/>
		<path id="Path_67_" class="st56" d="M913.8-19.3c0.1,0.8,0.9,1.4,1.7,1.2c0.8-0.1,1.4-0.9,1.3-1.7c-0.1-0.8-0.9-1.4-1.7-1.3
			c-0.4,0.1-0.8,0.3-1,0.6C913.9-20.1,913.8-19.7,913.8-19.3z"/>
		<path id="Path_68_" class="st5" d="M915.2-20.6c0,0.2,0.2,0.4,0.5,0.3c0.2,0,0.4-0.2,0.3-0.5c0-0.2-0.2-0.4-0.5-0.3
			C915.3-21,915.1-20.8,915.2-20.6L915.2-20.6z"/>
	</g>
	<path id="Path_69_" class="st57" d="M1079.6,77.4c-2.4-4.1-2.5-9.2-0.1-13.3c2.3-4.1,6.7-6.7,11.5-6.7c4.7,0,9.2,2.5,11.6,6.5
		c0.6,1,35.5,75.7,35.5,75.7c2.8,5.3,1,11.9-4.2,15c-5.2,3.1-11.9,1.5-15.1-3.6L1079.6,77.4z"/>
	<path id="Path_70_" class="st57" d="M1135.7,153.4c-4.8,3.9-11.7,3.2-15.7-1.5s-3.3-12,1.3-16l0,0c0,0,12.8-15.2,62.7-52.3l9.2,11
		c0,0-33.7,42-56.8,58.2C1136.3,152.9,1135.7,153.4,1135.7,153.4z"/>
	<path id="Path_71_" class="st35" d="M1095.1,116.8l-20.6-37.4c-5.2-8.7-2.8-20.4,5.4-26.1c8.2-5.7,19.2-3.4,24.5,5.3
		c0.4,0.6,9.6,19.4,19.7,40.1C1117.6,103.6,1106.9,111.3,1095.1,116.8z"/>
	<path id="Path_72_" class="st36" d="M1183.9,84.3c0,0-0.3-11.7,1.8-15c3.7-4.2,14.9-9.5,14.9-9.5l0.1-0.1l7.4-6.6
		c0,0,2.5-2.6,4.5-0.5c2.1,2.2,0.3,4.4,0.3,4.4l-2.3,2.9c0,0,1.9-0.7,3.1,1.2c1.8,2.9-1.5,5.2-1.5,5.2s2.2-0.4,3.2,1.6
		c0.6,1.1,0.5,2.5-0.1,3.6c0,0,1.5,0.6,1.8,1.7c0.5,1.8-2,5.1-2,5.1s-7.8,8.5-19.8,14.5C1195.3,92.8,1183.1,98.1,1183.9,84.3z"/>
	<path id="Path_73_" class="st58" d="M1200.8,59.6c0,0-0.9,1.1-1.5,1.5l-2.4,3.9c0,0,0.9,10.5-3.1,14.6c0,0,9.5-1.5,14.3,4
		c0,0,5.7-3.9,7.4-6.5l-6.4,3.3c0,0-1.8,1.1-3.1-0.9c-1.3-2,1-3.1,1-3.1l8.5-4.8l-7.6,3.3c0,0-2.4,1.2-3.5-1.2
		c-0.9-2.1,1.3-3.2,1.3-3.2l6.5-4l-5.9,2.9c0,0-1.7,0.8-3-1.3c-1.3-2.1,0.9-3.5,0.9-3.5l6.3-4.6l1.4-2c0,0-2.2,1.1-4-0.5
		c-1.7-1.6-0.2-4.1-0.2-4.1L1200.8,59.6z"/>
	<path id="Path_74_" class="st59" d="M1206.8,58.8c0,0,6.4,1.2,4.9,6.6c-1.4,5.4,4.3,17.9,18.4,23s18.1,25.8,17.1,28.4
		c0,0-13.7,8.5-26.5,13.5c0,0-25.5-33.7-24.5-66.1C1196.2,64.1,1200.8,60.5,1206.8,58.8z"/>
	
		<rect id="Rectangle_9_" x="1205.6" y="34.5" transform="matrix(0.8911 -0.4538 0.4538 0.8911 114.7423 551.814)" class="st60" width="3.1" height="4.7"/>
	<path id="Path_75_" class="st61" d="M1245.8,115.3c0,0-1.1-16.8-15.1-25.5c0,0-7.9,2.2-11.9,5.5c-4,3.4-12.8,6.6-12.8,6.6
		s5.4,13.4,15.2,25.8C1221.3,127.8,1235.3,122.6,1245.8,115.3z"/>
	<g id="Group" transform="translate(342.304001, 115.824000)" class="st25">
		<path id="Path_76_" class="st5" d="M889,5.8C889,5.8,889.1,5.8,889,5.8c0.5-0.4,0.6-1,0.4-1.4c-20-30.1-30.3-61.9-30.4-62.2
			c-0.2-0.5-0.7-0.8-1.2-0.7c-0.5,0.1-0.8,0.7-0.6,1.2c0.1,0.3,10.5,32.4,30.6,62.7C888.1,5.8,888.6,5.9,889,5.8z"/>
	</g>
	<path id="Path_77_" class="st60" d="M1204.9,40.4c0,0,1.4,6.1,10.7,9.9l-0.4,1.1c0,0-11.4-3-14.7-8.2L1204.9,40.4z"/>
	<path id="Path_78_" class="st62" d="M1202.5,53.9c0,0,0.7-2-0.6-5.2c-1.2-3.3,4.8-9.4,4.8-9.4l-2.2-4.3c0,0-16.3,1.8-25.4,13.8
		l1.5,1.7c0,0,8-3.4,11.5,3.7c0,0,1.2,3.5,3.5,3.2L1202.5,53.9z"/>
	<polygon id="Path_79_" class="st60" points="1207.1,58.9 1203.8,52.4 1193.2,57.8 1196.3,64.3 	"/>
	<path id="Path_80_" class="st63" d="M1242.4,109.4c0,0-2.6-12.1-13.9-18.8c-11.3-6.8-18.6-10.9-19.3-25.5c0,0,0-3-1.9-3
		c-1.9-0.1-1.5,3.2-0.7,6.4c0.8,3.2,2.3,16.6,18.3,24.3c12.8,6.1,10.6,16,13.5,19.3C1241.6,115.6,1242.9,111.1,1242.4,109.4z"/>
	<path id="Path_81_" class="st36" d="M1205.9,79.4c-1.3-2,1-3.1,1-3.1l8.1-4.6l-7.2,3.1c0,0-2.4,1.2-3.5-1.2
		c-0.9-2.1,1.3-3.2,1.3-3.2l6.1-3.7l-5.5,2.7c0,0-1.7,0.8-3-1.3c-1.2-2.1,1.1-3.5,1.1-3.5l6.6-4.7c0.4-0.1,2-0.4,3,1.3
		c1.8,2.9-1.5,5.2-1.5,5.2s2.2-0.4,3.2,1.6c0.6,1.1,0.5,2.5-0.1,3.6c0,0,1.5,0.6,1.8,1.7c0.3,0.9-0.2,2.2-0.8,3.2l-7.3,3.9
		C1209,80.3,1207.2,81.4,1205.9,79.4z"/>
	<path id="Path_82_" class="st36" d="M1208,57.5c-1.2-1.1-0.8-2.9-0.5-3.9l0.7-0.6c0,0,2.5-2.6,4.5-0.5c2.1,2.2,0.3,4.4,0.3,4.4
		l-0.7,0.9C1211.3,58.1,1209.2,58.8,1208,57.5z"/>
	<path id="Path_83_" class="st58" d="M1210.9,73.4l-3.2,1.4c0,0-2.4,1.2-3.5-1.2c-0.9-2.1,1.3-3.2,1.3-3.2l2.8-1.7
		C1211.2,69.9,1211.1,72.4,1210.9,73.4z"/>
	<path id="Path_84_" class="st58" d="M1205.9,79.4c-1.3-2,1-3.1,1-3.1l2.9-1.7c2.4,0.9,2.2,3.2,2,4.2l-2.8,1.5
		C1209,80.3,1207.2,81.4,1205.9,79.4z"/>
	<path id="Path_85_" class="st58" d="M1209.2,67.8l-3,1.5c0,0-1.7,0.8-3-1.3c-1.2-2.1,1.1-3.5,1.1-3.5l2.9-2.1
		C1210.3,63.8,1209.4,67,1209.2,67.8z"/>
	<path id="Path_86_" class="st36" d="M1199.3,61.1c0,0-2.2,3.4-2.4,3.9c-0.2,0.5-0.6,5.3-2.5,7.3c-1.9,2-7.5,3.6-8.6-3
		c0.1-0.1,0.1-0.2,0.2-0.3c2.4-2.9,7.5-10.3,8.9-11.4c3.5-2.7,6.7-7.8,7.8-7.1c1,0.7,3.2,1.9-1.9,9.2l0,0l-0.1,0.1
		C1200.7,59.8,1199.7,60.9,1199.3,61.1z"/>
	<path id="Path_87_" class="st57" d="M1004.4,77.1c5.6-3.5,7.3-10.9,3.8-16.5s-10.9-7.3-16.5-3.8c-0.9,0.6-59.7,45.9-59.7,45.9
		c-4.7,3-6.2,9.2-3.2,14c3,4.7,9.2,6.2,14,3.2L1004.4,77.1z"/>
	<path id="Path_88_" class="st57" d="M929.3,117.3c3.4,4.4,9.7,5.2,14.1,1.9c4.4-3.4,5.4-9.7,2.2-14.3l0,0c0,0-8.1-16-44.2-58.9
		L891,53.8c0,0,20.9,43.8,37.8,62.8C928.9,116.6,929.3,117.3,929.3,117.3z"/>
	<path id="Path_89_" class="st35" d="M976.3,102.8l32.8-22.7c8-5.1,10.5-15.7,5.4-23.7c-5.1-8-15.7-10.5-23.7-5.4
		c-0.6,0.4-16,12.2-33,25.2C961.3,83.1,967.8,93.8,976.3,102.8z"/>
	<path id="Path_90_" class="st64" d="M857,112.6c0,0,8.4-60.1,11.8-72.3C872.2,28,882.4,21.1,891,23s20.3,8.3,29.5,85.1
		c0,0-0.9,1.6-5.3,3.7c-4.4,2.1,4.6,11.7-6.5,12.9c-11.1,1.2,2.3,12.2-27.5,10.2c-12.5-0.3-13.2-11.6-13.2-11.6
		S857.2,119.6,857,112.6z"/>
	<path id="Path_91_" class="st65" d="M868.1,121.3l6.3-75.9c0,0-12.4,69.3-12.1,70C862.5,116.1,863.2,119.8,868.1,121.3z"/>
	<path id="Path_92_" class="st65" d="M913.1,110.3l-8.4-46C904.7,64.1,919.2,107.6,913.1,110.3z"/>
	<path id="Path_93_" class="st65" d="M902.6,124.3L891,51.8c0,0,15.4,57.3,15.2,68.3C906.1,120.1,905.9,123.8,902.6,124.3z"/>
	<path id="Path_94_" class="st36" d="M1184,78.4l-12.8,14.9l9.4,16.3c0,0,12.6-14.6,14.6-16.7c2-2.1-3.8-12.2-3.8-12.2l-2.5-3
		L1184,78.4z"/>
</g>
<g id="Group-102-Copy-5" transform="translate(334.000000, 271.000000)" class="st66">
	<path id="Fill-1_6_" class="st67" d="M921-33.6h8c-0.9-6.7-0.9-13.3,0-20h-8C921.9-46.9,921.9-40.3,921-33.6"/>
	<path id="Fill-3_6_" class="st67" d="M900.1-25.6l5.9-3.6c-3.7-5.1-6.7-10.5-9.1-16.4L891-42C894.7-36.9,897.7-31.5,900.1-25.6"/>
	<path id="Fill-5_6_" class="st67" d="M886.4-8.6l3.6-5.9c-5.9-2.4-11.3-5.4-16.4-9.1l-3.6,5.9C875.9-15.3,881.3-12.3,886.4-8.6"/>
	<path id="Fill-7_6_" class="st67" d="M882,15.4v-8c-6.7,0.9-13.3,0.9-20,0v8C868.7,14.5,875.3,14.5,882,15.4"/>
	<path id="Fill-9_6_" class="st67" d="M890,36.3l-3.6-5.9c-5.1,3.7-10.6,6.7-16.4,9.1l3.6,5.9C878.7,41.8,884.1,38.8,890,36.3"/>
	<path id="Fill-11_6_" class="st67" d="M906,51l-5.9-3.6c-2.4,5.9-5.4,11.3-9.1,16.4l5.9,3.6C899.3,61.5,902.3,56.1,906,51"/>
	<path id="Fill-13_6_" class="st67" d="M929,55.4h-8c0.9,6.7,0.9,13.3,0,20h8C928.1,68.8,928.1,62.1,929,55.4"/>
	<path id="Fill-15_6_" class="st67" d="M951.9,47.4L946,51c3.7,5.1,6.7,10.6,9.1,16.4l5.9-3.6C957.3,58.8,954.3,53.3,951.9,47.4"/>
	<path id="Fill-17_6_" class="st67" d="M965.6,30.4l-3.6,5.9c5.9,2.4,11.3,5.4,16.4,9.1l3.6-5.9C976.1,37.1,970.7,34.1,965.6,30.4"
		/>
	<path id="Fill-19_6_" class="st67" d="M970,7.4v8c6.7-0.9,13.3-0.9,20,0v-8C983.3,8.3,976.7,8.3,970,7.4"/>
	<path id="Fill-21_6_" class="st67" d="M962-14.5l3.6,5.9c5.1-3.7,10.6-6.7,16.4-9.1l-3.6-5.9C973.3-19.9,967.9-16.9,962-14.5"/>
	<path id="Fill-23_6_" class="st67" d="M946-29.2l5.9,3.6c2.4-5.9,5.4-11.3,9.1-16.4l-5.9-3.6C952.7-39.7,949.7-34.3,946-29.2"/>
	<path id="Fill-25_6_" class="st67" d="M975,11.9c0,27.9-22.4,50.5-50,50.5s-50-22.6-50-50.5s22.4-50.5,50-50.5S975-16,975,11.9"/>
	<path id="Fill-27_6_" class="st67" d="M975,11.9c0,6.1-1.1,11.9-3,17.3c-1.2,3.4-2.8,6.7-4.7,9.7c-6.1,9.8-15.6,17.4-26.7,21.1
		c-4.9,1.6-10.1,2.5-15.6,2.5c-27.6,0-50-22.6-50-50.5c0-5.5,0.9-10.8,2.5-15.7c3.6-11.2,11.1-20.7,20.8-27c3-1.9,6.2-3.5,9.6-4.8
		c5.3-2,11.1-3,17.1-3C952.6-38.6,975-16,975,11.9"/>
	<path id="Fill-29_6_" class="st67" d="M946,42.1c0,5.5-0.9,10.8-2.5,15.8c-5,1.6-10.3,2.5-15.8,2.5c-28,0-50.7-22.7-50.7-50.7
		c0-5.5,0.9-10.8,2.5-15.8c5-1.6,10.3-2.5,15.8-2.5C923.3-8.6,946,14.1,946,42.1"/>
	<path id="Fill-31_6_" class="st68" d="M975,11.3c0,6-1.1,11.7-3,17c-1.2,3.4-2.8,6.6-4.7,9.5c-7.7,4.9-16.8,7.7-26.6,7.7
		c-27.4,0-49.7-22.3-49.7-49.8c0-9.8,2.8-18.9,7.7-26.6c3-1.9,6.2-3.5,9.5-4.7c5.3-1.9,11-3,17-3C952.7-38.6,975-16.3,975,11.3"/>
	<path id="Fill-33_6_" class="st67" d="M937-18.6c0,2.2-1.8,4-4,4s-4-1.8-4-4s1.8-4,4-4S937-20.8,937-18.6"/>
	<path id="Fill-35_6_" class="st67" d="M967,18.4c0,2.2-1.8,4-4,4s-4-1.8-4-4s1.8-4,4-4S967,16.3,967,18.4"/>
	<path id="Fill-37_6_" class="st67" d="M898,6.9c0,4.1-3.4,7.5-7.5,7.5S883,11,883,6.9s3.4-7.5,7.5-7.5S898,2.8,898,6.9"/>
	<path id="Fill-39_6_" class="st67" d="M941-3.6c0,3.3-2.7,6-6,6s-6-2.7-6-6s2.7-6,6-6S941-6.9,941-3.6"/>
	<path id="Fill-41_6_" class="st67" d="M951,40.9c0,1.9-1.6,3.5-3.5,3.5s-3.5-1.6-3.5-3.5s1.6-3.5,3.5-3.5S951,39,951,40.9"/>
	<path id="Fill-43_6_" class="st67" d="M913-16.1c0,3.6-2.9,6.5-6.5,6.5s-6.5-2.9-6.5-6.5s2.9-6.5,6.5-6.5S913-19.7,913-16.1"/>
	<path id="Fill-45_6_" class="st67" d="M926-27.1c0,1.9-1.6,3.5-3.5,3.5s-3.5-1.6-3.5-3.5c0-1.9,1.6-3.5,3.5-3.5S926-29,926-27.1"/>
	<path id="Fill-47_6_" class="st67" d="M961-14.1c0,1.9-1.6,3.5-3.5,3.5s-3.5-1.6-3.5-3.5s1.6-3.5,3.5-3.5S961-16,961-14.1"/>
	<path id="Fill-49_6_" class="st67" d="M919,38.9c0,3.6-2.9,6.5-6.5,6.5s-6.5-2.9-6.5-6.5s2.9-6.5,6.5-6.5S919,35.3,919,38.9"/>
	<path id="Fill-51_5_" class="st67" d="M970-4.1c0,1.9-1.8,3.5-4,3.5s-4-1.6-4-3.5s1.8-3.5,4-3.5S970-6,970-4.1"/>
	<path id="Fill-53_5_" class="st67" d="M936-53.6c0,2.8-4.7,5-10.5,5s-10.5-2.2-10.5-5s4.7-5,10.5-5S936-56.4,936-53.6"/>
	<path id="Fill-55_5_" class="st67" d="M931-55.1c0,0.8-2.9,1.5-6.5,1.5s-6.5-0.7-6.5-1.5s2.9-1.5,6.5-1.5S931-55.9,931-55.1"/>
	<path id="Fill-57_5_" class="st67" d="M936,73.4c0,2.8-4.7,5-10.5,5s-10.5-2.2-10.5-5s4.7-5,10.5-5S936,70.6,936,73.4"/>
	<path id="Fill-59_5_" class="st67" d="M931,74.9c0,0.8-2.9,1.5-6.5,1.5s-6.5-0.7-6.5-1.5s2.9-1.5,6.5-1.5S931,74.1,931,74.9"/>
	<path id="Fill-61_5_" class="st67" d="M968.7-38.9c-1.4,2.1-6.8,1.5-12.2-1.3c-5.4-2.9-8.6-7-7.2-9.1c1.4-2.1,6.8-1.5,12.2,1.3
		C966.8-45.1,970.1-41,968.7-38.9"/>
	<path id="Fill-63_5_" class="st67" d="M963.8-41.3c-0.7,1.2-4,0.8-7.2-1.1c-3.2-1.8-5.2-4.3-4.5-5.6c0.7-1.2,4-0.8,7.2,1.1
		C962.6-45,964.6-42.5,963.8-41.3"/>
	<path id="Fill-65_5_" class="st67" d="M902.7,70.1c-1.4,2.1-6.8,1.5-12.2-1.3c-5.4-2.9-8.6-7-7.2-9.1c1.4-2.1,6.8-1.5,12.2,1.3
		C900.8,63.9,904.1,68,902.7,70.1"/>
	<path id="Fill-67_5_" class="st67" d="M899.8,67.8c-0.7,1.2-4,0.8-7.2-1.1c-3.2-1.8-5.2-4.3-4.5-5.6c0.7-1.2,4-0.8,7.2,1.1
		C898.6,64,900.6,66.5,899.8,67.8"/>
	<path id="Fill-69_5_" class="st67" d="M986.6-12.9c-2.2,1.3-6.3-2-9.1-7.3c-2.8-5.4-3.3-10.8-1.1-12.1c2.2-1.3,6.3,2,9.1,7.3
		C988.3-19.6,988.8-14.2,986.6-12.9"/>
	<path id="Fill-71_5_" class="st67" d="M984.3-13.7c-1.3,0.7-3.8-1.3-5.6-4.6c-1.8-3.2-2.2-6.4-1-7.2c1.3-0.7,3.8,1.3,5.6,4.6
		C985.1-17.7,985.5-14.5,984.3-13.7"/>
	<path id="Fill-73_5_" class="st67" d="M875.6,52.1c-2.2,1.3-6.3-2-9.1-7.3c-2.8-5.4-3.3-10.8-1.1-12.1c2.2-1.3,6.3,2,9.1,7.3
		C877.3,45.4,877.8,50.8,875.6,52.1"/>
	<path id="Fill-75_6_" class="st67" d="M874.3,47.3c-1.3,0.7-3.8-1.3-5.6-4.6c-1.8-3.2-2.2-6.4-1-7.2c1.3-0.7,3.8,1.3,5.6,4.6
		C875.1,43.3,875.5,46.5,874.3,47.3"/>
	<path id="Fill-77_6_" class="st67" d="M989.8,22.4c-2.8,0-4.9-4.8-4.8-10.6c0.1-5.8,2.5-10.5,5.2-10.4c2.8,0.1,4.9,4.8,4.8,10.6
		C994.9,17.8,992.5,22.5,989.8,22.4"/>
	<path id="Fill-79_6_" class="st67" d="M988.4,18.4c-0.8,0-1.5-3-1.4-6.6c0-3.6,0.7-6.5,1.6-6.4c0.8,0,1.5,3,1.4,6.6
		C990,15.5,989.3,18.4,988.4,18.4"/>
	<g id="Group-83_5_" transform="translate(0.000000, 57.000000)">
		<g id="Clip-82_5_">
		</g>
		<path id="Fill-81_6_" class="st67" d="M861.8-36.6c-2.8-0.1-4.9-5-4.8-11.1s2.5-10.9,5.2-10.9s4.9,5,4.8,11.1
			C866.9-41.5,864.5-36.6,861.8-36.6"/>
	</g>
	<path id="Fill-84_6_" class="st67" d="M861.4,14.4c-0.8,0-1.4-3-1.4-6.6c0-3.5,0.7-6.4,1.6-6.4c0.8,0,1.4,3,1.4,6.6
		C863,11.5,862.3,14.4,861.4,14.4"/>
	<path id="Fill-86_6_" class="st67" d="M975.3,52.1c-2.2-1.3-1.6-6.8,1.2-12.1c2.9-5.4,6.9-8.6,9.1-7.3c2.2,1.3,1.6,6.8-1.2,12.1
		C981.6,50.3,977.5,53.4,975.3,52.1"/>
	<path id="Fill-88_6_" class="st67" d="M977.7,47.3c-1.3-0.7-0.8-3.9,1-7.2c1.8-3.2,4.3-5.3,5.6-4.5c1.3,0.7,0.8,3.9-1,7.2
		C981.5,46,979,48,977.7,47.3"/>
	<path id="Fill-90_6_" class="st67" d="M865.3-12.9c-2.2-1.3-1.6-6.8,1.2-12.1c2.9-5.4,6.9-8.6,9.1-7.3c2.2,1.3,1.6,6.8-1.2,12.1
		C871.6-14.8,867.5-11.6,865.3-12.9"/>
	<path id="Fill-92_6_" class="st67" d="M867.7-15.7c-1.3-0.7-0.8-3.9,1-7.2s4.3-5.3,5.6-4.5c1.3,0.7,0.8,3.9-1,7.2
		C871.5-17,869-15,867.7-15.7"/>
	<path id="Fill-94_6_" class="st67" d="M949.3,70.1c-1.4-2.1,1.9-6.2,7.2-9.1s10.8-3.5,12.2-1.4c1.4,2.1-1.9,6.2-7.2,9.1
		C956.1,71.8,950.7,72.3,949.3,70.1"/>
	<path id="Fill-96_6_" class="st67" d="M952.2,67.8c-0.8-1.2,1.3-3.7,4.5-5.6c3.2-1.8,6.5-2.3,7.2-1.1c0.8,1.2-1.3,3.7-4.5,5.6
		C956.1,68.5,952.9,69,952.2,67.8"/>
	<path id="Fill-98_6_" class="st67" d="M883.3-38.9c-1.4-2.1,1.9-6.2,7.2-9.1c5.3-2.9,10.8-3.5,12.2-1.4c1.4,2.1-1.9,6.2-7.2,9.1
		C890.1-37.3,884.7-36.7,883.3-38.9"/>
	<path id="Fill-100_6_" class="st67" d="M888.2-41.3c-0.8-1.2,1.3-3.7,4.5-5.6c3.2-1.8,6.5-2.3,7.2-1.1c0.8,1.2-1.3,3.7-4.5,5.5
		C892.1-40.5,888.9-40,888.2-41.3"/>
</g>
<g id="Group-102-Copy-7" transform="translate(45.000000, 280.000000)" class="st66">
	<path id="Fill-1_5_" class="st67" d="M885-47.6h4c-0.4-3-0.4-6,0-9h-4C885.4-53.6,885.4-50.6,885-47.6"/>
	<path id="Fill-3_5_" class="st67" d="M876.2-43.6l2.8-1.6c-1.7-2.3-3.1-4.7-4.2-7.4L872-51C873.7-48.7,875.1-46.2,876.2-43.6"/>
	<path id="Fill-5_5_" class="st67" d="M869.4-36.6l1.6-2.8c-2.6-1.1-5.1-2.5-7.4-4.2l-1.6,2.8C864.6-39.7,867.1-38.3,869.4-36.6"/>
	<path id="Fill-7_5_" class="st67" d="M868-25.6v-4c-3,0.4-6,0.4-9,0v4C862-26,865-26,868-25.6"/>
	<path id="Fill-9_5_" class="st67" d="M871-16.8l-1.6-2.8c-2.3,1.7-4.7,3.1-7.4,4.2l1.6,2.8C865.9-14.3,868.4-15.7,871-16.8"/>
	<path id="Fill-11_5_" class="st67" d="M879-12l-2.8-1.6c-1.1,2.6-2.5,5.1-4.2,7.4l2.8,1.6C875.9-7.2,877.3-9.7,879-12"/>
	<path id="Fill-13_5_" class="st67" d="M889-8.6h-4c0.4,3,0.4,6,0,9h4C888.6-2.6,888.6-5.6,889-8.6"/>
	<path id="Fill-15_5_" class="st67" d="M898.8-13.6L896-12c1.7,2.3,3.1,4.7,4.2,7.4l2.8-1.6C901.3-8.5,899.9-11,898.8-13.6"/>
	<path id="Fill-17_5_" class="st67" d="M904.6-19.6l-1.6,2.8c2.6,1.1,5.1,2.5,7.4,4.2l1.6-2.8C909.4-16.5,906.9-17.9,904.6-19.6"/>
	<path id="Fill-19_5_" class="st67" d="M907-29.6v4c3-0.4,6-0.4,9,0v-4C913-29.2,910-29.2,907-29.6"/>
	<path id="Fill-21_5_" class="st67" d="M903-39.4l1.6,2.8c2.3-1.7,4.7-3.1,7.4-4.2l-1.6-2.8C908.1-41.9,905.6-40.5,903-39.4"/>
	<path id="Fill-23_5_" class="st67" d="M896-45.2l2.8,1.6c1.1-2.6,2.5-5.1,4.2-7.4l-2.8-1.6C899.1-50,897.7-47.5,896-45.2"/>
	<path id="Fill-25_5_" class="st67" d="M909-28.1c0,11.9-10.1,21.5-22.5,21.5S864-16.2,864-28.1s10.1-21.5,22.5-21.5
		S909-40,909-28.1"/>
	<path id="Fill-27_5_" class="st67" d="M909-28.1c0,2.6-0.5,5.1-1.3,7.3c-0.6,1.5-1.3,2.8-2.1,4.1c-2.8,4.2-7,7.4-12,9
		c-2.2,0.7-4.6,1.1-7,1.1c-12.5,0-22.6-9.6-22.6-21.5c0-2.3,0.4-4.6,1.1-6.7c1.6-4.8,5-8.8,9.4-11.5c1.3-0.8,2.8-1.5,4.3-2
		c2.4-0.8,5-1.3,7.7-1.3C898.9-49.6,909-40,909-28.1"/>
	<path id="Fill-29_5_" class="st67" d="M896-14.6c0,2.4-0.4,4.7-1.1,6.9c-2.2,0.7-4.6,1.1-7.1,1.1c-12.6,0-22.8-9.9-22.8-22
		c0-2.4,0.4-4.7,1.1-6.9c2.2-0.7,4.6-1.1,7.1-1.1C885.8-36.6,896-26.7,896-14.6"/>
	<path id="Fill-31_5_" class="st68" d="M909-27.7c0,2.6-0.5,5.2-1.3,7.5c-0.5,1.5-1.2,2.9-2.1,4.2c-3.4,2.1-7.4,3.4-11.7,3.4
		c-12.1,0-21.9-9.8-21.9-21.9c0-4.3,1.2-8.3,3.4-11.7c1.3-0.8,2.7-1.5,4.2-2.1c2.3-0.8,4.8-1.3,7.5-1.3
		C899.2-49.6,909-39.8,909-27.7"/>
	<path id="Fill-33_5_" class="st67" d="M892-40.6c0,1.1-0.9,2-2,2s-2-0.9-2-2s0.9-2,2-2S892-41.7,892-40.6"/>
	<path id="Fill-35_5_" class="st67" d="M905-24.6c0,1.1-0.9,2-2,2s-2-0.9-2-2s0.9-2,2-2S905-25.7,905-24.6"/>
	<path id="Fill-37_5_" class="st67" d="M875-30.1c0,1.9-1.6,3.5-3.5,3.5s-3.5-1.6-3.5-3.5s1.6-3.5,3.5-3.5S875-32,875-30.1"/>
	<path id="Fill-39_5_" class="st67" d="M894-33.6c0,1.7-1.3,3-3,3s-3-1.3-3-3s1.3-3,3-3S894-35.3,894-33.6"/>
	<path id="Fill-41_5_" class="st67" d="M899-15.6c0,1.1-0.9,2-2,2s-2-0.9-2-2s0.9-2,2-2S899-16.7,899-15.6"/>
	<path id="Fill-43_5_" class="st67" d="M881-39.6c0,1.7-1.3,3-3,3s-3-1.3-3-3s1.3-3,3-3S881-41.3,881-39.6"/>
	<path id="Fill-45_5_" class="st67" d="M888-45.6c0,1.1-0.9,2-2,2s-2-0.9-2-2s0.9-2,2-2S888-46.7,888-45.6"/>
	<path id="Fill-47_5_" class="st67" d="M903-39.6c0,1.1-0.9,2-2,2s-2-0.9-2-2s0.9-2,2-2S903-40.7,903-39.6"/>
	<path id="Fill-49_5_" class="st67" d="M885-15.6c0,1.7-1.3,3-3,3s-3-1.3-3-3s1.3-3,3-3S885-17.3,885-15.6"/>
	<path id="Fill-51_4_" class="st67" d="M907-35.6c0,1.1-0.9,2-2,2s-2-0.9-2-2s0.9-2,2-2S907-36.7,907-35.6"/>
	<path id="Fill-53_4_" class="st67" d="M892-56.6c0,1.1-2.2,2-5,2s-5-0.9-5-2s2.2-2,5-2S892-57.7,892-56.6"/>
	<path id="Fill-55_4_" class="st67" d="M890-57.1c0,0.3-1.3,0.5-3,0.5s-3-0.2-3-0.5s1.3-0.5,3-0.5S890-57.4,890-57.1"/>
	<path id="Fill-57_4_" class="st67" d="M892-0.6c0,1.1-2.2,2-5,2s-5-0.9-5-2s2.2-2,5-2S892-1.7,892-0.6"/>
	<path id="Fill-59_4_" class="st67" d="M890-0.1c0,0.3-1.3,0.5-3,0.5s-3-0.2-3-0.5s1.3-0.5,3-0.5S890-0.4,890-0.1"/>
	<path id="Fill-61_4_" class="st67" d="M905.9-50.2c-0.6,1-3.1,0.7-5.5-0.6c-2.4-1.3-3.9-3.2-3.2-4.2s3.1-0.7,5.5,0.6
		C905.1-53.1,906.5-51.2,905.9-50.2"/>
	<path id="Fill-63_4_" class="st67" d="M903.9-50.9c-0.4,0.6-2,0.4-3.6-0.5c-1.6-0.9-2.6-2.2-2.2-2.8c0.4-0.6,2-0.4,3.6,0.5
		C903.3-52.8,904.3-51.6,903.9-50.9"/>
	<path id="Fill-65_4_" class="st67" d="M876.9-2.2c-0.6,1-3.1,0.7-5.5-0.6C869-4,867.5-6,868.2-7c0.6-1,3.1-0.7,5.5,0.6
		C876-5.1,877.5-3.2,876.9-2.2"/>
	<path id="Fill-67_4_" class="st67" d="M875.9-2.9c-0.4,0.6-2,0.4-3.6-0.5c-1.6-0.9-2.6-2.2-2.2-2.8c0.4-0.6,2-0.4,3.6,0.5
		C875.3-4.8,876.3-3.6,875.9-2.9"/>
	<path id="Fill-69_4_" class="st67" d="M914.4-37.7c-1,0.6-2.9-0.9-4.2-3.3c-1.3-2.4-1.5-4.8-0.5-5.4c1-0.6,2.9,0.9,4.2,3.3
		C915.2-40.7,915.4-38.3,914.4-37.7"/>
	<path id="Fill-71_4_" class="st67" d="M913.6-38.7c-0.6,0.4-1.9-0.7-2.8-2.3c-0.9-1.6-1.1-3.2-0.5-3.6c0.6-0.4,1.9,0.7,2.8,2.3
		C914.1-40.6,914.3-39,913.6-38.7"/>
	<path id="Fill-73_4_" class="st67" d="M865.4-10.7c-1,0.6-2.9-0.9-4.2-3.3c-1.3-2.4-1.5-4.8-0.5-5.4c1-0.6,2.9,0.9,4.2,3.3
		C866.2-13.8,866.4-11.3,865.4-10.7"/>
	<path id="Fill-75_5_" class="st67" d="M864.6-11.7c-0.6,0.4-1.9-0.7-2.8-2.3c-0.9-1.6-1.1-3.2-0.5-3.6c0.6-0.4,1.9,0.7,2.8,2.3
		C865.1-13.6,865.3-12,864.6-11.7"/>
	<path id="Fill-77_5_" class="st67" d="M915.9-22.6c-1.1,0-2-2.3-1.9-5c0.1-2.8,1-5,2.1-5c1.1,0,2,2.3,1.9,5
		C917.9-24.8,917-22.6,915.9-22.6"/>
	<path id="Fill-79_5_" class="st67" d="M915.5-24.6c-0.3,0-0.5-1.4-0.5-3c0-1.7,0.2-3,0.5-3s0.5,1.4,0.5,3
		C916-25.9,915.8-24.6,915.5-24.6"/>
	<g id="Group-83_4_" transform="translate(0.000000, 25.000000)">
		<g id="Clip-82_4_">
		</g>
		<path id="Fill-81_5_" class="st67" d="M858.9-48.6c-1.1,0-1.9-2.2-1.9-4.8c0.1-2.6,1-4.7,2.1-4.7c1.1,0,1.9,2.1,1.9,4.8
			C860.9-50.7,860-48.6,858.9-48.6"/>
	</g>
	<path id="Fill-84_5_" class="st67" d="M858.5-26.6c-0.3,0-0.5-1.4-0.5-3c0-1.7,0.2-3,0.5-3s0.5,1.4,0.5,3
		C859-27.9,858.8-26.6,858.5-26.6"/>
	<path id="Fill-86_5_" class="st67" d="M908.6-10.7c-1-0.6-0.7-3,0.6-5.5c1.3-2.4,3.2-3.9,4.2-3.3c1,0.6,0.7,3-0.6,5.5
		C911.5-11.6,909.6-10.1,908.6-10.7"/>
	<path id="Fill-88_5_" class="st67" d="M910.4-11.7c-0.6-0.4-0.4-2,0.5-3.6c0.9-1.6,2.2-2.6,2.8-2.3c0.6,0.4,0.4,2-0.5,3.6
		C912.3-12.4,911-11.3,910.4-11.7"/>
	<path id="Fill-90_5_" class="st67" d="M860.6-37.7c-1-0.6-0.7-3,0.6-5.5c1.3-2.4,3.2-3.9,4.2-3.3c1,0.6,0.7,3-0.6,5.5
		C863.5-38.6,861.6-37.1,860.6-37.7"/>
	<path id="Fill-92_5_" class="st67" d="M861.4-39.7c-0.6-0.4-0.4-2,0.5-3.6c0.9-1.6,2.2-2.6,2.8-2.3c0.6,0.4,0.4,2-0.5,3.6
		C863.2-40.3,862-39.3,861.4-39.7"/>
	<path id="Fill-94_5_" class="st67" d="M897.1-2.2c-0.6-1,0.8-2.9,3.2-4.2c2.4-1.3,4.9-1.6,5.5-0.6c0.6,1-0.8,2.9-3.2,4.2
		C900.2-1.5,897.8-1.2,897.1-2.2"/>
	<path id="Fill-96_5_" class="st67" d="M898.1-2.9c-0.4-0.6,0.6-1.9,2.2-2.8c1.6-0.9,3.2-1.2,3.6-0.5c0.4,0.6-0.6,1.9-2.2,2.8
		C900.1-2.6,898.5-2.3,898.1-2.9"/>
	<path id="Fill-98_5_" class="st67" d="M868.1-50.2c-0.6-1,0.8-2.9,3.2-4.2c2.4-1.3,4.9-1.6,5.5-0.6c0.6,1-0.8,2.9-3.2,4.2
		C871.2-49.5,868.8-49.2,868.1-50.2"/>
	<path id="Fill-100_5_" class="st67" d="M870.1-50.9c-0.4-0.6,0.6-1.9,2.2-2.8c1.6-0.9,3.2-1.2,3.6-0.5c0.4,0.6-0.6,1.9-2.2,2.8
		C872.1-50.5,870.5-50.3,870.1-50.9"/>
</g>
</svg>
