<?xml version="1.0" encoding="utf-8"?>
<!-- Generator: Adobe Illustrator 22.1.0, SVG Export Plug-In . SVG Version: 6.00 Build 0)  -->
<svg version="1.1" id="Layer_1" xmlns="http://www.w3.org/2000/svg" xmlns:xlink="http://www.w3.org/1999/xlink" x="0px" y="0px"
	 viewBox="0 0 504 482" style="enable-background:new 0 0 504 482;" xml:space="preserve">
<style type="text/css">
	.st0{opacity:0.4;}
	.st1{opacity:0.7;fill:#FE9933;enable-background:new    ;}
	.st2{fill:#FF9835;}
	.st3{fill:none;stroke:#FFF0DE;stroke-width:1.33;}
	.st4{fill:#037CEA;}
	.st5{fill:#00ADFF;}
	.st6{enable-background:new    ;}
</style>
<g id="Group-15_1_" transform="translate(0.000000, 62.000000)">
	<g id="Group-23-Copy_1_" class="st0">
		<g id="Group-12_1_">
			<path id="Fill-1_4_" class="st1" d="M37.7,61.9c0.6-12,2.3-24.3,8.9-34.4c9.7-14.8,28.3-21.6,46-22.3c28-1.1,55,10.5,79.3,24.6
				c24.2,14.1,47,30.9,72.8,42C292,92.1,345.1,91.5,396.4,95.5c16.9,1.3,34.9,3.6,48,14.4c10.9,9,16.9,22.9,19,36.8
				c5.7,36.8-13,74.4-41.3,98.6s-64.8,36.7-101.4,44c-40.7,8-83.1,10.1-123.4,0.2c-75.5-18.6-129.6-78-150.7-151.2
				C39.5,113.5,36.4,87.6,37.7,61.9"/>
			<g id="Group-5_2_">
				<g id="Clip-4_2_">
				</g>
				<path id="Fill-3_4_" class="st2" d="M275.5,63.6c38.4-24.1,76.7-53,121.8-57.6c14.8-1.5,30.3-0.2,43.7,6.3
					c18.9,9.1,31.8,27.5,39.7,46.9c17.4,42.7,13.8,90.8,7.2,136.5c-4.7,32.5-11,65.5-27.6,93.9c-22.4,38.4-62.1,64.8-104.8,77.3
					s-88.3,12.1-132.4,5.9c-43.2-6.1-86.2-18.1-123.6-40.4c-37.4-22.4-69.1-56-83.9-96.9c-5.4-15-8.5-31.6-4-46.9
					c12.7-43,82.3-44.6,117-56C180.1,115.6,229.6,92.4,275.5,63.6"/>
			</g>
			<path id="Stroke-6_2_" class="st3" d="M278.7,334.1c-15.7,0-32.7-1.3-50.6-3.8c-43.7-6.2-78.9-17.6-107.7-34.9
				c-18.6-11.2-35.5-25.6-48.4-43.1c-9.6-13.1-31.4-44.1-14.3-58.3c5.1-4.3,11.9-6.1,18.4-7.4c10.1-2,20.1-3.7,30.1-5.8
				c12.4-2.6,24.1-5,34.7-8.5c54.9-18.1,107.5-42.8,156.2-73.4c5.8-3.7,11.6-7.4,17.3-11.1c29.7-19.2,57.8-37.4,86.2-40.3
				c2.2-0.2,4.4-0.3,6.5-0.3c5.8,0,10.7,0.9,14.2,2.6c16.5,8,23.1,34.1,25.7,50.5c8.5,52.7,1.7,134.5-32,178.3
				C383.3,320,328.7,334.1,278.7,334.1z"/>
			<path id="Stroke-8_2_" class="st3" d="M279.9,293.1c-32.2-0.1-66.5-5.9-96.6-15c-15.3-4.6-30.3-10.6-43.7-19.2
				c-3.1-2-36.3-30.7-33-32.7c6.3-3.7,13.6-4.9,20.8-6.4c51.4-10.3,100-31.1,145.7-56.1c19.4-10.7,38.2-22.8,57.2-34
				c8.1-4.8,63.9-44.2,71.7-37.8c1.8,1.4,2.4,3.9,2.8,6.1c5.7,27.7,3.5,61.3,0,89.3c-3.4,27.3-12.6,55-32.1,74.4
				c-19.9,20-48.6,29.2-76.8,31C290.7,293,285.4,293.1,279.9,293.1z"/>
			<path id="Stroke-10_2_" class="st3" d="M279.4,250.1c-22.5,0-47.6-3.4-72-9.7c27.6-10.3,56-23.4,85.6-39.5
				c13.5-7.3,26.4-15.2,38.9-22.8c6.8-4.1,13.2-8,19.7-11.8c2.3-1.3,5-3.1,10.3-6.6c0.9-0.6,1.7-1.1,2.5-1.6
				c-0.5,7.5-1.3,15.4-2.4,23.8c-1.9,15.3-6.9,36.3-20,49.3c-10.7,10.6-28.2,17.2-49.4,18.5c-4.1,0.3-8.5,0.4-13,0.4L279.4,250.1z"
				/>
		</g>
	</g>
	<path id="Path-7_1_" class="st3" d="M9.4,5.1"/>
</g>
<title>Group 27</title>
<desc>Created with Sketch.</desc>
<g id="Group-50-Copy_1_" transform="translate(348.500000, 40.500000) scale(1, -1) rotate(43.000000) translate(-348.500000, -40.500000) translate(323.000000, 10.000000)">
	<path id="Fill-1_8_" class="st4" d="M-2.5-112c0.9-2,3.5-2.6,5.5-3.2c0.8-0.2,0.5-1.5-0.4-1.3c-2.5,0.7-5.4,1.5-6.4,4.1
		C-4.2-111.5-2.9-111.2-2.5-112"/>
	<path id="Fill-3_8_" class="st4" d="M-5-117.3c-0.8-1.8,0.3-3.9,1-5.5c0.3-0.7-0.6-1.3-1-0.6c-1,2.1-2,4.4-1,6.7
		C-5.7-116-4.7-116.6-5-117.3"/>
	<g id="Group-7_6_" transform="translate(17.000000, 0.000000)">
		<g id="Clip-6_6_">
		</g>
		<path id="Fill-5_6_" class="st4" d="M-32-118.6c-1.5-1.6-0.7-3.8-0.2-5.6c0.2-0.7-1.1-1-1.3-0.3c-0.6,2.1-1.4,4.6,0.3,6.5
			C-32.7-117.4-31.5-118-32-118.6"/>
	</g>
	<path id="Fill-8_7_" class="st4" d="M-23.6-116.2c-1.3-1.3-1.3-3.7-1.3-5.7c0-0.8-1-0.8-1,0c0,2.3,0,5,1.6,6.6
		C-23.8-114.9-23.1-115.7-23.6-116.2"/>
	<path id="Fill-10_7_" class="st4" d="M-30.1-110.5c-2-0.2-3.3-2.6-4.3-4.4c-0.4-0.7-1.5,0-1.1,0.7c1.3,2.3,2.8,4.8,5.4,5.1
		C-29.3-109-29.3-110.5-30.1-110.5"/>
	<path id="Fill-12_7_" class="st4" d="M-31.5-104.1c-2,0.5-4-0.5-5.7-1.3c-0.7-0.3-1.3,0.5-0.6,0.8c2,0.9,4.2,2,6.6,1.4
		C-30.4-103.4-30.7-104.3-31.5-104.1"/>
	<path id="Fill-14_7_" class="st4" d="M-29.5-97.8c-1.1,2.3-3.6,2.6-5.6,3.1c-0.8,0.2-0.5,1.6,0.3,1.4c2.4-0.5,5.2-1.1,6.4-3.8
		C-28-97.9-29.1-98.6-29.5-97.8"/>
	<path id="Fill-16_7_" class="st4" d="M-24.6-90.4c-1.1,2.3-3.6,2.6-5.6,3.1c-0.8,0.2-0.5,1.6,0.3,1.4c2.4-0.5,5.2-1.1,6.4-3.8
		C-23.1-90.5-24.2-91.3-24.6-90.4"/>
	<path id="Fill-18_7_" class="st4" d="M-17.3-85.6c-1.1,2.3-3.6,2.6-5.6,3.1c-0.8,0.2-0.5,1.6,0.3,1.4c2.4-0.5,5.2-1.1,6.4-3.8
		C-15.8-85.7-16.9-86.4-17.3-85.6"/>
	<path id="Fill-20_7_" class="st4" d="M-15.7-76.1c-1.7,0.8-3.9,0.3-5.7,0c-0.7-0.1-1.1,0.6-0.3,0.7c2.2,0.3,4.7,0.8,6.6-0.1
		C-14.5-75.7-15.1-76.4-15.7-76.1"/>
	<path id="Fill-22_7_" class="st4" d="M-17.2-63.4c0.3-2.1,2.7-3.3,4.4-4.3c0.7-0.4,0.1-1.5-0.7-1.1c-2.2,1.3-4.8,2.7-5.1,5.4
		C-18.6-62.5-17.3-62.6-17.2-63.4"/>
	<path id="Fill-24_7_" class="st4" d="M-12.1-56.2c-0.5-2.1,1.6-3.9,3.1-5.4c0.6-0.6-0.5-1.5-1.1-0.9c-1.9,1.9-4.1,4-3.5,6.6
		C-13.4-55.1-11.9-55.4-12.1-56.2"/>
	<g id="Group-28_6_" transform="translate(29.000000, 55.000000)">
		<g id="Clip-27_6_">
		</g>
		<path id="Fill-26_6_" class="st4" d="M-29.4-106.4c-1.5-1.7-0.7-3.8-0.2-5.7c0.2-0.7-1.1-1.1-1.3-0.3c-0.6,2.1-1.4,4.7,0.3,6.6
			C-30.1-105.2-28.9-105.8-29.4-106.4"/>
	</g>
	<path id="Fill-29_7_" class="st4" d="M11.4-54.2c-2.4-0.6-3.3-2.9-4.1-4.5c-0.3-0.7-1.8-0.4-1.4,0.3c1,2.1,2.1,4.6,5.1,5.4
		C12-52.8,12.3-53.9,11.4-54.2"/>
	<path id="Fill-31_7_" class="st4" d="M21.1-64.2c-2-0.1-3.3-2.5-4.4-4.3c-0.4-0.8-1.5,0-1,0.7c1.4,2.3,2.9,4.9,5.4,5
		C21.9-62.7,21.9-64.2,21.1-64.2"/>
	<path id="Fill-33_7_" class="st4" d="M-1.3-103.4c0.9-2,3.5-2.6,5.5-3.2c0.8-0.2,0.5-1.5-0.4-1.3c-2.5,0.7-5.4,1.5-6.4,4.1
		C-3-103-1.6-102.7-1.3-103.4"/>
	<path id="Fill-35_7_" class="st4" d="M2.3-94.9c0.9-2,3.5-2.6,5.5-3.2c0.8-0.2,0.5-1.5-0.4-1.3C4.9-98.7,2-97.9,1-95.3
		C0.7-94.5,2-94.1,2.3-94.9"/>
	<path id="Fill-37_7_" class="st4" d="M9.7-87.7c0.3-2.1,2.7-3.3,4.4-4.3c0.7-0.4,0.1-1.5-0.7-1.1c-2.2,1.3-4.8,2.7-5.1,5.4
		C8.2-86.9,9.6-86.9,9.7-87.7"/>
	<path id="Fill-39_7_" class="st4" d="M15.6-81.4c1.1-2.3,3.7-2.6,5.7-3c0.8-0.2,0.5-1.6-0.3-1.5c-2.4,0.5-5.1,1-6.4,3.7
		C14.1-81.3,15.2-80.6,15.6-81.4"/>
	<g id="Group-43_7_" transform="translate(45.000000, 39.000000)">
		<g id="Clip-42_7_">
		</g>
		<path id="Fill-41_7_" class="st4" d="M-27.1-114.2c1.5-1.4,3.7-0.9,5.4-0.6c0.7,0.1,1-1.1,0.3-1.2c-2.2-0.4-4.7-0.8-6.5,0.9
			C-28.5-114.5-27.6-113.7-27.1-114.2"/>
	</g>
	<path id="Fill-44_7_" class="st5" d="M-25.8-114.8c-3.7,3.1-6.3,7.9-6.1,12.5c0.1,3.6,2.2,7.7,4.7,10.2c2.9,2.9,7.1,3.4,9.5,7.1
		c3.7,5.7,1.4,12.8,3.8,18.8c2.3,5.8,6.5,8.8,12.6,9.4c6.5,0.7,13.1-2.9,16.7-8.3c4.7-7.1,3-15-3-20.6c-4.8-4.4-11.4-8-12.6-14.9
		c-0.4-2.4-0.2-4.9-0.4-7.3c-0.8-10.6-13.3-13.3-21.6-9.3C-23.4-116.5-24.6-115.7-25.8-114.8"/>
	<path id="Fill-46_7_" class="st4" d="M12.3-85.2C7.4-89.5,0.7-93-0.6-99.9c-0.4-2.4-0.2-4.8-0.4-7.2c-0.5-6-5-9.5-10.3-10.5
		c2.6,1.9,4.6,4.7,5,7.2C-5-100.1-0.3-91.8,7.5-85c7,6,3.6,16.6-4.2,20.1c-2.6,1-6.2,1.8-9.1,0.5c-3.4-1.5-6.8-3.8-8.1-7.3
		c-0.6-1.6-1.3-3.1-2.2-4.5c0.2,3.5,0.1,7,1.5,10.3c2.3,5.7,6.7,8.7,12.9,9.3c6.6,0.7,13.4-2.9,17-8.2
		C20.1-71.9,18.4-79.8,12.3-85.2"/>
	<path id="Fill-48_7_" class="st4" d="M-14.8-100c-1.5,1.3-2.6,3.4-2.5,5.4c0.1,1.5,0.9,3.3,1.9,4.4c1.2,1.3,2.9,1.5,3.9,3.1
		c1.6,2.5,0.6,5.5,1.6,8.1c1,2.5,2.7,3.8,5.2,4.1c2.7,0.3,5.4-1.3,6.9-3.6C4.1-81.6,3.5-85,1-87.4c-2-1.9-4.7-3.4-5.2-6.4
		c-0.2-1-0.1-2.1-0.2-3.1c-0.3-4.6-5.5-5.7-9-4C-13.8-100.8-14.3-100.4-14.8-100"/>
</g>
<g id="Group-50-Copy-4_1_" transform="translate(50.500000, 202.500000) scale(1, -1) rotate(-52.000000) translate(-50.500000, -202.500000) translate(33.000000, 182.000000)">
	<path id="Fill-1_7_" class="st4" d="M66.4-21.9c0.5-1.2,1.9-1.6,3-1.9c0.5-0.1,0.3-0.9-0.2-0.8c-1.4,0.4-2.9,0.9-3.5,2.5
		C65.5-21.7,66.2-21.4,66.4-21.9"/>
	<path id="Fill-3_7_" class="st4" d="M65.2-25.1c-0.3-1,0.1-2.1,0.4-3c0.1-0.4-0.3-0.7-0.4-0.3c-0.4,1.1-0.8,2.4-0.4,3.7
		C65-24.4,65.4-24.8,65.2-25.1"/>
	<path id="Fill-8_6_" class="st4" d="M54.6-25.2c-0.6-0.7-0.5-2-0.5-3.1c0-0.4-0.4-0.4-0.4,0c0,1.3,0,2.7,0.6,3.6
		C54.5-24.5,54.8-24.9,54.6-25.2"/>
	<path id="Fill-10_6_" class="st4" d="M51.4-21.3c-1-0.1-1.6-1.3-2.1-2.1c-0.2-0.4-0.7,0-0.5,0.4c0.7,1.1,1.4,2.4,2.7,2.5
		C51.8-20.6,51.8-21.3,51.4-21.3"/>
	<path id="Fill-12_6_" class="st4" d="M50.3-18.1c-1.1,0.2-2.2-0.2-3.1-0.5c-0.4-0.1-0.7,0.2-0.3,0.3c1.1,0.4,2.3,0.8,3.6,0.6
		C50.9-17.8,50.7-18.2,50.3-18.1"/>
	<path id="Fill-14_6_" class="st4" d="M52-14.4c-0.6,1.4-2,1.6-3.1,1.9c-0.4,0.1-0.3,1,0.2,0.9c1.3-0.3,2.8-0.7,3.5-2.3
		C52.8-14.5,52.2-14.9,52-14.4"/>
	<path id="Fill-16_6_" class="st4" d="M54-10.4c-0.6,1.4-2,1.6-3.1,1.9c-0.4,0.1-0.3,1,0.2,0.9c1.3-0.3,2.8-0.7,3.5-2.3
		C54.8-10.5,54.2-10.9,54-10.4"/>
	<path id="Fill-18_6_" class="st4" d="M58-8.4c-0.6,1.4-2,1.6-3.1,1.9c-0.4,0.1-0.3,1,0.2,0.9c1.3-0.3,2.8-0.7,3.5-2.3
		C58.8-8.5,58.2-8.9,58-8.4"/>
	<path id="Fill-20_6_" class="st4" d="M59.2-2.6c-0.9,0.6-2.1,0.3-3.1,0c-0.4-0.1-0.6,0.5-0.2,0.6c1.2,0.3,2.6,0.6,3.6-0.1
		C59.9-2.3,59.6-2.8,59.2-2.6"/>
	<path id="Fill-22_6_" class="st4" d="M58.4,4.1c0.1-1,1.3-1.6,2.2-2.1c0.4-0.2,0-0.7-0.3-0.5c-1.1,0.6-2.3,1.4-2.5,2.7
		C57.6,4.5,58.3,4.4,58.4,4.1"/>
	<path id="Fill-24_6_" class="st4" d="M61.7,7.9c-0.3-1.1,1-2.1,1.9-3c0.4-0.3-0.3-0.8-0.7-0.5c-1.2,1-2.5,2.2-2.1,3.6
		C60.9,8.5,61.8,8.4,61.7,7.9"/>
	<path id="Fill-29_6_" class="st4" d="M74.4,8.8c-1.2-0.3-1.6-1.4-2-2.2c-0.2-0.3-0.9-0.2-0.7,0.2c0.5,1,1,2.3,2.5,2.6
		C74.7,9.5,74.9,8.9,74.4,8.8"/>
	<path id="Fill-31_6_" class="st4" d="M79.4,3.6c-1-0.1-1.6-1.2-2.2-2.1c-0.2-0.4-0.7,0-0.5,0.4c0.7,1.1,1.4,2.4,2.7,2.5
		C79.8,4.4,79.8,3.7,79.4,3.6"/>
	<path id="Fill-33_6_" class="st4" d="M67.4-17.9c0.5-1.2,1.9-1.6,3-1.9c0.5-0.1,0.3-0.9-0.2-0.8c-1.4,0.4-2.9,0.9-3.5,2.5
		C66.5-17.7,67.2-17.4,67.4-17.9"/>
	<path id="Fill-35_6_" class="st4" d="M69.4-12.9c0.5-1.2,1.9-1.6,3-1.9c0.5-0.1,0.3-0.9-0.2-0.8c-1.4,0.4-2.9,0.9-3.5,2.5
		C68.5-12.7,69.2-12.4,69.4-12.9"/>
	<path id="Fill-37_6_" class="st4" d="M73.4-8.9c0.1-1,1.3-1.6,2.2-2.1c0.4-0.2,0-0.7-0.3-0.5c-1.1,0.6-2.3,1.4-2.5,2.7
		C72.6-8.5,73.3-8.6,73.4-8.9"/>
	<path id="Fill-39_6_" class="st4" d="M76.3-5.9c0.6-1.4,2-1.6,3.1-1.9c0.4-0.1,0.3-1-0.2-0.9c-1.3,0.3-2.8,0.6-3.5,2.3
		C75.5-5.8,76.1-5.4,76.3-5.9"/>
	<g id="Group-43_6_" transform="translate(30.500000, 26.000000)">
		<g id="Clip-42_6_">
		</g>
		<path id="Fill-41_6_" class="st4" d="M46.8-28.7c0.8-0.6,2-0.4,3-0.3c0.4,0,0.6-0.4,0.2-0.5c-1.2-0.2-2.6-0.3-3.6,0.4
			C46-28.9,46.5-28.5,46.8-28.7"/>
	</g>
	<path id="Fill-44_6_" class="st5" d="M54-24.4c-2,1.7-3.4,4.3-3.3,6.8c0.1,2,1.2,4.2,2.5,5.6c1.6,1.6,3.8,1.8,5.1,3.9
		c2,3.1,0.8,7,2,10.3c1.2,3.2,3.5,4.8,6.8,5.2c3.5,0.4,7.1-1.6,9-4.5c2.7-4,1.7-8.4-1.5-11.4c-2.6-2.4-6.2-4.3-6.8-8.2
		c-0.2-1.3-0.1-2.7-0.2-4c-0.4-5.8-7.2-7.2-11.7-5.1C55.3-25.3,54.6-24.9,54-24.4"/>
	<path id="Fill-46_6_" class="st4" d="M74.5-7.6C71.8-10,68-12,67.3-15.8c-0.2-1.3-0.1-2.7-0.2-4c-0.3-3.4-2.8-5.3-5.7-5.9
		c1.5,1.1,2.6,2.6,2.8,4c0.7,5.7,3.3,10.4,7.7,14.1c3.9,3.4,2,9.2-2.3,11.2c-1.4,0.6-3.5,1-5.1,0.3c-2-0.8-3.9-2-4.6-4
		c-0.3-0.9-0.7-1.7-1.2-2.5c0.1,1.9,0.1,3.9,0.8,5.7c1.3,3.2,3.7,4.8,7.2,5.2c3.7,0.4,7.4-1.6,9.5-4.6C78.8-0.2,77.9-4.5,74.5-7.6"
		/>
	<path id="Fill-48_6_" class="st4" d="M60-15.7c-0.8,0.7-1.4,1.9-1.3,3c0,0.9,0.5,1.9,1,2.5c0.6,0.7,1.6,0.8,2.1,1.7
		c0.8,1.4,0.3,3.1,0.8,4.6c0.5,1.4,1.4,2.1,2.8,2.3c1.4,0.2,2.9-0.7,3.7-2c1-1.7,0.7-3.6-0.7-5c-1.1-1.1-2.5-1.9-2.8-3.6
		c0-0.6,0-1.2,0-1.8c-0.2-2.5-2.9-3.2-4.8-2.3C60.6-16.1,60.3-15.9,60-15.7"/>
</g>
<g id="Group-50-Copy-2_3_" transform="translate(446.000000, 224.000000) scale(1, -1) translate(-446.000000, -224.000000) translate(388.000000, 155.000000)">
	<path id="Fill-1_6_" class="st4" d="M65.8-104.7c1.5-3,6.1-3.8,9.4-4.7c1.4-0.4,0.8-2.2-0.6-1.8c-4.3,1.1-9.2,2.2-11.1,6
		C62.9-104.1,65.2-103.6,65.8-104.7"/>
	<path id="Fill-3_6_" class="st4" d="M61.9-112.9c-1.7-3.1,0.7-6.7,2.3-9.5c0.7-1.2-1.4-2.2-2.1-1c-2.1,3.6-4.4,7.6-2.3,11.5
		C60.4-110.6,62.5-111.7,61.9-112.9"/>
	<g id="Group-7_5_" transform="translate(38.000000, 0.000000)">
		<g id="Clip-6_5_">
		</g>
		<path id="Fill-5_5_" class="st4" d="M8-115.6c-3.3-2.8-1.6-6.5-0.5-9.6c0.5-1.2-2.5-1.8-3-0.5c-1.3,3.6-3,7.9,0.8,11.1
			C6.5-113.6,9.2-114.6,8-115.6"/>
	</g>
	<path id="Fill-8_5_" class="st4" d="M31.6-111.2c-3-2.3-2.8-6.4-2.9-9.8c0-1.4-2.2-1.4-2.2,0c0,3.9,0,8.6,3.5,11.3
		C31.1-108.9,32.7-110.4,31.6-111.2"/>
	<path id="Fill-10_5_" class="st4" d="M21.1-101.9c-3.3-0.3-5.4-4.2-7.1-7.1c-0.7-1.2-2.4-0.1-1.7,1.2c2.2,3.7,4.6,7.9,8.8,8.2
		C22.4-99.5,22.4-101.8,21.1-101.9"/>
	<path id="Fill-12_5_" class="st4" d="M18.1-91.2c-3.5,1.2-6.9-1.1-9.7-2.9c-1.2-0.7-2.2,1.1-1.1,1.8c3.4,2,7.3,4.4,11.4,3.1
		C19.9-89.6,19.4-91.6,18.1-91.2"/>
	<path id="Fill-14_5_" class="st4" d="M21.8-81.1c-1.8,3.3-6.2,3.9-9.7,4.6c-1.4,0.3-0.8,2.3,0.6,2.1c4.1-0.8,8.9-1.7,11-5.5
		C24.4-81.2,22.4-82.3,21.8-81.1"/>
	<path id="Fill-16_5_" class="st4" d="M29.9-68.5c-1.8,3.3-6.2,3.9-9.7,4.6c-1.4,0.3-0.8,2.3,0.6,2.1c4.1-0.8,8.9-1.7,11-5.5
		C32.5-68.6,30.5-69.7,29.9-68.5"/>
	<path id="Fill-18_5_" class="st4" d="M42.5-61.3c-1.8,3.3-6.2,3.9-9.7,4.6c-1.4,0.3-0.8,2.3,0.6,2.1c4.1-0.8,8.9-1.7,11-5.5
		C45.1-61.4,43.1-62.5,42.5-61.3"/>
	<path id="Fill-20_5_" class="st4" d="M44.9-44.6c-2.9,1.7-6.7,0.7-9.8,0.1c-1.3-0.3-1.8,1.3-0.5,1.6c3.7,0.8,8,1.7,11.4-0.2
		C46.9-43.8,45.9-45.2,44.9-44.6"/>
	<path id="Fill-22_5_" class="st4" d="M41.4-23.2c0.4-3.4,4.4-5.4,7.2-7c1.2-0.7,0.1-2.5-1.1-1.8c-3.6,2.1-7.7,4.5-8.3,8.8
		C39-21.9,41.2-21.9,41.4-23.2"/>
	<path id="Fill-24_5_" class="st4" d="M51.4-11c-0.7-3.6,2.3-6.8,4.6-9.3c0.9-1.1-0.7-2.6-1.6-1.5c-2.9,3.3-6,6.9-5.1,11.4
		C49.5-9.1,51.7-9.7,51.4-11"/>
	<g id="Group-28_5_" transform="translate(66.000000, 124.000000)">
		<g id="Clip-27_5_">
		</g>
		<path id="Fill-26_5_" class="st4" d="M5.2-127.9c-3.2-2.9-1.5-6.6-0.4-9.8c0.5-1.3-2.5-1.8-3-0.5c-1.4,3.7-3.1,8,0.7,11.3
			C3.7-125.9,6.4-126.9,5.2-127.9"/>
	</g>
	<path id="Fill-29_5_" class="st4" d="M90.5-9.8c-3.9-1-5.3-4.6-6.6-7.3c-0.5-1.1-2.9-0.6-2.3,0.5c1.6,3.4,3.5,7.4,8.3,8.7
		C91.3-7.5,91.9-9.4,90.5-9.8"/>
	<path id="Fill-31_5_" class="st4" d="M104.8-24.6c-3.3-0.2-5.4-4.1-7.1-7c-0.7-1.2-2.4,0-1.7,1.2c2.2,3.7,4.7,8,8.8,8.2
		C106-22.2,106-24.5,104.8-24.6"/>
	<path id="Fill-33_5_" class="st4" d="M68.5-90.3c1.5-3,6.1-3.8,9.4-4.7c1.4-0.4,0.8-2.2-0.6-1.8c-4.3,1.1-9.2,2.2-11.1,6
		C65.6-89.7,67.9-89.2,68.5-90.3"/>
	<path id="Fill-35_5_" class="st4" d="M73.9-77.8c1.5-3,6.1-3.8,9.4-4.7c1.4-0.4,0.8-2.2-0.6-1.8c-4.3,1.1-9.2,2.2-11.1,6
		C71-77.1,73.3-76.6,73.9-77.8"/>
	<path id="Fill-37_5_" class="st4" d="M86.3-65.5c0.4-3.4,4.4-5.4,7.2-7c1.2-0.7,0.1-2.5-1.1-1.8c-3.6,2.1-7.7,4.5-8.3,8.8
		C84-64.2,86.2-64.2,86.3-65.5"/>
	<path id="Fill-39_5_" class="st4" d="M96.1-55.2c1.9-3.4,6.3-3.9,9.7-4.5c1.4-0.2,0.8-2.4-0.6-2.2c-4.1,0.7-8.8,1.5-11.1,5.5
		C93.5-55,95.4-53.9,96.1-55.2"/>
	<g id="Group-43_5_" transform="translate(102.000000, 88.000000)">
		<g id="Clip-42_5_">
		</g>
		<path id="Fill-41_5_" class="st4" d="M-1.6-130.6c2.5-3.1,6.3-2,9.3-1.4c1.3,0.3,1.8-2.4,0.5-2.7c-3.8-0.8-8.1-1.8-11.3,2.1
			C-4-131.3-2.6-129.4-1.6-130.6"/>
	</g>
	<path id="Fill-44_5_" class="st5" d="M27-109.9c-6.2,5.2-10.6,13.2-10.3,21c0.2,6,3.7,12.9,7.9,17.2c5,4.9,11.9,5.7,16,11.9
		C47-50.2,43-38.4,47-28.3c3.9,9.7,11,14.8,21.3,15.8c11,1.1,22.2-4.9,28.3-14c7.9-11.9,5.1-25.2-5-34.5c-8.1-7.4-19.3-13.3-21.3-25
		c-0.7-4-0.4-8.2-0.7-12.2c-1.4-17.7-22.5-22.2-36.5-15.7C31.1-112.7,29.1-111.3,27-109.9"/>
	<path id="Fill-46_5_" class="st4" d="M91.5-59.9C83.3-67.1,71.9-73,69.8-84.4c-0.7-3.9-0.4-8-0.7-12c-0.8-10-8.4-15.8-17.3-17.5
		c4.4,3.2,7.7,7.8,8.4,12c2.2,17.2,10.1,31,23.2,42.2c11.8,10,6.1,27.6-7,33.5c-4.5,1.6-10.6,2.9-15.4,0.8
		c-5.7-2.5-11.4-6.3-13.6-12.2c-1-2.6-2.3-5.2-3.7-7.6c0.4,5.8,0.2,11.7,2.5,17.1c3.9,9.6,11.1,14.6,21.6,15.6
		c11.2,1.1,22.6-4.8,28.7-13.7C104.6-37.8,101.7-50.9,91.5-59.9"/>
	<path id="Fill-48_5_" class="st4" d="M45.2-84.1c-2.6,2.2-4.4,5.7-4.3,9c0.1,2.6,1.5,5.6,3.3,7.4c2.1,2.1,5,2.4,6.7,5.1
		c2.6,4.1,1,9.2,2.7,13.6c1.6,4.2,4.6,6.4,8.9,6.8c4.6,0.5,9.2-2.1,11.7-6c3.3-5.1,2.1-10.9-2.1-14.9c-3.4-3.2-8-5.8-8.9-10.8
		c-0.3-1.7-0.2-3.5-0.3-5.3c-0.6-7.6-9.4-9.6-15.2-6.7C46.9-85.3,46.1-84.7,45.2-84.1"/>
</g>
<g id="Group-50-Copy-2_2_" transform="translate(446.000000, 224.000000) scale(1, -1) translate(-446.000000, -224.000000) translate(388.000000, 155.000000)" class="st6">
	<path id="Fill-1_5_" class="st4" d="M-237.4,104.6c-8.6,1.4-17.6-7.2-24.5-13.1c-3-2.6-6,1.6-3,4.2c9,7.7,19,16.4,29.9,14.6
		C-231.7,109.7-234.1,104.1-237.4,104.6"/>
	<path id="Fill-3_5_" class="st4" d="M-249,125.4c-4.1,8.5-15.3,8.8-23.9,9.6c-3.6,0.3-2.6,6.5,1,6.1c11-1,23.1-2.1,28.3-12.8
		C-241.9,125.1-247.4,122.2-249,125.4"/>
	<g id="Group-7_4_" transform="translate(38.000000, 0.000000)">
		<g id="Clip-6_4_">
		</g>
		<path id="Fill-5_4_" class="st4" d="M-268.5,163.8c-1,11.4-11.5,13.4-20,15.7c-3.4,0.9,0,8.1,3.4,7.2c9.9-2.7,21.6-5.6,22.8-18.8
			C-261.8,163.9-268.1,159.7-268.5,163.8"/>
	</g>
	<path id="Fill-8_4_" class="st4" d="M-198.8,188.2c-0.4,10-9.5,15.9-16.7,21.2c-2.9,2.1,0.4,6.8,3.3,4.7c8.4-6.2,18.5-13.4,19-24.9
		C-193.1,185.6-198.7,184.6-198.8,188.2"/>
	<path id="Fill-10_4_" class="st4" d="M-162.6,196.4c4.5,7.6-0.8,18-4.4,26.1c-1.5,3.4,3.6,5.3,5.1,1.9c4.6-10.3,9.9-22,4.2-31.5
		C-159.4,190-164.4,193.5-162.6,196.4"/>
	<path id="Fill-12_4_" class="st4" d="M-134.9,186.5c7.9,5.8,8.1,16.5,8.8,25.3c0.3,3.6,5.7,3.1,5.5-0.4
		c-0.8-10.4-1.7-22.4-10.9-29.2C-134.4,180.1-137.8,184.3-134.9,186.5"/>
	<path id="Fill-14_4_" class="st4" d="M-118.9,162.9c9.9-1.2,18,7.4,24.7,13.9c2.8,2.6,6.3-1.8,3.5-4.5c-8-7.6-17.3-16.7-28.9-15.3
		C-123.2,157.5-122.5,163.4-118.9,162.9"/>
	<path id="Fill-16_4_" class="st4" d="M-104.2,126.1c9.9-1.2,18,7.4,24.7,13.9c2.8,2.6,6.3-1.8,3.5-4.5c-8-7.6-17.3-16.7-28.9-15.3
		C-108.5,120.8-107.9,126.6-104.2,126.1"/>
	<path id="Fill-18_4_" class="st4" d="M-108.1,88c9.9-1.2,18,7.4,24.7,13.9c2.8,2.6,6.3-1.8,3.5-4.5c-8-7.6-17.3-16.7-28.9-15.3
		C-112.4,82.6-111.7,88.4-108.1,88"/>
	<path id="Fill-20_4_" class="st4" d="M-75.8,57.2c8.1,3.7,11.8,13.2,15.3,21.1c1.4,3.2,5.6,1.9,4.2-1.2c-4-9.1-8.7-19.9-18.1-24.2
		C-77.3,51.4-78.8,55.8-75.8,57.2"/>
	<path id="Fill-22_4_" class="st4" d="M-24.5,31.9c-7.9,4.3-18.3-1.1-26-4.7c-3.3-1.5-5.5,3.6-2.1,5.1c10.1,4.6,21.5,9.8,31.5,4.3
		C-18,34.9-21.4,30.2-24.5,31.9"/>
	<path id="Fill-24_4_" class="st4" d="M-13.6-8.5c-6.7,7.1-18.1,5.4-27,4.5c-3.8-0.4-4.6,5.5-0.9,5.9C-30.1,3-17.4,4.3-9-4.6
		C-6.4-7.4-11.1-11.2-13.6-8.5"/>
	<g id="Group-28_4_" transform="translate(66.000000, 124.000000)">
		<g id="Clip-27_4_">
		</g>
		<path id="Fill-26_4_" class="st4" d="M-94.8-186c-1.2,11.4-11.8,13.4-20.5,15.8c-3.5,0.9-0.1,8.1,3.4,7.2c10-2.7,22-5.7,23.4-18.8
			C-88.1-186-94.3-190.2-94.8-186"/>
	</g>
	<path id="Fill-29_4_" class="st4" d="M-70.9-94.5c3.8,9.9-1.8,18.6-5.6,25.5c-1.6,2.9,3.1,7.2,4.7,4.3c4.9-8.8,10.7-18.9,5.9-31.3
		C-67.5-99.8-72.4-98.3-70.9-94.5"/>
	<path id="Fill-31_4_" class="st4" d="M-124.9-102.5c4.6,7.3-0.6,17.9-4.2,26c-1.5,3.4,3.6,5.3,5.2,1.8c4.5-10.4,9.9-22.3,4.1-31.5
		C-121.6-108.9-126.7-105.3-124.9-102.5"/>
	<path id="Fill-33_4_" class="st4" d="M-210.6,76.7c-8.6,1.4-17.6-7.2-24.5-13.1c-3-2.6-6,1.6-3,4.2c9,7.7,19,16.4,29.9,14.6
		C-204.9,81.8-207.3,76.1-210.6,76.7"/>
	<path id="Fill-35_4_" class="st4" d="M-191.8,45.7c-8.6,1.4-17.6-7.2-24.5-13.1c-3-2.6-6,1.6-3,4.2c9,7.7,19,16.4,29.9,14.6
		C-186.1,50.8-188.5,45.2-191.8,45.7"/>
	<path id="Fill-37_4_" class="st4" d="M-184.6,0.1c-7.9,4.3-18.3-1.1-26-4.7c-3.3-1.5-5.5,3.6-2.1,5.1c10.1,4.6,21.5,9.8,31.5,4.3
		C-178.1,3.1-181.5-1.6-184.6,0.1"/>
	<path id="Fill-39_4_" class="st4" d="M-177.3-36.8c-10.2,1.2-18-7.6-24.6-14.1c-2.7-2.6-6.4,1.9-3.7,4.6
		c7.8,7.7,16.8,16.7,28.8,15.3C-173-31.4-173.5-37.2-177.3-36.8"/>
	<g id="Group-43_4_" transform="translate(102.000000, 88.000000)">
		<g id="Clip-42_4_">
		</g>
		<path id="Fill-41_4_" class="st4" d="M-258.8-153.4c-10.5-0.6-14.1-10.5-17.3-17.9c-1.4-3.1-7.9-0.2-6.5,2.9
			c4.1,9.5,8.6,20.3,21.8,21C-256.8-147.1-254.8-153.2-258.8-153.4"/>
	</g>
	<path id="Fill-44_4_" class="st5" d="M-188.9,195.9c20.7,5.5,44.7,2.6,61-9.9c12.6-9.7,22.2-27.8,24.8-43.4c3-18.2-6.2-34.4,1-52.8
		c11-28.4,42.5-38,58-62.3C-29.2,4.3-29.2-19-42.8-42.8c-14.5-25.4-44.6-40.3-73.5-39.4c-37.7,1.2-62.1,27.8-66.5,63.7
		c-3.5,28.7,0.9,62-21,84.4c-7.6,7.7-17,13.3-25.3,20.3c-36,30.2-13.2,82.7,22.5,102.7C-201.2,191.4-195.2,193.7-188.9,195.9"/>
	<path id="Fill-46_4_" class="st4" d="M-180.5-19.5c-3,28.8,2,62.3-19.4,84.4c-7.4,7.6-16.6,13.1-24.7,19.9
		C-245,102-245.7,127-235.7,149c0.1-14.4,5-28.7,13-36.5c33.5-31.1,51.1-69.3,55.2-115c3.4-40.9,50-55.7,82.8-36.3
		C-74.4-31.9-62.2-20.6-59.3-7c3.4,16.1,4,34.2-5.2,47.9c-4,6.2-7.7,12.8-10.5,19.7c11.8-9.8,24.8-18.5,33-31.6
		c14.4-23.1,14-46.4,0-70.6c-14.8-25.8-45-41.2-73.6-40.8C-153-81.9-176.8-55.6-180.5-19.5"/>
	<path id="Fill-48_4_" class="st4" d="M-161.4,117c8.8,2.1,19,0.8,26-4.6c5.4-4.2,9.7-11.8,10.9-18.4c1.4-7.7-2.4-14.4,0.8-22.2
		c4.9-12,18.4-16.3,25.2-26.6c6.5-9.9,6.7-19.6,1.1-29.5c-6-10.6-18.7-16.6-31-16c-16.1,0.8-26.7,12.2-28.8,27.3
		c-1.7,12.1-0.1,26.1-9.6,35.6c-3.3,3.3-7.3,5.7-10.9,8.7c-15.5,13-6.3,34.9,8.8,43C-166.6,115.2-164.1,116.2-161.4,117"/>
</g>
</svg>
