<?xml version="1.0" encoding="utf-8"?>
<!-- Generator: Adobe Illustrator 22.1.0, SVG Export Plug-In . SVG Version: 6.00 Build 0)  -->
<svg version="1.1" id="Layer_1" xmlns="http://www.w3.org/2000/svg" xmlns:xlink="http://www.w3.org/1999/xlink" x="0px" y="0px"
	 viewBox="0 0 335 329" style="enable-background:new 0 0 335 329;" xml:space="preserve">
<style type="text/css">
	.st0{opacity:0.45;}
	.st1{fill:#FE9933;}
	.st2{fill:#F9AF6B;}
</style>
<g id="Group-102-Copy-5" transform="translate(334.000000, 271.000000)" class="st0">
	<path id="Fill-1_1_" class="st1" d="M-178-210.8h19.2c-2.2-16.1-2.2-31.9,0-48H-178C-175.8-242.7-175.8-226.9-178-210.8"/>
	<path id="Fill-3_1_" class="st1" d="M-228.1-191.6l14.2-8.6c-8.9-12.2-16.1-25.2-21.8-39.3l-14.2,8.6
		C-241.1-218.7-233.9-205.8-228.1-191.6"/>
	<path id="Fill-5_1_" class="st1" d="M-261-150.9l8.6-14.2c-14.2-5.8-27.1-13-39.3-21.8l-8.6,14.2
		C-286.2-166.9-273.2-159.7-261-150.9"/>
	<path id="Fill-7_1_" class="st1" d="M-271.5-93.3v-19.2c-16.1,2.2-31.9,2.2-48,0v19.2C-303.4-95.5-287.6-95.5-271.5-93.3"/>
	<path id="Fill-9_1_" class="st1" d="M-252.3-43.2l-8.6-14.2c-12.2,8.9-25.4,16.1-39.3,21.8l8.6,14.2
		C-279.4-30.2-266.5-37.4-252.3-43.2"/>
	<path id="Fill-11_1_" class="st1" d="M-214-7.9l-14.2-8.6c-5.8,14.2-13,27.1-21.8,39.3l14.2,8.6C-230,17.3-222.8,4.3-214-7.9"/>
	<path id="Fill-13_1_" class="st1" d="M-158.8,2.6H-178c2.2,16.1,2.2,31.9,0,48h19.2C-161,34.5-161,18.7-158.8,2.6"/>
	<path id="Fill-15_1_" class="st1" d="M-103.9-16.6L-118-7.9c8.9,12.2,16.1,25.4,21.8,39.3l14.2-8.6C-90.9,10.5-98.1-2.4-103.9-16.6
		"/>
	<path id="Fill-17_1_" class="st1" d="M-71-57.3l-8.6,14.2c14.2,5.8,27.1,13,39.3,21.8l8.6-14.2C-45.8-41.3-58.8-48.5-71-57.3"/>
	<path id="Fill-19_1_" class="st1" d="M-60.5-112.5v19.2c16.1-2.2,31.9-2.2,48,0v-19.2C-28.6-110.3-44.4-110.3-60.5-112.5"/>
	<path id="Fill-21_1_" class="st1" d="M-79.7-165l8.6,14.2c12.2-8.9,25.4-16.1,39.3-21.8l-8.6-14.2C-52.6-178-65.5-170.8-79.7-165"
		/>
	<path id="Fill-23_1_" class="st1" d="M-118-200.3l14.2,8.6c5.8-14.2,13-27.1,21.8-39.3l-14.2-8.6C-102-225.5-109.2-212.5-118-200.3
		"/>
	<path id="Fill-25_1_" class="st1" d="M-48.5-101.7c0,66.9-53.7,121.1-119.9,121.1s-119.9-54.2-119.9-121.1s53.7-121.1,119.9-121.1
		S-48.5-168.6-48.5-101.7"/>
	<path id="Fill-27_1_" class="st1" d="M-48.5-101.7c0,14.6-2.6,28.5-7.2,41.5c-2.9,8.2-6.7,16.1-11.3,23.3
		c-14.6,23.5-37.4,41.7-64,50.6c-11.8,3.8-24.2,6-37.4,6c-66.2,0-119.9-54.2-119.9-121.1c0-13.2,2.2-25.9,6-37.7
		c8.6-26.9,26.6-49.6,49.9-64.8c7.2-4.6,14.9-8.4,23-11.5c12.7-4.8,26.6-7.2,41-7.2C-102.2-222.8-48.5-168.6-48.5-101.7"/>
	<path id="Fill-29_1_" class="st1" d="M-118-29.3c0,13.2-2.2,25.9-6,37.9c-12,3.8-24.7,6-37.9,6c-67.2,0-121.6-54.4-121.6-121.6
		c0-13.2,2.2-25.9,6-37.9c12-3.8,24.7-6,37.9-6C-172.5-150.9-118-96.4-118-29.3"/>
	<path id="Fill-31_1_" class="st2" d="M-48.5-103.4c0,14.4-2.6,28.1-7.2,40.8c-2.9,8.2-6.7,15.8-11.3,22.8
		c-18.5,11.8-40.3,18.5-63.8,18.5c-65.7,0-119.2-53.5-119.2-119.4c0-23.5,6.7-45.3,18.5-63.8c7.2-4.6,14.9-8.4,22.8-11.3
		c12.7-4.6,26.4-7.2,40.8-7.2C-102-222.8-48.5-169.3-48.5-103.4"/>
	<path id="Fill-33_1_" class="st1" d="M-139.6-174.9c0,5.3-4.3,9.6-9.6,9.6c-5.3,0-9.6-4.3-9.6-9.6s4.3-9.6,9.6-9.6
		C-143.9-184.4-139.6-180.1-139.6-174.9"/>
	<path id="Fill-35_1_" class="st1" d="M-67.7-86.1c0,5.3-4.3,9.6-9.6,9.6c-5.3,0-9.6-4.3-9.6-9.6c0-5.3,4.3-9.6,9.6-9.6
		C-72-95.7-67.7-91.4-67.7-86.1"/>
	<path id="Fill-37_1_" class="st1" d="M-233.2-113.7c0,9.8-8.2,18-18,18s-18-8.2-18-18s8.2-18,18-18
		C-241.3-131.7-233.2-123.5-233.2-113.7"/>
	<path id="Fill-39_1_" class="st1" d="M-130-138.9c0,7.9-6.5,14.4-14.4,14.4c-7.9,0-14.4-6.5-14.4-14.4s6.5-14.4,14.4-14.4
		C-136.5-153.3-130-146.8-130-138.9"/>
	<path id="Fill-41_1_" class="st1" d="M-106-32.1c0,4.6-3.8,8.4-8.4,8.4c-4.6,0-8.4-3.8-8.4-8.4s3.8-8.4,8.4-8.4
		C-109.9-40.5-106-36.7-106-32.1"/>
	<path id="Fill-43_1_" class="st1" d="M-197.2-168.9c0,8.6-7,15.6-15.6,15.6c-8.6,0-15.6-7-15.6-15.6s7-15.6,15.6-15.6
		C-204.1-184.4-197.2-177.5-197.2-168.9"/>
	<path id="Fill-45_1_" class="st1" d="M-166-195.2c0,4.6-3.8,8.4-8.4,8.4s-8.4-3.8-8.4-8.4s3.8-8.4,8.4-8.4S-166-199.8-166-195.2"/>
	<path id="Fill-47_1_" class="st1" d="M-82.1-164.1c0,4.6-3.8,8.4-8.4,8.4s-8.4-3.8-8.4-8.4s3.8-8.4,8.4-8.4S-82.1-168.6-82.1-164.1
		"/>
	<path id="Fill-49_1_" class="st1" d="M-182.8-36.9c0,8.6-7,15.6-15.6,15.6s-15.6-7-15.6-15.6s7-15.6,15.6-15.6
		S-182.8-45.6-182.8-36.9"/>
	<path id="Fill-51_1_" class="st1" d="M-60.5-140.1c0,4.6-4.3,8.4-9.6,8.4s-9.6-3.8-9.6-8.4c0-4.6,4.3-8.4,9.6-8.4
		S-60.5-144.6-60.5-140.1"/>
	<path id="Fill-53_1_" class="st1" d="M-142-258.8c0,6.7-11.3,12-25.2,12c-13.9,0-25.2-5.3-25.2-12c0-6.7,11.3-12,25.2-12
		C-153.3-270.8-142-265.5-142-258.8"/>
	<path id="Fill-55_1_" class="st1" d="M-154-262.4c0,1.9-7,3.6-15.6,3.6c-8.6,0-15.6-1.7-15.6-3.6c0-1.9,7-3.6,15.6-3.6
		C-161-266-154-264.3-154-262.4"/>
	<path id="Fill-57_1_" class="st1" d="M-142,45.8c0,6.7-11.3,12-25.2,12c-13.9,0-25.2-5.3-25.2-12s11.3-12,25.2-12
		C-153.3,33.8-142,39.1-142,45.8"/>
	<path id="Fill-59" class="st1" d="M-154,49.4c0,1.9-7,3.6-15.6,3.6c-8.6,0-15.6-1.7-15.6-3.6c0-1.9,7-3.6,15.6-3.6
		C-161,45.8-154,47.5-154,49.4"/>
	<path id="Fill-61" class="st1" d="M-63.6-223.5c-3.4,5-16.3,3.6-29.3-3.1c-13-7-20.6-16.8-17.3-21.8c3.4-5,16.3-3.6,29.3,3.1
		C-68.1-238.4-60.2-228.6-63.6-223.5"/>
	<path id="Fill-63" class="st1" d="M-75.3-229.3c-1.7,2.9-9.6,1.9-17.3-2.6c-7.7-4.3-12.5-10.3-10.8-13.4c1.7-2.9,9.6-1.9,17.3,2.6
		C-78.2-238.2-73.4-232.2-75.3-229.3"/>
	<path id="Fill-65" class="st1" d="M-221.9,37.9c-3.4,5-16.3,3.6-29.3-3.1c-13-7-20.6-16.8-17.3-21.8c3.4-5,16.3-3.6,29.3,3.1
		C-226.4,23-218.5,32.8-221.9,37.9"/>
	<path id="Fill-67" class="st1" d="M-228.8,32.1c-1.7,2.9-9.6,1.9-17.3-2.6c-7.7-4.3-12.5-10.3-10.8-13.4c1.7-2.9,9.6-1.9,17.3,2.6
		C-231.7,23.3-226.9,29.3-228.8,32.1"/>
	<path id="Fill-69" class="st1" d="M-20.7-161.2c-5.3,3.1-15.1-4.8-21.8-17.5c-6.7-13-7.9-25.9-2.6-29c5.3-3.1,15.1,4.8,21.8,17.5
		C-16.6-177.3-15.4-164.3-20.7-161.2"/>
	<path id="Fill-71" class="st1" d="M-26.2-163.1c-3.1,1.7-9.1-3.1-13.4-11c-4.3-7.7-5.3-15.3-2.4-17.3c3.1-1.7,9.1,3.1,13.4,11
		C-24.3-172.7-23.3-165-26.2-163.1"/>
	<path id="Fill-73" class="st1" d="M-286.9-5.3c-5.3,3.1-15.1-4.8-21.8-17.5c-6.7-13-7.9-25.9-2.6-29c5.3-3.1,15.1,4.8,21.8,17.5
		C-282.8-21.4-281.6-8.4-286.9-5.3"/>
	<path id="Fill-75" class="st1" d="M-290-16.8c-3.1,1.7-9.1-3.1-13.4-11c-4.3-7.7-5.3-15.3-2.4-17.3c3.1-1.7,9.1,3.1,13.4,11
		C-288.1-26.4-287.1-18.7-290-16.8"/>
	<path id="Fill-77" class="st1" d="M-13-76.5c-6.7,0-11.8-11.5-11.5-25.4c0.2-13.9,6-25.2,12.5-24.9c6.7,0.2,11.8,11.5,11.5,25.4
		C-0.7-87.6-6.5-76.3-13-76.5"/>
	<path id="Fill-79" class="st1" d="M-16.3-86.1c-1.9,0-3.6-7.2-3.4-15.8c0-8.6,1.7-15.6,3.8-15.3c1.9,0,3.6,7.2,3.4,15.8
		C-12.5-93.1-14.2-86.1-16.3-86.1"/>
	<g id="Group-83" transform="translate(0.000000, 57.000000)">
		<g id="Clip-82">
		</g>
		<path id="Fill-81" class="st1" d="M-320-138.3c-6.7-0.2-11.8-12-11.5-26.6s6-26.1,12.5-26.1s11.8,12,11.5,26.6
			C-307.7-150.1-313.5-138.3-320-138.3"/>
	</g>
	<path id="Fill-84" class="st1" d="M-320.9-95.7c-1.9,0-3.4-7.2-3.4-15.8c0-8.4,1.7-15.3,3.8-15.3c1.9,0,3.4,7.2,3.4,15.8
		C-317.1-102.7-318.8-95.7-320.9-95.7"/>
	<path id="Fill-86" class="st1" d="M-47.8-5.3c-5.3-3.1-3.8-16.3,2.9-29c7-13,16.5-20.6,21.8-17.5c5.3,3.1,3.8,16.3-2.9,29
		C-32.6-9.8-42.5-2.2-47.8-5.3"/>
	<path id="Fill-88" class="st1" d="M-42-16.8c-3.1-1.7-1.9-9.4,2.4-17.3c4.3-7.7,10.3-12.7,13.4-10.8c3.1,1.7,1.9,9.4-2.4,17.3
		C-32.9-19.9-38.9-15.1-42-16.8"/>
	<path id="Fill-90" class="st1" d="M-311.6-161.2c-5.3-3.1-3.8-16.3,2.9-29c7-13,16.5-20.6,21.8-17.5s3.8,16.3-2.9,29
		C-296.5-165.7-306.3-158.1-311.6-161.2"/>
	<path id="Fill-92" class="st1" d="M-305.8-167.9c-3.1-1.7-1.9-9.4,2.4-17.3c4.3-7.9,10.3-12.7,13.4-10.8c3.1,1.7,1.9,9.4-2.4,17.3
		C-296.7-171-302.7-166.2-305.8-167.9"/>
	<path id="Fill-94" class="st1" d="M-110.1,37.9c-3.4-5,4.6-14.9,17.3-21.8c12.7-7,25.9-8.4,29.3-3.4c3.4,5-4.6,14.9-17.3,21.8
		C-93.8,41.7-106.8,43.2-110.1,37.9"/>
	<path id="Fill-96" class="st1" d="M-103.2,32.1c-1.9-2.9,3.1-8.9,10.8-13.4c7.7-4.3,15.6-5.5,17.3-2.6c1.9,2.9-3.1,8.9-10.8,13.4
		C-93.8,34-101.5,35.2-103.2,32.1"/>
	<path id="Fill-98" class="st1" d="M-268.4-223.5c-3.4-5,4.6-14.9,17.3-21.8c12.7-7,25.9-8.4,29.3-3.4c3.4,5-4.6,14.9-17.3,21.8
		C-252.1-219.7-265.1-218.3-268.4-223.5"/>
	<path id="Fill-100" class="st1" d="M-256.7-229.3c-1.9-2.9,3.1-8.9,10.8-13.4c7.7-4.3,15.6-5.5,17.3-2.6c1.9,2.9-3.1,8.9-10.8,13.2
		C-247.3-227.4-255-226.2-256.7-229.3"/>
</g>
<title>Group 103 Copy 2</title>
<desc>Created with Sketch.</desc>
</svg>
