<?xml version="1.0" encoding="utf-8"?>
<!-- Generator: Adobe Illustrator 22.1.0, SVG Export Plug-In . SVG Version: 6.00 Build 0)  -->
<svg version="1.1" id="Layer_1" xmlns="http://www.w3.org/2000/svg" xmlns:xlink="http://www.w3.org/1999/xlink" x="0px" y="0px"
	 viewBox="0 0 247 313.2" style="enable-background:new 0 0 247 313.2;" xml:space="preserve">
<style type="text/css">
	.st0{fill:none;stroke:#FFFFFF;stroke-width:10;stroke-miterlimit:10;}
	.st1{opacity:0.2;fill:none;stroke:#38BBFC;stroke-width:10;stroke-miterlimit:10;enable-background:new    ;}
	.st2{fill:#FFFFFF;}
	.st3{opacity:5.000000e-02;fill:#38BBFC;enable-background:new    ;}
	.st4{opacity:0.2;fill:#38BBFC;enable-background:new    ;}
</style>
<g>
	<path class="st0" d="M182.3,21.1c0,0,4.3-13,14.3-10.7s16.7,17.7,28.3,9s13.7-5.8,13.7-5.8l5.5,2.3"/>
	<path class="st0" d="M86.3,22c0,0-9.7-18.5-21.7-11.9s-16,19.9-25,16.9s-14,9.3-14,9.3"/>
	<path class="st1" d="M182.3,21.1c0,0,4.3-13,14.3-10.7s16.7,17.7,28.3,9s13.7-5.8,13.7-5.8l5.5,2.3"/>
	<path class="st1" d="M86.3,22c0,0-9.7-18.5-21.7-11.9s-16,19.9-25,16.9s-14,9.3-14,9.3"/>
	<g>
		<path class="st0" d="M185.2,156.4c0,0,22-8.8,29,5.4c7,14.3,2.8,33.2,17.9,34.7s7.4,24.8,7.4,24.8"/>
		<path class="st0" d="M4,226.1c0,0,15.3-40.2,26.6-32c11.3,8.2,21.8-7.4,23.5-11.1c1.7-3.8,10.6-21.3,20.3-27.1"/>
		<path class="st1" d="M185.2,156.4c0,0,22-8.8,29,5.4c7,14.3,2.8,33.2,17.9,34.7s7.4,24.8,7.4,24.8"/>
		<path class="st1" d="M4,226.1c0,0,15.3-40.2,26.6-32c11.3,8.2,21.8-7.4,23.5-11.1c1.7-3.8,10.6-21.3,20.3-27.1"/>
		<g>
			<path class="st2" d="M212.1,297.7c-2.8,1.8-7.9,3.4-14.5,4.7c-28.7,5.8-84.6,7.6-84.6,7.6s-29.3-1.7-48.3-7.6
				c-4.3-1.3-8.1-2.9-10.9-4.7c0,0,10.6-103.7,14.9-124.4c0.2-0.8,0.3-1.7,0.5-2.6c0.1-0.3,0.1-0.6,0.2-0.9c0.4-1.9,0.8-3.9,1.1-6
				c0-0.1,0-0.2,0-0.3c0.2-0.9,0.3-1.8,0.5-2.8c0-0.1,0-0.2,0-0.2c0.1-0.4,0.1-0.8,0.2-1.1c0.1-0.8,0.3-1.5,0.4-2.3l0.6-3.6
				c1.4-8.8,2.7-18.4,3.7-27.8c1-9.4,1.5-18.7,1.4-26.4c0-3.5-0.3-6.7-0.6-9.5l-0.5-3.8c0,0,0,0,0,0c-0.3-0.9-0.5-1.9-0.5-2.8V22.7
				c9.8-3.8,13.5-4.7,13.5-4.7l5.9-1.7l3.3-1c1.8,18.5,20.2,33.2,36.3,33.2c16.7,0,33.3-15.6,34.4-34.9l3.3,1.8l2.6,1.5
				c0,0,5.8,1.5,15.6,5.7v58l-1.4,9.2c-2,15.4,1.1,42.5,4.5,63.9c0.2,1.2,0.4,2.5,0.6,3.6c1,6.1,2,11.6,3,16.1
				C201.6,194,212.1,297.7,212.1,297.7z"/>
			<path class="st3" d="M212.1,297.7c-2.8,1.8-7.9,3.4-14.5,4.7c-28.7,5.8-84.6,7.6-84.6,7.6s-29.3-1.7-48.3-7.6
				c-4.3-1.3-8.1-2.9-10.9-4.7c0,0,10.6-103.7,14.9-124.4c0.2-0.8,0.3-1.7,0.5-2.6c0.1-0.3,0.1-0.6,0.2-0.9c0.4-1.9,0.8-3.9,1.1-6
				c0-0.1,0-0.2,0-0.3c0.2-0.9,0.3-1.8,0.5-2.8c0-0.1,0-0.2,0-0.2c0.1-0.4,0.1-0.8,0.2-1.1c0.1-0.8,0.3-1.5,0.4-2.3l0.6-3.6
				c1.4-8.8,2.7-18.4,3.7-27.8c1-9.4,1.5-18.7,1.4-26.4c0-3.5-0.3-6.7-0.6-9.5l-0.5-3.8c0,0,0,0,0,0c-0.3-0.9-0.5-1.9-0.5-2.8V22.7
				c9.8-3.8,13.5-4.7,13.5-4.7l5.9-1.7l3.3-1c1.8,18.5,20.2,33.2,36.3,33.2c16.7,0,33.3-15.6,34.4-34.9l3.3,1.8l2.6,1.5
				c0,0,5.8,1.5,15.6,5.7v58l-1.4,9.2c-2,15.4,1.1,42.5,4.5,63.9c0.2,1.2,0.4,2.5,0.6,3.6c1,6.1,2,11.6,3,16.1
				C201.6,194,212.1,297.7,212.1,297.7z"/>
			<path class="st4" d="M212.1,297.7c-2.8,1.8-7.9,3.4-14.5,4.7c-28.7,5.8-84.6,7.6-84.6,7.6s-29.3-1.7-48.3-7.6
				c-4.3-1.3-8.1-2.9-10.9-4.7c0,0,10.6-103.7,14.9-124.4c2.4-11.6,5.5-30.1,7.3-47.7c-1.6,43.6-0.5,107.4,17.6,130.9
				c28.5,36.9,37.6,39.5,67.7,35.9C191.3,288.7,212.1,297.7,212.1,297.7z"/>
		</g>
		<path class="st4" d="M172.5,15.4c-1.8,20.7-19.6,37.1-37.6,37.1c-17.8,0-37.5-16-39.6-36.3l3.3-1c1.8,18.5,20.2,33.2,36.3,33.2
			c16.7,0,33.3-15.6,34.4-34.9L172.5,15.4z"/>
	</g>
</g>
</svg>
